<svg width="26" height="26" viewBox="0 0 26 26" fill="none" xmlns="http://www.w3.org/2000/svg">
<rect width="26" height="26" rx="4" fill="#6858E0"/>
<path d="M10.6922 12.3662L10.698 12.3604C10.8221 12.2378 10.9548 12.1224 11.1034 12.0315C13.4129 10.6178 15.8493 14.0525 13.5542 15.7214C11.6703 17.0918 9.36941 14.9987 10.1945 13.0759C10.31 12.8076 10.4859 12.571 10.6922 12.3662Z" fill="#1CC6C9"/>
<path d="M16.5042 6.55363C16.5016 4.91526 18.1214 3.63622 19.718 4.09465C22.4626 4.88397 21.9782 8.95384 19.0071 9.03215C18.3177 9.05087 17.6912 8.77278 17.0696 9.3466C16.3052 10.0534 17.368 11.5133 17.5354 12.3788C18.1339 15.4828 15.9878 18.5493 12.8118 18.8671C12.4789 18.9002 11.5611 18.7914 11.3665 18.9853C11.0751 19.2781 11.7284 19.9554 11.7991 20.2685C12.1187 21.6788 10.6304 22.7123 9.45924 21.745L9.46022 21.747C8.87311 21.2623 8.85455 20.3575 9.31471 19.7675C9.52699 19.4949 10.3635 19.1124 10.3147 18.7821C10.2656 18.452 9.34111 18.041 9.03346 17.8202C7.02977 16.3878 6.3976 13.843 7.2112 11.5595C7.56027 10.5817 8.50612 9.58048 6.78346 9.3466C6.59608 9.32065 6.39018 9.36652 6.19557 9.33781C3.33849 8.90188 4.05968 5.15902 6.55495 5.48039C7.35967 5.58448 8.07533 6.35083 8.16335 7.14836C8.2282 7.74113 7.91434 8.36415 8.31081 8.8632C8.80989 9.48881 9.42024 8.83578 9.92506 8.61222C10.965 8.15082 12.0429 7.97328 13.1751 8.17375C14.3075 8.37455 16.386 9.7373 16.5852 7.67082C16.6256 7.25396 16.5056 6.92289 16.5042 6.55363ZM10.4329 19.9159C10.0202 19.9159 9.68584 20.2504 9.68581 20.663C9.68583 21.0757 10.0202 21.4101 10.4329 21.4101C10.8453 21.4098 11.1799 21.0755 11.1799 20.663C11.1799 20.2505 10.8453 19.9162 10.4329 19.9159ZM15.7268 14.704C16.6483 11.9606 14.3876 9.50615 11.5735 9.88664C10.134 10.0815 8.72308 11.5873 8.60768 13.0282C8.23858 17.6427 14.3925 18.681 15.7268 14.704ZM6.27467 6.44328C5.74665 6.44336 5.3188 6.87134 5.31862 7.39933C5.31865 7.92745 5.74655 8.35628 6.27467 8.35636C6.80265 8.35611 7.23168 7.92735 7.2317 7.39933C7.23152 6.87145 6.80256 6.44353 6.27467 6.44328ZM19.1243 5.18254C18.4176 5.18255 17.845 5.75519 17.845 6.46183C17.845 7.16848 18.4176 7.74112 19.1243 7.74113C19.831 7.74113 20.4036 7.16849 20.4036 6.46183C20.4036 5.75518 19.831 5.18254 19.1243 5.18254Z" fill="white"/>
<path d="M11.2129 11.303L11.2158 11.3002C11.298 11.2179 11.3875 11.1429 11.4856 11.0823C13.0219 10.1418 14.6404 12.4253 13.1156 13.5361C11.8635 14.4477 10.333 13.0557 10.8811 11.7762C10.9576 11.5988 11.0759 11.4401 11.2129 11.3045V11.303Z" fill="white"/>
</svg>
