<svg width="14" height="14" viewBox="0 0 14 14" fill="none" xmlns="http://www.w3.org/2000/svg">
<path d="M12.6053 7.91102L12.739 6.49042C12.844 5.37474 12.8965 4.81689 12.7057 4.58629C12.6024 4.46155 12.462 4.38511 12.3119 4.37193C12.0344 4.34756 11.6859 4.74427 10.989 5.53771C10.6285 5.94804 10.4483 6.1532 10.2473 6.18499C10.1359 6.20255 10.0224 6.18446 9.91949 6.13272C9.73387 6.03927 9.61009 5.78565 9.36252 5.27838L8.05772 2.60458C7.58995 1.64603 7.35603 1.16675 7.00008 1.16675C6.64413 1.16675 6.41021 1.64603 5.94244 2.60458L4.63762 5.27839C4.39007 5.78565 4.26629 6.03927 4.08065 6.13272C3.97778 6.18446 3.86428 6.20255 3.75288 6.18499C3.55183 6.1532 3.37161 5.94804 3.01117 5.53771C2.31421 4.74427 1.96573 4.34756 1.68824 4.37193C1.53813 4.38511 1.39774 4.46155 1.29449 4.58629C1.10363 4.81689 1.15613 5.37474 1.26114 6.49042L1.39483 7.91102C1.61513 10.2517 1.72528 11.422 2.41513 12.1277C3.10499 12.8334 4.13893 12.8334 6.20681 12.8334H7.79336C9.86121 12.8334 10.8952 12.8334 11.585 12.1277C12.2749 11.422 12.385 10.2517 12.6053 7.91102Z" fill="#1CC6C9"/>
</svg>
