<svg width="150" height="123" viewBox="0 0 150 123" fill="none" xmlns="http://www.w3.org/2000/svg">
<path d="M115.595 48.0909C114.798 47.5029 114.176 46.7132 113.795 45.8048C113.414 44.8965 113.287 43.9032 113.429 42.9297C115.285 31.3825 113.164 27.8396 111.572 26.265C109.981 24.6904 106.444 22.6346 94.7738 24.4717C93.7905 24.6024 92.7897 24.4729 91.8734 24.0964C90.9571 23.7199 90.158 23.1099 89.5575 22.3285C81.8657 12.181 77.8429 11 75.5 11C73.1571 11 69.1343 12.181 61.4425 22.3285C60.842 23.1099 60.0429 23.7199 59.1266 24.0964C58.2103 24.4729 57.2095 24.6024 56.2262 24.4717C44.5558 22.6346 41.0193 24.7341 39.4279 26.265C37.8365 27.7959 35.7146 31.3825 37.5712 42.9297C37.7128 43.9032 37.5862 44.8965 37.205 45.8048C36.8238 46.7132 36.202 47.5029 35.4052 48.0909C25.1494 55.7015 24 59.6818 24 62C24 64.3182 25.1494 68.2985 35.4052 75.9091C36.202 76.4971 36.8238 77.2868 37.205 78.1952C37.5862 79.1035 37.7128 80.0968 37.5712 81.0703C35.8914 92.705 37.8365 96.1604 39.4279 97.735C41.0193 99.3096 44.4674 101.19 56.2262 99.5283C57.2101 99.3883 58.214 99.5135 59.132 99.8907C60.05 100.268 60.8482 100.883 61.4425 101.672C69.1343 111.819 73.1571 113 75.5 113C77.8429 113 81.8657 111.819 89.5575 101.672C90.1518 100.883 90.95 100.268 91.868 99.8907C92.786 99.5135 93.7899 99.3883 94.7738 99.5283C106.577 101.19 109.981 99.2659 111.572 97.735C113.164 96.2041 115.109 92.705 113.429 81.0703C113.287 80.0968 113.414 79.1035 113.795 78.1952C114.176 77.2868 114.798 76.4971 115.595 75.9091C125.851 68.2985 127 64.3182 127 62C127 59.6818 125.851 55.7015 115.595 48.0909Z" fill="#6858E0"/>
<path d="M72.0015 73.9999C71.4758 74.003 70.9545 73.9022 70.4678 73.7033C69.9811 73.5044 69.5383 73.2114 69.165 72.8411L61.1749 64.8488C60.4226 64.0963 60 63.0757 60 62.0116C60 60.9474 60.4226 59.9268 61.1749 59.1743C61.9272 58.4218 62.9475 57.9991 64.0114 57.9991C65.0753 57.9991 66.0956 58.4218 66.8479 59.1743L72.0015 64.3693L85.1453 51.182C85.5167 50.8075 85.9585 50.5102 86.4454 50.3073C86.9322 50.1045 87.4544 50 87.9818 50C88.5092 50 89.0313 50.1045 89.5182 50.3073C90.005 50.5102 90.4469 50.8075 90.8183 51.182C91.1927 51.5535 91.4899 51.9955 91.6928 52.4825C91.8956 52.9694 92 53.4918 92 54.0193C92 54.5468 91.8956 55.0692 91.6928 55.5561C91.4899 56.0431 91.1927 56.4851 90.8183 56.8565L74.838 72.8411C74.4647 73.2114 74.022 73.5044 73.5353 73.7033C73.0485 73.9022 72.5273 74.003 72.0015 73.9999Z" fill="white"/>
</svg>
