<svg width="512" height="512" viewBox="0 0 512 512" fill="none" xmlns="http://www.w3.org/2000/svg">
<rect width="512" height="512" fill="white"/>
<rect x="35.5" y="234.5" width="431" height="237" rx="15.5" stroke="#E1E4EB"/>
<path d="M66.536 293.848V295.032H61.688V298.792H65.624V299.976H61.688V305H60.232V293.848H66.536ZM69.0465 294.808C68.7692 294.808 68.5345 294.712 68.3425 294.52C68.1505 294.328 68.0545 294.093 68.0545 293.816C68.0545 293.539 68.1505 293.304 68.3425 293.112C68.5345 292.92 68.7692 292.824 69.0465 292.824C69.3132 292.824 69.5372 292.92 69.7185 293.112C69.9105 293.304 70.0065 293.539 70.0065 293.816C70.0065 294.093 69.9105 294.328 69.7185 294.52C69.5372 294.712 69.3132 294.808 69.0465 294.808ZM69.7505 296.232V305H68.2945V296.232H69.7505ZM73.688 297.656C73.944 297.155 74.3067 296.765 74.776 296.488C75.256 296.211 75.8373 296.072 76.52 296.072V297.576H76.136C74.504 297.576 73.688 298.461 73.688 300.232V305H72.232V296.232H73.688V297.656ZM81.3048 305.144C80.6328 305.144 80.0301 305.032 79.4968 304.808C78.9634 304.573 78.5421 304.253 78.2328 303.848C77.9234 303.432 77.7528 302.957 77.7208 302.424H79.2248C79.2674 302.861 79.4701 303.219 79.8328 303.496C80.2061 303.773 80.6914 303.912 81.2888 303.912C81.8434 303.912 82.2808 303.789 82.6008 303.544C82.9208 303.299 83.0808 302.989 83.0808 302.616C83.0808 302.232 82.9101 301.949 82.5688 301.768C82.2274 301.576 81.6994 301.389 80.9848 301.208C80.3341 301.037 79.8008 300.867 79.3848 300.696C78.9794 300.515 78.6274 300.253 78.3288 299.912C78.0408 299.56 77.8968 299.101 77.8968 298.536C77.8968 298.088 78.0301 297.677 78.2968 297.304C78.5634 296.931 78.9421 296.637 79.4328 296.424C79.9234 296.2 80.4834 296.088 81.1128 296.088C82.0834 296.088 82.8674 296.333 83.4648 296.824C84.0621 297.315 84.3821 297.987 84.4248 298.84H82.9688C82.9368 298.381 82.7501 298.013 82.4088 297.736C82.0781 297.459 81.6301 297.32 81.0648 297.32C80.5421 297.32 80.1261 297.432 79.8168 297.656C79.5074 297.88 79.3528 298.173 79.3528 298.536C79.3528 298.824 79.4434 299.064 79.6248 299.256C79.8168 299.437 80.0514 299.587 80.3288 299.704C80.6168 299.811 81.0114 299.933 81.5128 300.072C82.1421 300.243 82.6541 300.413 83.0488 300.584C83.4434 300.744 83.7794 300.989 84.0568 301.32C84.3448 301.651 84.4941 302.083 84.5048 302.616C84.5048 303.096 84.3714 303.528 84.1048 303.912C83.8381 304.296 83.4594 304.6 82.9688 304.824C82.4888 305.037 81.9341 305.144 81.3048 305.144ZM88.3361 297.432V302.6C88.3361 303.027 88.4268 303.331 88.6081 303.512C88.7895 303.683 89.1041 303.768 89.5521 303.768H90.6241V305H89.3121C88.5015 305 87.8935 304.813 87.4881 304.44C87.0828 304.067 86.8801 303.453 86.8801 302.6V297.432H85.7441V296.232H86.8801V294.024H88.3361V296.232H90.6241V297.432H88.3361ZM100.926 296.072C101.993 296.072 102.857 296.397 103.518 297.048C104.179 297.688 104.51 298.616 104.51 299.832V305H103.07V300.04C103.07 299.165 102.851 298.499 102.414 298.04C101.977 297.571 101.379 297.336 100.622 297.336C99.8539 297.336 99.2405 297.576 98.7819 298.056C98.3339 298.536 98.1099 299.235 98.1099 300.152V305H96.6539V296.232H98.1099V297.48C98.3979 297.032 98.7872 296.685 99.2779 296.44C99.7792 296.195 100.329 296.072 100.926 296.072ZM106.344 300.584C106.344 299.688 106.526 298.904 106.888 298.232C107.251 297.549 107.747 297.021 108.376 296.648C109.016 296.275 109.726 296.088 110.504 296.088C111.272 296.088 111.939 296.253 112.504 296.584C113.07 296.915 113.491 297.331 113.768 297.832V296.232H115.24V305H113.768V303.368C113.48 303.88 113.048 304.307 112.472 304.648C111.907 304.979 111.246 305.144 110.488 305.144C109.71 305.144 109.006 304.952 108.376 304.568C107.747 304.184 107.251 303.645 106.888 302.952C106.526 302.259 106.344 301.469 106.344 300.584ZM113.768 300.6C113.768 299.939 113.635 299.363 113.368 298.872C113.102 298.381 112.739 298.008 112.28 297.752C111.832 297.485 111.336 297.352 110.792 297.352C110.248 297.352 109.752 297.48 109.304 297.736C108.856 297.992 108.499 298.365 108.232 298.856C107.966 299.347 107.832 299.923 107.832 300.584C107.832 301.256 107.966 301.843 108.232 302.344C108.499 302.835 108.856 303.213 109.304 303.48C109.752 303.736 110.248 303.864 110.792 303.864C111.336 303.864 111.832 303.736 112.28 303.48C112.739 303.213 113.102 302.835 113.368 302.344C113.635 301.843 113.768 301.261 113.768 300.6ZM128.245 296.072C128.927 296.072 129.535 296.216 130.069 296.504C130.602 296.781 131.023 297.203 131.333 297.768C131.642 298.333 131.797 299.021 131.797 299.832V305H130.357V300.04C130.357 299.165 130.138 298.499 129.701 298.04C129.274 297.571 128.693 297.336 127.957 297.336C127.199 297.336 126.597 297.581 126.149 298.072C125.701 298.552 125.477 299.251 125.477 300.168V305H124.037V300.04C124.037 299.165 123.818 298.499 123.381 298.04C122.954 297.571 122.373 297.336 121.637 297.336C120.879 297.336 120.277 297.581 119.829 298.072C119.381 298.552 119.157 299.251 119.157 300.168V305H117.701V296.232H119.157V297.496C119.445 297.037 119.829 296.685 120.309 296.44C120.799 296.195 121.338 296.072 121.925 296.072C122.661 296.072 123.311 296.237 123.877 296.568C124.442 296.899 124.863 297.384 125.141 298.024C125.386 297.405 125.791 296.925 126.357 296.584C126.922 296.243 127.551 296.072 128.245 296.072ZM142.185 300.28C142.185 300.557 142.169 300.851 142.137 301.16H135.129C135.182 302.024 135.476 302.701 136.009 303.192C136.553 303.672 137.209 303.912 137.977 303.912C138.606 303.912 139.129 303.768 139.545 303.48C139.972 303.181 140.27 302.787 140.441 302.296H142.009C141.774 303.139 141.305 303.827 140.601 304.36C139.897 304.883 139.022 305.144 137.977 305.144C137.145 305.144 136.398 304.957 135.737 304.584C135.086 304.211 134.574 303.683 134.201 303C133.828 302.307 133.641 301.507 133.641 300.6C133.641 299.693 133.822 298.899 134.185 298.216C134.548 297.533 135.054 297.011 135.705 296.648C136.366 296.275 137.124 296.088 137.977 296.088C138.809 296.088 139.545 296.269 140.185 296.632C140.825 296.995 141.316 297.496 141.657 298.136C142.009 298.765 142.185 299.48 142.185 300.28ZM140.681 299.976C140.681 299.421 140.558 298.947 140.313 298.552C140.068 298.147 139.732 297.843 139.305 297.64C138.889 297.427 138.425 297.32 137.913 297.32C137.177 297.32 136.548 297.555 136.025 298.024C135.513 298.493 135.22 299.144 135.145 299.976H140.681ZM144.571 305.096C144.294 305.096 144.059 305 143.867 304.808C143.675 304.616 143.579 304.381 143.579 304.104C143.579 303.827 143.675 303.592 143.867 303.4C144.059 303.208 144.294 303.112 144.571 303.112C144.838 303.112 145.062 303.208 145.243 303.4C145.435 303.592 145.531 303.827 145.531 304.104C145.531 304.381 145.435 304.616 145.243 304.808C145.062 305 144.838 305.096 144.571 305.096ZM144.571 298.248C144.294 298.248 144.059 298.152 143.867 297.96C143.675 297.768 143.579 297.533 143.579 297.256C143.579 296.979 143.675 296.744 143.867 296.552C144.059 296.36 144.294 296.264 144.571 296.264C144.838 296.264 145.062 296.36 145.243 296.552C145.435 296.744 145.531 296.979 145.531 297.256C145.531 297.533 145.435 297.768 145.243 297.96C145.062 298.152 144.838 298.248 144.571 298.248Z" fill="#6E7E9E"/>
<path d="M195.768 305.112C195.032 305.112 194.371 304.984 193.784 304.728C193.208 304.461 192.755 304.099 192.424 303.64C192.093 303.171 191.923 302.632 191.912 302.024H193.464C193.517 302.547 193.731 302.989 194.104 303.352C194.488 303.704 195.043 303.88 195.768 303.88C196.461 303.88 197.005 303.709 197.4 303.368C197.805 303.016 198.008 302.568 198.008 302.024C198.008 301.597 197.891 301.251 197.656 300.984C197.421 300.717 197.128 300.515 196.776 300.376C196.424 300.237 195.949 300.088 195.352 299.928C194.616 299.736 194.024 299.544 193.576 299.352C193.139 299.16 192.76 298.861 192.44 298.456C192.131 298.04 191.976 297.485 191.976 296.792C191.976 296.184 192.131 295.645 192.44 295.176C192.749 294.707 193.181 294.344 193.736 294.088C194.301 293.832 194.947 293.704 195.672 293.704C196.717 293.704 197.571 293.965 198.232 294.488C198.904 295.011 199.283 295.704 199.368 296.568H197.768C197.715 296.141 197.491 295.768 197.096 295.448C196.701 295.117 196.179 294.952 195.528 294.952C194.92 294.952 194.424 295.112 194.04 295.432C193.656 295.741 193.464 296.179 193.464 296.744C193.464 297.149 193.576 297.48 193.8 297.736C194.035 297.992 194.317 298.189 194.648 298.328C194.989 298.456 195.464 298.605 196.072 298.776C196.808 298.979 197.4 299.181 197.848 299.384C198.296 299.576 198.68 299.88 199 300.296C199.32 300.701 199.48 301.256 199.48 301.96C199.48 302.504 199.336 303.016 199.048 303.496C198.76 303.976 198.333 304.365 197.768 304.664C197.203 304.963 196.536 305.112 195.768 305.112ZM209.623 300.28C209.623 300.557 209.607 300.851 209.575 301.16H202.567C202.62 302.024 202.913 302.701 203.447 303.192C203.991 303.672 204.647 303.912 205.415 303.912C206.044 303.912 206.567 303.768 206.983 303.48C207.409 303.181 207.708 302.787 207.879 302.296H209.447C209.212 303.139 208.743 303.827 208.039 304.36C207.335 304.883 206.46 305.144 205.415 305.144C204.583 305.144 203.836 304.957 203.175 304.584C202.524 304.211 202.012 303.683 201.639 303C201.265 302.307 201.079 301.507 201.079 300.6C201.079 299.693 201.26 298.899 201.623 298.216C201.985 297.533 202.492 297.011 203.143 296.648C203.804 296.275 204.561 296.088 205.415 296.088C206.247 296.088 206.983 296.269 207.623 296.632C208.263 296.995 208.753 297.496 209.095 298.136C209.447 298.765 209.623 299.48 209.623 300.28ZM208.119 299.976C208.119 299.421 207.996 298.947 207.751 298.552C207.505 298.147 207.169 297.843 206.743 297.64C206.327 297.427 205.863 297.32 205.351 297.32C204.615 297.32 203.985 297.555 203.463 298.024C202.951 298.493 202.657 299.144 202.583 299.976H208.119ZM213.001 297.864C213.299 297.341 213.737 296.915 214.312 296.584C214.889 296.253 215.545 296.088 216.281 296.088C217.07 296.088 217.779 296.275 218.409 296.648C219.038 297.021 219.534 297.549 219.897 298.232C220.259 298.904 220.441 299.688 220.441 300.584C220.441 301.469 220.259 302.259 219.897 302.952C219.534 303.645 219.032 304.184 218.392 304.568C217.763 304.952 217.059 305.144 216.281 305.144C215.523 305.144 214.857 304.979 214.281 304.648C213.715 304.317 213.289 303.896 213.001 303.384V305H211.545V293.16H213.001V297.864ZM218.953 300.584C218.953 299.923 218.819 299.347 218.553 298.856C218.286 298.365 217.923 297.992 217.465 297.736C217.017 297.48 216.521 297.352 215.977 297.352C215.443 297.352 214.947 297.485 214.489 297.752C214.041 298.008 213.678 298.387 213.401 298.888C213.134 299.379 213.001 299.949 213.001 300.6C213.001 301.261 213.134 301.843 213.401 302.344C213.678 302.835 214.041 303.213 214.489 303.48C214.947 303.736 215.443 303.864 215.977 303.864C216.521 303.864 217.017 303.736 217.465 303.48C217.923 303.213 218.286 302.835 218.553 302.344C218.819 301.843 218.953 301.256 218.953 300.584ZM221.813 300.584C221.813 299.688 221.994 298.904 222.357 298.232C222.72 297.549 223.216 297.021 223.845 296.648C224.485 296.275 225.194 296.088 225.973 296.088C226.741 296.088 227.408 296.253 227.973 296.584C228.538 296.915 228.96 297.331 229.237 297.832V296.232H230.709V305H229.237V303.368C228.949 303.88 228.517 304.307 227.941 304.648C227.376 304.979 226.714 305.144 225.957 305.144C225.178 305.144 224.474 304.952 223.845 304.568C223.216 304.184 222.72 303.645 222.357 302.952C221.994 302.259 221.813 301.469 221.813 300.584ZM229.237 300.6C229.237 299.939 229.104 299.363 228.837 298.872C228.57 298.381 228.208 298.008 227.749 297.752C227.301 297.485 226.805 297.352 226.261 297.352C225.717 297.352 225.221 297.48 224.773 297.736C224.325 297.992 223.968 298.365 223.701 298.856C223.434 299.347 223.301 299.923 223.301 300.584C223.301 301.256 223.434 301.843 223.701 302.344C223.968 302.835 224.325 303.213 224.773 303.48C225.221 303.736 225.717 303.864 226.261 303.864C226.805 303.864 227.301 303.736 227.749 303.48C228.208 303.213 228.57 302.835 228.837 302.344C229.104 301.843 229.237 301.261 229.237 300.6ZM236.274 305.144C235.602 305.144 234.999 305.032 234.466 304.808C233.932 304.573 233.511 304.253 233.202 303.848C232.892 303.432 232.722 302.957 232.69 302.424H234.194C234.236 302.861 234.439 303.219 234.802 303.496C235.175 303.773 235.66 303.912 236.258 303.912C236.812 303.912 237.25 303.789 237.57 303.544C237.89 303.299 238.05 302.989 238.05 302.616C238.05 302.232 237.879 301.949 237.538 301.768C237.196 301.576 236.668 301.389 235.954 301.208C235.303 301.037 234.77 300.867 234.354 300.696C233.948 300.515 233.596 300.253 233.298 299.912C233.01 299.56 232.866 299.101 232.866 298.536C232.866 298.088 232.999 297.677 233.266 297.304C233.532 296.931 233.911 296.637 234.402 296.424C234.892 296.2 235.452 296.088 236.082 296.088C237.052 296.088 237.836 296.333 238.434 296.824C239.031 297.315 239.351 297.987 239.394 298.84H237.938C237.906 298.381 237.719 298.013 237.378 297.736C237.047 297.459 236.599 297.32 236.034 297.32C235.511 297.32 235.095 297.432 234.786 297.656C234.476 297.88 234.322 298.173 234.322 298.536C234.322 298.824 234.412 299.064 234.594 299.256C234.786 299.437 235.02 299.587 235.298 299.704C235.586 299.811 235.98 299.933 236.482 300.072C237.111 300.243 237.623 300.413 238.018 300.584C238.412 300.744 238.748 300.989 239.026 301.32C239.314 301.651 239.463 302.083 239.474 302.616C239.474 303.096 239.34 303.528 239.074 303.912C238.807 304.296 238.428 304.6 237.938 304.824C237.458 305.037 236.903 305.144 236.274 305.144ZM243.305 297.432V302.6C243.305 303.027 243.396 303.331 243.577 303.512C243.758 303.683 244.073 303.768 244.521 303.768H245.593V305H244.281C243.47 305 242.862 304.813 242.457 304.44C242.052 304.067 241.849 303.453 241.849 302.6V297.432H240.713V296.232H241.849V294.024H243.305V296.232H245.593V297.432H243.305ZM248.109 294.808C247.832 294.808 247.597 294.712 247.405 294.52C247.213 294.328 247.117 294.093 247.117 293.816C247.117 293.539 247.213 293.304 247.405 293.112C247.597 292.92 247.832 292.824 248.109 292.824C248.376 292.824 248.6 292.92 248.781 293.112C248.973 293.304 249.069 293.539 249.069 293.816C249.069 294.093 248.973 294.328 248.781 294.52C248.6 294.712 248.376 294.808 248.109 294.808ZM248.813 296.232V305H247.357V296.232H248.813ZM250.751 300.584C250.751 299.688 250.932 298.904 251.295 298.232C251.657 297.549 252.153 297.021 252.783 296.648C253.423 296.275 254.132 296.088 254.911 296.088C255.679 296.088 256.345 296.253 256.911 296.584C257.476 296.915 257.897 297.331 258.175 297.832V296.232H259.647V305H258.175V303.368C257.887 303.88 257.455 304.307 256.879 304.648C256.313 304.979 255.652 305.144 254.895 305.144C254.116 305.144 253.412 304.952 252.783 304.568C252.153 304.184 251.657 303.645 251.295 302.952C250.932 302.259 250.751 301.469 250.751 300.584ZM258.175 300.6C258.175 299.939 258.041 299.363 257.775 298.872C257.508 298.381 257.145 298.008 256.687 297.752C256.239 297.485 255.743 297.352 255.199 297.352C254.655 297.352 254.159 297.48 253.711 297.736C253.263 297.992 252.905 298.365 252.639 298.856C252.372 299.347 252.239 299.923 252.239 300.584C252.239 301.256 252.372 301.843 252.639 302.344C252.905 302.835 253.263 303.213 253.711 303.48C254.159 303.736 254.655 303.864 255.199 303.864C255.743 303.864 256.239 303.736 256.687 303.48C257.145 303.213 257.508 302.835 257.775 302.344C258.041 301.843 258.175 301.261 258.175 300.6ZM266.379 296.072C267.446 296.072 268.31 296.397 268.971 297.048C269.632 297.688 269.963 298.616 269.963 299.832V305H268.523V300.04C268.523 299.165 268.304 298.499 267.867 298.04C267.43 297.571 266.832 297.336 266.075 297.336C265.307 297.336 264.694 297.576 264.235 298.056C263.787 298.536 263.563 299.235 263.563 300.152V305H262.107V296.232H263.563V297.48C263.851 297.032 264.24 296.685 264.731 296.44C265.232 296.195 265.782 296.072 266.379 296.072Z" fill="#6E7E9E"/>
<line x1="35" y1="326.5" x2="467" y2="326.5" stroke="#E1E4EB"/>
<path d="M61.688 359.816H65.592V361H60.232V349.848H61.688V359.816ZM66.5943 356.584C66.5943 355.688 66.7756 354.904 67.1383 354.232C67.5009 353.549 67.9969 353.021 68.6263 352.648C69.2663 352.275 69.9756 352.088 70.7543 352.088C71.5223 352.088 72.1889 352.253 72.7543 352.584C73.3196 352.915 73.7409 353.331 74.0183 353.832V352.232H75.4903V361H74.0183V359.368C73.7303 359.88 73.2983 360.307 72.7223 360.648C72.1569 360.979 71.4956 361.144 70.7383 361.144C69.9596 361.144 69.2556 360.952 68.6263 360.568C67.9969 360.184 67.5009 359.645 67.1383 358.952C66.7756 358.259 66.5943 357.469 66.5943 356.584ZM74.0183 356.6C74.0183 355.939 73.8849 355.363 73.6183 354.872C73.3516 354.381 72.9889 354.008 72.5303 353.752C72.0823 353.485 71.5863 353.352 71.0423 353.352C70.4983 353.352 70.0023 353.48 69.5543 353.736C69.1063 353.992 68.7489 354.365 68.4823 354.856C68.2156 355.347 68.0823 355.923 68.0823 356.584C68.0823 357.256 68.2156 357.843 68.4823 358.344C68.7489 358.835 69.1063 359.213 69.5543 359.48C70.0023 359.736 70.4983 359.864 71.0423 359.864C71.5863 359.864 72.0823 359.736 72.5303 359.48C72.9889 359.213 73.3516 358.835 73.6183 358.344C73.8849 357.843 74.0183 357.261 74.0183 356.6ZM81.0548 361.144C80.3828 361.144 79.7801 361.032 79.2468 360.808C78.7134 360.573 78.2921 360.253 77.9828 359.848C77.6734 359.432 77.5028 358.957 77.4708 358.424H78.9748C79.0174 358.861 79.2201 359.219 79.5828 359.496C79.9561 359.773 80.4414 359.912 81.0388 359.912C81.5934 359.912 82.0308 359.789 82.3508 359.544C82.6708 359.299 82.8308 358.989 82.8308 358.616C82.8308 358.232 82.6601 357.949 82.3188 357.768C81.9774 357.576 81.4494 357.389 80.7348 357.208C80.0841 357.037 79.5508 356.867 79.1348 356.696C78.7294 356.515 78.3774 356.253 78.0788 355.912C77.7908 355.56 77.6468 355.101 77.6468 354.536C77.6468 354.088 77.7801 353.677 78.0468 353.304C78.3134 352.931 78.6921 352.637 79.1828 352.424C79.6734 352.2 80.2334 352.088 80.8628 352.088C81.8334 352.088 82.6174 352.333 83.2148 352.824C83.8121 353.315 84.1321 353.987 84.1748 354.84H82.7188C82.6868 354.381 82.5001 354.013 82.1588 353.736C81.8281 353.459 81.3801 353.32 80.8148 353.32C80.2921 353.32 79.8761 353.432 79.5668 353.656C79.2574 353.88 79.1028 354.173 79.1028 354.536C79.1028 354.824 79.1934 355.064 79.3748 355.256C79.5668 355.437 79.8014 355.587 80.0788 355.704C80.3668 355.811 80.7614 355.933 81.2628 356.072C81.8921 356.243 82.4041 356.413 82.7988 356.584C83.1934 356.744 83.5294 356.989 83.8068 357.32C84.0948 357.651 84.2441 358.083 84.2548 358.616C84.2548 359.096 84.1214 359.528 83.8548 359.912C83.5881 360.296 83.2094 360.6 82.7188 360.824C82.2388 361.037 81.6841 361.144 81.0548 361.144ZM88.0861 353.432V358.6C88.0861 359.027 88.1768 359.331 88.3581 359.512C88.5395 359.683 88.8541 359.768 89.3021 359.768H90.3741V361H89.0621C88.2515 361 87.6435 360.813 87.2381 360.44C86.8328 360.067 86.6301 359.453 86.6301 358.6V353.432H85.4941V352.232H86.6301V350.024H88.0861V352.232H90.3741V353.432H88.0861ZM100.676 352.072C101.743 352.072 102.607 352.397 103.268 353.048C103.929 353.688 104.26 354.616 104.26 355.832V361H102.82V356.04C102.82 355.165 102.601 354.499 102.164 354.04C101.727 353.571 101.129 353.336 100.372 353.336C99.6039 353.336 98.9905 353.576 98.5319 354.056C98.0839 354.536 97.8599 355.235 97.8599 356.152V361H96.4039V352.232H97.8599V353.48C98.1479 353.032 98.5372 352.685 99.0279 352.44C99.5292 352.195 100.079 352.072 100.676 352.072ZM106.094 356.584C106.094 355.688 106.276 354.904 106.638 354.232C107.001 353.549 107.497 353.021 108.126 352.648C108.766 352.275 109.476 352.088 110.254 352.088C111.022 352.088 111.689 352.253 112.254 352.584C112.82 352.915 113.241 353.331 113.518 353.832V352.232H114.99V361H113.518V359.368C113.23 359.88 112.798 360.307 112.222 360.648C111.657 360.979 110.996 361.144 110.238 361.144C109.46 361.144 108.756 360.952 108.126 360.568C107.497 360.184 107.001 359.645 106.638 358.952C106.276 358.259 106.094 357.469 106.094 356.584ZM113.518 356.6C113.518 355.939 113.385 355.363 113.118 354.872C112.852 354.381 112.489 354.008 112.03 353.752C111.582 353.485 111.086 353.352 110.542 353.352C109.998 353.352 109.502 353.48 109.054 353.736C108.606 353.992 108.249 354.365 107.982 354.856C107.716 355.347 107.582 355.923 107.582 356.584C107.582 357.256 107.716 357.843 107.982 358.344C108.249 358.835 108.606 359.213 109.054 359.48C109.502 359.736 109.998 359.864 110.542 359.864C111.086 359.864 111.582 359.736 112.03 359.48C112.489 359.213 112.852 358.835 113.118 358.344C113.385 357.843 113.518 357.261 113.518 356.6ZM127.995 352.072C128.677 352.072 129.285 352.216 129.819 352.504C130.352 352.781 130.773 353.203 131.083 353.768C131.392 354.333 131.547 355.021 131.547 355.832V361H130.107V356.04C130.107 355.165 129.888 354.499 129.451 354.04C129.024 353.571 128.443 353.336 127.707 353.336C126.949 353.336 126.347 353.581 125.899 354.072C125.451 354.552 125.227 355.251 125.227 356.168V361H123.787V356.04C123.787 355.165 123.568 354.499 123.131 354.04C122.704 353.571 122.123 353.336 121.387 353.336C120.629 353.336 120.027 353.581 119.579 354.072C119.131 354.552 118.907 355.251 118.907 356.168V361H117.451V352.232H118.907V353.496C119.195 353.037 119.579 352.685 120.059 352.44C120.549 352.195 121.088 352.072 121.675 352.072C122.411 352.072 123.061 352.237 123.627 352.568C124.192 352.899 124.613 353.384 124.891 354.024C125.136 353.405 125.541 352.925 126.107 352.584C126.672 352.243 127.301 352.072 127.995 352.072ZM141.935 356.28C141.935 356.557 141.919 356.851 141.887 357.16H134.879C134.932 358.024 135.226 358.701 135.759 359.192C136.303 359.672 136.959 359.912 137.727 359.912C138.356 359.912 138.879 359.768 139.295 359.48C139.722 359.181 140.02 358.787 140.191 358.296H141.759C141.524 359.139 141.055 359.827 140.351 360.36C139.647 360.883 138.772 361.144 137.727 361.144C136.895 361.144 136.148 360.957 135.487 360.584C134.836 360.211 134.324 359.683 133.951 359C133.578 358.307 133.391 357.507 133.391 356.6C133.391 355.693 133.572 354.899 133.935 354.216C134.298 353.533 134.804 353.011 135.455 352.648C136.116 352.275 136.874 352.088 137.727 352.088C138.559 352.088 139.295 352.269 139.935 352.632C140.575 352.995 141.066 353.496 141.407 354.136C141.759 354.765 141.935 355.48 141.935 356.28ZM140.431 355.976C140.431 355.421 140.308 354.947 140.063 354.552C139.818 354.147 139.482 353.843 139.055 353.64C138.639 353.427 138.175 353.32 137.663 353.32C136.927 353.32 136.298 353.555 135.775 354.024C135.263 354.493 134.97 355.144 134.895 355.976H140.431ZM144.321 361.096C144.044 361.096 143.809 361 143.617 360.808C143.425 360.616 143.329 360.381 143.329 360.104C143.329 359.827 143.425 359.592 143.617 359.4C143.809 359.208 144.044 359.112 144.321 359.112C144.588 359.112 144.812 359.208 144.993 359.4C145.185 359.592 145.281 359.827 145.281 360.104C145.281 360.381 145.185 360.616 144.993 360.808C144.812 361 144.588 361.096 144.321 361.096ZM144.321 354.248C144.044 354.248 143.809 354.152 143.617 353.96C143.425 353.768 143.329 353.533 143.329 353.256C143.329 352.979 143.425 352.744 143.617 352.552C143.809 352.36 144.044 352.264 144.321 352.264C144.588 352.264 144.812 352.36 144.993 352.552C145.185 352.744 145.281 352.979 145.281 353.256C145.281 353.533 145.185 353.768 144.993 353.96C144.812 354.152 144.588 354.248 144.321 354.248Z" fill="#6E7E9E"/>
<path d="M195.768 361.112C195.032 361.112 194.371 360.984 193.784 360.728C193.208 360.461 192.755 360.099 192.424 359.64C192.093 359.171 191.923 358.632 191.912 358.024H193.464C193.517 358.547 193.731 358.989 194.104 359.352C194.488 359.704 195.043 359.88 195.768 359.88C196.461 359.88 197.005 359.709 197.4 359.368C197.805 359.016 198.008 358.568 198.008 358.024C198.008 357.597 197.891 357.251 197.656 356.984C197.421 356.717 197.128 356.515 196.776 356.376C196.424 356.237 195.949 356.088 195.352 355.928C194.616 355.736 194.024 355.544 193.576 355.352C193.139 355.16 192.76 354.861 192.44 354.456C192.131 354.04 191.976 353.485 191.976 352.792C191.976 352.184 192.131 351.645 192.44 351.176C192.749 350.707 193.181 350.344 193.736 350.088C194.301 349.832 194.947 349.704 195.672 349.704C196.717 349.704 197.571 349.965 198.232 350.488C198.904 351.011 199.283 351.704 199.368 352.568H197.768C197.715 352.141 197.491 351.768 197.096 351.448C196.701 351.117 196.179 350.952 195.528 350.952C194.92 350.952 194.424 351.112 194.04 351.432C193.656 351.741 193.464 352.179 193.464 352.744C193.464 353.149 193.576 353.48 193.8 353.736C194.035 353.992 194.317 354.189 194.648 354.328C194.989 354.456 195.464 354.605 196.072 354.776C196.808 354.979 197.4 355.181 197.848 355.384C198.296 355.576 198.68 355.88 199 356.296C199.32 356.701 199.48 357.256 199.48 357.96C199.48 358.504 199.336 359.016 199.048 359.496C198.76 359.976 198.333 360.365 197.768 360.664C197.203 360.963 196.536 361.112 195.768 361.112ZM203.399 353.432V358.6C203.399 359.027 203.489 359.331 203.671 359.512C203.852 359.683 204.167 359.768 204.615 359.768H205.687V361H204.375C203.564 361 202.956 360.813 202.551 360.44C202.145 360.067 201.943 359.453 201.943 358.6V353.432H200.807V352.232H201.943V350.024H203.399V352.232H205.687V353.432H203.399ZM206.907 356.584C206.907 355.688 207.088 354.904 207.451 354.232C207.813 353.549 208.309 353.021 208.939 352.648C209.579 352.275 210.288 352.088 211.067 352.088C211.835 352.088 212.501 352.253 213.067 352.584C213.632 352.915 214.053 353.331 214.331 353.832V352.232H215.803V361H214.331V359.368C214.043 359.88 213.611 360.307 213.035 360.648C212.469 360.979 211.808 361.144 211.051 361.144C210.272 361.144 209.568 360.952 208.939 360.568C208.309 360.184 207.813 359.645 207.451 358.952C207.088 358.259 206.907 357.469 206.907 356.584ZM214.331 356.6C214.331 355.939 214.197 355.363 213.931 354.872C213.664 354.381 213.301 354.008 212.843 353.752C212.395 353.485 211.899 353.352 211.355 353.352C210.811 353.352 210.315 353.48 209.867 353.736C209.419 353.992 209.061 354.365 208.795 354.856C208.528 355.347 208.395 355.923 208.395 356.584C208.395 357.256 208.528 357.843 208.795 358.344C209.061 358.835 209.419 359.213 209.867 359.48C210.315 359.736 210.811 359.864 211.355 359.864C211.899 359.864 212.395 359.736 212.843 359.48C213.301 359.213 213.664 358.835 213.931 358.344C214.197 357.843 214.331 357.261 214.331 356.6ZM222.535 352.072C223.602 352.072 224.466 352.397 225.127 353.048C225.789 353.688 226.119 354.616 226.119 355.832V361H224.679V356.04C224.679 355.165 224.461 354.499 224.023 354.04C223.586 353.571 222.989 353.336 222.231 353.336C221.463 353.336 220.85 353.576 220.391 354.056C219.943 354.536 219.719 355.235 219.719 356.152V361H218.263V352.232H219.719V353.48C220.007 353.032 220.397 352.685 220.887 352.44C221.389 352.195 221.938 352.072 222.535 352.072Z" fill="#6E7E9E"/>
<line x1="35" y1="382.5" x2="467" y2="382.5" stroke="#E1E4EB"/>
<rect x="59" y="407" width="100" height="8" rx="4" fill="#E1E4EB"/>
<rect x="59" y="439" width="100" height="8" rx="4" fill="#E1E4EB"/>
<rect x="191" y="407" width="160" height="8" rx="4" fill="#E1E4EB"/>
<rect x="191" y="439" width="100" height="8" rx="4" fill="#E1E4EB"/>
<rect x="40" y="40" width="128" height="128" rx="64" fill="#C9CFDB"/>
<path d="M104 125.125C115.275 125.125 124.416 115.984 124.416 104.708C124.416 93.4325 115.275 84.2916 104 84.2916C92.7239 84.2916 83.583 93.4325 83.583 104.708C83.583 115.984 92.7239 125.125 104 125.125Z" fill="white"/>
<path d="M104 135.333C83.5428 135.333 66.8828 149.053 66.8828 165.958C66.8828 167.102 67.7811 168 68.9245 168H139.076C140.22 168 141.118 167.102 141.118 165.958C141.118 149.053 124.458 135.333 104 135.333Z" fill="white"/>
<path d="M208.68 68.196C207.317 68.196 206.085 67.9627 204.984 67.496C203.901 67.0293 203.043 66.3573 202.408 65.48C201.773 64.6027 201.447 63.5667 201.428 62.372H205.628C205.684 63.1747 205.964 63.8093 206.468 64.276C206.991 64.7427 207.7 64.976 208.596 64.976C209.511 64.976 210.229 64.7613 210.752 64.332C211.275 63.884 211.536 63.3053 211.536 62.596C211.536 62.0173 211.359 61.5413 211.004 61.168C210.649 60.7947 210.201 60.5053 209.66 60.3C209.137 60.076 208.409 59.8333 207.476 59.572C206.207 59.1987 205.171 58.8347 204.368 58.48C203.584 58.1067 202.903 57.556 202.324 56.828C201.764 56.0813 201.484 55.092 201.484 53.86C201.484 52.7027 201.773 51.6947 202.352 50.836C202.931 49.9773 203.743 49.324 204.788 48.876C205.833 48.4093 207.028 48.176 208.372 48.176C210.388 48.176 212.021 48.6707 213.272 49.66C214.541 50.6307 215.241 51.9933 215.372 53.748H211.06C211.023 53.076 210.733 52.5253 210.192 52.096C209.669 51.648 208.969 51.424 208.092 51.424C207.327 51.424 206.711 51.62 206.244 52.012C205.796 52.404 205.572 52.9733 205.572 53.72C205.572 54.2427 205.74 54.6813 206.076 55.036C206.431 55.372 206.86 55.652 207.364 55.876C207.887 56.0813 208.615 56.324 209.548 56.604C210.817 56.9773 211.853 57.3507 212.656 57.724C213.459 58.0973 214.149 58.6573 214.728 59.404C215.307 60.1507 215.596 61.1307 215.596 62.344C215.596 63.3893 215.325 64.36 214.784 65.256C214.243 66.152 213.449 66.8707 212.404 67.412C211.359 67.9347 210.117 68.196 208.68 68.196ZM233.415 59.908C233.415 60.468 233.377 60.972 233.303 61.42H221.963C222.056 62.54 222.448 63.4173 223.139 64.052C223.829 64.6867 224.679 65.004 225.687 65.004C227.143 65.004 228.179 64.3787 228.795 63.128H233.023C232.575 64.6213 231.716 65.8533 230.447 66.824C229.177 67.776 227.619 68.252 225.771 68.252C224.277 68.252 222.933 67.9253 221.739 67.272C220.563 66.6 219.639 65.6573 218.967 64.444C218.313 63.2307 217.986 61.8307 217.986 60.244C217.986 58.6387 218.313 57.2293 218.967 56.016C219.62 54.8027 220.535 53.8693 221.711 53.216C222.887 52.5627 224.24 52.236 225.771 52.236C227.245 52.236 228.561 52.5533 229.719 53.188C230.895 53.8227 231.8 54.728 232.435 55.904C233.088 57.0613 233.415 58.396 233.415 59.908ZM229.355 58.788C229.336 57.78 228.972 56.9773 228.263 56.38C227.553 55.764 226.685 55.456 225.659 55.456C224.688 55.456 223.867 55.7547 223.195 56.352C222.541 56.9307 222.14 57.7427 221.991 58.788H229.355ZM240.196 54.756C240.7 54.0093 241.39 53.4027 242.268 52.936C243.164 52.4693 244.181 52.236 245.32 52.236C246.645 52.236 247.84 52.5627 248.904 53.216C249.986 53.8693 250.836 54.8027 251.452 56.016C252.086 57.2107 252.404 58.6013 252.404 60.188C252.404 61.7747 252.086 63.184 251.452 64.416C250.836 65.6293 249.986 66.572 248.904 67.244C247.84 67.916 246.645 68.252 245.32 68.252C244.162 68.252 243.145 68.028 242.268 67.58C241.409 67.1133 240.718 66.516 240.196 65.788V68H236.276V47.28H240.196V54.756ZM248.4 60.188C248.4 59.2547 248.204 58.452 247.812 57.78C247.438 57.0893 246.934 56.5667 246.3 56.212C245.684 55.8573 245.012 55.68 244.284 55.68C243.574 55.68 242.902 55.8667 242.268 56.24C241.652 56.5947 241.148 57.1173 240.756 57.808C240.382 58.4987 240.196 59.3107 240.196 60.244C240.196 61.1773 240.382 61.9893 240.756 62.68C241.148 63.3707 241.652 63.9027 242.268 64.276C242.902 64.6307 243.574 64.808 244.284 64.808C245.012 64.808 245.684 64.6213 246.3 64.248C246.934 63.8747 247.438 63.3427 247.812 62.652C248.204 61.9613 248.4 61.14 248.4 60.188ZM254.244 60.188C254.244 58.62 254.552 57.2293 255.168 56.016C255.803 54.8027 256.652 53.8693 257.716 53.216C258.799 52.5627 260.003 52.236 261.328 52.236C262.486 52.236 263.494 52.4693 264.352 52.936C265.23 53.4027 265.93 53.9907 266.452 54.7V52.488H270.4V68H266.452V65.732C265.948 66.46 265.248 67.0667 264.352 67.552C263.475 68.0187 262.458 68.252 261.3 68.252C259.994 68.252 258.799 67.916 257.716 67.244C256.652 66.572 255.803 65.6293 255.168 64.416C254.552 63.184 254.244 61.7747 254.244 60.188ZM266.452 60.244C266.452 59.292 266.266 58.48 265.892 57.808C265.519 57.1173 265.015 56.5947 264.38 56.24C263.746 55.8667 263.064 55.68 262.336 55.68C261.608 55.68 260.936 55.8573 260.32 56.212C259.704 56.5667 259.2 57.0893 258.808 57.78C258.435 58.452 258.248 59.2547 258.248 60.188C258.248 61.1213 258.435 61.9427 258.808 62.652C259.2 63.3427 259.704 63.8747 260.32 64.248C260.955 64.6213 261.627 64.808 262.336 64.808C263.064 64.808 263.746 64.6307 264.38 64.276C265.015 63.9027 265.519 63.38 265.892 62.708C266.266 62.0173 266.452 61.196 266.452 60.244ZM280.165 68.252C278.896 68.252 277.757 68.028 276.749 67.58C275.741 67.1133 274.938 66.488 274.341 65.704C273.762 64.92 273.445 64.052 273.389 63.1H277.337C277.412 63.6973 277.701 64.192 278.205 64.584C278.728 64.976 279.372 65.172 280.137 65.172C280.884 65.172 281.462 65.0227 281.873 64.724C282.302 64.4253 282.517 64.0427 282.517 63.576C282.517 63.072 282.256 62.6987 281.733 62.456C281.229 62.1947 280.417 61.9147 279.297 61.616C278.14 61.336 277.188 61.0467 276.441 60.748C275.713 60.4493 275.078 59.992 274.537 59.376C274.014 58.76 273.753 57.9293 273.753 56.884C273.753 56.0253 273.996 55.2413 274.481 54.532C274.985 53.8227 275.694 53.2627 276.609 52.852C277.542 52.4413 278.634 52.236 279.885 52.236C281.733 52.236 283.208 52.7027 284.309 53.636C285.41 54.5507 286.017 55.792 286.129 57.36H282.377C282.321 56.744 282.06 56.2587 281.593 55.904C281.145 55.5307 280.538 55.344 279.773 55.344C279.064 55.344 278.513 55.4747 278.121 55.736C277.748 55.9973 277.561 56.3613 277.561 56.828C277.561 57.3507 277.822 57.752 278.345 58.032C278.868 58.2933 279.68 58.564 280.781 58.844C281.901 59.124 282.825 59.4133 283.553 59.712C284.281 60.0107 284.906 60.4773 285.429 61.112C285.97 61.728 286.25 62.5493 286.269 63.576C286.269 64.472 286.017 65.2747 285.513 65.984C285.028 66.6933 284.318 67.2533 283.385 67.664C282.47 68.056 281.397 68.252 280.165 68.252ZM294.051 55.708V63.212C294.051 63.7347 294.172 64.1173 294.415 64.36C294.676 64.584 295.105 64.696 295.703 64.696H297.523V68H295.059C291.755 68 290.103 66.3947 290.103 63.184V55.708H288.255V52.488H290.103V48.652H294.051V52.488H297.523V55.708H294.051ZM302.33 50.64C301.639 50.64 301.061 50.4253 300.594 49.996C300.146 49.548 299.922 48.9973 299.922 48.344C299.922 47.6907 300.146 47.1493 300.594 46.72C301.061 46.272 301.639 46.048 302.33 46.048C303.021 46.048 303.59 46.272 304.038 46.72C304.505 47.1493 304.738 47.6907 304.738 48.344C304.738 48.9973 304.505 49.548 304.038 49.996C303.59 50.4253 303.021 50.64 302.33 50.64ZM304.262 52.488V68H300.342V52.488H304.262ZM307.127 60.188C307.127 58.62 307.435 57.2293 308.051 56.016C308.686 54.8027 309.535 53.8693 310.599 53.216C311.682 52.5627 312.886 52.236 314.211 52.236C315.368 52.236 316.376 52.4693 317.235 52.936C318.112 53.4027 318.812 53.9907 319.335 54.7V52.488H323.283V68H319.335V65.732C318.831 66.46 318.131 67.0667 317.235 67.552C316.358 68.0187 315.34 68.252 314.183 68.252C312.876 68.252 311.682 67.916 310.599 67.244C309.535 66.572 308.686 65.6293 308.051 64.416C307.435 63.184 307.127 61.7747 307.127 60.188ZM319.335 60.244C319.335 59.292 319.148 58.48 318.775 57.808C318.402 57.1173 317.898 56.5947 317.263 56.24C316.628 55.8667 315.947 55.68 315.219 55.68C314.491 55.68 313.819 55.8573 313.203 56.212C312.587 56.5667 312.083 57.0893 311.691 57.78C311.318 58.452 311.131 59.2547 311.131 60.188C311.131 61.1213 311.318 61.9427 311.691 62.652C312.083 63.3427 312.587 63.8747 313.203 64.248C313.838 64.6213 314.51 64.808 315.219 64.808C315.947 64.808 316.628 64.6307 317.263 64.276C317.898 63.9027 318.402 63.38 318.775 62.708C319.148 62.0173 319.335 61.196 319.335 60.244ZM335.708 52.264C337.556 52.264 339.049 52.852 340.188 54.028C341.326 55.1853 341.896 56.8093 341.896 58.9V68H337.976V59.432C337.976 58.2 337.668 57.2573 337.052 56.604C336.436 55.932 335.596 55.596 334.532 55.596C333.449 55.596 332.59 55.932 331.956 56.604C331.34 57.2573 331.032 58.2 331.032 59.432V68H327.112V52.488H331.032V54.42C331.554 53.748 332.217 53.2253 333.02 52.852C333.841 52.46 334.737 52.264 335.708 52.264ZM359.043 68.196C357.681 68.196 356.449 67.9627 355.347 67.496C354.265 67.0293 353.406 66.3573 352.771 65.48C352.137 64.6027 351.81 63.5667 351.791 62.372H355.991C356.047 63.1747 356.327 63.8093 356.831 64.276C357.354 64.7427 358.063 64.976 358.959 64.976C359.874 64.976 360.593 64.7613 361.115 64.332C361.638 63.884 361.899 63.3053 361.899 62.596C361.899 62.0173 361.722 61.5413 361.367 61.168C361.013 60.7947 360.565 60.5053 360.023 60.3C359.501 60.076 358.773 59.8333 357.839 59.572C356.57 59.1987 355.534 58.8347 354.731 58.48C353.947 58.1067 353.266 57.556 352.687 56.828C352.127 56.0813 351.847 55.092 351.847 53.86C351.847 52.7027 352.137 51.6947 352.715 50.836C353.294 49.9773 354.106 49.324 355.151 48.876C356.197 48.4093 357.391 48.176 358.735 48.176C360.751 48.176 362.385 48.6707 363.635 49.66C364.905 50.6307 365.605 51.9933 365.735 53.748H361.423C361.386 53.076 361.097 52.5253 360.555 52.096C360.033 51.648 359.333 51.424 358.455 51.424C357.69 51.424 357.074 51.62 356.607 52.012C356.159 52.404 355.935 52.9733 355.935 53.72C355.935 54.2427 356.103 54.6813 356.439 55.036C356.794 55.372 357.223 55.652 357.727 55.876C358.25 56.0813 358.978 56.324 359.911 56.604C361.181 56.9773 362.217 57.3507 363.019 57.724C363.822 58.0973 364.513 58.6573 365.091 59.404C365.67 60.1507 365.959 61.1307 365.959 62.344C365.959 63.3893 365.689 64.36 365.147 65.256C364.606 66.152 363.813 66.8707 362.767 67.412C361.722 67.9347 360.481 68.196 359.043 68.196ZM373.922 55.708V63.212C373.922 63.7347 374.043 64.1173 374.286 64.36C374.547 64.584 374.976 64.696 375.574 64.696H377.394V68H374.93C371.626 68 369.974 66.3947 369.974 63.184V55.708H368.126V52.488H369.974V48.652H373.922V52.488H377.394V55.708H373.922ZM379.205 60.188C379.205 58.62 379.513 57.2293 380.129 56.016C380.764 54.8027 381.613 53.8693 382.677 53.216C383.76 52.5627 384.964 52.236 386.289 52.236C387.447 52.236 388.455 52.4693 389.313 52.936C390.191 53.4027 390.891 53.9907 391.413 54.7V52.488H395.361V68H391.413V65.732C390.909 66.46 390.209 67.0667 389.313 67.552C388.436 68.0187 387.419 68.252 386.261 68.252C384.955 68.252 383.76 67.916 382.677 67.244C381.613 66.572 380.764 65.6293 380.129 64.416C379.513 63.184 379.205 61.7747 379.205 60.188ZM391.413 60.244C391.413 59.292 391.227 58.48 390.853 57.808C390.48 57.1173 389.976 56.5947 389.341 56.24C388.707 55.8667 388.025 55.68 387.297 55.68C386.569 55.68 385.897 55.8573 385.281 56.212C384.665 56.5667 384.161 57.0893 383.769 57.78C383.396 58.452 383.209 59.2547 383.209 60.188C383.209 61.1213 383.396 61.9427 383.769 62.652C384.161 63.3427 384.665 63.8747 385.281 64.248C385.916 64.6213 386.588 64.808 387.297 64.808C388.025 64.808 388.707 64.6307 389.341 64.276C389.976 63.9027 390.48 63.38 390.853 62.708C391.227 62.0173 391.413 61.196 391.413 60.244ZM407.786 52.264C409.634 52.264 411.127 52.852 412.266 54.028C413.404 55.1853 413.974 56.8093 413.974 58.9V68H410.054V59.432C410.054 58.2 409.746 57.2573 409.13 56.604C408.514 55.932 407.674 55.596 406.61 55.596C405.527 55.596 404.668 55.932 404.034 56.604C403.418 57.2573 403.11 58.2 403.11 59.432V68H399.19V52.488H403.11V54.42C403.632 53.748 404.295 53.2253 405.098 52.852C405.919 52.46 406.815 52.264 407.786 52.264Z" fill="#1A1E26"/>
<path d="M204.768 158.112C204.032 158.112 203.371 157.984 202.784 157.728C202.208 157.461 201.755 157.099 201.424 156.64C201.093 156.171 200.923 155.632 200.912 155.024H202.464C202.517 155.547 202.731 155.989 203.104 156.352C203.488 156.704 204.043 156.88 204.768 156.88C205.461 156.88 206.005 156.709 206.4 156.368C206.805 156.016 207.008 155.568 207.008 155.024C207.008 154.597 206.891 154.251 206.656 153.984C206.421 153.717 206.128 153.515 205.776 153.376C205.424 153.237 204.949 153.088 204.352 152.928C203.616 152.736 203.024 152.544 202.576 152.352C202.139 152.16 201.76 151.861 201.44 151.456C201.131 151.04 200.976 150.485 200.976 149.792C200.976 149.184 201.131 148.645 201.44 148.176C201.749 147.707 202.181 147.344 202.736 147.088C203.301 146.832 203.947 146.704 204.672 146.704C205.717 146.704 206.571 146.965 207.232 147.488C207.904 148.011 208.283 148.704 208.368 149.568H206.768C206.715 149.141 206.491 148.768 206.096 148.448C205.701 148.117 205.179 147.952 204.528 147.952C203.92 147.952 203.424 148.112 203.04 148.432C202.656 148.741 202.464 149.179 202.464 149.744C202.464 150.149 202.576 150.48 202.8 150.736C203.035 150.992 203.317 151.189 203.648 151.328C203.989 151.456 204.464 151.605 205.072 151.776C205.808 151.979 206.4 152.181 206.848 152.384C207.296 152.576 207.68 152.88 208 153.296C208.32 153.701 208.48 154.256 208.48 154.96C208.48 155.504 208.336 156.016 208.048 156.496C207.76 156.976 207.333 157.365 206.768 157.664C206.203 157.963 205.536 158.112 204.768 158.112ZM211.375 147.808C211.097 147.808 210.863 147.712 210.671 147.52C210.479 147.328 210.383 147.093 210.383 146.816C210.383 146.539 210.479 146.304 210.671 146.112C210.863 145.92 211.097 145.824 211.375 145.824C211.641 145.824 211.865 145.92 212.047 146.112C212.239 146.304 212.335 146.539 212.335 146.816C212.335 147.093 212.239 147.328 212.047 147.52C211.865 147.712 211.641 147.808 211.375 147.808ZM212.079 149.232V158H210.623V149.232H212.079ZM218.832 149.072C219.899 149.072 220.763 149.397 221.424 150.048C222.085 150.688 222.416 151.616 222.416 152.832V158H220.976V153.04C220.976 152.165 220.757 151.499 220.32 151.04C219.883 150.571 219.285 150.336 218.528 150.336C217.76 150.336 217.147 150.576 216.688 151.056C216.24 151.536 216.016 152.235 216.016 153.152V158H214.56V149.232H216.016V150.48C216.304 150.032 216.693 149.685 217.184 149.44C217.685 149.195 218.235 149.072 218.832 149.072ZM224.251 153.6C224.251 152.693 224.432 151.904 224.795 151.232C225.157 150.549 225.659 150.021 226.299 149.648C226.949 149.275 227.691 149.088 228.523 149.088C229.6 149.088 230.485 149.349 231.179 149.872C231.883 150.395 232.347 151.12 232.571 152.048H231.003C230.853 151.515 230.56 151.093 230.123 150.784C229.696 150.475 229.163 150.32 228.523 150.32C227.691 150.32 227.019 150.608 226.507 151.184C225.995 151.749 225.739 152.555 225.739 153.6C225.739 154.656 225.995 155.472 226.507 156.048C227.019 156.624 227.691 156.912 228.523 156.912C229.163 156.912 229.696 156.763 230.123 156.464C230.549 156.165 230.843 155.739 231.003 155.184H232.571C232.336 156.08 231.867 156.8 231.163 157.344C230.459 157.877 229.579 158.144 228.523 158.144C227.691 158.144 226.949 157.957 226.299 157.584C225.659 157.211 225.157 156.683 224.795 156C224.432 155.317 224.251 154.517 224.251 153.6ZM242.513 153.28C242.513 153.557 242.497 153.851 242.465 154.16H235.457C235.511 155.024 235.804 155.701 236.337 156.192C236.881 156.672 237.537 156.912 238.305 156.912C238.935 156.912 239.457 156.768 239.873 156.48C240.3 156.181 240.599 155.787 240.769 155.296H242.337C242.103 156.139 241.633 156.827 240.929 157.36C240.225 157.883 239.351 158.144 238.305 158.144C237.473 158.144 236.727 157.957 236.065 157.584C235.415 157.211 234.903 156.683 234.529 156C234.156 155.307 233.969 154.507 233.969 153.6C233.969 152.693 234.151 151.899 234.513 151.216C234.876 150.533 235.383 150.011 236.033 149.648C236.695 149.275 237.452 149.088 238.305 149.088C239.137 149.088 239.873 149.269 240.513 149.632C241.153 149.995 241.644 150.496 241.985 151.136C242.337 151.765 242.513 152.48 242.513 153.28ZM241.009 152.976C241.009 152.421 240.887 151.947 240.641 151.552C240.396 151.147 240.06 150.843 239.633 150.64C239.217 150.427 238.753 150.32 238.241 150.32C237.505 150.32 236.876 150.555 236.353 151.024C235.841 151.493 235.548 152.144 235.473 152.976H241.009ZM255.837 147.696H250.221V151.344C250.466 151.003 250.829 150.725 251.309 150.512C251.789 150.288 252.306 150.176 252.861 150.176C253.746 150.176 254.466 150.363 255.021 150.736C255.575 151.099 255.97 151.573 256.205 152.16C256.45 152.736 256.573 153.349 256.573 154C256.573 154.768 256.429 155.456 256.141 156.064C255.853 156.672 255.41 157.152 254.813 157.504C254.226 157.856 253.495 158.032 252.621 158.032C251.501 158.032 250.594 157.744 249.901 157.168C249.207 156.592 248.786 155.824 248.637 154.864H250.061C250.199 155.472 250.493 155.947 250.941 156.288C251.389 156.629 251.954 156.8 252.637 156.8C253.479 156.8 254.114 156.549 254.541 156.048C254.967 155.536 255.181 154.864 255.181 154.032C255.181 153.2 254.967 152.56 254.541 152.112C254.114 151.653 253.485 151.424 252.653 151.424C252.087 151.424 251.591 151.563 251.165 151.84C250.749 152.107 250.445 152.475 250.253 152.944H248.877V146.416H255.837V147.696ZM269.605 155.52H264.741L263.845 158H262.309L266.341 146.912H268.021L272.037 158H270.501L269.605 155.52ZM269.189 154.336L267.173 148.704L265.157 154.336H269.189ZM275.251 150.848C275.539 150.347 275.965 149.931 276.531 149.6C277.107 149.259 277.773 149.088 278.531 149.088C279.309 149.088 280.013 149.275 280.642 149.648C281.282 150.021 281.784 150.549 282.147 151.232C282.509 151.904 282.691 152.688 282.691 153.584C282.691 154.469 282.509 155.259 282.147 155.952C281.784 156.645 281.282 157.184 280.642 157.568C280.013 157.952 279.309 158.144 278.531 158.144C277.784 158.144 277.123 157.979 276.547 157.648C275.981 157.307 275.549 156.885 275.251 156.384V162.16H273.795V149.232H275.251V150.848ZM281.203 153.584C281.203 152.923 281.069 152.347 280.803 151.856C280.536 151.365 280.173 150.992 279.715 150.736C279.267 150.48 278.771 150.352 278.227 150.352C277.693 150.352 277.197 150.485 276.739 150.752C276.291 151.008 275.928 151.387 275.651 151.888C275.384 152.379 275.251 152.949 275.251 153.6C275.251 154.261 275.384 154.843 275.651 155.344C275.928 155.835 276.291 156.213 276.739 156.48C277.197 156.736 277.693 156.864 278.227 156.864C278.771 156.864 279.267 156.736 279.715 156.48C280.173 156.213 280.536 155.835 280.803 155.344C281.069 154.843 281.203 154.256 281.203 153.584ZM286.063 150.656C286.319 150.155 286.682 149.765 287.151 149.488C287.631 149.211 288.212 149.072 288.895 149.072V150.576H288.511C286.879 150.576 286.063 151.461 286.063 153.232V158H284.607V149.232H286.063V150.656ZM291.328 147.808C291.05 147.808 290.816 147.712 290.624 147.52C290.432 147.328 290.336 147.093 290.336 146.816C290.336 146.539 290.432 146.304 290.624 146.112C290.816 145.92 291.05 145.824 291.328 145.824C291.594 145.824 291.818 145.92 292 146.112C292.192 146.304 292.288 146.539 292.288 146.816C292.288 147.093 292.192 147.328 292 147.52C291.818 147.712 291.594 147.808 291.328 147.808ZM292.032 149.232V158H290.576V149.232H292.032ZM295.969 146.16V158H294.513V146.16H295.969ZM299.955 155.984L298.163 160.288H297.187L298.355 155.984H299.955ZM305.472 156.832C306.827 155.744 307.888 154.853 308.656 154.16C309.424 153.456 310.07 152.725 310.592 151.968C311.126 151.2 311.392 150.448 311.392 149.712C311.392 149.019 311.222 148.475 310.88 148.08C310.55 147.675 310.011 147.472 309.264 147.472C308.539 147.472 307.974 147.701 307.568 148.16C307.174 148.608 306.96 149.211 306.928 149.968H305.52C305.563 148.773 305.926 147.851 306.608 147.2C307.291 146.549 308.171 146.224 309.248 146.224C310.347 146.224 311.216 146.528 311.856 147.136C312.507 147.744 312.832 148.581 312.832 149.648C312.832 150.533 312.566 151.397 312.032 152.24C311.51 153.072 310.912 153.808 310.24 154.448C309.568 155.077 308.71 155.813 307.664 156.656H313.168V157.872H305.472V156.832ZM314.851 152.096C314.851 150.261 315.15 148.832 315.747 147.808C316.345 146.773 317.39 146.256 318.883 146.256C320.366 146.256 321.406 146.773 322.003 147.808C322.601 148.832 322.899 150.261 322.899 152.096C322.899 153.963 322.601 155.413 322.003 156.448C321.406 157.483 320.366 158 318.883 158C317.39 158 316.345 157.483 315.747 156.448C315.15 155.413 314.851 153.963 314.851 152.096ZM321.459 152.096C321.459 151.168 321.395 150.384 321.267 149.744C321.15 149.093 320.899 148.571 320.515 148.176C320.142 147.781 319.598 147.584 318.883 147.584C318.158 147.584 317.603 147.781 317.219 148.176C316.846 148.571 316.595 149.093 316.467 149.744C316.35 150.384 316.291 151.168 316.291 152.096C316.291 153.056 316.35 153.861 316.467 154.512C316.595 155.163 316.846 155.685 317.219 156.08C317.603 156.475 318.158 156.672 318.883 156.672C319.598 156.672 320.142 156.475 320.515 156.08C320.899 155.685 321.15 155.163 321.267 154.512C321.395 153.861 321.459 153.056 321.459 152.096ZM324.722 156.832C326.077 155.744 327.138 154.853 327.906 154.16C328.674 153.456 329.32 152.725 329.842 151.968C330.376 151.2 330.642 150.448 330.642 149.712C330.642 149.019 330.472 148.475 330.13 148.08C329.8 147.675 329.261 147.472 328.514 147.472C327.789 147.472 327.224 147.701 326.818 148.16C326.424 148.608 326.21 149.211 326.178 149.968H324.77C324.813 148.773 325.176 147.851 325.858 147.2C326.541 146.549 327.421 146.224 328.498 146.224C329.597 146.224 330.466 146.528 331.106 147.136C331.757 147.744 332.082 148.581 332.082 149.648C332.082 150.533 331.816 151.397 331.282 152.24C330.76 153.072 330.162 153.808 329.49 154.448C328.818 155.077 327.96 155.813 326.914 156.656H332.418V157.872H324.722V156.832ZM333.749 155.424V154.32L339.365 146.544H341.109V154.16H342.709V155.424H341.109V158H339.669V155.424H333.749ZM339.733 148.064L335.429 154.16H339.733V148.064Z" fill="#6E7E9E"/>
<rect x="67" y="214" width="196" height="40" rx="20" fill="#F2F4F7"/>
<path d="M101.404 231.324C101.404 231.996 101.242 232.626 100.918 233.214C100.606 233.802 100.108 234.276 99.424 234.636C98.752 234.996 97.9 235.176 96.868 235.176H94.762V240H92.242V227.436H96.868C97.84 227.436 98.668 227.604 99.352 227.94C100.036 228.276 100.546 228.738 100.882 229.326C101.23 229.914 101.404 230.58 101.404 231.324ZM96.76 233.142C97.456 233.142 97.972 232.986 98.308 232.674C98.644 232.35 98.812 231.9 98.812 231.324C98.812 230.1 98.128 229.488 96.76 229.488H94.762V233.142H96.76ZM112.463 234.798C112.463 235.158 112.439 235.482 112.391 235.77H105.101C105.161 236.49 105.413 237.054 105.857 237.462C106.301 237.87 106.847 238.074 107.495 238.074C108.431 238.074 109.097 237.672 109.493 236.868H112.211C111.923 237.828 111.371 238.62 110.555 239.244C109.739 239.856 108.737 240.162 107.549 240.162C106.589 240.162 105.725 239.952 104.957 239.532C104.201 239.1 103.607 238.494 103.175 237.714C102.755 236.934 102.545 236.034 102.545 235.014C102.545 233.982 102.755 233.076 103.175 232.296C103.595 231.516 104.183 230.916 104.939 230.496C105.695 230.076 106.565 229.866 107.549 229.866C108.497 229.866 109.343 230.07 110.087 230.478C110.843 230.886 111.425 231.468 111.833 232.224C112.253 232.968 112.463 233.826 112.463 234.798ZM109.853 234.078C109.841 233.43 109.607 232.914 109.151 232.53C108.695 232.134 108.137 231.936 107.477 231.936C106.853 231.936 106.325 232.128 105.893 232.512C105.473 232.884 105.215 233.406 105.119 234.078H109.853ZM116.823 231.576C117.147 231.048 117.567 230.634 118.083 230.334C118.611 230.034 119.211 229.884 119.883 229.884V232.53H119.217C118.425 232.53 117.825 232.716 117.417 233.088C117.021 233.46 116.823 234.108 116.823 235.032V240H114.303V230.028H116.823V231.576ZM125.396 240.162C124.58 240.162 123.848 240.018 123.2 239.73C122.552 239.43 122.036 239.028 121.652 238.524C121.28 238.02 121.076 237.462 121.04 236.85H123.578C123.626 237.234 123.812 237.552 124.136 237.804C124.472 238.056 124.886 238.182 125.378 238.182C125.858 238.182 126.23 238.086 126.494 237.894C126.77 237.702 126.908 237.456 126.908 237.156C126.908 236.832 126.74 236.592 126.404 236.436C126.08 236.268 125.558 236.088 124.838 235.896C124.094 235.716 123.482 235.53 123.002 235.338C122.534 235.146 122.126 234.852 121.778 234.456C121.442 234.06 121.274 233.526 121.274 232.854C121.274 232.302 121.43 231.798 121.742 231.342C122.066 230.886 122.522 230.526 123.11 230.262C123.71 229.998 124.412 229.866 125.216 229.866C126.404 229.866 127.352 230.166 128.06 230.766C128.768 231.354 129.158 232.152 129.23 233.16H126.818C126.782 232.764 126.614 232.452 126.314 232.224C126.026 231.984 125.636 231.864 125.144 231.864C124.688 231.864 124.334 231.948 124.082 232.116C123.842 232.284 123.722 232.518 123.722 232.818C123.722 233.154 123.89 233.412 124.226 233.592C124.562 233.76 125.084 233.934 125.792 234.114C126.512 234.294 127.106 234.48 127.574 234.672C128.042 234.864 128.444 235.164 128.78 235.572C129.128 235.968 129.308 236.496 129.32 237.156C129.32 237.732 129.158 238.248 128.834 238.704C128.522 239.16 128.066 239.52 127.466 239.784C126.878 240.036 126.188 240.162 125.396 240.162ZM135.816 240.162C134.856 240.162 133.992 239.952 133.224 239.532C132.456 239.1 131.85 238.494 131.406 237.714C130.974 236.934 130.758 236.034 130.758 235.014C130.758 233.994 130.98 233.094 131.424 232.314C131.88 231.534 132.498 230.934 133.278 230.514C134.058 230.082 134.928 229.866 135.888 229.866C136.848 229.866 137.718 230.082 138.498 230.514C139.278 230.934 139.89 231.534 140.334 232.314C140.79 233.094 141.018 233.994 141.018 235.014C141.018 236.034 140.784 236.934 140.316 237.714C139.86 238.494 139.236 239.1 138.444 239.532C137.664 239.952 136.788 240.162 135.816 240.162ZM135.816 237.966C136.272 237.966 136.698 237.858 137.094 237.642C137.502 237.414 137.826 237.078 138.066 236.634C138.306 236.19 138.426 235.65 138.426 235.014C138.426 234.066 138.174 233.34 137.67 232.836C137.178 232.32 136.572 232.062 135.852 232.062C135.132 232.062 134.526 232.32 134.034 232.836C133.554 233.34 133.314 234.066 133.314 235.014C133.314 235.962 133.548 236.694 134.016 237.21C134.496 237.714 135.096 237.966 135.816 237.966ZM148.393 229.884C149.581 229.884 150.541 230.262 151.273 231.018C152.005 231.762 152.371 232.806 152.371 234.15V240H149.851V234.492C149.851 233.7 149.653 233.094 149.257 232.674C148.861 232.242 148.321 232.026 147.637 232.026C146.941 232.026 146.389 232.242 145.981 232.674C145.585 233.094 145.387 233.7 145.387 234.492V240H142.867V230.028H145.387V231.27C145.723 230.838 146.149 230.502 146.665 230.262C147.193 230.01 147.769 229.884 148.393 229.884ZM154.119 234.978C154.119 233.97 154.317 233.076 154.713 232.296C155.121 231.516 155.667 230.916 156.351 230.496C157.047 230.076 157.821 229.866 158.673 229.866C159.417 229.866 160.065 230.016 160.617 230.316C161.181 230.616 161.631 230.994 161.967 231.45V230.028H164.505V240H161.967V238.542C161.643 239.01 161.193 239.4 160.617 239.712C160.053 240.012 159.399 240.162 158.655 240.162C157.815 240.162 157.047 239.946 156.351 239.514C155.667 239.082 155.121 238.476 154.713 237.696C154.317 236.904 154.119 235.998 154.119 234.978ZM161.967 235.014C161.967 234.402 161.847 233.88 161.607 233.448C161.367 233.004 161.043 232.668 160.635 232.44C160.227 232.2 159.789 232.08 159.321 232.08C158.853 232.08 158.421 232.194 158.025 232.422C157.629 232.65 157.305 232.986 157.053 233.43C156.813 233.862 156.693 234.378 156.693 234.978C156.693 235.578 156.813 236.106 157.053 236.562C157.305 237.006 157.629 237.348 158.025 237.588C158.433 237.828 158.865 237.948 159.321 237.948C159.789 237.948 160.227 237.834 160.635 237.606C161.043 237.366 161.367 237.03 161.607 236.598C161.847 236.154 161.967 235.626 161.967 235.014ZM169.487 226.68V240H166.967V226.68H169.487ZM180.657 227.436C181.977 227.436 183.135 227.694 184.131 228.21C185.139 228.726 185.913 229.464 186.453 230.424C187.005 231.372 187.281 232.476 187.281 233.736C187.281 234.996 187.005 236.1 186.453 237.048C185.913 237.984 185.139 238.71 184.131 239.226C183.135 239.742 181.977 240 180.657 240H176.265V227.436H180.657ZM180.567 237.858C181.887 237.858 182.907 237.498 183.627 236.778C184.347 236.058 184.707 235.044 184.707 233.736C184.707 232.428 184.347 231.408 183.627 230.676C182.907 229.932 181.887 229.56 180.567 229.56H178.785V237.858H180.567ZM198.438 234.798C198.438 235.158 198.414 235.482 198.366 235.77H191.076C191.136 236.49 191.388 237.054 191.832 237.462C192.276 237.87 192.822 238.074 193.47 238.074C194.406 238.074 195.072 237.672 195.468 236.868H198.186C197.898 237.828 197.346 238.62 196.53 239.244C195.714 239.856 194.712 240.162 193.524 240.162C192.564 240.162 191.7 239.952 190.932 239.532C190.176 239.1 189.582 238.494 189.15 237.714C188.73 236.934 188.52 236.034 188.52 235.014C188.52 233.982 188.73 233.076 189.15 232.296C189.57 231.516 190.158 230.916 190.914 230.496C191.67 230.076 192.54 229.866 193.524 229.866C194.472 229.866 195.318 230.07 196.062 230.478C196.818 230.886 197.4 231.468 197.808 232.224C198.228 232.968 198.438 233.826 198.438 234.798ZM195.828 234.078C195.816 233.43 195.582 232.914 195.126 232.53C194.67 232.134 194.112 231.936 193.452 231.936C192.828 231.936 192.3 232.128 191.868 232.512C191.448 232.884 191.19 233.406 191.094 234.078H195.828ZM203.211 232.098V236.922C203.211 237.258 203.289 237.504 203.445 237.66C203.613 237.804 203.889 237.876 204.273 237.876H205.443V240H203.859C201.735 240 200.673 238.968 200.673 236.904V232.098H199.485V230.028H200.673V227.562H203.211V230.028H205.443V232.098H203.211ZM206.608 234.978C206.608 233.97 206.806 233.076 207.202 232.296C207.61 231.516 208.156 230.916 208.84 230.496C209.536 230.076 210.31 229.866 211.162 229.866C211.906 229.866 212.554 230.016 213.106 230.316C213.67 230.616 214.12 230.994 214.456 231.45V230.028H216.994V240H214.456V238.542C214.132 239.01 213.682 239.4 213.106 239.712C212.542 240.012 211.888 240.162 211.144 240.162C210.304 240.162 209.536 239.946 208.84 239.514C208.156 239.082 207.61 238.476 207.202 237.696C206.806 236.904 206.608 235.998 206.608 234.978ZM214.456 235.014C214.456 234.402 214.336 233.88 214.096 233.448C213.856 233.004 213.532 232.668 213.124 232.44C212.716 232.2 212.278 232.08 211.81 232.08C211.342 232.08 210.91 232.194 210.514 232.422C210.118 232.65 209.794 232.986 209.542 233.43C209.302 233.862 209.182 234.378 209.182 234.978C209.182 235.578 209.302 236.106 209.542 236.562C209.794 237.006 210.118 237.348 210.514 237.588C210.922 237.828 211.354 237.948 211.81 237.948C212.278 237.948 212.716 237.834 213.124 237.606C213.532 237.366 213.856 237.03 214.096 236.598C214.336 236.154 214.456 235.626 214.456 235.014ZM220.733 228.84C220.289 228.84 219.917 228.702 219.617 228.426C219.329 228.138 219.185 227.784 219.185 227.364C219.185 226.944 219.329 226.596 219.617 226.32C219.917 226.032 220.289 225.888 220.733 225.888C221.177 225.888 221.543 226.032 221.831 226.32C222.131 226.596 222.281 226.944 222.281 227.364C222.281 227.784 222.131 228.138 221.831 228.426C221.543 228.702 221.177 228.84 220.733 228.84ZM221.975 230.028V240H219.455V230.028H221.975ZM226.985 226.68V240H224.465V226.68H226.985ZM233.29 240.162C232.474 240.162 231.742 240.018 231.094 239.73C230.446 239.43 229.93 239.028 229.546 238.524C229.174 238.02 228.97 237.462 228.934 236.85H231.472C231.52 237.234 231.706 237.552 232.03 237.804C232.366 238.056 232.78 238.182 233.272 238.182C233.752 238.182 234.124 238.086 234.388 237.894C234.664 237.702 234.802 237.456 234.802 237.156C234.802 236.832 234.634 236.592 234.298 236.436C233.974 236.268 233.452 236.088 232.732 235.896C231.988 235.716 231.376 235.53 230.896 235.338C230.428 235.146 230.02 234.852 229.672 234.456C229.336 234.06 229.168 233.526 229.168 232.854C229.168 232.302 229.324 231.798 229.636 231.342C229.96 230.886 230.416 230.526 231.004 230.262C231.604 229.998 232.306 229.866 233.11 229.866C234.298 229.866 235.246 230.166 235.954 230.766C236.662 231.354 237.052 232.152 237.124 233.16H234.712C234.676 232.764 234.508 232.452 234.208 232.224C233.92 231.984 233.53 231.864 233.038 231.864C232.582 231.864 232.228 231.948 231.976 232.116C231.736 232.284 231.616 232.518 231.616 232.818C231.616 233.154 231.784 233.412 232.12 233.592C232.456 233.76 232.978 233.934 233.686 234.114C234.406 234.294 235 234.48 235.468 234.672C235.936 234.864 236.338 235.164 236.674 235.572C237.022 235.968 237.202 236.496 237.214 237.156C237.214 237.732 237.052 238.248 236.728 238.704C236.416 239.16 235.96 239.52 235.36 239.784C234.772 240.036 234.082 240.162 233.29 240.162Z" fill="#1A1E26"/>
<rect x="200" y="92" width="32" height="32" rx="16" fill="#C9CFDB"/>
<path d="M219.75 115.5H212.25C211.942 115.5 211.688 115.245 211.688 114.938C211.688 114.63 211.942 114.375 212.25 114.375H219.75C220.057 114.375 220.312 114.63 220.312 114.938C220.312 115.245 220.057 115.5 219.75 115.5Z" fill="white"/>
<path d="M222.263 103.139L219.263 105.284C218.866 105.569 218.296 105.397 218.123 104.939L216.706 101.159C216.466 100.507 215.543 100.507 215.303 101.159L213.878 104.932C213.706 105.397 213.143 105.569 212.746 105.277L209.746 103.132C209.146 102.712 208.351 103.304 208.598 104.002L211.718 112.739C211.823 113.039 212.108 113.234 212.423 113.234H219.571C219.886 113.234 220.171 113.032 220.276 112.739L223.396 104.002C223.651 103.304 222.856 102.712 222.263 103.139ZM217.876 110.062H214.126C213.818 110.062 213.563 109.807 213.563 109.499C213.563 109.192 213.818 108.937 214.126 108.937H217.876C218.183 108.937 218.438 109.192 218.438 109.499C218.438 109.807 218.183 110.062 217.876 110.062Z" fill="white"/>
<rect x="248" y="92" width="32" height="32" rx="16" fill="#C9CFDB"/>
<path d="M268.433 107.041H266.116V101.641C266.116 100.381 265.433 100.126 264.601 101.071L264.001 101.753L258.923 107.528C258.226 108.316 258.518 108.961 259.568 108.961H261.886V114.361C261.886 115.621 262.568 115.876 263.401 114.931L264.001 114.248L269.078 108.473C269.776 107.686 269.483 107.041 268.433 107.041Z" fill="white"/>
<rect x="339" y="92" width="32" height="32" rx="16" fill="#C9CFDB"/>
<path fill-rule="evenodd" clip-rule="evenodd" d="M356.639 117V108.9H359.098L359.5 105.3H356.639V103.547C356.639 102.62 356.663 101.7 357.958 101.7H359.27V99.1261C359.27 99.0874 358.143 99 357.003 99C354.622 99 353.131 100.491 353.131 103.23V105.3H350.5V108.9H353.131V117H356.639Z" fill="white"/>
<rect x="387" y="92" width="32" height="32" rx="16" fill="#C9CFDB"/>
<g clip-path="url(#clip0_3184_20440)">
<path fill-rule="evenodd" clip-rule="evenodd" d="M411 116H407.8V110.401C407.8 108.865 407.122 108.008 405.907 108.008C404.585 108.008 403.8 108.901 403.8 110.401V116H400.6V105.6H403.8V106.77C403.8 106.77 404.804 105.008 407.066 105.008C409.33 105.008 411 106.389 411 109.246V116ZM396.954 103.937C395.874 103.937 395 103.055 395 101.968C395 100.882 395.874 100 396.954 100C398.032 100 398.906 100.882 398.906 101.968C398.907 103.055 398.032 103.937 396.954 103.937ZM395 116H399V105.6H395V116Z" fill="white"/>
</g>
<rect x="435" y="92" width="32" height="32" rx="16" fill="#C9CFDB"/>
<path d="M451 100C453.174 100 453.445 100.008 454.298 100.048C455.15 100.088 455.73 100.222 456.24 100.42C456.768 100.623 457.213 100.898 457.658 101.342C458.064 101.742 458.379 102.226 458.58 102.76C458.778 103.27 458.912 103.85 458.952 104.702C458.99 105.555 459 105.826 459 108C459 110.174 458.992 110.445 458.952 111.298C458.912 112.15 458.778 112.73 458.58 113.24C458.38 113.774 458.065 114.258 457.658 114.658C457.258 115.064 456.774 115.379 456.24 115.58C455.73 115.778 455.15 115.912 454.298 115.952C453.445 115.99 453.174 116 451 116C448.826 116 448.555 115.992 447.702 115.952C446.85 115.912 446.27 115.778 445.76 115.58C445.226 115.38 444.742 115.065 444.342 114.658C443.936 114.258 443.621 113.774 443.42 113.24C443.222 112.73 443.088 112.15 443.048 111.298C443.01 110.445 443 110.174 443 108C443 105.826 443.008 105.555 443.048 104.702C443.088 103.85 443.222 103.27 443.42 102.76C443.62 102.226 443.935 101.742 444.342 101.342C444.742 100.935 445.226 100.621 445.76 100.42C446.27 100.222 446.85 100.088 447.702 100.048C448.555 100.01 448.826 100 451 100ZM451 104C449.939 104 448.922 104.421 448.172 105.172C447.421 105.922 447 106.939 447 108C447 109.061 447.421 110.078 448.172 110.828C448.922 111.579 449.939 112 451 112C452.061 112 453.078 111.579 453.828 110.828C454.579 110.078 455 109.061 455 108C455 106.939 454.579 105.922 453.828 105.172C453.078 104.421 452.061 104 451 104ZM456.2 103.8C456.2 103.535 456.095 103.28 455.907 103.093C455.72 102.905 455.465 102.8 455.2 102.8C454.935 102.8 454.68 102.905 454.493 103.093C454.305 103.28 454.2 103.535 454.2 103.8C454.2 104.065 454.305 104.32 454.493 104.507C454.68 104.695 454.935 104.8 455.2 104.8C455.465 104.8 455.72 104.695 455.907 104.507C456.095 104.32 456.2 104.065 456.2 103.8ZM451 105.6C451.637 105.6 452.247 105.853 452.697 106.303C453.147 106.753 453.4 107.363 453.4 108C453.4 108.637 453.147 109.247 452.697 109.697C452.247 110.147 451.637 110.4 451 110.4C450.363 110.4 449.753 110.147 449.303 109.697C448.853 109.247 448.6 108.637 448.6 108C448.6 107.363 448.853 106.753 449.303 106.303C449.753 105.853 450.363 105.6 451 105.6Z" fill="white"/>
<defs>
<clipPath id="clip0_3184_20440">
<rect width="16" height="16" fill="white" transform="translate(395 100)"/>
</clipPath>
</defs>
</svg>
