<svg xmlns="http://www.w3.org/2000/svg" xmlns:xlink="http://www.w3.org/1999/xlink" id="Layer_1" x="0px" y="0px" viewBox="0 0 841.9 89" style="enable-background:new 0 0 841.9 89;" xml:space="preserve"><style type="text/css">	.st0{fill:#FFFFFF;}</style><g>	<path class="st0" d="M82.7,50.9l-3.1,8.4c-0.4,1.1-0.6,2.1-0.6,2.8c0,1,0.5,1.7,2,2.4H70.8c2.6-1.6,3.3-2.7,5.1-7.4L85.6,33  c0.4-1.1,0.6-1.8,0.6-2.5c0-0.9-0.4-1.5-1.7-2.1h8.8l11.6,28.8c1.7,4.3,2.8,5.9,5.3,7.4H98.8c1.7-1,2-1.3,2-2.2  c0-0.5-0.1-0.9-0.9-3.1l-3.2-8.4H82.7z M89.7,33L84,47.4h11.2L89.7,33z"></path>	<path class="st0" d="M118.4,57.5c0,4.7,0.4,5.9,2.4,7h-10.4c2-1.1,2.4-2.3,2.4-7V35.4c0-4.7-0.4-5.9-2.4-7h8c0.5,0,1.4,0,2.6-0.1  c0.9-0.1,1.7-0.1,2.3-0.1c3.6,0,6.1,0.7,8.1,2.1c2.2,1.7,3.6,4.4,3.6,7c0,4.2-3.7,8.1-8.9,9.4c8.2,11,12.4,15.4,16.8,17.7  c-3.4,0.3-4,0.3-5.1,0.3c-3.1,0-4.8-1-8.5-5.5c-3.2-3.8-6.7-8.6-9.6-13.7c6.2-1,9.2-3.6,9.2-7.9c0-3.6-2.7-6.1-6.7-6.1  c-1.2,0-2.2,0.1-3.9,0.4L118.4,57.5L118.4,57.5z"></path>	<path class="st0" d="M163.1,34.9c-2.3-2.3-5.5-3.6-8.7-3.6c-4.3,0-7.2,2.1-7.2,5.2c0,2.7,1.6,4.1,8.1,7.1c4.6,2.1,6.4,3.1,8,4.4  c1.9,1.5,3,3.7,3,6c0,2.7-1.2,5.4-3.4,7.5c-2.8,2.7-6.7,4.1-11.5,4.1c-3.5,0-6.3-0.5-9.7-1.7l-1.7-6.8c3.7,2.9,7.6,4.4,12.1,4.4  c4.7,0,8.2-2.4,8.2-5.6c0-1.5-0.7-2.9-1.8-3.9c-1.3-1.1-2.6-1.8-7-3.9c-4.3-1.9-6-2.9-7.6-4.4c-1.8-1.6-2.9-4-2.9-6.4  c0-5.9,5.4-9.7,13.7-9.7c2.9,0,5.4,0.4,8.4,1.2L163.1,34.9L163.1,34.9z"></path>	<path class="st0" d="M176.3,59.9c2.6,0.4,4.3,0.6,6.8,0.6c4.8,0,7.8-0.9,10.7-3.1l-2.6,7.2h-22.9c2-1.1,2.4-2.3,2.4-7.1V35.4  c0-4.7-0.5-6-2.4-7h18.3c1,0,1.4-0.1,2.1-0.3v6.4c-1.8-1.7-3.2-2.2-6.7-2.2c-2.7,0-4.1,0.1-5.7,0.4V43h7.3c0.8,0,1.2-0.1,1.9-0.4  v5.8c-0.9-1.1-1.9-1.5-4.3-1.5h-4.9L176.3,59.9L176.3,59.9z"></path>	<path class="st0" d="M200.9,58.1c0,3.6,0.6,5,2.9,6.5H194c2.3-1.5,2.9-2.8,2.9-6.5V34.8c0-3.6-0.6-5-2.9-6.5h8  c0.2,0.5,0.3,0.6,1.3,2l20.4,25.9V34.8c0-3.6-0.6-5-2.9-6.5h9.8c-2.3,1.5-2.9,2.8-2.9,6.5v31.5c-3-1-5.3-2.8-7.6-5.8l-19.3-24.4  L200.9,58.1L200.9,58.1z"></path>	<path class="st0" d="M241.9,50.9l-3.1,8.4c-0.4,1.1-0.6,2.1-0.6,2.8c0,1,0.5,1.7,2,2.4H230c2.6-1.6,3.3-2.7,5.1-7.4l9.7-24.2  c0.4-1.1,0.6-1.8,0.6-2.5c0-0.9-0.4-1.5-1.7-2.1h8.8L264,57.1c1.7,4.3,2.8,5.9,5.3,7.4h-11.4c1.7-1,2-1.3,2-2.2  c0-0.5-0.1-0.9-0.9-3.1l-3.2-8.4L241.9,50.9L241.9,50.9z M248.8,33l-5.6,14.4h11.2L248.8,33z"></path>	<path class="st0" d="M277.5,60.1c2.4,0.4,5.1,0.6,7.4,0.6c4,0,6.4-0.8,10-3.4l-2.9,7.3h-22.5c2-1.1,2.4-2.3,2.4-7V35.4  c0-4.7-0.4-5.9-2.4-7H280c-2,1.1-2.4,2.3-2.4,7v24.7H277.5z"></path>	<path class="st0" d="M329,34.9c-2.3-2.3-5.5-3.6-8.7-3.6c-4.3,0-7.2,2.1-7.2,5.2c0,2.7,1.6,4.1,8.1,7.1c4.6,2.1,6.4,3.1,8,4.4  c1.9,1.5,3,3.7,3,6c0,2.7-1.2,5.4-3.4,7.5c-2.8,2.7-6.7,4.1-11.5,4.1c-3.5,0-6.3-0.5-9.7-1.7l-1.7-6.8c3.7,2.9,7.6,4.4,12.1,4.4  c4.7,0,8.2-2.4,8.2-5.6c0-1.5-0.7-2.9-1.8-3.9c-1.3-1.1-2.6-1.8-7-3.9c-4.3-1.9-6-2.9-7.6-4.4c-1.8-1.6-2.9-4-2.9-6.4  c0-5.9,5.4-9.7,13.7-9.7c2.9,0,5.4,0.4,8.4,1.2V34.9z"></path>	<path class="st0" d="M360.3,60.7c-2.6,3.1-6.3,4.7-10.9,4.7c-5.3,0-9.6-2.2-11.5-6c-1-2-1.3-3.6-1.3-8v-16c0-4.7-0.4-5.9-2.4-7  h10.4c-2,1.1-2.5,2.3-2.5,7v16c0,3.7,0.4,5.3,1.9,7c1.6,1.9,4.2,3,7,3c3.2,0,6.3-1.5,7.9-3.8c0.9-1.2,1.1-2.3,1.1-4.4V35.4  c0-4.7-0.5-5.9-2.4-7H368c-2,1.1-2.4,2.3-2.4,7v22.1c0,4.7,0.5,5.9,2.4,7h-7.8L360.3,60.7L360.3,60.7z"></path>	<path class="st0" d="M378.8,58.1c0,3.6,0.6,5,2.9,6.5h-10.8c2-1.1,2.4-2.3,2.4-7V35.4c0-4.7-0.4-5.9-2.4-7h5.3c1.7,0,1.7,0,6.1-0.1  h1.7c3.1,0,5.3,0.4,7.2,1.4c3.4,1.7,5.6,4.8,5.6,8.3c0,5.7-5.5,10.3-12.1,10.3c-1.7,0-2.5-0.2-4-0.7c3.4-0.4,5.3-1.1,7.1-2.7  c1.9-1.7,2.9-3.6,2.9-5.9c0-4.2-3-6.8-8-6.8c-1.5,0-2.3,0.1-3.9,0.5L378.8,58.1L378.8,58.1z"></path>	<path class="st0" d="M406.2,58.1c0,3.6,0.6,5,2.9,6.5h-10.8c2-1.1,2.4-2.3,2.4-7V35.4c0-4.7-0.4-5.9-2.4-7h5.3c1.7,0,1.7,0,6.1-0.1  h1.7c3.1,0,5.3,0.4,7.2,1.4c3.4,1.7,5.6,4.8,5.6,8.3c0,5.7-5.5,10.3-12.1,10.3c-1.7,0-2.5-0.2-4-0.7c3.4-0.4,5.3-1.1,7.1-2.7  c1.9-1.7,2.9-3.6,2.9-5.9c0-4.2-3-6.8-8-6.8c-1.5,0-2.3,0.1-3.9,0.5L406.2,58.1L406.2,58.1z"></path>	<path class="st0" d="M459.9,32.8c3.4,3.3,5.6,8.4,5.6,13.4c0,10.7-9,19.2-20.3,19.2c-11.2,0-20.1-8.3-20.1-18.8  c0-10.9,9-19.2,20.8-19.2C451.1,27.4,456.4,29.4,459.9,32.8 M435.1,35.4c-2.3,2.4-3.8,6.4-3.8,10.3c0,4.2,1.6,8.5,4.4,11.7  c2.5,2.8,5.6,4.1,9.6,4.1c8.2,0,13.9-5.9,13.9-14.4c0-4.1-1.4-8-3.7-10.9c-2.7-3.2-6-4.8-10.4-4.8  C441.4,31.4,437.5,32.9,435.1,35.4"></path>	<path class="st0" d="M475.6,57.5c0,4.7,0.4,5.9,2.4,7h-10.4c2-1.1,2.4-2.3,2.4-7V35.4c0-4.7-0.4-5.9-2.4-7h8c0.5,0,1.4,0,2.6-0.1  c0.9-0.1,1.7-0.1,2.3-0.1c3.6,0,6.1,0.7,8.1,2.1c2.2,1.7,3.6,4.4,3.6,7c0,4.2-3.7,8.1-8.9,9.4c8.2,11,12.4,15.4,16.8,17.7  c-3.4,0.3-4,0.3-5,0.3c-3.1,0-4.8-1-8.5-5.5c-3.2-3.8-6.7-8.6-9.6-13.7c6.2-1,9.2-3.6,9.2-7.9c0-3.6-2.7-6.1-6.7-6.1  c-1.2,0-2.2,0.1-3.9,0.4V57.5z"></path>	<path class="st0" d="M521.1,34.5c-0.8-1.6-2-2.1-5.2-2.1c-1.2,0-1.2,0-3.9,0.2h-0.9v25.5c0,3.7,0.6,4.9,2.9,6.5h-10.9  c2-1,2.5-2.4,2.5-7v-25c-1.1-0.1-3.1-0.2-4.4-0.2c-3.5,0-4.8,0.4-7.1,2.1l2-6.6c0.6,0.2,1.8,0.4,2.8,0.4h20.7  c1.1-0.1,1.9-0.1,2.1-0.1c0.4-0.1,0.5-0.1,1.1-0.3L521.1,34.5z"></path>	<path class="st0" d="M530.6,59.9c2.6,0.4,4.3,0.6,6.8,0.6c4.8,0,7.8-0.9,10.7-3.1l-2.5,7.2h-22.9c2-1.1,2.4-2.3,2.4-7.1V35.4  c0-4.7-0.5-6-2.4-7H541c1,0,1.4-0.1,2.1-0.3v6.4c-1.8-1.7-3.2-2.2-6.7-2.2c-2.7,0-4.1,0.1-5.7,0.4V43h7.3c0.8,0,1.2-0.1,1.9-0.4  v5.8c-0.9-1.1-1.9-1.5-4.3-1.5h-4.9L530.6,59.9L530.6,59.9z"></path>	<path class="st0" d="M556.7,57.5c0,4.7,0.4,5.9,2.4,7h-10.4c2-1.1,2.4-2.3,2.4-7V35.4c0-4.7-0.4-5.9-2.4-7h8c0.5,0,1.4,0,2.6-0.1  c0.9-0.1,1.7-0.1,2.3-0.1c3.6,0,6.1,0.7,8.1,2.1c2.2,1.7,3.6,4.4,3.6,7c0,4.2-3.7,8.1-8.9,9.4c8.2,11,12.4,15.4,16.8,17.7  c-3.4,0.3-4,0.3-5.1,0.3c-3.1,0-4.8-1-8.5-5.5c-3.2-3.8-6.7-8.6-9.6-13.7c6.2-1,9.2-3.6,9.2-7.9c0-3.6-2.7-6.1-6.7-6.1  c-1.2,0-2.2,0.1-3.8,0.4L556.7,57.5L556.7,57.5z"></path>	<path class="st0" d="M601.3,34.9c-2.3-2.3-5.5-3.6-8.7-3.6c-4.3,0-7.2,2.1-7.2,5.2c0,2.7,1.6,4.1,8.1,7.1c4.6,2.1,6.4,3.1,8,4.4  c1.9,1.5,3,3.7,3,6c0,2.7-1.3,5.4-3.4,7.5c-2.8,2.7-6.7,4.1-11.5,4.1c-3.5,0-6.3-0.5-9.7-1.7l-1.7-6.8c3.7,2.9,7.6,4.4,12.1,4.4  c4.7,0,8.2-2.4,8.2-5.6c0-1.5-0.7-2.9-1.8-3.9c-1.3-1.1-2.6-1.8-7-3.9c-4.3-1.9-6-2.9-7.6-4.4c-1.8-1.6-2.9-4-2.9-6.4  c0-5.9,5.4-9.7,13.7-9.7c2.9,0,5.4,0.4,8.4,1.2L601.3,34.9L601.3,34.9z"></path>	<path class="st0" d="M606.7,38.5c2.3-2.4,3.1-3.7,3.1-4.5c0-0.3-0.2-0.5-0.6-0.6c-1.8-0.3-2.8-1.3-2.8-2.9c0-1.7,1.4-3.1,3.2-3.1  c1.9,0,3.5,1.6,3.5,3.6c0,1.9-0.9,4-3.1,6.5c-0.9,1.1-1.1,1.3-1.6,1.3c-0.1,0-0.3-0.1-0.5-0.1L606.7,38.5z"></path>	<path class="st0" d="M651.4,34.5c-0.8-1.6-2-2.1-5.2-2.1c-1.2,0-1.2,0-3.9,0.2h-0.9v25.5c0,3.7,0.6,4.9,2.9,6.5h-10.9  c2-1,2.4-2.4,2.4-7v-25c-1.1-0.1-3.1-0.2-4.4-0.2c-3.5,0-4.8,0.4-7.1,2.1l2-6.6c0.6,0.2,1.8,0.4,2.8,0.4h20.7  c1.1-0.1,1.9-0.1,2.1-0.1c0.4-0.1,0.5-0.1,1.1-0.3L651.4,34.5z"></path>	<path class="st0" d="M660.8,57.5c0,4.7,0.4,5.9,2.4,7h-10.4c2-1.1,2.4-2.3,2.4-7V35.4c0-4.7-0.4-5.9-2.4-7h8c0.5,0,1.4,0,2.6-0.1  c0.9-0.1,1.7-0.1,2.3-0.1c3.6,0,6.1,0.7,8.1,2.1c2.2,1.7,3.6,4.4,3.6,7c0,4.2-3.7,8.1-8.9,9.4c8.2,11,12.4,15.4,16.8,17.7  c-3.4,0.3-4,0.3-5,0.3c-3.1,0-4.8-1-8.5-5.5c-3.2-3.8-6.7-8.6-9.6-13.7c6.2-1,9.2-3.6,9.2-7.9c0-3.6-2.7-6.1-6.7-6.1  c-1.2,0-2.2,0.1-3.9,0.4L660.8,57.5L660.8,57.5z"></path>	<path class="st0" d="M707.6,60.7c-2.6,3.1-6.3,4.7-10.9,4.7c-5.3,0-9.6-2.2-11.5-6c-1-2-1.3-3.6-1.3-8v-16c0-4.7-0.4-5.9-2.4-7  h10.4c-2,1.1-2.4,2.3-2.4,7v16c0,3.7,0.4,5.3,1.9,7c1.6,1.9,4.2,3,7,3c3.2,0,6.2-1.5,7.9-3.8c0.9-1.2,1.1-2.3,1.1-4.4V35.4  c0-4.7-0.5-5.9-2.4-7h10.4c-2,1.1-2.4,2.3-2.4,7v22.1c0,4.7,0.5,5.9,2.4,7h-7.8V60.7z"></path>	<path class="st0" d="M740.5,34.9c-2.3-2.3-5.5-3.6-8.7-3.6c-4.3,0-7.2,2.1-7.2,5.2c0,2.7,1.6,4.1,8.1,7.1c4.6,2.1,6.4,3.1,8,4.4  c1.9,1.5,3,3.7,3,6c0,2.7-1.2,5.4-3.4,7.5c-2.8,2.7-6.7,4.1-11.5,4.1c-3.5,0-6.3-0.5-9.7-1.7l-1.7-6.8c3.7,2.9,7.6,4.4,12.1,4.4  c4.7,0,8.2-2.4,8.2-5.6c0-1.5-0.7-2.9-1.8-3.9c-1.3-1.1-2.6-1.8-7-3.9c-4.3-1.9-6-2.9-7.6-4.4c-1.8-1.6-2.9-4-2.9-6.4  c0-5.9,5.4-9.7,13.7-9.7c2.9,0,5.4,0.4,8.4,1.2L740.5,34.9L740.5,34.9z"></path>	<path class="st0" d="M769.4,34.5c-0.8-1.6-2-2.1-5.2-2.1c-1.2,0-1.2,0-3.9,0.2h-0.9v25.5c0,3.7,0.6,4.9,2.9,6.5h-10.9  c2-1,2.4-2.4,2.4-7v-25c-1.1-0.1-3.1-0.2-4.4-0.2c-3.5,0-4.8,0.4-7.1,2.1l2-6.6c0.6,0.2,1.8,0.4,2.8,0.4h20.7  c1.1-0.1,1.9-0.1,2.1-0.1c0.4-0.1,0.5-0.1,1.1-0.3L769.4,34.5z"></path></g></svg>