<svg width="64" height="64" viewBox="0 0 64 64" fill="none" xmlns="http://www.w3.org/2000/svg">
<rect width="64" height="64" rx="12" fill="#B248B4"/>
<path fill-rule="evenodd" clip-rule="evenodd" d="M26.8489 20.3344C26.0104 20.7049 25.2139 21.1639 24.4729 21.7054L21.3334 21.1144C20.6659 20.9869 19.9789 21.2329 19.5424 21.7579C19.5409 21.7594 19.5379 21.7624 19.5364 21.7639C18.4174 23.1319 17.5279 24.6724 16.9054 26.3269C16.9054 26.3284 16.9039 26.3299 16.9039 26.3314C16.6669 26.9704 16.7959 27.6874 17.2399 28.2049L19.3219 30.6274C19.2229 31.5394 19.2229 32.4589 19.3219 33.3709L17.2399 35.7949C16.7944 36.3094 16.6654 37.0279 16.9009 37.6684C16.9024 37.6699 16.9039 37.6729 16.9039 37.6759C17.5279 39.3289 18.4174 40.8694 19.5394 42.2344L19.5439 42.2389C19.9789 42.7639 20.6629 43.0099 21.3334 42.8839L24.4729 42.2929C25.2124 42.8344 26.0089 43.2949 26.8489 43.6654L27.9064 46.6804C28.1299 47.3224 28.6864 47.7949 29.3584 47.9089C29.3614 47.9104 29.3644 47.9104 29.3674 47.9104C31.1119 48.1969 32.8909 48.1969 34.6339 47.9089C34.6354 47.9074 34.6369 47.9074 34.6399 47.9074C35.3104 47.7934 35.8669 47.3224 36.0919 46.6804L37.1509 43.6654C37.9894 43.2949 38.7859 42.8359 39.5269 42.2944L42.6664 42.8854C43.3339 43.0129 44.0209 42.7669 44.4574 42.2419C44.4589 42.2404 44.4619 42.2374 44.4634 42.2359C45.5824 40.8679 46.4719 39.3274 47.0944 37.6729C47.0944 37.6714 47.0959 37.6699 47.0959 37.6684C47.3329 37.0294 47.2039 36.3124 46.7599 35.7949L44.6779 33.3724C44.7769 32.4604 44.7769 31.5409 44.6779 30.6289L46.7599 28.2049C47.2054 27.6904 47.3344 26.9719 47.0989 26.3314C47.0974 26.3299 47.0959 26.3269 47.0959 26.3239C46.4719 24.6709 45.5824 23.1304 44.4604 21.7654C44.4589 21.7639 44.4574 21.7624 44.4559 21.7609C44.0209 21.2359 43.3369 20.9899 42.6664 21.1159L39.5269 21.7069C38.7874 21.1654 37.9909 20.7049 37.1509 20.3344L36.0934 17.3194L36.0949 17.3224C35.8699 16.6774 35.3134 16.2049 34.6414 16.0909C34.6384 16.0894 34.6354 16.0894 34.6324 16.0894C32.8879 15.8029 31.1089 15.8029 29.3659 16.0909C29.3644 16.0924 29.3629 16.0924 29.3599 16.0924C28.6894 16.2064 28.1329 16.6774 27.9079 17.3194L26.8489 20.3344ZM32.2579 27.7474L29.6074 35.6989C29.4109 36.2884 29.7289 36.9259 30.3184 37.1224C30.9079 37.3189 31.5454 36.9994 31.7419 36.4114L34.3924 28.4584C34.5889 27.8689 34.2709 27.2314 33.6814 27.0349C33.0919 26.8384 32.4544 27.1579 32.2579 27.7474ZM35.3029 30.2239L37.1584 32.0794L35.3029 33.9349C34.8649 34.3729 34.8649 35.0869 35.3029 35.5249C35.7424 35.9644 36.4549 35.9644 36.8944 35.5249L39.5449 32.8744C39.9844 32.4349 39.9844 31.7224 39.5449 31.2829L36.8944 28.6324C36.4549 28.1929 35.7424 28.1929 35.3029 28.6324C34.8649 29.0719 34.8649 29.7844 35.3029 30.2239ZM27.1054 28.6324L24.4549 31.2829C24.0154 31.7224 24.0154 32.4349 24.4549 32.8744L27.1054 35.5249C27.5449 35.9644 28.2574 35.9644 28.6969 35.5249C29.1349 35.0869 29.1349 34.3729 28.6969 33.9349L26.8414 32.0794L28.6969 30.2239C29.1349 29.7844 29.1349 29.0719 28.6969 28.6324C28.2574 28.1929 27.5449 28.1929 27.1054 28.6324Z" fill="white"/>
</svg>
