<svg width="20" height="20" viewBox="0 0 20 20" fill="none" xmlns="http://www.w3.org/2000/svg">
<g clip-path="url(#clip0_7619_15796)">
<g clip-path="url(#clip1_7619_15796)">
<path d="M17 1H3C1.89543 1 1 1.89557 1 3.00031V4.17207C1 4.70259 1.21071 5.21137 1.58579 5.58651L7.41421 11.4158C7.78929 11.791 8 12.2998 8 12.8302V18.0027V18.2884C8 18.9211 8.7649 19.2379 9.2122 18.7906L10 18.0027L11.4142 16.5882C11.7893 16.2131 12 15.7043 12 15.1738V12.8302C12 12.2998 12.2107 11.791 12.5858 11.4158L18.4142 5.58651C18.7893 5.21137 19 4.70259 19 4.17207V3.00031C19 1.89557 18.1046 1 17 1Z" stroke="#617191" stroke-width="1.5" stroke-linecap="round" stroke-linejoin="round"/>
</g>
</g>
<defs>
<clipPath id="clip0_7619_15796">
<rect width="20" height="20" fill="white"/>
</clipPath>
<clipPath id="clip1_7619_15796">
<rect width="20" height="20" fill="white"/>
</clipPath>
</defs>
</svg>
