<svg width="64" height="64" viewBox="0 0 64 64" fill="none" xmlns="http://www.w3.org/2000/svg">
<rect width="64" height="64" rx="12" fill="#2685DA"/>
<path fill-rule="evenodd" clip-rule="evenodd" d="M27.0909 17.75C31.9947 17.75 36.2688 20.4326 38.5114 24.4032C39.0542 24.3102 39.6123 24.262 40.1818 24.262C45.6042 24.262 50 28.6353 50 34.03C50 39.3708 45.6917 43.7105 40.3442 43.7967L40.1818 43.798L39.4045 43.798V44.4899C39.4045 45.5014 38.5803 46.3214 37.5636 46.3214H26.5182C25.5015 46.3214 24.6773 45.5014 24.6773 44.4899L24.6774 43.5771C18.6004 42.4503 14 37.1467 14 30.774C14 23.581 19.861 17.75 27.0909 17.75ZM21.5413 25.2529C21.3924 25.4012 21.3323 25.6147 21.3793 25.8164L21.3948 25.8711L23.6911 32.7326C23.7794 32.9804 24.0186 33.1429 24.2826 33.1343C24.5285 33.1301 24.7456 32.9789 24.8355 32.7546L24.8528 32.7054L25.6779 29.9693C25.7598 29.7004 25.9619 29.4858 26.2232 29.3862L26.2846 29.3653L29.0328 28.5438C29.285 28.4678 29.459 28.2384 29.4635 27.9761C29.4682 27.7314 29.3244 27.5099 29.1027 27.4122L29.054 27.3932L22.1623 25.107C21.9442 25.0347 21.7039 25.0911 21.5413 25.2529Z" fill="white"/>
</svg>
