<svg width="64" height="64" viewBox="0 0 64 64" fill="none" xmlns="http://www.w3.org/2000/svg">
<rect width="64" height="64" rx="12" fill="#334148"/>
<path fill-rule="evenodd" clip-rule="evenodd" d="M52.4307 32.3362C52.5094 32.4159 52.5094 32.5756 52.5881 32.7356C52.6667 32.8953 52.6667 33.055 52.6667 33.215C52.6667 33.3747 52.6667 33.5344 52.5881 33.6144C52.5438 33.6581 52.4995 33.7259 52.4454 33.7912C52.3987 33.8453 52.3446 33.8978 52.2733 33.9337C52.1159 34.0137 51.8798 34.0937 51.6438 34.0937H50.8568H50.3085C49.915 34.0137 49.5215 34.0937 49.1305 34.1734C48.7371 34.2534 48.4223 34.4131 48.1075 34.6528C47.478 35.2122 46.9296 35.7712 46.4575 36.4903L46.3788 36.65C46.3001 36.81 46.2214 36.9697 46.064 37.1294L46.0321 37.28C46.0321 37.28 46.064 37.3691 45.9853 37.4491L45.9066 37.5291L45.6706 37.6887C45.2796 38.0881 44.8074 38.3278 44.2566 38.4078C43.7082 38.4875 43.1573 38.4875 42.6852 38.4078C42.213 38.3278 41.7433 38.1681 41.2712 37.9284C40.4056 37.5291 39.6211 36.9697 38.9129 36.3306L38.1284 35.5316V35.6116V35.9312V38.0084C38.1284 38.9137 38.067 39.7875 37.9612 40.6494C37.8997 41.1562 37.8235 41.6594 37.735 42.1625C37.735 42.3222 37.6563 42.4022 37.5776 42.4822L37.4989 42.5619L37.4202 42.6419L37.1841 42.8016C37.135 42.8522 37.0858 42.9028 37.0366 42.9331C37.0071 42.9509 36.9776 42.9616 36.9481 42.9616L36.8694 43.0412C36.83 43.0809 36.7907 43.1009 36.7538 43.1209C36.7145 43.1409 36.6751 43.1609 36.6358 43.2009H36.5571L36.3997 43.2809L36.0849 43.4406L35.9718 43.5037C35.8784 43.5578 35.807 43.6006 35.6915 43.6006L35.5341 43.6803C34.907 43.8403 34.2775 43.92 33.5692 43.92H33.0209H32.6274L32.0766 43.8403H31.9979H31.8405L30.9773 43.6006L29.9543 43.2809H29.8757L28.8551 42.8016C28.7617 42.7697 28.6781 42.7122 28.619 42.6394C28.5305 42.53 28.4936 42.3862 28.5403 42.2425C28.5403 42.0028 28.619 41.3637 28.619 41.3637V40.485C28.619 40.0728 28.5846 39.6941 28.5207 39.3269C28.4838 39.1247 28.4395 38.9259 28.383 38.7272C28.3043 38.2478 28.0682 37.7687 27.6772 37.3691C27.4239 37.1637 27.1387 37.0244 26.8436 36.9509C26.6788 36.91 26.5091 36.8897 26.3394 36.8897C25.8697 36.81 25.3976 36.9697 25.0041 37.2894C24.6107 37.6087 24.3746 38.0881 24.2959 38.5675C24.0623 39.7659 24.0623 40.9641 24.2959 42.0825C24.3746 42.3222 24.2197 42.4822 24.0623 42.6419C23.8262 42.8016 23.6688 42.8816 23.5115 42.9616L23.0393 43.2009C22.7245 43.3609 22.4122 43.5206 22.0188 43.6006C21.3105 43.8403 20.6048 44 19.8179 44C19.0309 44 18.3252 43.92 17.5383 43.6803C16.8325 43.4406 16.1243 43.1212 15.4947 42.6419C15.3373 42.5619 15.2611 42.4022 15.2611 42.2425C15.1037 41.1241 15.025 39.9256 15.025 38.6475C15.025 37.4491 15.025 36.2506 15.1037 35.0525C15.1037 34.4328 15.1824 33.8531 15.2562 33.3128C15.2857 33.0869 15.3152 32.8678 15.3373 32.6556C15.025 32.8953 14.7103 33.135 14.3168 33.215C14.1594 33.2947 13.9234 33.2947 13.766 33.2947C13.5324 33.2947 13.2963 33.215 13.1389 33.135V32.8953L12.9815 32.7356L12.9028 32.6556C12.8536 32.6556 12.8364 32.625 12.8118 32.5831C12.7946 32.5572 12.7749 32.5266 12.7454 32.4959L12.6667 32.3362V32.1762V32.0166V31.9366V31.8569V31.6969V31.6172C12.7086 31.5341 12.7504 31.4509 12.802 31.3791C12.8487 31.3125 12.9053 31.2559 12.9815 31.2175L13.0602 31.1378L13.375 30.8181C13.5324 30.6584 13.6873 30.4987 13.8447 30.2591C14.002 30.0991 14.0807 29.9394 14.0807 29.6997V29.3003V29.2203C14.0807 29.1406 14.1004 29.0806 14.1201 29.0206C14.1398 28.9606 14.1594 28.9006 14.1594 28.8209C14.2381 28.1019 14.5529 27.4628 15.025 26.9834L15.2611 26.7437L15.4947 26.5841L15.5734 26.5041H15.7308L15.9669 26.4244C16.2817 26.2644 16.6751 26.2644 17.0686 26.2644L17.4596 26.3637C17.6661 26.4197 17.8678 26.4872 18.0104 26.5841C18.2465 26.6641 18.4039 26.7437 18.5613 26.9037L18.7186 26.7437L19.1096 26.5841L19.267 26.5041C19.5818 26.3444 19.9752 26.1847 20.1326 25.945C20.9171 25.6253 21.6253 25.3856 22.4122 25.1459L22.7245 25.0662L23.0393 24.9862H23.2754L23.6688 24.8266H23.9049C24.0623 24.8266 24.2197 24.8066 24.3771 24.7866C24.5344 24.7666 24.6894 24.7466 24.8468 24.7466H26.6542C26.6936 24.6269 26.7132 24.5069 26.7329 24.3869C26.7526 24.2672 26.7722 24.1475 26.8116 24.0275C26.969 23.4684 27.1264 22.9091 27.4411 22.35C27.7559 21.7906 28.1469 21.3112 28.619 20.9119C29.0912 20.5125 29.6396 20.2728 30.2691 20.1131L30.3773 20.0991C30.9626 20.0244 31.4839 19.9578 32.0766 20.0331C33.2545 20.1928 34.4349 20.7522 35.3767 21.5509C36.2423 22.19 36.8694 23.0687 37.2628 24.0275H37.5776C37.8137 24.0275 38.0498 24.0275 38.2071 24.1875C38.6768 24.2672 39.149 24.3472 39.6211 24.5869C40.4843 24.9862 41.2712 25.6253 41.822 26.5041C42.1343 26.9037 42.3704 27.3031 42.5278 27.7825C42.7639 28.1819 42.9213 28.6612 43 29.1406C43.0787 29.2203 43.0787 29.3003 43.0787 29.3803C43.0787 29.46 43.0983 29.54 43.118 29.62C43.1377 29.6997 43.1573 29.7794 43.1573 29.8594V30.0194C43.1573 30.2591 43.236 30.4187 43.236 30.5784C43.3147 30.9781 43.3934 31.4572 43.4721 31.8569C43.5508 32.2562 43.6295 32.7356 43.7869 33.135C43.809 33.2534 43.8385 33.365 43.8754 33.4716C43.9639 33.7241 44.0893 33.9487 44.2566 34.1734H44.3353C44.414 34.1734 44.4926 34.1734 44.5713 34.0937C44.7287 34.0137 44.8074 33.9337 44.9648 33.7741C45.0435 33.6144 45.2009 33.4547 45.3583 33.2947L45.7517 32.7756L46.1427 32.2562L46.7722 31.4572C46.8509 31.2975 46.9296 31.2175 47.0083 31.1378C47.4018 30.7384 47.8715 30.4187 48.4223 30.2591C48.9732 30.0991 49.5215 30.0991 50.0724 30.3387C50.5445 30.4987 51.0142 30.8181 51.4077 31.1378C51.8798 31.4572 52.1946 31.8569 52.4307 32.3362ZM39.4416 28.4716C39.5056 28.3637 39.5424 28.2375 39.5424 28.1022C39.5424 27.705 39.2252 27.3831 38.8367 27.3831C38.4457 27.3831 38.1284 27.705 38.1284 28.1022C38.1284 28.4994 38.4457 28.8212 38.8367 28.8212C39.0924 28.8212 39.3187 28.6809 39.4416 28.4716Z" fill="white"/>
</svg>
