<svg width="64" height="64" viewBox="0 0 64 64" fill="none" xmlns="http://www.w3.org/2000/svg">
<rect width="64" height="64" rx="12" fill="#FEAF52"/>
<g clip-path="url(#clip0_7943_6558)">
<path fill-rule="evenodd" clip-rule="evenodd" d="M53 46.9235C53 48.5182 45.1545 49.8111 35.4768 49.8111C25.7989 49.8111 17.9536 48.5182 17.9536 46.9235C17.9536 45.329 25.7989 44.0361 35.4768 44.0361C45.1545 44.0361 53 45.329 53 46.9235Z" fill="#D38E44"/>
<path fill-rule="evenodd" clip-rule="evenodd" d="M30.1601 46.4663C33.7969 46.374 38.4088 48.2339 41.3813 46.1763C42.0527 45.7118 41.6916 45.3885 41.6456 45.4369C38.8299 48.4321 35.002 45.937 29.5968 45.6669C29.5601 45.665 30.1567 46.4232 30.1601 46.4663Z" fill="#3E0000"/>
<path fill-rule="evenodd" clip-rule="evenodd" d="M24.9804 27.0063C22.8052 24.5627 19.3849 24.8281 17.7254 25.7784C15.4196 27.0996 11.118 31.9393 13.8331 34.4828C15.6231 36.16 15.9924 37.3009 18.6004 38.865C20.0135 39.7124 21.7394 41.7206 23.6915 42.8459C24.691 43.4221 26.2448 44.2556 26.3751 45.3891C26.5897 47.2566 29.1982 47.6299 31.5199 47.5035C31.9743 47.4789 30.7314 46.545 31.1437 46.4895C31.836 46.3965 34.1141 46.9804 34.5497 47.0349C36.7295 47.3079 38.3485 47.4427 39.533 47.4374C42.0474 47.4266 42.8753 46.2281 43.2797 45.8126C44.5869 44.4684 43.2924 43.755 42.8822 43.0402C42.7352 42.7846 43.1074 42.3188 43.1848 42.1174C43.8235 40.4602 44.2329 39.875 45.2398 38.3947C46.0299 37.2329 45.8317 38.778 46.5129 36.8489C48.2044 32.0591 46.8348 35.294 47.06 32.9586C47.1407 32.1201 50.0217 31.2124 47.7304 27.2814C46.9802 25.9938 45.6762 22.7057 44.2517 21.0351C42.7786 19.3079 43.4902 20.7668 42.1706 20.3708C31.7829 17.2562 37.4239 21.5368 30.5775 19.7417C27.3917 18.9067 27.0581 18.6939 26.4414 22.9574C26.1475 24.9896 26.1113 24.1147 24.9804 27.0063Z" fill="#AA7B55"/>
<path fill-rule="evenodd" clip-rule="evenodd" d="M37.2676 41.7018C39.1256 41.9878 41.5234 40.0201 44.2361 35.1642C43.1967 48.0919 26.1488 47.6513 22.8305 37.4288C22.4168 36.1536 23.1853 31.2692 24.5651 28.4595C28.4083 20.6359 24.355 28.0567 23.4721 28.4503C22.8681 28.7196 21.9839 28.472 21.8245 28.8338C19.4547 34.215 18.2921 37.1806 20.1153 39.6445C21.7943 41.9135 24.6671 42.7901 25.0232 43.0468C25.1223 43.1176 25.8524 46.2096 27.3116 46.8104C28.3325 47.2307 29.6293 47.6306 30.5603 47.4094C30.9803 47.3095 31.0176 46.6277 31.459 46.5572C32.4968 46.3906 33.951 46.6698 34.0651 46.6772C34.8679 46.7321 38.1986 47.8334 40.3363 47.3896C42.9308 46.8508 44.3444 44.7142 44.6971 44.3536C45.1631 43.877 41.6413 43.0121 42.1378 42.4589C44.5242 39.7996 46.7193 36.2874 45.6878 34.3685C45.6558 34.3091 48.5601 32.5092 48.5982 30.2697C48.6376 27.9552 47.6283 34.6524 41.4053 33.257C39.4616 32.8211 39.5668 37.2578 38.5198 37.2123C31.5331 36.9057 37.0442 40.7557 37.2676 41.7018Z" fill="#8C5D40"/>
<path fill-rule="evenodd" clip-rule="evenodd" d="M38.6311 30.6814C38.6459 31.1561 34.8843 32.4207 33.9346 33.1543C33.0218 33.8598 32.4244 33.5762 32.3697 35.2973C32.3612 35.569 33.274 38.2066 33.4841 38.6398C34.3995 40.5277 35.2734 41.6543 37.5949 41.4931C38.2597 41.4473 38.9824 40.9245 39.5126 40.5555C40.2348 40.0527 42.4103 36.0237 43.2237 34.9026C44.7597 32.7845 42.6342 33.1202 40.8618 31.314C40.602 31.0494 39.0075 30.6814 38.6311 30.6814Z" fill="white"/>
<path fill-rule="evenodd" clip-rule="evenodd" d="M38.6313 30.6814C38.6461 30.9621 35.4767 32.6695 34.5272 33.1038C33.6144 33.5212 32.7461 32.4654 32.3699 33.4131C31.713 35.0681 34.4714 39.1354 34.6813 39.3916C34.3358 38.2721 33.629 36.6536 34.1542 35.6998C34.6837 34.7395 37.7135 33.3576 37.6995 34.3478C37.6852 35.3525 37.4307 37.1904 37.1158 39.7847C37.7806 39.7577 39.2784 34.8833 39.6722 34.4686C40.2813 33.827 41.5419 34.5288 41.6857 35.0705C41.8295 35.6116 41.1988 37.1669 39.617 39.6623C40.2144 39.1748 42.9196 36.596 43.3122 35.2359C43.9281 33.1014 41.944 31.9663 40.862 31.314C40.6024 31.1577 39.0077 30.6814 38.6313 30.6814Z" fill="#ECE1DA"/>
<path fill-rule="evenodd" clip-rule="evenodd" d="M26.9485 19.1911C26.3059 19.2324 26.9575 17.5115 27.635 16.9044C30.2128 14.5935 30.3231 15.2277 32.8335 14.3543C33.8694 13.9943 36.8771 14.6255 37.8326 15.1103C38.1908 15.2919 38.9122 17.2327 39.9032 17.6823C41.1482 18.2472 42.0089 19.879 39.8982 20.1954C37.6717 20.5292 34.2033 20.8834 32.3376 19.3936C31.0772 18.387 31.8245 20.3664 30.1127 19.6191C30.1095 19.6181 26.9541 19.1906 26.9485 19.1911Z" fill="#FA9339"/>
<path fill-rule="evenodd" clip-rule="evenodd" d="M32.5532 19.3613C32.2077 19.3835 33.6655 18.8882 34.0293 18.562C35.4152 17.3196 35.5878 18.0552 36.9375 17.5855C37.4942 17.3923 39.6895 17.9149 40.2031 18.1758C40.3956 18.2731 40.4188 18.5794 40.9515 18.8208C41.6208 19.1245 42.0963 19.5546 40.9615 19.7248C39.7646 19.9045 37.5608 20.701 36.5579 19.9001C35.8804 19.359 36.365 20.0647 35.3615 20.0216C34.9655 20.0047 28.8644 19.2138 32.5532 19.3613Z" fill="#8B4519"/>
<path fill-rule="evenodd" clip-rule="evenodd" d="M20.5904 25.9169C20.0187 25.2595 14.5165 33.7828 14.0238 34.2647C12.9704 35.2945 14.5257 35.8243 16.3367 37.3273C19.5112 39.9622 18.9198 39.7092 21.1979 40.7732C21.2093 40.7417 21.2087 40.7306 21.0084 40.5332C20.896 40.4224 21.7192 38.1843 21.509 37.9799C21.2989 37.7753 20.91 39.1221 20.4231 39.941C19.9867 39.5215 19.3121 38.8792 19.3459 38.7959C20.0507 37.0717 21.9766 32.8076 21.6853 32.6263C21.2978 32.3855 19.2347 37.2506 18.532 38.0418C18.2822 38.3236 17.6143 37.9419 17.4025 37.71C17.2714 37.5668 17.0668 37.3556 17.208 37.0489C18.3277 34.6202 22.817 26.8484 22.4569 26.5983C22.1257 26.3678 18.1715 33.6525 16.5265 35.805C15.9553 36.5522 15.2291 35.3062 14.88 35.0656C15.3759 34.3622 20.7411 26.0903 20.5904 25.9169Z" fill="#3E0000"/>
<path fill-rule="evenodd" clip-rule="evenodd" d="M37.2419 28.8058C37.4 28.9974 37.5457 29.1465 37.6908 29.2932C37.5375 28.884 37.5282 28.4153 37.668 28.0009C37.1843 28.1727 36.9422 28.4423 37.2419 28.8058Z" fill="#3E0000"/>
<path fill-rule="evenodd" clip-rule="evenodd" d="M43.7267 25.1431C43.7857 25.1431 43.842 25.1534 43.8946 25.1719C43.7151 25.0017 43.4727 24.8965 43.2057 24.8965C42.6535 24.8965 42.2065 25.3443 42.2065 25.8959C42.2065 26.4481 42.6535 26.8954 43.2057 26.8954C43.7577 26.8954 44.2052 26.4481 44.2052 25.8959C44.2052 25.864 44.2034 25.8322 44.2007 25.8013C44.1344 25.9993 43.9472 26.1423 43.7267 26.1423C43.4508 26.1423 43.2269 25.9189 43.2269 25.6427C43.2269 25.3667 43.4508 25.1431 43.7267 25.1431Z" fill="#3E0000"/>
<path fill-rule="evenodd" clip-rule="evenodd" d="M30.6515 45.8156C30.518 45.7162 30.2566 45.5753 30.2082 45.6131C30.1379 45.6686 30.5931 46.2967 30.3816 46.768C30.1696 47.239 27.4356 46.4333 27.2751 46.0958C27.1036 45.7352 27.6156 44.5751 27.5109 44.2132C27.406 43.8513 26.5781 43.4276 26.0748 43.1548C21.9635 40.9267 13.809 34.37 14.2084 32.01C14.5846 29.7877 18.2049 25.6873 19.0394 25.4909C19.874 25.2945 23.1163 25.8319 23.1927 25.5935C23.2773 25.3297 18.86 23.5967 17.9398 23.8655C17.0701 24.119 11.4154 29.9059 11.0419 32.0388C10.1611 37.0724 23.4385 43.547 25.1916 44.5748C25.7103 44.8782 24.7957 46.0786 25.1906 46.7408C25.7089 47.6083 31.9526 48.2348 32.0758 47.6826C32.1762 47.233 31.2394 46.252 30.6515 45.8156Z" fill="#3E0000"/>
<path fill-rule="evenodd" clip-rule="evenodd" d="M38.2118 40.9895C37.9694 41.113 37.5404 41.16 37.108 41.1515C38.2335 38.3311 39.4095 35.1611 39.9755 31.3457C40.805 32.3404 42.0664 33.6044 43.0442 34.1506C42.4753 36.131 39.3242 40.423 38.2118 40.9895ZM36.6041 41.1167C36.2761 41.0775 35.9919 41.0077 35.8468 40.9187C35.0326 40.4177 33.325 37.0955 32.9087 34.8476C34.38 34.5947 37.2111 32.8365 38.5629 31.4662C38.2724 34.5682 37.4252 37.9589 36.6041 41.1167ZM36.3998 19.137C35.1336 19.1613 33.8635 19.2395 32.8844 19.3019C34.9972 17.6324 40.0448 17.3503 40.5724 19.1827C39.5412 19.1782 38.0302 19.106 36.3998 19.137ZM30.8321 19.106C30.3187 18.5256 29.3893 17.2187 28.8202 17.2057C28.5926 17.2004 28.0621 17.5269 27.4488 17.9887C27.7271 15.998 30.4937 14.878 33.0742 14.6588C33.7017 15.1529 34.2333 15.7164 34.9377 17.2612C33.7382 17.3181 32.7749 17.4309 32.4477 17.6083C31.8656 17.9242 31.2698 18.5084 30.8321 19.106ZM37.1997 15.4315C37.5264 15.7172 38.127 16.5076 38.5245 17.2403C37.7812 17.2179 36.9956 17.2118 36.2423 17.2224C35.6689 16.0099 35.012 15.2369 34.3073 14.6234C35.5444 14.6607 36.6232 14.9287 37.1997 15.4315ZM44.8753 20.9554C44.8655 20.3431 45.879 19.7391 45.7944 18.9675C45.7375 18.4463 43.5456 17.4341 43.0503 17.6395C42.6622 17.8005 42.4296 18.4928 42.1002 18.8703C42.2306 18.3638 42.2803 17.8629 42.1235 17.671C41.9916 17.5094 41.1328 17.3855 39.9744 17.3083C39.5502 16.345 38.598 15.2991 37.9591 14.7212C37.2985 14.1235 35.6097 13.9549 33.7094 14.1426C33.5153 13.9969 33.439 13.9692 32.9653 14.0308C32.5243 14.0876 32.4918 14.1968 32.5904 14.2906C29.8077 14.7506 26.9159 15.907 26.2807 17.5512C26.1654 17.8496 26.0851 18.3963 26.1155 19.0881C25.2574 19.8531 24.5342 20.613 24.526 20.8504C24.5078 21.3799 25.4464 22.134 25.5157 22.529C25.5847 22.9239 23.8263 25.6167 22.77 29.3306C21.4713 33.8955 22.2456 40.1989 26.3114 40.1653C28.5141 40.1468 27.9701 36.7929 26.4737 36.8587C26.0304 36.8783 26.2841 39.5988 25.277 39.1516C23.4914 38.358 23.2466 33.6298 24.5392 30.3502C27.1445 23.7407 28.1498 23.3865 28.0697 22.9138C27.9896 22.4412 26.968 21.6217 26.9431 21.3019C26.9143 20.931 28.4015 19.5084 28.8493 19.6646C29.2418 19.8015 29.8852 21.3061 30.4385 21.4042C30.9283 21.4912 40.27 19.848 42.5179 20.8642C44.7658 21.8803 48.087 29.3452 47.8366 30.1197C47.586 30.8939 45.4967 32.2315 43.6099 32.1424C42.2929 32.0803 40.5708 30.882 39.8346 30.241C39.8526 30.2304 39.8692 30.2148 39.8869 30.2029C39.6929 30.2817 39.474 30.3306 39.2229 30.3306C38.9871 30.3306 38.782 30.2849 38.5964 30.2151C37.5306 31.1067 35.6459 32.3118 33.9692 32.4221C31.7763 32.5653 29.6103 31.0969 29.255 30.4601C28.853 29.7393 30.342 26.9867 30.1324 26.8149C29.7099 26.4684 25.8805 30.559 26.3042 31.9933C26.6257 33.0808 29.0203 34.1815 30.9574 34.6475C31.448 36.4395 33.6179 40.7942 34.3525 41.2726C35.136 41.783 37.4349 41.9736 38.4019 41.5758C39.5058 41.1217 43.0849 37.4995 44.1708 34.4226C44.5173 34.3993 44.9302 34.3152 45.372 34.1865C44.9723 40.2557 39.2676 44.4655 39.4846 44.8673C39.7059 45.2768 42.9707 44.29 43.363 44.6836C43.7257 45.0474 42.1423 46.7893 42.2388 46.8303C42.3352 46.871 46.1586 44.3352 45.8705 43.3083C45.7018 42.7077 43.3397 43.0172 43.2023 42.7759C43.0714 42.5454 47.2784 39.5967 48.2561 32.8947C48.9437 32.4662 49.4763 32.0092 49.6563 31.6105C50.2099 30.3856 44.8774 21.1145 44.8753 20.9554Z" fill="#3E0000"/>
<path fill-rule="evenodd" clip-rule="evenodd" d="M34.7953 25.1428C34.8545 25.1428 34.9111 25.1532 34.9637 25.1722C34.7842 25.0014 34.5418 24.8965 34.2749 24.8965C33.7229 24.8965 33.2754 25.3443 33.2754 25.8962C33.2754 26.4479 33.7229 26.8954 34.2749 26.8954C34.8268 26.8954 35.274 26.4479 35.274 25.8962C35.274 25.8642 35.2725 25.8322 35.2696 25.801C35.2148 25.9652 35.0771 26.0916 34.9058 26.1299C34.8701 26.1381 34.8334 26.142 34.7953 26.142C34.5196 26.142 34.296 25.9189 34.296 25.6427C34.296 25.4931 34.3613 25.3588 34.4652 25.2676C34.5535 25.1899 34.669 25.1428 34.7953 25.1428Z" fill="#3E0000"/>
<path fill-rule="evenodd" clip-rule="evenodd" d="M43.2192 26.8795C43.763 26.8795 44.2063 26.436 44.2063 25.8925C44.2063 25.3487 43.763 24.9049 43.2192 24.9049C42.6755 24.9049 42.2319 25.3487 42.2319 25.8925C42.2319 26.436 42.6755 26.8795 43.2192 26.8795Z" fill="#3E0000"/>
<path fill-rule="evenodd" clip-rule="evenodd" d="M43.2194 26.4695C43.5374 26.4695 43.7962 26.2105 43.7962 25.8925C43.7962 25.5747 43.5374 25.3154 43.2194 25.3154C42.9014 25.3154 42.6421 25.5747 42.6421 25.8925C42.6421 26.2105 42.9014 26.4695 43.2194 26.4695Z" fill="black"/>
<path fill-rule="evenodd" clip-rule="evenodd" d="M43.7278 25.8533C43.8883 25.8533 44.0189 25.7227 44.0189 25.5623C44.0189 25.4021 43.8883 25.2712 43.7278 25.2712C43.5676 25.2712 43.4365 25.4021 43.4365 25.5623C43.4365 25.7227 43.5676 25.8533 43.7278 25.8533Z" fill="white"/>
<path fill-rule="evenodd" clip-rule="evenodd" d="M34.2939 26.8834C34.8377 26.8834 35.281 26.4399 35.281 25.8964C35.281 25.3526 34.8377 24.9088 34.2939 24.9088C33.7502 24.9088 33.3066 25.3526 33.3066 25.8964C33.3066 26.4399 33.7502 26.8834 34.2939 26.8834Z" fill="#3E0000"/>
<path fill-rule="evenodd" clip-rule="evenodd" d="M34.2946 26.4731C34.6126 26.4731 34.8714 26.2143 34.8714 25.896C34.8714 25.5783 34.6126 25.319 34.2946 25.319C33.9766 25.319 33.7173 25.5783 33.7173 25.896C33.7173 26.2143 33.9766 26.4731 34.2946 26.4731Z" fill="black"/>
<path fill-rule="evenodd" clip-rule="evenodd" d="M34.803 25.857C34.9632 25.857 35.0941 25.7264 35.0941 25.5659C35.0941 25.4057 34.9632 25.2749 34.803 25.2749C34.6428 25.2749 34.5117 25.4057 34.5117 25.5659C34.5117 25.7264 34.6428 25.857 34.803 25.857Z" fill="white"/>
<path fill-rule="evenodd" clip-rule="evenodd" d="M38.6051 30.2139C38.5284 30.164 38.8779 29.704 38.9529 29.3696C39.0526 28.9261 38.6796 28.8394 38.4158 28.8946C37.9241 28.9977 38.2672 29.552 38.3759 29.7603C38.4652 29.9316 38.4034 30.0376 38.1216 29.7458C37.9802 29.5993 37.8588 29.4629 37.7319 29.3347C37.5747 29.1761 37.4169 29.0167 37.2456 28.809C36.1951 27.5351 41.7877 27.4117 41.1821 28.621C40.9603 29.0633 40.6825 29.3818 40.3684 29.745C39.8998 30.2869 40.4253 29.3424 40.429 29.1286C40.4337 28.8684 40.2812 28.9031 40.1776 29.0019C39.9236 29.2433 40.4364 30.3144 39.3225 30.3916C39.0608 30.4098 38.7901 30.3551 38.6051 30.2139Z" fill="black"/>
<path fill-rule="evenodd" clip-rule="evenodd" d="M19.6455 25.447C21.6777 25.5821 23.0806 26.0177 25.0967 26.7121C24.4467 25.9635 23.457 25.5667 21.6418 24.7922C20.8678 24.4618 20.0825 24.9926 19.6455 25.447Z" fill="#3E0000"/>
<path fill-rule="evenodd" clip-rule="evenodd" d="M22.7339 37.9965C22.3165 38.761 14.1849 32.0656 13.6005 31.7005C12.3512 30.9205 14.0398 29.364 15.486 27.5084C18.0218 24.2554 16.6169 26.1999 18.6142 24.6731C18.6287 24.6958 21.5957 27.3093 21.5103 27.413C21.3908 27.5578 18.2246 25.2729 18.0366 25.4783C17.7091 25.8351 17.3863 26.1989 17.4527 26.2692C18.6565 27.5449 22.1293 29.9231 21.8325 30.2488C21.4252 30.696 18.0382 27.7915 17.0512 27.0971C16.2 26.4981 15.823 28.0297 15.9732 28.2284C17.5867 30.3608 23.4109 34.488 23.1135 34.8089C22.8394 35.1047 17.7503 31.3191 15.5484 29.613C14.8051 29.0373 14.5553 30.4248 14.265 30.7346C14.9005 31.3156 22.8439 37.7951 22.7339 37.9965Z" fill="#3E0000"/>
</g>
<defs>
<clipPath id="clip0_7943_6558">
<rect width="42" height="42" fill="white" transform="translate(11 11)"/>
</clipPath>
</defs>
</svg>
