<svg width="18" height="18" viewBox="0 0 18 18" fill="none" xmlns="http://www.w3.org/2000/svg">
<path d="M17.6481 10.4054L17.8544 8.21367C18.0164 6.49233 18.0974 5.63165 17.8029 5.27586C17.6436 5.08341 17.427 4.96548 17.1954 4.94514C16.7673 4.90754 16.2296 5.51961 15.1543 6.74376C14.5982 7.37685 14.3202 7.69338 14.0099 7.74243C13.8381 7.76952 13.663 7.74162 13.5042 7.66179C13.2178 7.51761 13.0269 7.12631 12.6449 6.34366L10.6318 2.21836C9.91008 0.739458 9.54918 0 9 0C8.45082 0 8.08992 0.739458 7.36821 2.21837L5.35506 6.34367C4.97313 7.12631 4.78216 7.51761 4.49573 7.66179C4.33703 7.74162 4.1619 7.76952 3.99003 7.74243C3.67985 7.69338 3.40179 7.37685 2.84568 6.74376C1.77037 5.51961 1.23271 4.90754 0.804589 4.94514C0.572992 4.96548 0.35638 5.08341 0.197089 5.27586C-0.097382 5.63165 -0.0163821 6.49233 0.145627 8.21367L0.351898 10.4054C0.691783 14.0168 0.86173 15.8224 1.92608 16.9112C2.99044 18 4.58565 18 7.77609 18H10.2239C13.4143 18 15.0096 18 16.0739 16.9112C17.1382 15.8224 17.3082 14.0168 17.6481 10.4054Z" fill="#00EFC6"/>
</svg>
