<svg width="64" height="64" viewBox="0 0 64 64" fill="none" xmlns="http://www.w3.org/2000/svg">
<rect width="64" height="64" rx="12" fill="#333333"/>
<path fill-rule="evenodd" clip-rule="evenodd" d="M24.9869 12.6465C24.9331 12.4279 24.9331 12.4279 24.6499 12.1816C24.4512 12.1098 24.3139 12.0601 24.1723 12.0311C23.8551 11.9661 23.5169 12.0048 22.4207 12.1304C21.8578 12.2059 21.5765 12.2437 21.295 12.2809C21.0135 12.3181 20.7319 12.3547 20.1688 12.4279L16 12.9069V51.227H23.5038L23.6229 48.2331C23.6608 48.2663 23.6987 48.2994 23.7366 48.3326C24.5047 49.0059 25.2588 49.6666 26.1372 50.1953L26.4815 50.3884C28.6962 51.643 31.1224 52.0568 33.642 51.9939C36.8171 51.8302 40.249 50.4913 42.4439 48.1339L42.6803 47.8738C43.5531 46.9753 44.3056 46.0696 44.9363 44.9819L45.0624 44.7603C46.4751 42.2852 46.9783 39.7375 46.9966 36.9024L46.9979 36.6548C47.0034 35.8988 47.0039 35.1491 46.9219 34.3969C46.355 30.5163 44.4951 27.1341 41.4435 24.676L41.2509 24.5226C38.9908 22.7194 36.2938 21.9258 33.4477 21.7814L33.1516 21.7684C30.6734 21.6545 28.2566 22.1444 26.0901 23.3793L25.8353 23.5263L25.3215 23.82L24.9331 24.0436C24.9456 22.6731 24.9558 21.3027 24.9622 19.9322L24.9629 19.7713C24.9656 19.1266 24.9684 18.4819 24.974 17.8372C24.9806 17.1527 24.9865 16.4682 24.9887 15.7837C24.9893 15.5238 24.9902 15.2639 24.9913 15.0039C24.9959 14.6287 25.0006 14.2537 25.001 13.8785L25.0007 13.535C25.0067 13.2366 25.0069 12.9442 24.9869 12.6465ZM35.8912 30.9892L35.6698 30.7932C33.0416 28.6258 28.8373 28.977 26.4314 31.2633C25.0789 32.7006 24.3971 34.4062 24.4033 36.3851L24.4122 36.8344C24.4122 36.9205 24.412 37.0065 24.4117 37.0926C24.4098 37.7582 24.4079 38.4237 24.5625 39.0746C25.229 41.1696 26.3076 42.6707 28.2427 43.7453C29.7246 44.4296 32.0015 44.6061 33.5714 44.0563L33.8664 43.9221C35.477 43.2364 36.6652 42.3007 37.4987 40.7094L37.6779 40.3296C38.1751 39.317 38.3107 38.4046 38.3367 37.287L38.3404 36.8419C38.3439 36.5622 38.3441 36.2824 38.3408 36.0027C38.2528 34.2168 37.4515 32.3987 36.1276 31.1889L35.8912 30.9892Z" fill="white"/>
</svg>
