<svg width="32" height="32" viewBox="0 0 32 32" fill="none" xmlns="http://www.w3.org/2000/svg">
<rect width="32" height="32" rx="6" fill="#0067DE"/>
<path d="M8 25.4V6.6C8 6.26863 8.26863 6 8.6 6H20.2515C20.4106 6 20.5632 6.06321 20.6757 6.17574L23.8243 9.32426C23.9368 9.43679 24 9.5894 24 9.74853V25.4C24 25.7314 23.7314 26 23.4 26H8.6C8.26863 26 8 25.7314 8 25.4Z" stroke="white" stroke-width="1.2" stroke-linecap="round" stroke-linejoin="round"/>
<path d="M14.6349 14.4151L15.674 12.2121C15.8073 11.9293 16.1927 11.9293 16.326 12.2121L17.3651 14.4151L19.6886 14.7706C19.9867 14.8162 20.1055 15.1997 19.8897 15.4198L18.2087 17.1334L18.6054 19.5543C18.6564 19.8652 18.3446 20.1022 18.0778 19.9554L16 18.8118L13.9222 19.9554C13.6554 20.1022 13.3436 19.8652 13.3946 19.5543L13.7913 17.1334L12.1103 15.4198C11.8945 15.1997 12.0133 14.8162 12.3114 14.7706L14.6349 14.4151Z" stroke="white" stroke-width="1.2" stroke-linecap="round" stroke-linejoin="round"/>
<path d="M20 6V9.4C20 9.73137 20.2686 10 20.6 10H24" stroke="white" stroke-width="1.2" stroke-linecap="round" stroke-linejoin="round"/>
</svg>
