<svg width="64" height="64" viewBox="0 0 64 64" fill="none" xmlns="http://www.w3.org/2000/svg">
<rect width="64" height="64" rx="12" fill="#AE7F7D"/>
<g clip-path="url(#clip0_7943_6270)">
<path d="M38.3672 20.8207H44.5014C43.3918 19.7083 39.5842 15.9044 38.3672 14.692V20.8207Z" fill="white"/>
<path d="M49.195 29.6799H15.3047C14.7222 29.6799 14.25 30.1521 14.25 30.7346V42.2657C14.25 42.8482 14.7222 43.3204 15.3047 43.3204H49.195C49.7774 43.3204 50.2496 42.8482 50.2496 42.2657V30.7346C50.2496 30.1521 49.7775 29.6799 49.195 29.6799ZM26.0624 33.6174H24.3046V40.4376C24.3046 41.0201 23.8324 41.4923 23.2499 41.4923C22.6674 41.4923 22.1952 41.0201 22.1952 40.4376V33.6174H20.4374C19.855 33.6174 19.3828 33.1452 19.3828 32.5627C19.3828 31.9803 19.855 31.508 20.4374 31.508H26.0624C26.6448 31.508 27.1171 31.9803 27.1171 32.5627C27.1171 33.1452 26.6448 33.6174 26.0624 33.6174ZM35.7144 41.425C35.1694 41.6298 34.561 41.3537 34.3563 40.8084L33.9794 39.8048H30.5231L30.1426 40.8107C29.983 41.2327 29.5818 41.4925 29.156 41.4925C28.4242 41.4925 27.9073 40.758 28.1697 40.0644C31.2413 31.9438 31.1076 32.2967 31.1161 32.2761C31.3072 31.809 31.7567 31.508 32.2604 31.508C32.7944 31.508 33.246 31.8455 33.4157 32.3044L36.3309 40.0667C36.5357 40.6121 36.2597 41.2201 35.7144 41.425ZM44.0631 41.4924C43.734 41.4924 43.4099 41.3388 43.204 41.0506L41.2497 38.3147L39.2955 41.0506C39.0896 41.3388 38.7654 41.4924 38.4363 41.4924C37.5881 41.4924 37.0781 40.5259 37.579 39.8246L39.9536 36.5002L37.579 33.1758C37.2405 32.7018 37.3502 32.0431 37.8242 31.7045C38.2982 31.3659 38.9569 31.4757 39.2955 31.9497L41.2497 34.6856L43.204 31.9497C43.5425 31.4758 44.2014 31.366 44.6753 31.7045C45.1492 32.043 45.2591 32.7017 44.9204 33.1758L42.5459 36.5002L44.9204 39.8246C45.4215 40.526 44.9112 41.4924 44.0631 41.4924Z" fill="white"/>
<path d="M19.3828 47.8906C19.3828 49.0537 20.3291 50 21.4922 50H43.0076C44.1707 50 45.1169 49.0537 45.1169 47.8906V45.4297H19.3828V47.8906Z" fill="white"/>
<path d="M45.1169 22.9299H37.3123C36.7299 22.9299 36.2576 22.4577 36.2576 21.8752V14.0004C34.6489 13.9995 30.7901 14.0003 21.4922 14.0003C20.3291 14.0003 19.3828 15.0169 19.3828 16.18V27.5705H45.1169V22.9299ZM29.9999 25.1799H24.9374C24.355 25.1799 23.8828 24.7077 23.8828 24.1252C23.8828 23.5427 24.355 23.0705 24.9374 23.0705H29.9999C30.5824 23.0705 31.0546 23.5427 31.0546 24.1252C31.0546 24.7077 30.5824 25.1799 29.9999 25.1799ZM29.9999 20.6799H24.9374C24.355 20.6799 23.8828 20.2077 23.8828 19.6253C23.8828 19.0428 24.355 18.5706 24.9374 18.5706H29.9999C30.5824 18.5706 31.0546 19.0428 31.0546 19.6253C31.0546 20.2077 30.5824 20.6799 29.9999 20.6799Z" fill="white"/>
<path d="M31.3208 37.6955H33.187L32.2572 35.2198L31.3208 37.6955Z" fill="white"/>
</g>
<defs>
<clipPath id="clip0_7943_6270">
<rect width="36" height="36" fill="white" transform="translate(14.25 14)"/>
</clipPath>
</defs>
</svg>
