<svg width="64" height="64" viewBox="0 0 64 64" fill="none" xmlns="http://www.w3.org/2000/svg">
<rect width="64" height="64" rx="12" fill="#9D58A6"/>
<path d="M30.875 24.125V24.2857H32C32.6213 24.2857 33.125 24.7894 33.125 25.4108C33.125 26.032 32.6213 26.5358 32 26.5358H29.1072C28.8409 26.5358 28.625 26.7515 28.625 27.0178C28.625 27.2841 28.8409 27.5 29.1072 27.5H30.3928C31.9018 27.5 33.125 28.7232 33.125 30.2322C33.125 31.5766 32.154 32.6941 30.875 32.9218V33.125C30.875 33.7463 30.3713 34.25 29.75 34.25C29.1287 34.25 28.625 33.7463 28.625 33.125V32.9642H27.5C26.8787 32.9642 26.375 32.4606 26.375 31.8392C26.375 31.218 26.8787 30.7142 27.5 30.7142H30.3928C30.6591 30.7142 30.875 30.4985 30.875 30.2322C30.875 29.9659 30.6591 29.75 30.3928 29.75H29.1072C27.5982 29.75 26.375 28.5268 26.375 27.0178C26.375 25.6734 27.346 24.5558 28.625 24.3281V24.125C28.625 23.5037 29.1287 23 29.75 23C30.3713 23 30.875 23.5037 30.875 24.125Z" fill="white"/>
<path fill-rule="evenodd" clip-rule="evenodd" d="M16.25 17.375C16.25 15.511 17.761 14 19.625 14H39.875C41.739 14 43.25 15.511 43.25 17.375V18.5H44.375C46.239 18.5 47.75 20.011 47.75 21.875V46.625C47.75 48.489 46.239 50 44.375 50H24.125C22.261 50 20.75 48.489 20.75 46.625V44.375H19.625C17.761 44.375 16.25 42.864 16.25 41V17.375ZM43.25 41V20.75H44.375C44.9963 20.75 45.5 21.2537 45.5 21.875V46.625C45.5 47.2463 44.9963 47.75 44.375 47.75H24.125C23.5037 47.75 23 47.2463 23 46.625V44.375H39.875C41.739 44.375 43.25 42.864 43.25 41ZM29.75 36.5C25.4008 36.5 21.875 32.9743 21.875 28.625C21.875 24.2758 25.4008 20.75 29.75 20.75C34.0993 20.75 37.625 24.2758 37.625 28.625C37.625 32.9743 34.0993 36.5 29.75 36.5Z" fill="white"/>
</svg>
