<svg width="64" height="64" viewBox="0 0 64 64" fill="none" xmlns="http://www.w3.org/2000/svg">
<rect width="64" height="64" rx="12" fill="#5D707F"/>
<g clip-path="url(#clip0_7943_6313)">
<path d="M45.8776 18.558L37.2041 15.2902C35.643 14.7743 34.0817 14.9463 32.8674 15.8062C32.347 16.1502 32 16.4942 31.6531 16.8381H25.0613C22.4592 16.8381 20.2041 19.074 20.2041 21.6538V23.3737C20.2041 24.0617 20.7245 24.7496 21.5919 24.7496C22.4592 24.7496 22.9796 24.0617 22.9796 23.3737V21.6538C22.9796 20.4499 24.0204 19.59 25.0613 19.59H30.7857V44.5283H25.0613C23.847 44.5283 22.9796 43.4964 22.9796 42.4644V40.7446C22.9796 40.0566 22.4592 39.3687 21.5919 39.3687C20.7245 39.3687 20.2041 39.8846 20.2041 40.5726V42.2925C20.2041 44.8722 22.2858 47.1081 25.0613 47.1081H31.6531C32 47.4522 32.347 47.9681 32.694 48.1401C33.5613 48.6561 34.4286 49 35.4694 49C35.9898 49 36.6837 48.828 37.2041 48.6561L45.8776 45.3882C47.7857 44.7004 49 42.9805 49 40.9165V22.8577C49 20.9659 47.6123 19.074 45.8776 18.558Z" fill="white"/>
<path d="M22.4592 34.5523C21.9388 35.0682 21.9388 35.9283 22.4592 36.4442C22.6327 36.6163 22.9796 36.7881 23.3265 36.7881C23.6735 36.7881 24.0204 36.6163 24.1939 36.4442L27.6633 33.0044C27.8367 32.8324 27.8367 32.6605 28.0102 32.6605C28.0102 32.4885 28.1837 32.3164 28.1837 32.1446C28.1837 31.9725 28.1837 31.8005 28.0102 31.6286C28.0102 31.4566 27.8367 31.2845 27.6633 31.2845L24.1939 27.8448C23.6735 27.3288 22.8061 27.3288 22.2857 27.8448C21.7653 28.3608 21.7653 29.2207 22.2857 29.7367L23.5 30.9406H16.3878C15.6939 30.9406 15 31.4566 15 32.3164C15 33.1765 15.5204 33.6924 16.3878 33.6924H23.6735L22.4592 34.5523Z" fill="white"/>
</g>
<defs>
<clipPath id="clip0_7943_6313">
<rect width="34" height="34" fill="white" transform="translate(15 15)"/>
</clipPath>
</defs>
</svg>
