<svg width="64" height="64" viewBox="0 0 64 64" fill="none" xmlns="http://www.w3.org/2000/svg">
<rect width="64" height="64" rx="12" fill="#128C7E"/>
<g clip-path="url(#clip0_7943_6332)">
<path d="M31.7499 31.5366C30.9995 31.5366 30.3887 32.1475 30.3887 32.8979V34.2062H33.1112V32.8979C33.1112 32.1475 32.5003 31.5366 31.7499 31.5366Z" fill="white"/>
<path d="M16 26.8247V43.2497C16 45.736 18.0138 47.7497 20.5 47.7497H43C45.4863 47.7497 47.5 45.736 47.5 43.2497V26.8247H16ZM36.6415 41.2506C36.6415 42.2384 35.8405 43.0382 34.8539 43.0382H28.6473C27.6595 43.0382 26.8596 42.2372 26.8596 41.2506V35.323C26.8596 34.7053 27.3603 34.2058 27.9768 34.2058H28.3638V32.8975C28.3638 31.03 29.8836 29.5101 31.7511 29.5101C33.6186 29.5101 35.1385 31.03 35.1385 32.8975V34.2058H35.5255C36.1432 34.2058 36.6427 34.7065 36.6427 35.323V41.2506H36.6415Z" fill="white"/>
<path d="M43 16.25H20.5C18.0138 16.25 16 18.2638 16 20.75V24.8H47.5V20.75C47.5 18.2638 45.4863 16.25 43 16.25ZM19.8801 22.0179C19.3345 22.0179 18.8935 21.5758 18.8935 21.0313C18.8935 20.4868 19.3356 20.0446 19.8801 20.0446C20.4246 20.0446 20.8668 20.4868 20.8668 21.0313C20.8668 21.5758 20.4246 22.0179 19.8801 22.0179ZM23.2236 22.0179C22.6791 22.0179 22.237 21.5758 22.237 21.0313C22.237 20.4868 22.6791 20.0446 23.2236 20.0446C23.7681 20.0446 24.2114 20.4868 24.2114 21.0313C24.2114 21.5758 23.7693 22.0179 23.2236 22.0179ZM26.5683 22.0179C26.0238 22.0179 25.5816 21.5758 25.5816 21.0313C25.5816 20.4868 26.0238 20.0446 26.5683 20.0446C27.1128 20.0446 27.5549 20.4868 27.5549 21.0313C27.5549 21.5758 27.1128 22.0179 26.5683 22.0179Z" fill="white"/>
</g>
<defs>
<clipPath id="clip0_7943_6332">
<rect width="31.5" height="31.5" fill="white" transform="translate(16 16.25)"/>
</clipPath>
</defs>
</svg>
