<svg width="64" height="64" viewBox="0 0 64 64" fill="none" xmlns="http://www.w3.org/2000/svg">
<rect width="64" height="64" rx="12" fill="#873EFF"/>
<path d="M22.1866 44C24.7462 44 26.8003 42.6649 28.3487 39.5939L31.7932 32.7844V38.5591C31.7932 41.9639 33.8788 44 37.1021 44C39.6301 44 41.4946 42.8317 43.2958 39.5939L51.2275 25.4409C52.9655 22.3366 51.7331 20 47.9095 20C45.8555 20 44.5283 20.701 43.3274 23.0709L37.8605 33.9194V24.2726C37.8605 21.402 36.5649 20 34.1632 20C32.2672 20 30.7504 20.8679 29.5811 23.2712L24.4302 33.9194V24.3727C24.4302 21.3018 23.2294 20 20.3221 20H14.3813C12.1376 20 11 21.1015 11 23.1377C11 25.1739 12.2008 26.3422 14.3813 26.3422H16.8145V38.5258C16.8145 41.9638 18.9949 44 22.1866 44Z" fill="white"/>
</svg>
