<svg width="26" height="26" viewBox="0 0 26 26" fill="none" xmlns="http://www.w3.org/2000/svg">
<rect width="26" height="26" rx="4" fill="white"/>
<path d="M10.6922 12.3664L10.698 12.3606C10.8221 12.238 10.9548 12.1226 11.1034 12.0317C13.4129 10.6181 15.8493 14.0527 13.5542 15.7217C11.6703 17.0921 9.36941 14.999 10.1945 13.0761C10.31 12.8078 10.4859 12.5712 10.6922 12.3664Z" fill="#1CC6C9"/>
<path d="M16.5042 6.5543C16.5013 4.91575 18.1213 3.63597 19.7181 4.09434C22.4626 4.88367 21.9782 8.95451 19.0072 9.03282C18.3178 9.05153 17.6913 8.77346 17.0697 9.34727C16.3058 10.0542 17.3682 11.5141 17.5355 12.3795C18.1338 15.4834 15.9878 18.5501 12.8118 18.8678C12.4788 18.9009 11.5605 18.7916 11.3665 18.9859C11.0751 19.2788 11.7285 19.9551 11.7992 20.2682C12.1191 21.6786 10.6305 22.7127 9.45931 21.7457L9.46028 21.7467C8.87333 21.262 8.85465 20.3571 9.31478 19.7672C9.52725 19.4948 10.3627 19.1128 10.3148 18.7828C10.2657 18.4526 9.34112 18.0407 9.03353 17.8199C7.03008 16.3876 6.39796 13.8435 7.21126 11.5602C7.56033 10.5823 8.5061 9.58117 6.78353 9.34727C6.59614 9.32133 6.39024 9.36719 6.19564 9.33848C3.33845 8.9026 4.05968 5.15962 6.55501 5.48106C7.3596 5.58513 8.0752 6.35067 8.16341 7.14805C8.22828 7.74089 7.91419 8.36479 8.31087 8.86387C8.80993 9.4892 9.42035 8.83643 9.92513 8.6129C10.9651 8.15141 12.0429 7.97393 13.1751 8.17442C14.3076 8.37528 16.3862 9.73726 16.5853 7.67051C16.6256 7.25378 16.5057 6.92346 16.5042 6.5543ZM10.4329 19.9156C10.0204 19.9156 9.68612 20.2502 9.68587 20.6627C9.6859 21.0754 10.0203 21.4107 10.4329 21.4107C10.8454 21.4105 11.18 21.0752 11.18 20.6627C11.1798 20.2504 10.8452 19.9159 10.4329 19.9156ZM15.7269 14.7047C16.6485 11.9612 14.3877 9.50584 11.5736 9.88633C10.1341 10.0812 8.72328 11.587 8.60775 13.0279C8.23849 17.6424 14.3923 18.6814 15.7269 14.7047ZM6.27474 6.44297C5.74661 6.44307 5.31868 6.87186 5.31868 7.40001C5.31884 7.92801 5.7467 8.35597 6.27474 8.35606C6.80264 8.35581 7.23161 7.92792 7.23177 7.40001C7.23177 6.87196 6.80273 6.44323 6.27474 6.44297ZM19.1243 5.18223C18.4178 5.18225 17.8453 5.75508 17.8451 6.46153C17.8451 7.16817 18.4177 7.74178 19.1243 7.7418C19.831 7.7418 20.4036 7.16818 20.4036 6.46153C20.4034 5.75506 19.8309 5.18223 19.1243 5.18223Z" fill="#6858E0"/>
<path d="M11.2132 11.303L11.2161 11.3002C11.2983 11.2179 11.3877 11.1429 11.4858 11.0823C13.0221 10.1418 14.6407 12.4253 13.1159 13.5361C11.8638 14.4477 10.3332 13.0557 10.8814 11.7762C10.9578 11.5988 11.0761 11.4401 11.2132 11.3045V11.303Z" fill="#6858E0"/>
</svg>
