<svg width="118" height="71" viewBox="0 0 118 71" fill="none" xmlns="http://www.w3.org/2000/svg">
<path d="M26.7812 70.7248H38.3188L56.3287 36.7686L50.5599 25.9814L26.7812 70.7248Z" fill="#E8E7F6"/>
<path d="M83.1552 2.90723C72.4149 2.90723 62.8472 7.92561 56.6094 15.7111L62.0499 25.9824C65.9895 18.3376 73.9627 13.0847 83.1552 13.0847C96.2405 13.0847 106.887 23.6843 106.887 36.8165C106.887 49.9018 96.2874 60.5483 83.1552 60.5483V70.7257C101.869 70.7257 117.064 55.5299 117.064 36.8165C117.064 18.1031 101.869 2.90723 83.1552 2.90723Z" fill="#E8E7F6"/>
<path d="M62.7063 48.7764L37.1923 0.75L0 70.7259H11.4907L19.2762 56.046H26.8741L32.2208 45.9154H24.6698L37.1923 22.3712L52.6226 51.4497C52.9979 52.247 55.0615 55.7177 55.0615 55.7177C61.3462 65.004 71.9458 70.7259 83.155 70.7259V60.5485C74.7598 60.5485 66.9274 56.046 62.7063 48.7764Z" fill="#C5BDFE"/>
<path d="M37.2515 1.15918L0 70.7498H11.462L19.2398 56.013H27.0175L31.9298 46.1884H24.5614L37.2515 22.8551L51.1696 48.6446L59.3567 42.5042L55.6725 35.5451L37.2515 1.15918Z" fill="#7362F9"/>
</svg>
