<svg width="16" height="16" viewBox="0 0 16 16" fill="none" xmlns="http://www.w3.org/2000/svg">
<path d="M4.14279 11.9383L7.55548 15.8016C7.61049 15.8638 7.67873 15.9138 7.75551 15.948C7.8323 15.9823 7.91581 16 8.00032 16C8.08483 16 8.16835 15.9823 8.24513 15.948C8.32191 15.9138 8.39015 15.8638 8.44516 15.8016L11.8579 11.9383C12.1835 11.5696 11.9135 11 11.413 11H4.58665C4.08614 11 3.81612 11.5696 4.14279 11.9383Z" fill="#0077FF"/>
<path d="M4.14279 4.06166L7.55548 0.198431C7.61049 0.136194 7.67873 0.086236 7.75551 0.0519853C7.8323 0.0177341 7.91581 0 8.00032 0C8.08483 0 8.16835 0.0177341 8.24513 0.0519853C8.32191 0.086236 8.39015 0.136194 8.44516 0.198431L11.8579 4.06166C12.1835 4.43041 11.9135 5 11.413 5H4.58665C4.08614 5 3.81612 4.43041 4.14279 4.06166Z" fill="#9CA7BD"/>
</svg>
