<svg width="20" height="20" viewBox="0 0 20 20" fill="none" xmlns="http://www.w3.org/2000/svg">
<path d="M5.62051 3.33337H14.4271C14.4271 3.33337 13.6932 14.381 10.0238 14.381C8.23128 14.381 7.13929 11.7446 6.49115 9.04766C5.81252 6.22374 5.62051 3.33337 5.62051 3.33337Z" stroke="#0077FF" stroke-width="1.2" stroke-linecap="round" stroke-linejoin="round"/>
<path d="M14.4277 3.33329C14.4277 3.33329 15.1953 2.5144 15.8333 2.49995C17.0833 2.47164 17.3144 3.33329 17.3144 3.33329C17.5591 3.84123 17.7548 5.16186 16.5805 6.38091C15.4063 7.59996 14.0919 8.66662 13.557 9.04758" stroke="#0077FF" stroke-width="1.2" stroke-linecap="round" stroke-linejoin="round"/>
<path d="M5.62023 3.3333C5.62023 3.3333 4.8204 2.50507 4.1658 2.49996C2.9158 2.4902 2.68471 3.3333 2.68471 3.3333C2.44008 3.84123 2.24438 5.16187 3.41859 6.38091C4.5928 7.59996 5.95603 8.66663 6.49088 9.04758" stroke="#0077FF" stroke-width="1.2" stroke-linecap="round" stroke-linejoin="round"/>
<path d="M7.08955 16.6667C7.08955 15.1429 10.0251 14.381 10.0251 14.381C10.0251 14.381 12.9606 15.1429 12.9606 16.6667H7.08955Z" stroke="#0077FF" stroke-width="1.2" stroke-linecap="round" stroke-linejoin="round"/>
</svg>
