<svg width="60" height="60" viewBox="0 0 60 60" fill="none" xmlns="http://www.w3.org/2000/svg">
<rect width="60" height="60" rx="30" fill="#FF6F59"/>
<path d="M37.0834 17.9583C41.3333 17.9583 44.1663 20.0832 44.1664 25.0413V34.9583C44.1664 39.9166 41.3334 42.0413 37.0834 42.0413H22.9164C18.6666 42.0412 15.8334 39.9165 15.8334 34.9583V25.0413C15.8335 20.0833 18.6667 17.9584 22.9164 17.9583H37.0834ZM20.7914 25.3958C20.2107 25.3959 19.7289 25.8776 19.7289 26.4583V33.5413C19.7289 34.1221 20.2107 34.6037 20.7914 34.6038C21.3722 34.6038 21.8539 34.1222 21.8539 33.5413V26.4583C21.8539 25.8775 21.3722 25.3958 20.7914 25.3958ZM39.2084 25.3958C38.6275 25.3958 38.1459 25.8775 38.1459 26.4583V33.5413C38.1459 34.1222 38.6275 34.6038 39.2084 34.6038C39.7892 34.6038 40.2709 34.1221 40.2709 33.5413V26.4583C40.2709 25.8775 39.7892 25.3959 39.2084 25.3958ZM30.0004 25.7503C27.6531 25.7503 25.7504 27.653 25.7504 30.0003C25.7505 32.3474 27.6532 34.2503 30.0004 34.2503C32.3473 34.2501 34.2502 32.3473 34.2504 30.0003C34.2504 27.6532 32.3475 25.7505 30.0004 25.7503Z" fill="white"/>
</svg>
