<svg width="20" height="20" viewBox="0 0 20 20" fill="none" xmlns="http://www.w3.org/2000/svg">
<path d="M3.33334 17.7334V2.26669C3.33334 1.93532 3.60197 1.66669 3.93334 1.66669H13.5015C13.6606 1.66669 13.8132 1.7299 13.9257 1.84242L16.4909 4.40762C16.6035 4.52014 16.6667 4.67275 16.6667 4.83188V17.7334C16.6667 18.0647 16.398 18.3334 16.0667 18.3334H3.93334C3.60197 18.3334 3.33334 18.0647 3.33334 17.7334Z" stroke="#4D5973" stroke-width="1.2" stroke-linecap="round" stroke-linejoin="round"/>
<path d="M8.86245 8.67931L9.72829 6.84344C9.83944 6.60777 10.1605 6.60777 10.2717 6.84344L11.1375 8.67931L13.0738 8.97552C13.3222 9.01352 13.4213 9.33313 13.2414 9.51648L11.8406 10.9445L12.1712 12.9619C12.2136 13.221 11.9538 13.4186 11.7315 13.2962L9.99999 12.3432L8.26848 13.2962C8.04619 13.4186 7.78635 13.221 7.82881 12.9619L8.15941 10.9445L6.75857 9.51648C6.57871 9.33313 6.67773 9.01352 6.92616 8.97552L8.86245 8.67931Z" stroke="#4D5973" stroke-width="1.2" stroke-linecap="round" stroke-linejoin="round"/>
<path d="M13.3333 1.66669V4.40002C13.3333 4.73139 13.602 5.00002 13.9333 5.00002H16.6667" stroke="#4D5973" stroke-width="1.2" stroke-linecap="round" stroke-linejoin="round"/>
</svg>
