<svg width="50" height="51" viewBox="0 0 50 51" fill="none" xmlns="http://www.w3.org/2000/svg">
<path d="M11.7188 42.813C18.1805 42.813 23.4375 37.5972 23.4375 31.1863C23.4375 28.1206 22.2453 25.2279 20.0807 23.0409C17.9208 20.8588 15.0358 19.6236 11.9567 19.5626L11.8673 19.5603C10.7878 19.5281 9.89209 20.3772 9.86396 21.447C9.83584 22.5169 10.6873 23.4067 11.7656 23.4346L11.8737 23.4373C16.0961 23.5183 19.5312 26.9947 19.5312 31.1863C19.5312 35.4602 16.0266 38.9374 11.7188 38.9374C7.41094 38.9374 3.90625 35.4602 3.90625 31.1863C3.90625 25.8479 5.18594 20.9218 7.71006 16.5448C9.59648 13.2734 11.5148 11.5453 11.5507 11.5134C12.3552 10.8048 12.4308 9.58324 11.7185 8.78225C11.3324 8.34829 10.794 8.12651 10.2531 8.12651C9.79404 8.12661 9.33301 8.28628 8.96172 8.61134C8.86729 8.69408 6.62324 10.6798 4.41426 14.4572C2.40039 17.9006 0 23.5983 0 31.1863C0 37.5973 5.25703 42.813 11.7188 42.813Z" fill="#005AEE"/>
<path d="M38.2812 42.813C44.743 42.813 50 37.5973 50 31.1863C50 28.1206 48.8078 25.2279 46.6432 23.0407C44.4833 20.8586 41.5983 19.6235 38.5192 19.5624L38.4298 19.5601C37.3526 19.5279 36.4545 20.377 36.4265 21.4469C36.3983 22.5167 37.2498 23.4065 38.3281 23.4344L38.4362 23.4372C42.6586 23.5184 46.0938 26.9947 46.0938 31.1863C46.0938 35.4603 42.5891 38.9374 38.2812 38.9374C33.9734 38.9374 30.4688 35.4603 30.4688 31.1863C30.4688 25.8479 31.7484 20.9218 34.2726 16.5449C36.159 13.2735 38.0773 11.5454 38.1132 11.5135C38.9178 10.8048 38.9933 9.58334 38.281 8.78236C37.8949 8.34829 37.3565 8.12661 36.8156 8.12661C36.3565 8.12661 35.8955 8.28628 35.5241 8.61135C35.4298 8.69409 33.1856 10.6798 30.9767 14.4572C28.9629 17.9006 26.5625 23.5982 26.5625 31.1863C26.5625 37.5973 31.8195 42.813 38.2812 42.813Z" fill="#005AEE"/>
<ellipse cx="25" cy="22.4931" rx="13" ry="12.8979" fill="#005AEE" fill-opacity="0.12"/>
</svg>
