<svg width="64" height="64" viewBox="0 0 64 64" fill="none" xmlns="http://www.w3.org/2000/svg">
<rect width="64" height="64" rx="12" fill="#333333"/>
<path fill-rule="evenodd" clip-rule="evenodd" d="M21.9414 48.1712C22 48.3129 22.0001 48.4558 21.9435 48.5976C21.884 48.7391 21.7821 48.8398 21.6407 48.8997L21.6398 48.9002L19.09 49.9571C18.8076 50.0754 18.4816 49.9402 18.3648 49.6587L18.3647 49.6585C16.9255 46.2005 15.4843 42.7427 14.0453 39.285L14.0446 39.2833C13.9849 39.1425 13.9857 39.0014 14.0436 38.8613C14.1023 38.7194 14.2035 38.618 14.3442 38.5593L16.8964 37.5001C17.1787 37.383 17.5045 37.5175 17.6229 37.7996C17.7767 38.1692 21.7833 47.7913 21.9414 48.1712ZM22.2325 46.0971C21.2435 43.7218 20.2541 41.3467 19.2652 38.9716C20.5521 38.3635 21.8372 37.7515 23.1164 37.1259C24.5741 36.4127 25.7086 35.8838 27.0471 36.0647C27.94 36.1854 28.9147 36.621 30.1341 37.4863C30.1857 37.5229 30.2435 37.5501 30.3046 37.5665L35.1161 38.8553C36.0324 39.1007 36.5822 40.0519 36.3368 40.9681C36.0915 41.884 35.1407 42.4337 34.2247 42.1869L34.2239 42.1867L27.8294 40.4744C27.5453 40.3984 27.2529 40.5673 27.1768 40.8513C27.1007 41.1354 27.2696 41.4278 27.5538 41.504L33.9482 43.2161C35.4299 43.6156 36.9693 42.7263 37.3663 41.2438C37.4501 40.9314 37.4766 40.6164 37.4524 40.3101L44.101 38.3598C45.2424 38.0249 46.131 37.9406 46.8048 38.0442C47.3653 38.1304 47.7554 38.3468 47.9863 38.6588C48.2582 39.0263 48.3012 39.5071 48.1995 39.9776C48.0323 40.7502 47.4735 41.51 46.6957 41.8101L36.7371 45.6473C35.9717 45.9419 35.0802 46.3089 34.174 46.541C33.3432 46.754 32.4999 46.8588 31.7465 46.6401L26.4406 45.101C25.5377 44.8374 24.6706 44.9107 23.823 45.3235L22.2325 46.0971ZM40.1969 14H45.2498C45.46 14 45.6304 14.1703 45.6304 14.3806V19.4332C48.042 19.4332 50 21.3911 50 23.8026C50 26.2142 48.042 28.172 45.6304 28.172V33.2247C45.6304 33.4349 45.46 33.6052 45.2498 33.6052H40.1969C40.1969 31.1938 38.239 29.2358 35.8273 29.2358C33.4157 29.2358 31.4577 31.1938 31.4577 33.6052H26.4047C26.1946 33.6052 26.0242 33.4349 26.0242 33.2247V28.172C28.4345 28.1705 30.391 26.2133 30.391 23.8026C30.391 21.392 28.4345 19.4347 26.0242 19.4332V14.3806C26.0242 14.1703 26.1946 14 26.4047 14H31.4577C31.4577 16.4116 33.4157 18.3694 35.8273 18.3694C38.239 18.3694 40.1969 16.4116 40.1969 14ZM37.3964 21.7098H33.8215C33.5274 21.7098 33.2887 21.9486 33.2887 22.2426C33.2887 22.5367 33.5274 22.7754 33.8215 22.7754H36.7021L35.3633 24.8299H33.8215C33.5274 24.8299 33.2887 25.0686 33.2887 25.3626C33.2887 25.6567 33.5274 25.8954 33.8215 25.8954H34.669L34.1891 26.6318C34.0286 26.8782 34.0983 27.2085 34.3447 27.3691C34.5911 27.5296 34.9214 27.4599 35.0819 27.2135L35.9409 25.8954H39.5158C39.8099 25.8954 40.0486 25.6567 40.0486 25.3626C40.0486 25.0686 39.8099 24.8299 39.5158 24.8299H36.6352L37.974 22.7754H39.5158C39.8099 22.7754 40.0486 22.5367 40.0486 22.2426C40.0486 21.9486 39.8099 21.7098 39.5158 21.7098H38.6683L39.1482 20.9734C39.3087 20.7271 39.239 20.3968 38.9926 20.2362C38.7462 20.0757 38.4159 20.1454 38.2553 20.3917L37.3964 21.7098Z" fill="white"/>
</svg>
