<svg width="64" height="64" viewBox="0 0 64 64" fill="none" xmlns="http://www.w3.org/2000/svg">
<rect width="64" height="64" rx="12" fill="#7C33CD"/>
<path d="M31.1048 14H33.1518C37.2891 14.3136 41.3368 15.9827 44.3557 18.8525C47.5318 21.7867 49.5911 25.9036 49.9927 30.2103C50.4757 34.7313 49.1235 39.403 46.3311 42.9905C43.1941 47.0919 38.2512 49.6685 33.1062 50H31.0852C27.29 49.7507 23.5633 48.3643 20.6218 45.9368C16.7411 42.8178 14.3446 38.0272 14 33.0744V30.8579C14.3625 25.9851 16.7004 21.2767 20.4907 18.1707C23.4574 15.6764 27.2452 14.2468 31.1048 14ZM30.0662 15.4581C26.7361 15.8516 23.5299 17.2632 21.0226 19.4928C17.9108 22.1931 15.8744 26.0885 15.4451 30.1851C15.0467 33.7823 15.854 37.5058 17.739 40.5972C19.9913 44.3313 23.7482 47.131 27.9914 48.1598C32.2933 49.2498 37.0195 48.5272 40.7943 46.1902C43.6413 44.4518 45.9344 41.837 47.2923 38.7896C48.8995 35.2461 49.1667 31.1316 48.0971 27.3984C47.074 23.8728 44.8697 20.687 41.8818 18.5446C38.5232 16.065 34.2035 14.962 30.0662 15.4581Z" fill="white"/>
<path d="M26.0235 21.9019C28.0159 21.84 30.0092 21.8758 32.005 21.8758C34.6043 21.9141 37.3129 22.9763 38.8655 25.139C40.4466 27.2399 40.8482 29.9606 40.691 32.5241C40.7578 36.2403 38.2097 39.9784 34.5555 40.9274C32.0278 41.5783 29.3942 41.4007 26.8128 41.3722C26.3322 41.4105 25.8565 40.9991 25.9078 40.5006C25.8613 34.7561 25.9102 29.0084 25.885 23.2639C25.8719 22.8044 25.9053 22.3466 26.0235 21.9019ZM27.1859 23.2134C27.2119 28.8267 27.1704 34.4433 27.2323 40.0591C29.6704 39.9695 32.1826 40.332 34.5555 39.5907C36.7435 38.9015 38.4614 37.0093 39.0276 34.7976C39.5929 32.5632 39.5807 30.1537 38.8858 27.9469C38.2716 26.0335 36.7769 24.4214 34.8691 23.7583C32.4009 22.8916 29.7469 23.259 27.1859 23.2134Z" fill="white"/>
</svg>
