<svg width="111" height="29" viewBox="0 0 111 29" fill="none" xmlns="http://www.w3.org/2000/svg">
<path d="M-17 2C-17 3.10457 -17.8954 4 -19 4C-20.1046 4 -21 3.10457 -21 2C-21 0.89543 -20.1046 0 -19 0C-17.8954 0 -17 0.89543 -17 2Z" fill="#242A36" fill-opacity="0.1"/>
<path d="M-1 2C-1 3.10457 -1.89543 4 -3 4C-4.10457 4 -5 3.10457 -5 2C-5 0.89543 -4.10457 0 -3 0C-1.89543 0 -1 0.89543 -1 2Z" fill="#242A36" fill-opacity="0.1"/>
<path d="M15 2C15 3.10457 14.1046 4 13 4C11.8954 4 11 3.10457 11 2C11 0.89543 11.8954 0 13 0C14.1046 0 15 0.89543 15 2Z" fill="#242A36" fill-opacity="0.1"/>
<path d="M31 2C31 3.10457 30.1046 4 29 4C27.8954 4 27 3.10457 27 2C27 0.89543 27.8954 0 29 0C30.1046 0 31 0.89543 31 2Z" fill="#242A36" fill-opacity="0.1"/>
<path d="M47 2C47 3.10457 46.1046 4 45 4C43.8954 4 43 3.10457 43 2C43 0.89543 43.8954 0 45 0C46.1046 0 47 0.89543 47 2Z" fill="#242A36" fill-opacity="0.1"/>
<path d="M63 2C63 3.10457 62.1046 4 61 4C59.8954 4 59 3.10457 59 2C59 0.89543 59.8954 0 61 0C62.1046 0 63 0.89543 63 2Z" fill="#242A36" fill-opacity="0.1"/>
<path d="M79 2C79 3.10457 78.1046 4 77 4C75.8954 4 75 3.10457 75 2C75 0.89543 75.8954 0 77 0C78.1046 0 79 0.89543 79 2Z" fill="#242A36" fill-opacity="0.1"/>
<path d="M95 2C95 3.10457 94.1046 4 93 4C91.8954 4 91 3.10457 91 2C91 0.89543 91.8954 0 93 0C94.1046 0 95 0.89543 95 2Z" fill="#242A36" fill-opacity="0.1"/>
<path d="M111 2C111 3.10457 110.105 4 109 4C107.895 4 107 3.10457 107 2C107 0.89543 107.895 0 109 0C110.105 0 111 0.89543 111 2Z" fill="#242A36" fill-opacity="0.1"/>
<path d="M-17 18C-17 19.1046 -17.8954 20 -19 20C-20.1046 20 -21 19.1046 -21 18C-21 16.8954 -20.1046 16 -19 16C-17.8954 16 -17 16.8954 -17 18Z" fill="#242A36" fill-opacity="0.1"/>
<path d="M-1 18C-1 19.1046 -1.89543 20 -3 20C-4.10457 20 -5 19.1046 -5 18C-5 16.8954 -4.10457 16 -3 16C-1.89543 16 -1 16.8954 -1 18Z" fill="#242A36" fill-opacity="0.1"/>
<path d="M15 18C15 19.1046 14.1046 20 13 20C11.8954 20 11 19.1046 11 18C11 16.8954 11.8954 16 13 16C14.1046 16 15 16.8954 15 18Z" fill="#242A36" fill-opacity="0.1"/>
<path d="M31 18C31 19.1046 30.1046 20 29 20C27.8954 20 27 19.1046 27 18C27 16.8954 27.8954 16 29 16C30.1046 16 31 16.8954 31 18Z" fill="#242A36" fill-opacity="0.1"/>
<path d="M47 18C47 19.1046 46.1046 20 45 20C43.8954 20 43 19.1046 43 18C43 16.8954 43.8954 16 45 16C46.1046 16 47 16.8954 47 18Z" fill="#242A36" fill-opacity="0.1"/>
<path d="M63 18C63 19.1046 62.1046 20 61 20C59.8954 20 59 19.1046 59 18C59 16.8954 59.8954 16 61 16C62.1046 16 63 16.8954 63 18Z" fill="#242A36" fill-opacity="0.1"/>
<path d="M79 18C79 19.1046 78.1046 20 77 20C75.8954 20 75 19.1046 75 18C75 16.8954 75.8954 16 77 16C78.1046 16 79 16.8954 79 18Z" fill="#242A36" fill-opacity="0.1"/>
<path d="M95 18C95 19.1046 94.1046 20 93 20C91.8954 20 91 19.1046 91 18C91 16.8954 91.8954 16 93 16C94.1046 16 95 16.8954 95 18Z" fill="#242A36" fill-opacity="0.1"/>
<path d="M111 18C111 19.1046 110.105 20 109 20C107.895 20 107 19.1046 107 18C107 16.8954 107.895 16 109 16C110.105 16 111 16.8954 111 18Z" fill="#242A36" fill-opacity="0.1"/>
<path d="M-17 34C-17 35.1046 -17.8954 36 -19 36C-20.1046 36 -21 35.1046 -21 34C-21 32.8954 -20.1046 32 -19 32C-17.8954 32 -17 32.8954 -17 34Z" fill="#242A36" fill-opacity="0.1"/>
<path d="M-1 34C-1 35.1046 -1.89543 36 -3 36C-4.10457 36 -5 35.1046 -5 34C-5 32.8954 -4.10457 32 -3 32C-1.89543 32 -1 32.8954 -1 34Z" fill="#242A36" fill-opacity="0.1"/>
<path d="M15 34C15 35.1046 14.1046 36 13 36C11.8954 36 11 35.1046 11 34C11 32.8954 11.8954 32 13 32C14.1046 32 15 32.8954 15 34Z" fill="#242A36" fill-opacity="0.1"/>
<path d="M31 34C31 35.1046 30.1046 36 29 36C27.8954 36 27 35.1046 27 34C27 32.8954 27.8954 32 29 32C30.1046 32 31 32.8954 31 34Z" fill="#242A36" fill-opacity="0.1"/>
<path d="M47 34C47 35.1046 46.1046 36 45 36C43.8954 36 43 35.1046 43 34C43 32.8954 43.8954 32 45 32C46.1046 32 47 32.8954 47 34Z" fill="#242A36" fill-opacity="0.1"/>
<path d="M63 34C63 35.1046 62.1046 36 61 36C59.8954 36 59 35.1046 59 34C59 32.8954 59.8954 32 61 32C62.1046 32 63 32.8954 63 34Z" fill="#242A36" fill-opacity="0.1"/>
<path d="M79 34C79 35.1046 78.1046 36 77 36C75.8954 36 75 35.1046 75 34C75 32.8954 75.8954 32 77 32C78.1046 32 79 32.8954 79 34Z" fill="#242A36" fill-opacity="0.1"/>
<path d="M95 34C95 35.1046 94.1046 36 93 36C91.8954 36 91 35.1046 91 34C91 32.8954 91.8954 32 93 32C94.1046 32 95 32.8954 95 34Z" fill="#242A36" fill-opacity="0.1"/>
<path d="M111 34C111 35.1046 110.105 36 109 36C107.895 36 107 35.1046 107 34C107 32.8954 107.895 32 109 32C110.105 32 111 32.8954 111 34Z" fill="#242A36" fill-opacity="0.1"/>
<path d="M-17 50C-17 51.1046 -17.8954 52 -19 52C-20.1046 52 -21 51.1046 -21 50C-21 48.8954 -20.1046 48 -19 48C-17.8954 48 -17 48.8954 -17 50Z" fill="#242A36" fill-opacity="0.1"/>
<path d="M-1 50C-1 51.1046 -1.89543 52 -3 52C-4.10457 52 -5 51.1046 -5 50C-5 48.8954 -4.10457 48 -3 48C-1.89543 48 -1 48.8954 -1 50Z" fill="#242A36" fill-opacity="0.1"/>
<path d="M15 50C15 51.1046 14.1046 52 13 52C11.8954 52 11 51.1046 11 50C11 48.8954 11.8954 48 13 48C14.1046 48 15 48.8954 15 50Z" fill="#242A36" fill-opacity="0.1"/>
<path d="M31 50C31 51.1046 30.1046 52 29 52C27.8954 52 27 51.1046 27 50C27 48.8954 27.8954 48 29 48C30.1046 48 31 48.8954 31 50Z" fill="#242A36" fill-opacity="0.1"/>
<path d="M47 50C47 51.1046 46.1046 52 45 52C43.8954 52 43 51.1046 43 50C43 48.8954 43.8954 48 45 48C46.1046 48 47 48.8954 47 50Z" fill="#242A36" fill-opacity="0.1"/>
<path d="M63 50C63 51.1046 62.1046 52 61 52C59.8954 52 59 51.1046 59 50C59 48.8954 59.8954 48 61 48C62.1046 48 63 48.8954 63 50Z" fill="#242A36" fill-opacity="0.1"/>
<path d="M79 50C79 51.1046 78.1046 52 77 52C75.8954 52 75 51.1046 75 50C75 48.8954 75.8954 48 77 48C78.1046 48 79 48.8954 79 50Z" fill="#242A36" fill-opacity="0.1"/>
<path d="M95 50C95 51.1046 94.1046 52 93 52C91.8954 52 91 51.1046 91 50C91 48.8954 91.8954 48 93 48C94.1046 48 95 48.8954 95 50Z" fill="#242A36" fill-opacity="0.1"/>
<path d="M111 50C111 51.1046 110.105 52 109 52C107.895 52 107 51.1046 107 50C107 48.8954 107.895 48 109 48C110.105 48 111 48.8954 111 50Z" fill="#242A36" fill-opacity="0.1"/>
</svg>
