<svg width="64" height="64" viewBox="0 0 64 64" fill="none" xmlns="http://www.w3.org/2000/svg">
<rect width="64" height="64" rx="12" fill="#47B782"/>
<path d="M42.159 40.2887L39.5237 37.6534C39.4012 37.5299 39.2555 37.4318 39.095 37.3649C38.9344 37.2981 38.7622 37.2636 38.5882 37.2636C38.4143 37.2636 38.242 37.2981 38.0815 37.3649C37.9209 37.4318 37.7752 37.5299 37.6527 37.6534L35.0174 40.2887C34.8945 40.4115 34.7971 40.5574 34.7306 40.7179C34.6641 40.8784 34.6299 41.0504 34.6299 41.2242C34.6299 41.3979 34.6641 41.57 34.7306 41.7305C34.7971 41.891 34.8945 42.0369 35.0174 42.1597C35.1402 42.2826 35.2861 42.38 35.4466 42.4465C35.6071 42.513 35.7792 42.5472 35.9529 42.5472C36.1267 42.5472 36.2987 42.513 36.4592 42.4465C36.6197 42.38 36.7656 42.2826 36.8884 42.1597L37.2706 41.7644V46.4948C37.2706 46.8442 37.4094 47.1794 37.6565 47.4265C37.9036 47.6736 38.2388 47.8124 38.5882 47.8124C38.9377 47.8124 39.2728 47.6736 39.5199 47.4265C39.767 47.1794 39.9059 46.8442 39.9059 46.4948V41.7644L40.288 42.1597C40.4105 42.2832 40.5562 42.3812 40.7168 42.4481C40.8773 42.515 41.0496 42.5495 41.2235 42.5495C41.3975 42.5495 41.5697 42.515 41.7302 42.4481C41.8908 42.3812 42.0365 42.2832 42.159 42.1597C42.2825 42.0372 42.3806 41.8915 42.4475 41.7309C42.5144 41.5704 42.5488 41.3981 42.5488 41.2242C42.5488 41.0502 42.5144 40.878 42.4475 40.7175C42.3806 40.5569 42.2825 40.4112 42.159 40.2887Z" fill="white"/>
<path d="M50.0648 42.9241C49.9423 42.8006 49.7966 42.7025 49.636 42.6356C49.4754 42.5687 49.3032 42.5343 49.1293 42.5343C48.9553 42.5343 48.7831 42.5687 48.6225 42.6356C48.462 42.7025 48.3162 42.8006 48.1937 42.9241L47.8116 43.3194V38.589C47.8116 38.2395 47.6728 37.9044 47.4257 37.6573C47.1786 37.4102 46.8434 37.2714 46.494 37.2714C46.1445 37.2714 45.8094 37.4102 45.5623 37.6573C45.3152 37.9044 45.1763 38.2395 45.1763 38.589V43.3194L44.7942 42.9241C44.5461 42.676 44.2096 42.5366 43.8587 42.5366C43.5078 42.5366 43.1713 42.676 42.9232 42.9241C42.675 43.1722 42.5356 43.5087 42.5356 43.8596C42.5356 44.2105 42.675 44.547 42.9232 44.7951L45.5584 47.4304C45.6809 47.5539 45.8267 47.6519 45.9872 47.7188C46.1478 47.7857 46.32 47.8202 46.494 47.8202C46.6679 47.8202 46.8401 47.7857 47.0007 47.7188C47.1613 47.6519 47.307 47.5539 47.4295 47.4304L50.0648 44.7951C50.1883 44.6726 50.2863 44.5269 50.3532 44.3663C50.4201 44.2058 50.4546 44.0335 50.4546 43.8596C50.4546 43.6857 50.4201 43.5134 50.3532 43.3529C50.2863 43.1923 50.1883 43.0466 50.0648 42.9241Z" fill="white"/>
<path d="M33.1593 38.4307L35.7946 35.7954C36.5358 35.0552 37.5405 34.6394 38.5881 34.6394C39.6356 34.6394 40.6403 35.0552 41.3815 35.7954L41.5396 35.9536C42.7551 32.8546 42.867 29.4317 41.8563 26.2601C40.8456 23.0884 38.774 20.3613 35.9896 18.5371C33.2052 16.7128 29.8777 15.9026 26.5663 16.2425C23.2549 16.5824 20.1614 18.0518 17.8057 20.4037C15.45 22.7556 13.9757 25.8468 13.6304 29.1576C13.2852 32.4684 14.0901 35.7972 15.9099 38.5845C17.7297 41.3719 20.4535 43.4479 23.6235 44.4636C26.7935 45.4794 30.2166 45.3731 33.3175 44.1625L33.133 44.0176C32.3962 43.2729 31.9852 42.2662 31.9901 41.2187C31.995 40.1711 32.4156 39.1684 33.1593 38.4307ZM29.3645 37.2712V38.5888C29.3645 38.9383 29.2257 39.2735 28.9786 39.5206C28.7315 39.7677 28.3963 39.9065 28.0469 39.9065C27.6974 39.9065 27.3623 39.7677 27.1152 39.5206C26.8681 39.2735 26.7292 38.9383 26.7292 38.5888V37.2712H24.0939C23.7445 37.2712 23.4093 37.1324 23.1622 36.8853C22.9151 36.6382 22.7763 36.303 22.7763 35.9536C22.7763 35.6041 22.9151 35.2689 23.1622 35.0218C23.4093 34.7747 23.7445 34.6359 24.0939 34.6359H30.6822V32.0006H25.4116C24.7127 32.0006 24.0424 31.723 23.5482 31.2288C23.0539 30.7345 22.7763 30.0642 22.7763 29.3653V26.73C22.7763 26.0311 23.0539 25.3608 23.5482 24.8666C24.0424 24.3724 24.7127 24.0947 25.4116 24.0947H26.7292V22.7771C26.7292 22.4276 26.8681 22.0925 27.1152 21.8454C27.3623 21.5983 27.6974 21.4594 28.0469 21.4594C28.3963 21.4594 28.7315 21.5983 28.9786 21.8454C29.2257 22.0925 29.3645 22.4276 29.3645 22.7771V24.0947H31.9998C32.3493 24.0947 32.6844 24.2336 32.9315 24.4807C33.1786 24.7278 33.3175 25.0629 33.3175 25.4124C33.3175 25.7618 33.1786 26.097 32.9315 26.3441C32.6844 26.5912 32.3493 26.73 31.9998 26.73H25.4116V29.3653H30.6822C31.3811 29.3653 32.0514 29.643 32.5456 30.1372C33.0398 30.6314 33.3175 31.3017 33.3175 32.0006V34.6359C33.3175 35.3348 33.0398 36.0051 32.5456 36.4993C32.0514 36.9936 31.3811 37.2712 30.6822 37.2712H29.3645Z" fill="white"/>
</svg>
