<svg width="64" height="64" viewBox="0 0 64 64" fill="none" xmlns="http://www.w3.org/2000/svg">
<rect width="64" height="64" rx="12" fill="#222222"/>
<path d="M12.8196 26.3406C12.817 26.3345 12.817 26.3275 12.8196 26.3199C13.8341 22.9478 15.5919 20.0492 18.0931 17.6239C23.4949 12.3859 31.4497 10.6358 38.5548 13.0987C49.3647 16.8465 54.7948 28.8735 50.5513 39.4964C50.541 39.5215 50.5437 39.5449 50.5597 39.5664C50.7681 39.854 50.9795 40.1585 51.1403 40.4568C53.6394 45.1043 50.3997 50.6484 45.1678 50.8629C43.738 50.922 42.4023 50.5768 41.1608 49.8279C41.1387 49.8151 41.1164 49.8143 41.0939 49.8256C31.156 54.8366 19.0858 50.9075 14.0945 40.9074C11.8423 36.396 11.397 31.2188 12.8042 26.3791C12.8068 26.3703 12.8111 26.3627 12.8173 26.356C12.8209 26.3514 12.8217 26.3463 12.8196 26.3406ZM17.5379 24.9319C14.5105 31.6171 16.0653 39.6202 21.5502 44.5545C26.247 48.7791 32.8123 49.7503 38.5548 47.1397C38.5758 47.13 38.5812 47.1151 38.5709 47.0951C36.8685 43.7856 37.9396 39.7679 41.1354 37.8301C42.9839 36.709 44.9999 36.4789 47.1832 37.1396C47.1986 37.1442 47.2085 37.1389 47.2132 37.1235C48.2061 33.8365 48.2446 30.5585 47.3285 27.2895C46.0075 22.5759 42.5995 18.6097 38.1296 16.6758C30.0971 13.201 21.0766 17.1172 17.5379 24.9319ZM49.4915 43.8118C49.4873 42.611 48.9975 41.4611 48.1297 40.6151C47.262 39.769 46.0874 39.2961 44.8644 39.3004C43.6414 39.3047 42.4701 39.7858 41.6083 40.6378C40.7464 41.4899 40.2646 42.6432 40.2688 43.844C40.273 45.0447 40.7629 46.1946 41.6306 47.0407C42.4984 47.8867 43.673 48.3596 44.896 48.3554C46.119 48.3511 47.2902 47.87 48.1521 47.0179C49.0139 46.1658 49.4957 45.0126 49.4915 43.8118Z" fill="white"/>
</svg>
