<svg width="132" height="52" viewBox="0 0 132 52" fill="none" xmlns="http://www.w3.org/2000/svg">
<path d="M4 2C4 3.10457 3.10457 4 2 4C0.89543 4 0 3.10457 0 2C0 0.89543 0.89543 0 2 0C3.10457 0 4 0.89543 4 2Z" fill="#242A36" fill-opacity="0.1"/>
<path d="M20 2C20 3.10457 19.1046 4 18 4C16.8954 4 16 3.10457 16 2C16 0.89543 16.8954 0 18 0C19.1046 0 20 0.89543 20 2Z" fill="#242A36" fill-opacity="0.1"/>
<path d="M36 2C36 3.10457 35.1046 4 34 4C32.8954 4 32 3.10457 32 2C32 0.89543 32.8954 0 34 0C35.1046 0 36 0.89543 36 2Z" fill="#242A36" fill-opacity="0.1"/>
<path d="M52 2C52 3.10457 51.1046 4 50 4C48.8954 4 48 3.10457 48 2C48 0.89543 48.8954 0 50 0C51.1046 0 52 0.89543 52 2Z" fill="#242A36" fill-opacity="0.1"/>
<path d="M68 2C68 3.10457 67.1046 4 66 4C64.8954 4 64 3.10457 64 2C64 0.89543 64.8954 0 66 0C67.1046 0 68 0.89543 68 2Z" fill="#242A36" fill-opacity="0.1"/>
<path d="M84 2C84 3.10457 83.1046 4 82 4C80.8954 4 80 3.10457 80 2C80 0.89543 80.8954 0 82 0C83.1046 0 84 0.89543 84 2Z" fill="#242A36" fill-opacity="0.1"/>
<path d="M100 2C100 3.10457 99.1046 4 98 4C96.8954 4 96 3.10457 96 2C96 0.89543 96.8954 0 98 0C99.1046 0 100 0.89543 100 2Z" fill="#242A36" fill-opacity="0.1"/>
<path d="M116 2C116 3.10457 115.105 4 114 4C112.895 4 112 3.10457 112 2C112 0.89543 112.895 0 114 0C115.105 0 116 0.89543 116 2Z" fill="#242A36" fill-opacity="0.1"/>
<path d="M132 2C132 3.10457 131.105 4 130 4C128.895 4 128 3.10457 128 2C128 0.89543 128.895 0 130 0C131.105 0 132 0.89543 132 2Z" fill="#242A36" fill-opacity="0.1"/>
<path d="M4 18C4 19.1046 3.10457 20 2 20C0.89543 20 0 19.1046 0 18C0 16.8954 0.89543 16 2 16C3.10457 16 4 16.8954 4 18Z" fill="#242A36" fill-opacity="0.1"/>
<path d="M20 18C20 19.1046 19.1046 20 18 20C16.8954 20 16 19.1046 16 18C16 16.8954 16.8954 16 18 16C19.1046 16 20 16.8954 20 18Z" fill="#242A36" fill-opacity="0.1"/>
<path d="M36 18C36 19.1046 35.1046 20 34 20C32.8954 20 32 19.1046 32 18C32 16.8954 32.8954 16 34 16C35.1046 16 36 16.8954 36 18Z" fill="#242A36" fill-opacity="0.1"/>
<path d="M52 18C52 19.1046 51.1046 20 50 20C48.8954 20 48 19.1046 48 18C48 16.8954 48.8954 16 50 16C51.1046 16 52 16.8954 52 18Z" fill="#242A36" fill-opacity="0.1"/>
<path d="M68 18C68 19.1046 67.1046 20 66 20C64.8954 20 64 19.1046 64 18C64 16.8954 64.8954 16 66 16C67.1046 16 68 16.8954 68 18Z" fill="#242A36" fill-opacity="0.1"/>
<path d="M84 18C84 19.1046 83.1046 20 82 20C80.8954 20 80 19.1046 80 18C80 16.8954 80.8954 16 82 16C83.1046 16 84 16.8954 84 18Z" fill="#242A36" fill-opacity="0.1"/>
<path d="M100 18C100 19.1046 99.1046 20 98 20C96.8954 20 96 19.1046 96 18C96 16.8954 96.8954 16 98 16C99.1046 16 100 16.8954 100 18Z" fill="#242A36" fill-opacity="0.1"/>
<path d="M116 18C116 19.1046 115.105 20 114 20C112.895 20 112 19.1046 112 18C112 16.8954 112.895 16 114 16C115.105 16 116 16.8954 116 18Z" fill="#242A36" fill-opacity="0.1"/>
<path d="M132 18C132 19.1046 131.105 20 130 20C128.895 20 128 19.1046 128 18C128 16.8954 128.895 16 130 16C131.105 16 132 16.8954 132 18Z" fill="#242A36" fill-opacity="0.1"/>
<path d="M4 34C4 35.1046 3.10457 36 2 36C0.89543 36 0 35.1046 0 34C0 32.8954 0.89543 32 2 32C3.10457 32 4 32.8954 4 34Z" fill="#242A36" fill-opacity="0.1"/>
<path d="M20 34C20 35.1046 19.1046 36 18 36C16.8954 36 16 35.1046 16 34C16 32.8954 16.8954 32 18 32C19.1046 32 20 32.8954 20 34Z" fill="#242A36" fill-opacity="0.1"/>
<path d="M36 34C36 35.1046 35.1046 36 34 36C32.8954 36 32 35.1046 32 34C32 32.8954 32.8954 32 34 32C35.1046 32 36 32.8954 36 34Z" fill="#242A36" fill-opacity="0.1"/>
<path d="M52 34C52 35.1046 51.1046 36 50 36C48.8954 36 48 35.1046 48 34C48 32.8954 48.8954 32 50 32C51.1046 32 52 32.8954 52 34Z" fill="#242A36" fill-opacity="0.1"/>
<path d="M68 34C68 35.1046 67.1046 36 66 36C64.8954 36 64 35.1046 64 34C64 32.8954 64.8954 32 66 32C67.1046 32 68 32.8954 68 34Z" fill="#242A36" fill-opacity="0.1"/>
<path d="M84 34C84 35.1046 83.1046 36 82 36C80.8954 36 80 35.1046 80 34C80 32.8954 80.8954 32 82 32C83.1046 32 84 32.8954 84 34Z" fill="#242A36" fill-opacity="0.1"/>
<path d="M100 34C100 35.1046 99.1046 36 98 36C96.8954 36 96 35.1046 96 34C96 32.8954 96.8954 32 98 32C99.1046 32 100 32.8954 100 34Z" fill="#242A36" fill-opacity="0.1"/>
<path d="M116 34C116 35.1046 115.105 36 114 36C112.895 36 112 35.1046 112 34C112 32.8954 112.895 32 114 32C115.105 32 116 32.8954 116 34Z" fill="#242A36" fill-opacity="0.1"/>
<path d="M132 34C132 35.1046 131.105 36 130 36C128.895 36 128 35.1046 128 34C128 32.8954 128.895 32 130 32C131.105 32 132 32.8954 132 34Z" fill="#242A36" fill-opacity="0.1"/>
<path d="M4 50C4 51.1046 3.10457 52 2 52C0.89543 52 0 51.1046 0 50C0 48.8954 0.89543 48 2 48C3.10457 48 4 48.8954 4 50Z" fill="#242A36" fill-opacity="0.1"/>
<path d="M20 50C20 51.1046 19.1046 52 18 52C16.8954 52 16 51.1046 16 50C16 48.8954 16.8954 48 18 48C19.1046 48 20 48.8954 20 50Z" fill="#242A36" fill-opacity="0.1"/>
<path d="M36 50C36 51.1046 35.1046 52 34 52C32.8954 52 32 51.1046 32 50C32 48.8954 32.8954 48 34 48C35.1046 48 36 48.8954 36 50Z" fill="#242A36" fill-opacity="0.1"/>
<path d="M52 50C52 51.1046 51.1046 52 50 52C48.8954 52 48 51.1046 48 50C48 48.8954 48.8954 48 50 48C51.1046 48 52 48.8954 52 50Z" fill="#242A36" fill-opacity="0.1"/>
<path d="M68 50C68 51.1046 67.1046 52 66 52C64.8954 52 64 51.1046 64 50C64 48.8954 64.8954 48 66 48C67.1046 48 68 48.8954 68 50Z" fill="#242A36" fill-opacity="0.1"/>
<path d="M84 50C84 51.1046 83.1046 52 82 52C80.8954 52 80 51.1046 80 50C80 48.8954 80.8954 48 82 48C83.1046 48 84 48.8954 84 50Z" fill="#242A36" fill-opacity="0.1"/>
<path d="M100 50C100 51.1046 99.1046 52 98 52C96.8954 52 96 51.1046 96 50C96 48.8954 96.8954 48 98 48C99.1046 48 100 48.8954 100 50Z" fill="#242A36" fill-opacity="0.1"/>
<path d="M116 50C116 51.1046 115.105 52 114 52C112.895 52 112 51.1046 112 50C112 48.8954 112.895 48 114 48C115.105 48 116 48.8954 116 50Z" fill="#242A36" fill-opacity="0.1"/>
<path d="M132 50C132 51.1046 131.105 52 130 52C128.895 52 128 51.1046 128 50C128 48.8954 128.895 48 130 48C131.105 48 132 48.8954 132 50Z" fill="#242A36" fill-opacity="0.1"/>
</svg>
