<svg width="64" height="64" viewBox="0 0 64 64" fill="none" xmlns="http://www.w3.org/2000/svg">
<rect width="64" height="64" rx="12" fill="#FF8852"/>
<g clip-path="url(#clip0_7943_6355)">
<path d="M51.25 32C51.25 42.6279 42.6348 51.2431 32.0069 51.2431C21.379 51.2431 12.7642 42.6279 12.7642 32C12.7642 21.372 21.379 12.7568 32.0069 12.7568C42.6348 12.7568 51.25 21.3725 51.25 32Z" fill="white"/>
<path d="M36.2652 25.0479C35.1692 25.0484 34.0835 25.26 33.0675 25.6712L33.2119 24.8898C33.2119 24.8898 34.1835 20.6908 30.2002 20.4375C29.8825 20.4392 29.7835 20.6027 29.7419 20.8231L28.9621 25.0523C27.9049 25.0654 26.8594 25.2749 25.8788 25.67L26.0227 24.8885C26.0227 24.8885 26.9944 20.6908 23.0115 20.4375C22.6952 20.4387 22.5948 20.6008 22.5544 20.8192L20.4223 32.3817C20.3227 32.9054 20.2689 33.4369 20.2615 33.97C20.2 38.8894 24.0531 42.8917 28.8525 42.8917C33.6519 42.8917 37.6058 38.8894 37.6677 33.97C37.6842 32.6429 37.3617 31.7465 36.7896 31.2233C36.0211 30.5212 34.6731 30.6608 34.0252 31.5285C33.426 32.3304 33.5171 33.5579 33.5117 33.97C33.4987 35 33.152 35.998 32.5236 36.8142C31.9138 35.9926 31.5917 34.993 31.6069 33.97C31.639 31.3994 33.7052 29.3083 36.2121 29.3083C38.719 29.3083 40.7329 31.3994 40.7017 33.97C40.6927 34.7622 40.486 35.5397 40.1004 36.2318C39.7147 36.9239 39.1623 37.5087 38.4933 37.9331C38.4033 37.9898 38.1698 38.1296 37.9858 38.3306C37.8281 38.5033 37.715 38.7373 37.665 38.8306C36.8991 40.2433 35.8161 41.4591 34.5011 42.3825C34.4267 42.4344 34.2944 42.535 34.3358 42.6375C34.3742 42.7319 34.5871 42.7662 34.6802 42.7812C35.1304 42.8555 35.5859 42.8928 36.0421 42.8927C40.8406 42.8927 44.7952 38.8904 44.8565 33.971C44.9177 29.0517 41.0646 25.0479 36.2652 25.0479ZM24.4165 33.97C24.4446 31.7008 26.059 29.8079 28.1615 29.3946L27.6113 32.3817C27.5119 32.9055 27.4582 33.4369 27.4506 33.97C27.4298 35.6727 27.8781 37.2644 28.6721 38.619C26.2752 38.4927 24.3858 36.4583 24.4165 33.97Z" fill="#E0623D"/>
</g>
<defs>
<clipPath id="clip0_7943_6355">
<rect width="40" height="40" fill="white" transform="translate(12 12)"/>
</clipPath>
</defs>
</svg>
