<svg width="64" height="64" viewBox="0 0 64 64" fill="none" xmlns="http://www.w3.org/2000/svg">
<rect width="64" height="64" rx="12" fill="#999236"/>
<g clip-path="url(#clip0_7943_6212)">
<path d="M48.2663 29.9618C48.9536 29.9618 49.5 29.4194 49.5 28.7371V27.11C49.5 19.9369 47.2969 17.75 40.0706 17.75H23.6794C16.4531 17.75 14.25 19.9369 14.25 27.11V27.9323C14.25 28.6147 14.7964 29.157 15.4837 29.157C17.07 29.157 18.3566 30.4342 18.3566 32.0088C18.3566 33.5833 17.07 34.843 15.4837 34.843C14.7964 34.843 14.25 35.3854 14.25 36.0677V36.89C14.25 44.0631 16.4531 46.25 23.6794 46.25H40.0706C47.2969 46.25 49.5 44.0631 49.5 36.89C49.5 36.2076 48.9536 35.6653 48.2663 35.6653C46.68 35.6653 45.3934 34.3881 45.3934 32.8135C45.3934 31.239 46.68 29.9618 48.2663 29.9618ZM26.5875 26.5327C27.5568 26.5327 28.3501 27.32 28.3501 28.2822C28.3501 29.2445 27.5745 30.0318 26.5875 30.0318C25.6181 30.0318 24.825 29.2445 24.825 28.2822C24.825 27.32 25.6005 26.5327 26.5875 26.5327ZM37.1625 38.7795C36.1755 38.7795 35.3824 37.9922 35.3824 37.0299C35.3824 36.0677 36.1755 35.2804 37.1449 35.2804C38.1143 35.2804 38.9074 36.0677 38.9074 37.0299C38.9074 37.9922 38.1495 38.7795 37.1625 38.7795ZM38.7488 27.5824L26.8871 39.3568C26.6227 39.6192 26.2878 39.7417 25.953 39.7417C25.6181 39.7417 25.2832 39.6192 25.0188 39.3568C24.5077 38.8494 24.5077 38.0097 25.0188 37.5023L36.8805 25.7279C37.3917 25.2205 38.2377 25.2205 38.7488 25.7279C39.2599 26.2353 39.2599 27.075 38.7488 27.5824Z" fill="white"/>
</g>
<defs>
<clipPath id="clip0_7943_6212">
<rect width="42" height="42" fill="white" transform="translate(11 11)"/>
</clipPath>
</defs>
</svg>
