<svg width="42" height="42" viewBox="0 0 42 42" fill="none" xmlns="http://www.w3.org/2000/svg">
<rect width="42" height="42" rx="21" fill="#0077FF"/>
<path d="M21 23C22.1046 23 23 22.1046 23 21C23 19.8954 22.1046 19 21 19C19.8954 19 19 19.8954 19 21C19 22.1046 19.8954 23 21 23Z" stroke="white" stroke-width="1.5" stroke-linecap="round" stroke-linejoin="round"/>
<path d="M28.1447 18.8168C29.3061 20.0763 29.4191 22.0107 28.2561 23.2688C26.3372 25.3445 23.7581 27 21 27C18.242 27 15.6629 25.3445 13.744 23.2688C12.5809 22.0108 12.6939 20.0762 13.8554 18.8167C15.7613 16.75 18.0163 15 21 15C23.9838 15 26.2387 16.75 28.1447 18.8168Z" stroke="white" stroke-width="1.5" stroke-linecap="round" stroke-linejoin="round"/>
</svg>
