<svg width="64" height="64" viewBox="0 0 64 64" fill="none" xmlns="http://www.w3.org/2000/svg">
<rect width="64" height="64" rx="12" fill="#FF8852"/>
<g clip-path="url(#clip0_7943_6251)">
<path d="M16.5 39.6112C16.5 42.7612 19.0524 45.3326 22.1946 45.3326H29.7233C29.3385 44.2397 29.1333 43.0569 29.1333 41.8355C29.1333 39.8813 29.6591 38.0555 30.5698 36.4741H23.2976C22.5922 36.4741 22.0151 35.9084 22.0151 35.1884C22.0151 34.4813 22.5922 33.9027 23.2976 33.9027H30.8776C31.3521 33.9027 31.7625 34.1598 31.9805 34.5455C33.9429 32.4241 36.7389 31.087 39.8427 31.087C41.0611 31.087 42.241 31.2928 43.3441 31.6784V19.7085C43.3441 16.5585 40.779 14 37.6367 14H22.1946C19.0524 14 16.5 16.5585 16.5 19.7085V39.6112ZM23.2976 22.8457H36.5337C37.2519 22.8457 37.8163 23.4242 37.8163 24.1314C37.8163 24.8385 37.2519 25.4171 36.5337 25.4171H23.2976C22.5922 25.4171 22.0151 24.8385 22.0151 24.1314C22.0151 23.4242 22.5922 22.8457 23.2976 22.8457ZM23.2976 28.3742H36.5337C37.2519 28.3742 37.8163 28.9528 37.8163 29.6599C37.8163 30.3799 37.2519 30.9456 36.5337 30.9456H23.2976C22.5922 30.9456 22.0151 30.3799 22.0151 29.6599C22.0151 28.9528 22.5922 28.3742 23.2976 28.3742Z" fill="white"/>
<path d="M39.843 33.6589C35.354 33.6589 31.6987 37.3232 31.6987 41.836C31.6987 46.336 35.354 50.0003 39.843 50.0003C44.3448 50.0003 48.0001 46.336 48.0001 41.836C48.0001 37.3232 44.3448 33.6589 39.843 33.6589ZM42.126 43.1217H39.843C39.1376 43.1217 38.5604 42.5432 38.5604 41.836V39.4575C38.5604 38.7375 39.1376 38.1718 39.843 38.1718C40.5612 38.1718 41.1255 38.7375 41.1255 39.4575V40.5503H42.126C42.8314 40.5503 43.4085 41.116 43.4085 41.836C43.4085 42.5432 42.8314 43.1217 42.126 43.1217Z" fill="white"/>
</g>
<defs>
<clipPath id="clip0_7943_6251">
<rect width="42" height="42" fill="white" transform="translate(11 11)"/>
</clipPath>
</defs>
</svg>
