<svg width="16" height="16" viewBox="0 0 16 16" fill="none" xmlns="http://www.w3.org/2000/svg">
<path d="M2.66675 14.0667V1.93337C2.66675 1.602 2.93538 1.33337 3.26675 1.33337H10.7516C10.9107 1.33337 11.0633 1.39659 11.1758 1.50911L13.1577 3.49097C13.2702 3.60349 13.3334 3.75611 13.3334 3.91524V14.0667C13.3334 14.3981 13.0648 14.6667 12.7334 14.6667H3.26675C2.93538 14.6667 2.66675 14.3981 2.66675 14.0667Z" stroke="#617191" stroke-linecap="round" stroke-linejoin="round"/>
<path d="M5.33325 6.66663L10.6666 6.66663" stroke="#617191" stroke-linecap="round" stroke-linejoin="round"/>
<path d="M5.33325 12L10.6666 12" stroke="#617191" stroke-linecap="round" stroke-linejoin="round"/>
<path d="M5.33325 9.33337L7.99992 9.33337" stroke="#617191" stroke-linecap="round" stroke-linejoin="round"/>
<path d="M10.6667 1.33337V3.40004C10.6667 3.73141 10.9354 4.00004 11.2667 4.00004H13.3334" stroke="#617191" stroke-linecap="round" stroke-linejoin="round"/>
</svg>
