<svg width="32" height="32" viewBox="0 0 32 32" fill="none" xmlns="http://www.w3.org/2000/svg">
<rect width="32" height="32" rx="6" fill="#0067DE"/>
<path d="M16 18C17.1046 18 18 17.1046 18 16C18 14.8954 17.1046 14 16 14C14.8954 14 14 14.8954 14 16C14 17.1046 14.8954 18 16 18Z" stroke="white" stroke-width="1.2" stroke-linecap="round" stroke-linejoin="round"/>
<path d="M23.1447 13.8168C24.3061 15.0763 24.4191 17.0107 23.2561 18.2688C21.3372 20.3445 18.7581 22 16 22C13.242 22 10.6629 20.3445 8.74397 18.2688C7.58093 17.0108 7.69393 15.0762 8.8554 13.8167C10.7613 11.75 13.0163 10 16 10C18.9838 10 21.2387 11.75 23.1447 13.8168Z" stroke="white" stroke-width="1.2" stroke-linecap="round" stroke-linejoin="round"/>
</svg>
