<svg width="20" height="20" viewBox="0 0 20 20" fill="none" xmlns="http://www.w3.org/2000/svg">
<path fill-rule="evenodd" clip-rule="evenodd" d="M19.375 3.75C19.7202 3.75 20 4.02982 20 4.375C20 4.72018 19.7202 5 19.375 5L17.5 4.99937V16.25C17.5 18.3211 15.8211 20 13.75 20H6.25C4.17893 20 2.5 18.3211 2.5 16.25V5H0.625C0.279822 5 0 4.72018 0 4.375C0 4.02982 0.279822 3.75 0.625 3.75H19.375ZM8.125 8.75C7.77982 8.75 7.5 9.02982 7.5 9.375V13.75C7.5 14.0952 7.77982 14.375 8.125 14.375C8.47018 14.375 8.75 14.0952 8.75 13.75V9.375C8.75 9.02982 8.47018 8.75 8.125 8.75ZM11.875 8.75C11.5298 8.75 11.25 9.02982 11.25 9.375V13.75C11.25 14.0952 11.5298 14.375 11.875 14.375C12.2202 14.375 12.5 14.0952 12.5 13.75V9.375C12.5 9.02982 12.2202 8.75 11.875 8.75ZM14.6875 0.625C15.2053 0.625 15.625 1.04473 15.625 1.5625C15.625 2.08027 15.2053 2.5 14.6875 2.5H5.3125C4.79473 2.5 4.375 2.08027 4.375 1.5625C4.375 1.04473 4.79473 0.625 5.3125 0.625H14.6875Z" fill="#F16965"/>
</svg>
