<svg width="36" height="36" viewBox="0 0 36 36" fill="none" xmlns="http://www.w3.org/2000/svg">
<rect width="36" height="36" rx="6" fill="#F2F8FF"/>
<path d="M12.1667 12.9074C12.1667 10.9869 12.1667 10.0266 12.7634 9.43001C13.36 8.83337 14.3203 8.83337 16.2408 8.83337H18.2779H20.3149C22.2354 8.83337 23.1957 8.83337 23.7923 9.43001C24.389 10.0266 24.389 10.9869 24.389 12.9074V18V23.0926C24.389 25.0132 24.389 25.9734 23.7923 26.5701C23.1957 27.1667 22.2354 27.1667 20.3149 27.1667H18.2779H16.2408C14.3203 27.1667 13.36 27.1667 12.7634 26.5701C12.1667 25.9734 12.1667 25.0132 12.1667 23.0926V18V12.9074Z" stroke="#0077FF" stroke-width="1.2" stroke-linejoin="round"/>
<path d="M17.7686 24.1111H18.7871" stroke="#0077FF" stroke-width="1.2" stroke-linecap="round"/>
</svg>
