<svg width="64" height="64" viewBox="0 0 64 64" fill="none" xmlns="http://www.w3.org/2000/svg">
<rect width="64" height="64" rx="12" fill="#E04F43"/>
<g clip-path="url(#clip0_7943_6166)">
<path fill-rule="evenodd" clip-rule="evenodd" d="M22.8835 17.9987C22.8835 16.8776 23.7924 15.9688 24.9135 15.9688H39.5292C40.6503 15.9688 41.5591 16.8776 41.5591 17.9987V39.9222C41.5591 41.0433 40.6503 41.9522 39.5292 41.9522H24.9135C23.7924 41.9522 22.8835 41.0433 22.8835 39.9222V17.9987ZM33.3797 23.9997C33.0151 22.8776 31.4276 22.8776 31.063 23.9997L30.5806 25.4842C30.4176 25.9861 29.9499 26.3259 29.4223 26.3259H27.8614C26.6815 26.3259 26.1909 27.8357 27.1454 28.5292L28.4082 29.4467C28.8351 29.7568 29.0138 30.3066 28.8507 30.8084L28.3684 32.2929C28.0037 33.4151 29.2881 34.3482 30.2426 33.6547L31.5054 32.7372C31.9323 32.427 32.5104 32.427 32.9373 32.7372L34.2 33.6547C35.1546 34.3482 36.4389 33.4151 36.0743 32.2929L35.5919 30.8084C35.4289 30.3066 35.6075 29.7568 36.0344 29.4467L37.2972 28.5292C38.2518 27.8357 37.7612 26.3259 36.5813 26.3259H35.0204C34.4927 26.3259 34.0251 25.9861 33.8621 25.4842L33.3797 23.9997Z" fill="white"/>
<path d="M37.0811 43.5761L34.396 44.6735L41.4071 47.5389C42.4449 47.9631 43.63 47.4657 44.0541 46.4279L52.3485 26.1339C52.7727 25.0961 52.275 23.911 51.2373 23.4868L43.1828 20.1949V39.9221C43.1828 41.9402 41.5469 43.5761 39.5289 43.5761H37.0811Z" fill="white"/>
<path d="M21.2597 20.218L13.2625 23.4865C12.2247 23.9107 11.7273 25.0958 12.1514 26.1336L20.4456 46.4276C20.8698 47.4653 22.0549 47.9628 23.0927 47.5386L32.7889 43.5758H24.9136C22.8956 43.5758 21.2597 41.9399 21.2597 39.9218V20.218Z" fill="white"/>
</g>
<defs>
<clipPath id="clip0_7943_6166">
<rect width="40.5" height="40.5" fill="white" transform="translate(12 11.75)"/>
</clipPath>
</defs>
</svg>
