<svg width="64" height="64" viewBox="0 0 64 64" fill="none" xmlns="http://www.w3.org/2000/svg">
<rect width="64" height="64" rx="12" fill="#5E2CED"/>
<path d="M42.7746 50.2999C44.0646 50.2641 45.2471 47.702 45.1755 41.682C44.9784 23.4607 44.8709 20.3431 44.8709 20.3431C44.8351 18.9994 43.7063 17.9244 42.3626 17.9602H42.3446L17.3149 18.6948C15.9712 18.7306 14.8962 19.8594 14.932 21.2211C14.932 21.2211 14.9858 24.3386 15.8458 42.542C16.1324 48.5441 17.4583 51.0345 18.7483 50.9987L42.7746 50.2999Z" fill="url(#paint0_radial_7943_6431)"/>
<path d="M45.1217 36.4503C44.9426 21.9198 44.8709 20.3431 44.8709 20.3431C44.8351 18.9994 43.7063 17.9244 42.3626 17.9602H42.3446L17.3149 18.6948C15.9712 18.7306 14.8962 19.8594 14.932 21.2211C14.932 21.2211 14.9499 22.7977 15.6308 37.3461C15.7383 37.4716 15.8099 37.5253 15.8099 37.5253C15.7383 28.6207 16.7416 24.9836 16.7416 24.9836C16.7416 24.9836 17.7091 25.7003 20.8983 25.7719C27.7246 25.9153 42.058 21.5077 42.058 21.5077C44.853 27.904 44.9605 36.6832 44.9605 36.6832C45.0142 36.5936 45.068 36.522 45.1217 36.4503Z" fill="#C9955D"/>
<path d="M40.3558 32.8131C40.3916 34.1389 39.3525 35.2498 38.0266 35.2856C36.7008 35.3215 35.59 34.2823 35.5541 32.9564C35.5183 31.6306 36.5575 30.5198 37.8833 30.4839C39.2091 30.4481 40.32 31.4873 40.3558 32.8131Z" fill="#C9955D"/>
<path d="M40.069 32.6519C40.1049 33.8344 39.1732 34.8019 38.0086 34.8377C36.8261 34.8736 35.8586 33.9419 35.8228 32.7773C35.7869 31.5948 36.7186 30.6273 37.8832 30.5915C39.0657 30.5556 40.0332 31.4694 40.069 32.6519Z" fill="url(#paint1_radial_7943_6431)"/>
<path d="M41.6458 42.6852C41.6816 43.5989 40.947 44.3693 40.0333 44.4052C39.1195 44.441 38.3491 43.7064 38.3133 42.7927C38.2774 41.8789 39.012 41.1085 39.9258 41.0727C40.8574 41.0368 41.61 41.7714 41.6458 42.6852Z" fill="#F7B180"/>
<path d="M23.1199 43.2227C23.1557 44.1364 22.4212 44.9068 21.5074 44.9427C20.5936 44.9785 19.8232 44.2439 19.7874 43.3302C19.7516 42.4164 20.4861 41.646 21.3999 41.6101C22.3137 41.5743 23.0841 42.3089 23.1199 43.2227Z" fill="#F7B180"/>
<path d="M20.1637 33.4044C20.1996 34.7303 21.3104 35.7695 22.6363 35.7336C23.9621 35.6978 25.0013 34.5869 24.9654 33.2611C24.9296 31.9353 23.8188 30.8961 22.4929 30.9319C21.1671 30.9678 20.1279 32.0786 20.1637 33.4044Z" fill="#C9955D"/>
<path d="M20.4324 33.2252C20.4682 34.4077 21.4357 35.3214 22.6182 35.3035C23.8007 35.2677 24.7145 34.3002 24.6966 33.1177C24.6787 31.9352 23.6932 31.0214 22.5107 31.0393C21.3282 31.0752 20.3966 32.0427 20.4324 33.2252Z" fill="url(#paint2_radial_7943_6431)"/>
<path d="M24.0694 32.0964C24.3382 32.5264 24.2307 33.0818 23.8544 33.2968C23.4782 33.5118 22.9586 33.3506 22.6898 32.9027C22.4211 32.4548 22.5286 31.9173 22.9048 31.7023C23.2811 31.4873 23.8007 31.6485 24.0694 32.0964Z" fill="white"/>
<path d="M39.46 31.6485C39.7287 32.0964 39.6212 32.6339 39.245 32.8668C38.8687 33.0997 38.3312 32.9205 38.0804 32.4726C37.8296 32.0247 37.9191 31.4872 38.2954 31.2722C38.6716 31.0572 39.1912 31.2005 39.46 31.6485Z" fill="white"/>
<path d="M35.9484 43.0795C35.9842 43.3125 35.823 43.5095 35.608 43.5454C35.608 43.5454 35.6079 43.5454 35.59 43.5454C32.2575 44.0291 28.8892 44.1366 25.5387 43.832C25.3058 43.8141 25.1446 43.617 25.1625 43.3841C25.1804 43.1512 25.3775 42.99 25.6104 43.0079C28.8892 43.2945 32.2038 43.205 35.4646 42.7212C35.6796 42.7033 35.8946 42.8645 35.9484 43.0795Z" fill="#836848"/>
<path d="M51.4283 15.0756L51.4821 15.1114C51.4821 15.1114 51.1775 15.1114 50.6937 15.1114C49.5471 15.1472 47.3433 15.3443 45.695 16.1326L45.8562 16.0968C47.5404 15.6847 48.2392 16.2939 48.2392 16.2939C48.2392 16.2939 46.2862 17.3689 47.1642 19.716C48.0421 22.0631 50.4787 32.8669 44.9604 38.7973C44.9783 38.5644 45.7666 29.3014 43.4912 22.7977H43.4733C42.7925 22.9231 27.9037 25.5568 21.1132 24.8223C17.8703 24.4818 16.9028 23.3352 16.9028 23.3352C16.9028 23.3352 15.8815 28.1906 15.1828 37.0236C15.0932 36.9161 12.0115 33.691 12.5669 26.4885C13.1403 19.1606 15.2186 16.4193 15.2186 16.4193L15.5949 17.996L16.9924 15.8639L17.3507 17.4585L18.8736 15.7922L18.8378 17.1001C23.0303 15.5056 27.3662 14.2872 31.7737 13.4272C35.6079 12.6926 39.8004 12.2626 43.6704 12.6389C46.5729 12.9076 49.2783 13.6422 51.5 15.0576L51.4283 15.0756Z" fill="#201A14"/>
<path d="M44.602 16.2761C44.1361 16.9211 45.1395 16.9032 46.0353 16.6523C46.6266 16.4911 47.0387 16.3478 47.0566 16.5448C47.0745 16.6523 46.967 16.8494 46.7341 17.1898C46.6624 17.2794 46.6087 17.369 46.5549 17.4586C46.3757 17.7094 46.2324 17.9961 46.1428 18.2828C46.0174 18.7307 46.0712 19.2324 46.2682 20.164C46.6266 21.8303 47.5224 22.8695 47.612 26.8828C47.7732 34.6408 45.5516 37.2208 45.5516 37.2208C45.5516 37.2208 45.5695 36.9341 45.5874 36.3966C45.6412 35.017 45.6949 31.9174 45.4262 27.5816C45.3007 25.6645 44.8349 23.7832 44.0466 22.0095H44.0286C42.9716 22.2424 41.9503 22.4395 40.9828 22.6186L40.8932 22.6365C17.476 27.0978 18.4435 21.9557 16.2398 22.8515C16.2398 22.8515 15.8635 22.4036 15.2723 28.7461C15.1289 30.3228 14.9856 32.2937 14.8064 34.802C14.7885 34.9812 14.7348 35.0528 14.6273 35.017C14.251 34.8916 13.391 33.3507 13.0327 30.4124C12.8177 28.6028 12.9431 26.5066 13.2119 24.5536V24.5357C13.4806 22.5649 13.8569 20.6119 14.3764 18.6769C14.681 17.6378 14.9856 17.3869 15.111 17.2973C15.1827 17.2436 15.2006 17.7274 15.2544 18.1036V18.1215C15.2544 18.1574 15.2544 18.1753 15.2723 18.2111C15.2902 18.2649 15.2902 18.3186 15.3081 18.3544C15.3081 18.3724 15.326 18.3903 15.326 18.3903C15.326 18.3903 15.326 18.3903 15.326 18.4082C15.3619 18.5157 15.4156 18.5874 15.5052 18.5515C15.6306 18.5157 15.7202 18.4261 15.7919 18.3186C15.8277 18.2828 15.8456 18.2469 15.8635 18.2111L15.8994 18.1574C15.8994 18.1394 15.9173 18.1394 15.9173 18.1394V18.1215C16.0964 17.8169 16.2935 17.5303 16.5085 17.2436C16.8131 16.9211 16.8848 17.1003 16.9206 17.4407C16.9385 17.584 16.9385 17.7453 16.9744 17.9065V17.9603C16.9744 17.9603 16.9744 17.9603 16.9744 17.9782C16.9744 18.0499 17.0102 18.1215 17.046 18.1753C17.1535 18.2828 17.3148 18.1753 17.5119 17.9244C17.6015 17.8169 17.6731 17.6915 17.7448 17.5661C18.0852 16.9569 18.3898 16.6703 18.4615 16.724C18.4794 16.7419 18.4794 16.8494 18.4615 16.9569C18.4435 17.2078 18.4435 17.5661 18.8556 17.6557H18.8915C19.0706 17.6557 19.5544 17.5123 20.3069 17.2615L20.3606 17.2436C22.7077 16.4553 27.5452 14.7173 33.7624 13.7678L33.8878 13.7498C34.2819 13.6961 34.6761 13.6423 35.0703 13.5886C35.0703 13.5886 42.0578 12.6211 47.8987 14.0365C49.4037 14.3948 50.0308 14.574 50.1024 14.6457C50.1562 14.7173 49.8874 14.7353 49.4395 14.7532C48.1853 14.8607 45.5516 14.9682 44.602 16.2761Z" fill="#44221B"/>
<path d="M46.0355 16.6342C46.4476 16.5267 46.788 16.4192 46.9493 16.4371C47.0209 16.4371 47.0568 16.473 47.0568 16.5267C47.0209 16.6163 46.9672 16.7059 46.9134 16.7955C46.8239 16.9746 46.6984 17.1896 46.5551 17.4405C46.4118 17.6913 46.2684 17.978 46.143 18.2646C45.7847 19.0709 45.5518 20.0026 45.928 20.7192C46.7164 22.3138 47.8093 30.2868 46.358 34.2464C46.3401 34.3001 45.9639 35.3214 45.5876 36.3606C45.6414 34.981 45.6951 31.8814 45.4264 27.5455C45.3009 25.6284 44.8351 23.7472 44.0468 21.9734H44.0288C42.9718 22.2063 41.9505 22.4034 40.983 22.5826L40.8934 22.6005C17.4762 27.0618 18.4437 21.9197 16.24 22.8155C16.24 22.8155 15.8637 22.3676 15.2725 28.7101C15.1291 30.3226 14.9858 32.2935 14.8066 34.8018C14.7887 34.981 14.735 35.0526 14.6275 35.0168C14.3946 34.551 14.1975 34.0672 14.0362 33.5655C13.875 33.2072 13.7675 32.831 13.6958 32.4368C13.3912 30.663 12.9791 27.4022 13.4808 24.8401C13.4808 24.8401 14.6633 18.3901 14.9858 18.2288C15.3083 18.0676 14.9679 19.698 15.4516 19.4292C15.9354 19.1605 16.5625 17.7092 16.8133 17.763C17.0642 17.8167 16.6879 19.1605 17.1 19.0709C17.8525 18.9096 17.9062 17.7988 18.2467 17.7451C18.5871 17.6913 18.3004 19.3038 20.5938 17.9242C22.4213 16.8313 37.5788 12.173 45.9997 13.9467C45.9997 13.9467 48.5618 14.1617 50.1205 14.6813C50.1743 14.753 49.9055 14.7709 49.4576 14.7888C48.2034 14.8605 45.8564 15.7563 44.6022 16.4909C43.8855 16.903 45.1397 16.8851 46.0355 16.6342Z" fill="#4E2B1F"/>
<path d="M48.723 14.8605C48.6692 14.8426 48.5976 14.8247 48.5438 14.8068C48.293 14.7172 48.0242 14.6634 47.7555 14.6097C46.7342 14.4126 45.283 14.2513 45.283 14.2513C35.59 12.5672 20.4145 18.2109 19.662 18.5155C19.5725 18.5514 19.4829 18.5872 19.4112 18.6051C19.3395 18.623 19.2679 18.641 19.2141 18.6589C18.7841 18.7305 18.587 18.5514 18.3541 18.2109C18.0495 17.763 17.8704 19.0172 17.2254 19.2501C16.5804 19.483 16.7954 18.2826 16.7237 18.0676C16.652 17.8526 15.8099 19.6801 15.4158 19.5368C15.0216 19.3935 15.3262 18.3364 15.0037 18.5155C14.6812 18.6947 13.5166 25.091 13.5166 25.091V25.0731C13.7316 23.1381 14.072 21.221 14.5199 19.3397C14.7887 18.3184 15.0754 18.0676 15.2008 17.978C15.2724 17.9243 15.2904 18.3901 15.362 18.7664V18.7843C15.362 18.8201 15.362 18.838 15.3799 18.8739C15.3799 18.9276 15.3979 18.9635 15.4158 19.0172C15.4158 19.0351 15.4158 19.053 15.4337 19.053C15.4337 19.053 15.4337 19.053 15.4337 19.071C15.5591 19.3218 15.7562 19.1426 15.8816 18.9814C15.9174 18.9455 15.9354 18.9097 15.9533 18.8739L15.9891 18.8201L16.007 18.7843V18.7664C16.0966 18.5514 16.9029 16.7239 16.9745 18.0855C16.9745 18.2468 16.9924 18.4259 17.0283 18.5872C17.0283 18.5872 17.0283 18.5872 17.0283 18.6051C17.0462 18.6768 17.0641 18.7484 17.0999 18.8022C17.2612 19.0351 17.512 18.5872 17.5479 18.5514C17.6016 18.4439 18.6587 16.2759 18.4616 17.6018C18.39 18.0676 18.5691 18.2468 18.8558 18.2826H18.8916C18.9454 18.2826 19.017 18.2826 19.0708 18.2826C19.1425 18.2826 19.1962 18.2647 19.2679 18.2468C19.6083 18.1572 19.9487 18.0318 20.2712 17.8705L20.307 17.8526C20.8804 17.6734 27.1154 15.613 33.2608 14.1797L33.3684 14.1618C40.8575 12.7463 46.1788 13.7676 48.4363 14.3947C48.938 14.538 49.2963 14.6455 49.4934 14.7172C49.6009 14.753 49.6547 14.7709 49.6547 14.7709C49.9055 14.8784 49.2426 14.9859 48.723 14.8605Z" fill="#7C4C2B"/>
<path d="M16.1323 22.9769C16.1323 22.9769 15.5948 23.2815 15.3798 24.3028C15.1648 25.324 15.0752 31.0753 15.0752 31.0753C15.0752 31.0753 15.6485 23.604 16.1323 22.9769Z" fill="#7C4C2B"/>
<path d="M46.7162 16.7239C46.6803 16.7955 46.5549 16.7955 46.5012 16.903C45.5516 17.7093 45.1932 17.9243 44.172 18.6768C42.5774 19.8593 40.8216 20.8268 38.9582 21.5435C33.7086 23.5681 29.8565 24.1056 27.0078 23.8547C22.0269 23.4068 20.3965 21.0776 19.7336 19.2501L19.5186 18.8201C20.3069 20.6476 22.4211 22.9231 27.0615 23.3172C29.4265 23.5143 33.2249 23.1201 38.9941 21.0776C40.6066 20.5401 42.1474 19.7697 43.5449 18.7843C44.4587 18.1572 45.4441 17.5301 46.7162 16.7239C46.7699 16.7239 46.7162 16.6522 46.7162 16.7239Z" fill="#7C4C2B"/>
<path d="M49.5291 14.7352C49.2962 14.771 49.0274 14.8069 48.7228 14.8606C47.7016 15.0577 46.6982 15.3802 45.7486 15.8281C40.1945 18.6231 30.609 22.5469 21.8835 18.8919C30.5911 22.099 41.0365 17.9423 46.8774 14.986C47.1641 14.8427 47.4507 14.7173 47.7374 14.6098C47.9703 14.5202 48.2032 14.4485 48.4541 14.3948C48.9737 14.5381 49.332 14.6456 49.5291 14.7352Z" fill="#7C4C2B"/>
<path d="M51.4642 15.0934C51.4642 15.0934 47.8988 15.0038 45.5517 16.1863C39.675 19.1784 30.0358 22.923 21.4895 18.7484C30.5912 22.3497 40.5529 18.4438 46.77 15.3084C47.8092 14.8247 48.9379 14.4842 50.0667 14.323C50.5505 14.5559 51.0163 14.8067 51.4642 15.0934Z" fill="#201A14"/>
<path d="M47.0568 16.5448C47.0209 16.6343 46.9672 16.7239 46.9134 16.8135C45.9459 17.6377 45.5876 17.8527 44.5305 18.641C42.8822 19.8594 41.0905 20.8448 39.1734 21.5794C33.7984 23.6398 29.8388 24.2131 26.9184 23.9623C21.8121 23.5144 20.2533 20.9881 19.5546 19.1248L19.4829 18.856C20.2892 20.7194 22.2242 23.0844 26.9721 23.4965C29.8925 23.7473 33.8521 23.1919 39.2272 21.1135C41.1263 20.3789 42.9359 19.3935 44.5843 18.1752C45.498 17.4943 46.0355 17.1898 46.9672 16.4373C47.0209 16.4552 47.0568 16.491 47.0568 16.5448Z" fill="#201A14"/>
<path d="M23.6394 18.8918C24.5173 19.0531 25.3952 19.1606 26.2732 19.1964C26.7211 19.2143 27.1511 19.2502 27.599 19.2502H28.2619C28.4769 19.2502 28.7098 19.2322 28.9248 19.2322L29.5878 19.2143C29.8028 19.1964 30.0357 19.1785 30.2507 19.1606C30.6986 19.1247 31.1286 19.1068 31.5765 19.0352C32.0244 18.9814 32.4544 18.9456 32.9024 18.8739L34.2103 18.6589C34.4253 18.6231 34.6403 18.5693 34.8553 18.5335L35.5003 18.3902L36.1453 18.2468C36.3603 18.1931 36.5753 18.1393 36.7903 18.0856L38.0803 17.7451L39.3524 17.3331L39.9795 17.1181C40.1945 17.0464 40.3916 16.9568 40.6066 16.8851L41.8428 16.4014L42.1474 16.276L42.452 16.1326L43.0611 15.8639L44.2795 15.3085L43.0791 15.8818L42.4699 16.1685L42.1653 16.3118L41.8607 16.4372L40.6245 16.9389C40.4095 17.0106 40.2124 17.1181 39.9974 17.1718L39.3703 17.3868L38.1161 17.8168L36.8261 18.1751C36.6111 18.2289 36.3961 18.3006 36.1811 18.3543L35.5361 18.4977L34.8911 18.641C34.6761 18.6947 34.4611 18.7485 34.2461 18.7664L32.9382 18.9814C32.5082 19.0531 32.0603 19.0889 31.6124 19.1427C31.1644 19.1964 30.7344 19.2143 30.2865 19.2502C30.0715 19.2681 29.8386 19.286 29.6236 19.286L28.9607 19.3039C28.7457 19.3039 28.5128 19.3218 28.2978 19.3218L27.6348 19.3039C27.1869 19.3039 26.739 19.2681 26.309 19.2502C25.3952 19.1964 24.4994 19.071 23.6394 18.8918Z" fill="#7C4C2B"/>
<path d="M44.4408 17.4406C42.5954 18.4081 40.6783 19.2501 38.7254 19.9847C36.7725 20.7372 34.7658 21.3285 32.7233 21.7943C30.6808 22.2243 28.5845 22.4752 26.4883 22.2781C25.4491 22.1885 24.4099 21.9377 23.4424 21.5256C22.4749 21.1135 21.6149 20.4864 20.9341 19.6981C21.6328 20.4864 22.4928 21.0956 23.4783 21.4897C24.4458 21.8839 25.467 22.1347 26.5062 22.2064C28.5845 22.4035 30.6808 22.1347 32.7233 21.7047C34.7658 21.2568 36.7725 20.6656 38.7254 19.931C39.7108 19.5726 40.6783 19.1785 41.6279 18.7664C42.5775 18.3543 43.5092 17.9064 44.4408 17.4406Z" fill="#7C4C2B"/>
<path d="M40.2483 15.3801C39.1912 15.7564 38.0983 16.0789 36.9875 16.3297C35.8946 16.5985 34.7837 16.8314 33.6729 17.0285C32.562 17.2256 31.4512 17.4226 30.3224 17.566C29.767 17.6376 29.1937 17.6914 28.6383 17.7272C28.3516 17.7451 28.0649 17.7631 27.7962 17.7451C27.6529 17.7451 27.5095 17.7272 27.3662 17.7093C27.2229 17.7093 27.0795 17.6735 26.9541 17.6018C27.0795 17.6556 27.2229 17.6914 27.3662 17.6914C27.5095 17.7093 27.6529 17.7093 27.7962 17.7093C28.0829 17.7093 28.3516 17.6914 28.6383 17.6735C29.1937 17.6376 29.767 17.566 30.3224 17.4943C30.8779 17.4226 31.4333 17.3331 31.9887 17.2435C32.5441 17.1539 33.0995 17.0643 33.655 16.9568C34.7658 16.7597 35.8766 16.5268 36.9696 16.276C38.0804 16.061 39.1733 15.7564 40.2483 15.3801Z" fill="#7C4C2B"/>
<path d="M16.9744 20.2535C17.0639 20.4865 17.1714 20.7015 17.3327 20.8985C17.476 21.0956 17.6194 21.2927 17.7985 21.454C18.139 21.7944 18.5152 22.099 18.9452 22.3498C19.3573 22.6006 19.8052 22.8335 20.2531 23.0127C20.486 23.1023 20.719 23.174 20.934 23.2636L21.6327 23.4786L20.916 23.3173C20.6831 23.2456 20.4502 23.174 20.2173 23.0844L19.8769 22.9411L19.6977 22.8694L19.5365 22.7977L19.196 22.6185L18.8915 22.4394C18.4794 22.1885 18.0852 21.866 17.7448 21.5077C17.4044 21.1494 17.1356 20.7194 16.9744 20.2535Z" fill="#7C4C2B"/>
<path d="M17.2969 19.931C17.3685 20.0744 17.476 20.1998 17.5835 20.3252C17.691 20.4506 17.7985 20.5581 17.924 20.6477C18.1748 20.8448 18.4435 21.024 18.7302 21.1494C19.0169 21.2927 19.3215 21.4002 19.6261 21.4898C19.7873 21.5435 19.9306 21.5615 20.0919 21.6152L20.5756 21.7048C20.4144 21.6869 20.2531 21.669 20.0919 21.651C19.9306 21.6331 19.7694 21.5973 19.6081 21.5615C19.2856 21.4898 18.981 21.3644 18.6944 21.239C18.4077 21.0956 18.121 20.9165 17.8881 20.7015C17.6373 20.4864 17.4402 20.2356 17.2969 19.931Z" fill="#7C4C2B"/>
<path d="M15.5052 20.4506C15.4873 20.8985 15.4515 21.3643 15.3798 21.8122C15.3082 22.2602 15.2007 22.7081 15.0752 23.156C14.9498 23.6039 14.7169 23.9981 14.6094 24.446C14.484 24.876 14.3944 25.3239 14.3227 25.7718C14.1794 26.6677 14.1077 27.5814 14.0719 28.4952C14.054 28.9431 14.054 29.4089 14.0898 29.8568C14.1077 30.3048 14.1794 30.7706 14.3048 31.2006C14.1436 30.7706 14.054 30.3227 14.0361 29.8568C14.0182 29.6239 14.0002 29.391 14.0002 29.176C14.0002 28.961 14.0002 28.7102 14.0002 28.4952C14.0182 27.5814 14.1257 26.6677 14.2869 25.7718C14.3586 25.3239 14.4661 24.876 14.5915 24.4281C14.7169 23.9802 14.914 23.5681 15.0215 23.1381C15.2365 22.2422 15.4157 21.3464 15.5052 20.4506Z" fill="#7C4C2B"/>
<path d="M35.2495 23.2815C36.217 22.959 37.2204 22.6723 38.2058 22.4215C39.1912 22.1707 40.2124 21.9557 41.2337 21.7944C41.7533 21.7048 42.255 21.669 42.7387 21.5436C43.2225 21.4182 43.6883 21.2032 44.1004 20.9165C44.5125 20.6298 44.8529 20.2536 45.1396 19.8236C45.2829 19.6086 45.4083 19.3757 45.5158 19.1607C45.6233 18.9277 45.7129 18.6948 45.8383 18.4619C45.7487 18.6948 45.6771 18.9457 45.5875 19.1965C45.4979 19.4473 45.3904 19.6803 45.2471 19.8953C44.9962 20.3611 44.6379 20.7553 44.2079 21.0598C43.7779 21.3644 43.2941 21.5794 42.7745 21.7048C42.5237 21.7586 42.255 21.8123 42.0041 21.8303C41.7533 21.8661 41.4845 21.884 41.2337 21.9198C40.2124 22.0632 39.2091 22.2603 38.2058 22.5111C37.2024 22.7619 36.2349 22.9948 35.2495 23.2815Z" fill="#7C4C2B"/>
<path d="M44.7993 21.5973C45.2114 22.296 45.5518 23.0306 45.8385 23.7831C46.1252 24.5356 46.2864 25.3419 46.3043 26.1661C46.3222 26.9723 46.3043 27.7786 46.2685 28.5848C46.2327 29.3911 46.161 30.1973 46.0714 31.0036C46.1252 30.1973 46.1789 29.3911 46.1968 28.5848C46.2147 27.7786 46.2327 26.9723 46.2147 26.1661C46.1968 25.3598 46.0356 24.5715 45.7668 23.801C45.516 23.0485 45.1756 22.314 44.7993 21.5973Z" fill="#7C4C2B"/>
<defs>
<radialGradient id="paint0_radial_7943_6431" cx="0" cy="0" r="1" gradientUnits="userSpaceOnUse" gradientTransform="translate(30.3031 34.4859) rotate(-1.66996) scale(15.5834)">
<stop stop-color="#F9C387"/>
<stop offset="0.56" stop-color="#F9C086"/>
<stop offset="0.94" stop-color="#F8B782"/>
<stop offset="1" stop-color="#F8B581"/>
</radialGradient>
<radialGradient id="paint1_radial_7943_6431" cx="0" cy="0" r="1" gradientUnits="userSpaceOnUse" gradientTransform="translate(37.9457 32.713) rotate(-1.66996) scale(2.12856)">
<stop stop-color="#333333"/>
<stop offset="0.46" stop-color="#313131"/>
<stop offset="0.71" stop-color="#292929"/>
<stop offset="0.9" stop-color="#1B1B1B"/>
<stop offset="1" stop-color="#111111"/>
</radialGradient>
<radialGradient id="paint2_radial_7943_6431" cx="0" cy="0" r="1" gradientUnits="userSpaceOnUse" gradientTransform="translate(22.5189 33.3086) rotate(178.282) scale(2.12767)">
<stop stop-color="#333333"/>
<stop offset="0.46" stop-color="#313131"/>
<stop offset="0.71" stop-color="#292929"/>
<stop offset="0.9" stop-color="#1B1B1B"/>
<stop offset="1" stop-color="#111111"/>
</radialGradient>
</defs>
</svg>
