<svg width="20" height="20" viewBox="0 0 20 20" fill="none" xmlns="http://www.w3.org/2000/svg">
<path d="M3.49967 2.5H16.4998C17.052 2.5 17.4997 2.94764 17.4998 3.49987L17.4999 4.58569C17.5 4.85097 17.3946 5.10538 17.207 5.29295L11.9593 10.5404C11.7717 10.728 11.6663 10.9823 11.6663 11.2476L11.6663 16.2192C11.6663 16.8698 11.055 17.3472 10.4238 17.1894L9.09047 16.856C8.6453 16.7447 8.33301 16.3448 8.33301 15.8859L8.33301 11.2475C8.33301 10.9823 8.22765 10.728 8.04012 10.5404L2.79257 5.29289C2.60503 5.10536 2.49967 4.851 2.49967 4.58579V3.5C2.49967 2.94772 2.94739 2.5 3.49967 2.5Z" stroke="#FFF" stroke-width="1.2" stroke-linecap="round" stroke-linejoin="round"/>
</svg>
