<svg width="64" height="64" viewBox="0 0 64 64" fill="none" xmlns="http://www.w3.org/2000/svg">
<rect width="64" height="64" rx="12" fill="#FF8852"/>
<g clip-path="url(#clip0_7943_6133)">
<path d="M19.3333 27.25C21.9566 27.25 24.0833 25.1234 24.0833 22.5C24.0833 19.8766 21.9566 17.75 19.3333 17.75C16.7099 17.75 14.5833 19.8766 14.5833 22.5C14.5833 25.1234 16.7099 27.25 19.3333 27.25Z" fill="white"/>
<path d="M24.5425 30.5275C22.9489 31.5219 21.6345 32.9056 20.7232 34.5481C19.8119 36.1907 19.3336 38.0382 19.3333 39.9166H16.1667C15.3276 39.9141 14.5236 39.5797 13.9303 38.9864C13.3369 38.3931 13.0025 37.5891 13 36.75V33.5833C13.0038 32.3247 13.5054 31.1187 14.3954 30.2287C15.2854 29.3387 16.4914 28.8371 17.75 28.8333H20.9167C21.6079 28.8349 22.2905 28.9873 22.9167 29.2799C23.543 29.5725 24.0978 29.9983 24.5425 30.5275Z" fill="white"/>
<path d="M44.6667 27.25C47.2901 27.25 49.4167 25.1234 49.4167 22.5C49.4167 19.8766 47.2901 17.75 44.6667 17.75C42.0434 17.75 39.9167 19.8766 39.9167 22.5C39.9167 25.1234 42.0434 27.25 44.6667 27.25Z" fill="white"/>
<path d="M51 33.5833V36.75C50.9975 37.5891 50.6631 38.3931 50.0698 38.9864C49.4764 39.5797 48.6724 39.9141 47.8334 39.9166H44.6667C44.6664 38.0382 44.1881 36.1907 43.2768 34.5481C42.3655 32.9056 41.0511 31.5219 39.4575 30.5275C39.9022 29.9983 40.4571 29.5725 41.0833 29.2799C41.7096 28.9873 42.3921 28.8349 43.0834 28.8333H46.25C47.5086 28.8371 48.7146 29.3387 49.6046 30.2287C50.4946 31.1187 50.9963 32.3247 51 33.5833Z" fill="white"/>
<path d="M32.0001 30.4167C35.4979 30.4167 38.3334 27.5811 38.3334 24.0833C38.3334 20.5855 35.4979 17.75 32.0001 17.75C28.5023 17.75 25.6667 20.5855 25.6667 24.0833C25.6667 27.5811 28.5023 30.4167 32.0001 30.4167Z" fill="white"/>
<path d="M41.5 39.9167V41.5C41.4962 42.7586 40.9946 43.9646 40.1046 44.8546C39.2146 45.7446 38.0086 46.2462 36.75 46.25H27.25C25.9914 46.2462 24.7854 45.7446 23.8954 44.8546C23.0054 43.9646 22.5038 42.7586 22.5 41.5V39.9167C22.5 37.817 23.3341 35.8034 24.8187 34.3187C26.3034 32.8341 28.317 32 30.4167 32H33.5833C35.683 32 37.6966 32.8341 39.1813 34.3187C40.6659 35.8034 41.5 37.817 41.5 39.9167Z" fill="white"/>
</g>
<defs>
<clipPath id="clip0_7943_6133">
<rect width="38" height="38" fill="white" transform="translate(13 13)"/>
</clipPath>
</defs>
</svg>
