<svg width="512" height="512" viewBox="0 0 512 512" fill="none" xmlns="http://www.w3.org/2000/svg">
<rect width="512" height="512" fill="white"/>
<rect x="40" y="40" width="128" height="128" rx="64" fill="#C9CFDB"/>
<g clip-path="url(#clip0_3184_20200)">
<path d="M104 125.125C115.275 125.125 124.416 115.984 124.416 104.708C124.416 93.4326 115.275 84.2917 104 84.2917C92.7239 84.2917 83.583 93.4326 83.583 104.708C83.583 115.984 92.7239 125.125 104 125.125Z" fill="white"/>
<path d="M104 135.333C83.5428 135.333 66.8828 149.053 66.8828 165.958C66.8828 167.102 67.7811 168 68.9245 168H139.076C140.22 168 141.118 167.102 141.118 165.958C141.118 149.053 124.458 135.333 104 135.333Z" fill="white"/>
</g>
<rect x="200" y="128" width="32" height="32" rx="16" fill="#C9CFDB"/>
<path fill-rule="evenodd" clip-rule="evenodd" d="M217.639 153V144.9H220.098L220.5 141.3H217.639V139.547C217.639 138.62 217.663 137.7 218.958 137.7H220.27V135.126C220.27 135.087 219.143 135 218.003 135C215.622 135 214.131 136.491 214.131 139.23V141.3H211.5V144.9H214.131V153H217.639Z" fill="white"/>
<rect x="248" y="128" width="32" height="32" rx="16" fill="#C9CFDB"/>
<g clip-path="url(#clip1_3184_20200)">
<path fill-rule="evenodd" clip-rule="evenodd" d="M272 152H268.8V146.401C268.8 144.865 268.122 144.008 266.907 144.008C265.585 144.008 264.8 144.901 264.8 146.401V152H261.6V141.6H264.8V142.77C264.8 142.77 265.804 141.008 268.066 141.008C270.33 141.008 272 142.389 272 145.246V152ZM257.954 139.937C256.874 139.937 256 139.055 256 137.968C256 136.882 256.874 136 257.954 136C259.032 136 259.906 136.882 259.906 137.968C259.907 139.055 259.032 139.937 257.954 139.937ZM256 152H260V141.6H256V152Z" fill="white"/>
</g>
<rect x="296" y="128" width="32" height="32" rx="16" fill="#C9CFDB"/>
<path d="M312 136C314.174 136 314.445 136.008 315.298 136.048C316.15 136.088 316.73 136.222 317.24 136.42C317.768 136.623 318.213 136.898 318.658 137.342C319.064 137.742 319.379 138.226 319.58 138.76C319.778 139.27 319.912 139.85 319.952 140.702C319.99 141.555 320 141.826 320 144C320 146.174 319.992 146.445 319.952 147.298C319.912 148.15 319.778 148.73 319.58 149.24C319.38 149.774 319.065 150.258 318.658 150.658C318.258 151.064 317.774 151.379 317.24 151.58C316.73 151.778 316.15 151.912 315.298 151.952C314.445 151.99 314.174 152 312 152C309.826 152 309.555 151.992 308.702 151.952C307.85 151.912 307.27 151.778 306.76 151.58C306.226 151.38 305.742 151.065 305.342 150.658C304.936 150.258 304.621 149.774 304.42 149.24C304.222 148.73 304.088 148.15 304.048 147.298C304.01 146.445 304 146.174 304 144C304 141.826 304.008 141.555 304.048 140.702C304.088 139.85 304.222 139.27 304.42 138.76C304.62 138.226 304.935 137.742 305.342 137.342C305.742 136.935 306.226 136.621 306.76 136.42C307.27 136.222 307.85 136.088 308.702 136.048C309.555 136.01 309.826 136 312 136ZM312 140C310.939 140 309.922 140.421 309.172 141.172C308.421 141.922 308 142.939 308 144C308 145.061 308.421 146.078 309.172 146.828C309.922 147.579 310.939 148 312 148C313.061 148 314.078 147.579 314.828 146.828C315.579 146.078 316 145.061 316 144C316 142.939 315.579 141.922 314.828 141.172C314.078 140.421 313.061 140 312 140ZM317.2 139.8C317.2 139.535 317.095 139.28 316.907 139.093C316.72 138.905 316.465 138.8 316.2 138.8C315.935 138.8 315.68 138.905 315.493 139.093C315.305 139.28 315.2 139.535 315.2 139.8C315.2 140.065 315.305 140.32 315.493 140.507C315.68 140.695 315.935 140.8 316.2 140.8C316.465 140.8 316.72 140.695 316.907 140.507C317.095 140.32 317.2 140.065 317.2 139.8ZM312 141.6C312.637 141.6 313.247 141.853 313.697 142.303C314.147 142.753 314.4 143.363 314.4 144C314.4 144.637 314.147 145.247 313.697 145.697C313.247 146.147 312.637 146.4 312 146.4C311.363 146.4 310.753 146.147 310.303 145.697C309.853 145.247 309.6 144.637 309.6 144C309.6 143.363 309.853 142.753 310.303 142.303C310.753 141.853 311.363 141.6 312 141.6Z" fill="white"/>
<rect x="344" y="128" width="32" height="32" rx="16" fill="#C9CFDB"/>
<g clip-path="url(#clip2_3184_20200)">
<path fill-rule="evenodd" clip-rule="evenodd" d="M358.19 146.328V141.277C359.983 142.121 361.371 142.936 363.014 143.814C361.659 144.566 359.983 145.408 358.19 146.328ZM368.182 138.765C367.873 138.357 367.345 138.04 366.784 137.935C365.135 137.622 354.844 137.621 353.195 137.935C352.745 138.02 352.344 138.224 352 138.54C350.55 139.887 351.004 147.107 351.354 148.276C351.501 148.782 351.691 149.147 351.93 149.387C352.239 149.704 352.661 149.922 353.146 150.02C354.504 150.301 361.501 150.458 366.756 150.062C367.24 149.978 367.668 149.752 368.006 149.422C369.347 148.081 369.256 140.456 368.182 138.765Z" fill="white"/>
</g>
<rect x="392" y="128" width="32" height="32" rx="16" fill="#C9CFDB"/>
<path fill-rule="evenodd" clip-rule="evenodd" d="M412.001 148.78L412.8 151.062C412.499 151.487 411.13 151.978 409.902 151.998C406.261 152.058 404.871 149.516 404.871 147.726V142.4H403.2V140.431C405.736 139.556 406.345 137.366 406.488 136.119C406.498 136.034 406.568 136 406.609 136H409.049V140H412.392V142.4H409.049V147.479C409.049 148.156 409.317 149.09 410.655 149.056C411.099 149.045 411.691 148.922 412.001 148.78Z" fill="white"/>
<rect x="200" y="180" width="32" height="32" rx="16" fill="#C9CFDB"/>
<path d="M219.75 203.5H212.25C211.942 203.5 211.688 203.245 211.688 202.938C211.688 202.63 211.942 202.375 212.25 202.375H219.75C220.057 202.375 220.312 202.63 220.312 202.938C220.312 203.245 220.057 203.5 219.75 203.5Z" fill="white"/>
<path d="M222.263 191.139L219.263 193.284C218.866 193.569 218.296 193.397 218.123 192.939L216.706 189.159C216.466 188.507 215.543 188.507 215.303 189.159L213.878 192.932C213.706 193.397 213.143 193.569 212.746 193.277L209.746 191.132C209.146 190.712 208.351 191.304 208.598 192.002L211.718 200.739C211.823 201.039 212.108 201.234 212.423 201.234H219.571C219.886 201.234 220.171 201.032 220.276 200.739L223.396 192.002C223.651 191.304 222.856 190.712 222.263 191.139ZM217.876 198.062H214.126C213.818 198.062 213.563 197.807 213.563 197.499C213.563 197.192 213.818 196.937 214.126 196.937H217.876C218.183 196.937 218.438 197.192 218.438 197.499C218.438 197.807 218.183 198.062 217.876 198.062Z" fill="white"/>
<rect x="248" y="180" width="32" height="32" rx="16" fill="#C9CFDB"/>
<path d="M268.433 195.041H266.116V189.641C266.116 188.381 265.433 188.126 264.601 189.071L264.001 189.753L258.923 195.528C258.226 196.316 258.518 196.961 259.568 196.961H261.886V202.361C261.886 203.621 262.568 203.876 263.401 202.931L264.001 202.248L269.078 196.473C269.776 195.686 269.483 195.041 268.433 195.041Z" fill="white"/>
<rect x="296" y="180" width="32" height="32" rx="16" fill="#C9CFDB"/>
<path fill-rule="evenodd" clip-rule="evenodd" d="M313.562 190.212C313.217 189.514 312.679 189 311.998 189C311.318 189 310.777 189.514 310.43 190.211L309.283 192.521L309.282 192.525C309.247 192.595 309.165 192.696 309.041 192.789C308.918 192.881 308.798 192.931 308.721 192.945L308.72 192.945L306.645 193.292C305.897 193.418 305.268 193.785 305.064 194.428C304.86 195.071 305.161 195.738 305.697 196.278L307.311 197.905C307.375 197.969 307.446 198.089 307.491 198.246C307.535 198.403 307.539 198.544 307.519 198.635L307.518 198.636L307.057 200.647C306.865 201.485 306.931 202.317 307.523 202.752C308.115 203.187 308.922 202.999 309.657 202.559L311.6 201.4L311.601 201.399C311.688 201.348 311.832 201.309 312.001 201.309C312.171 201.309 312.312 201.349 312.394 201.398L314.341 202.559C315.077 202.997 315.885 203.189 316.476 202.755C317.068 202.32 317.132 201.486 316.94 200.648L316.479 198.636L316.478 198.635C316.458 198.544 316.462 198.403 316.507 198.246C316.551 198.089 316.622 197.969 316.686 197.905L318.299 196.279L318.3 196.278C318.839 195.738 319.14 195.071 318.935 194.428C318.73 193.785 318.1 193.418 317.352 193.292L315.275 192.945" fill="white"/>
<path d="M213.328 48.456V62.176C213.328 64.08 212.777 65.564 211.676 66.628C210.575 67.6733 209.1 68.196 207.252 68.196C205.385 68.196 203.873 67.6547 202.716 66.572C201.577 65.4893 201.008 63.9773 201.008 62.036H204.928C204.947 62.876 205.143 63.5293 205.516 63.996C205.908 64.4627 206.468 64.696 207.196 64.696C207.905 64.696 208.447 64.472 208.82 64.024C209.193 63.576 209.38 62.96 209.38 62.176V48.456H213.328ZM216.893 60.188C216.893 58.62 217.201 57.2293 217.817 56.016C218.451 54.8027 219.301 53.8693 220.365 53.216C221.447 52.5627 222.651 52.236 223.977 52.236C225.134 52.236 226.142 52.4693 227.001 52.936C227.878 53.4027 228.578 53.9907 229.101 54.7V52.488H233.049V68H229.101V65.732C228.597 66.46 227.897 67.0667 227.001 67.552C226.123 68.0187 225.106 68.252 223.949 68.252C222.642 68.252 221.447 67.916 220.365 67.244C219.301 66.572 218.451 65.6293 217.817 64.416C217.201 63.184 216.893 61.7747 216.893 60.188ZM229.101 60.244C229.101 59.292 228.914 58.48 228.541 57.808C228.167 57.1173 227.663 56.5947 227.029 56.24C226.394 55.8667 225.713 55.68 224.985 55.68C224.257 55.68 223.585 55.8573 222.969 56.212C222.353 56.5667 221.849 57.0893 221.457 57.78C221.083 58.452 220.897 59.2547 220.897 60.188C220.897 61.1213 221.083 61.9427 221.457 62.652C221.849 63.3427 222.353 63.8747 222.969 64.248C223.603 64.6213 224.275 64.808 224.985 64.808C225.713 64.808 226.394 64.6307 227.029 64.276C227.663 63.9027 228.167 63.38 228.541 62.708C228.914 62.0173 229.101 61.196 229.101 60.244ZM256.141 52.264C258.045 52.264 259.576 52.852 260.733 54.028C261.909 55.1853 262.497 56.8093 262.497 58.9V68H258.577V59.432C258.577 58.2187 258.269 57.2947 257.653 56.66C257.037 56.0067 256.197 55.68 255.133 55.68C254.069 55.68 253.22 56.0067 252.585 56.66C251.969 57.2947 251.661 58.2187 251.661 59.432V68H247.741V59.432C247.741 58.2187 247.433 57.2947 246.817 56.66C246.201 56.0067 245.361 55.68 244.297 55.68C243.215 55.68 242.356 56.0067 241.721 56.66C241.105 57.2947 240.797 58.2187 240.797 59.432V68H236.877V52.488H240.797V54.364C241.301 53.7107 241.945 53.1973 242.729 52.824C243.532 52.4507 244.409 52.264 245.361 52.264C246.575 52.264 247.657 52.5253 248.609 53.048C249.561 53.552 250.299 54.28 250.821 55.232C251.325 54.336 252.053 53.6173 253.005 53.076C253.976 52.5347 255.021 52.264 256.141 52.264ZM268.205 50.64C267.514 50.64 266.936 50.4253 266.469 49.996C266.021 49.548 265.797 48.9973 265.797 48.344C265.797 47.6907 266.021 47.1493 266.469 46.72C266.936 46.272 267.514 46.048 268.205 46.048C268.896 46.048 269.465 46.272 269.913 46.72C270.38 47.1493 270.613 47.6907 270.613 48.344C270.613 48.9973 270.38 49.548 269.913 49.996C269.465 50.4253 268.896 50.64 268.205 50.64ZM270.137 52.488V68H266.217V52.488H270.137ZM288.43 59.908C288.43 60.468 288.393 60.972 288.318 61.42H276.978C277.071 62.54 277.463 63.4173 278.154 64.052C278.845 64.6867 279.694 65.004 280.702 65.004C282.158 65.004 283.194 64.3787 283.81 63.128H288.038C287.59 64.6213 286.731 65.8533 285.462 66.824C284.193 67.776 282.634 68.252 280.786 68.252C279.293 68.252 277.949 67.9253 276.754 67.272C275.578 66.6 274.654 65.6573 273.982 64.444C273.329 63.2307 273.002 61.8307 273.002 60.244C273.002 58.6387 273.329 57.2293 273.982 56.016C274.635 54.8027 275.55 53.8693 276.726 53.216C277.902 52.5627 279.255 52.236 280.786 52.236C282.261 52.236 283.577 52.5533 284.734 53.188C285.91 53.8227 286.815 54.728 287.45 55.904C288.103 57.0613 288.43 58.396 288.43 59.908ZM284.37 58.788C284.351 57.78 283.987 56.9773 283.278 56.38C282.569 55.764 281.701 55.456 280.674 55.456C279.703 55.456 278.882 55.7547 278.21 56.352C277.557 56.9307 277.155 57.7427 277.006 58.788H284.37ZM310.031 48.456V51.62H301.883V56.632H308.127V59.74H301.883V68H297.963V48.456H310.031ZM319.699 68.252C318.206 68.252 316.862 67.9253 315.667 67.272C314.472 66.6 313.53 65.6573 312.839 64.444C312.167 63.2307 311.831 61.8307 311.831 60.244C311.831 58.6573 312.176 57.2573 312.867 56.044C313.576 54.8307 314.538 53.8973 315.751 53.244C316.964 52.572 318.318 52.236 319.811 52.236C321.304 52.236 322.658 52.572 323.871 53.244C325.084 53.8973 326.036 54.8307 326.727 56.044C327.436 57.2573 327.791 58.6573 327.791 60.244C327.791 61.8307 327.427 63.2307 326.699 64.444C325.99 65.6573 325.019 66.6 323.787 67.272C322.574 67.9253 321.211 68.252 319.699 68.252ZM319.699 64.836C320.408 64.836 321.071 64.668 321.687 64.332C322.322 63.9773 322.826 63.4547 323.199 62.764C323.572 62.0733 323.759 61.2333 323.759 60.244C323.759 58.7693 323.367 57.64 322.583 56.856C321.818 56.0533 320.875 55.652 319.755 55.652C318.635 55.652 317.692 56.0533 316.927 56.856C316.18 57.64 315.807 58.7693 315.807 60.244C315.807 61.7187 316.171 62.8573 316.899 63.66C317.646 64.444 318.579 64.836 319.699 64.836ZM339.234 68L336.042 63.184L333.214 68H329.014L334.082 60.216L328.958 52.488H333.382L336.546 57.276L339.402 52.488H343.602L338.506 60.216L343.658 68H339.234ZM354.355 68L351.163 63.184L348.335 68H344.135L349.203 60.216L344.079 52.488H348.503L351.667 57.276L354.523 52.488H358.723L353.627 60.216L358.779 68H354.355Z" fill="#1A1E26"/>
<path d="M204.768 102.112C204.032 102.112 203.371 101.984 202.784 101.728C202.208 101.461 201.755 101.099 201.424 100.64C201.093 100.171 200.923 99.632 200.912 99.024H202.464C202.517 99.5467 202.731 99.9893 203.104 100.352C203.488 100.704 204.043 100.88 204.768 100.88C205.461 100.88 206.005 100.709 206.4 100.368C206.805 100.016 207.008 99.568 207.008 99.024C207.008 98.5973 206.891 98.2507 206.656 97.984C206.421 97.7173 206.128 97.5147 205.776 97.376C205.424 97.2373 204.949 97.088 204.352 96.928C203.616 96.736 203.024 96.544 202.576 96.352C202.139 96.16 201.76 95.8613 201.44 95.456C201.131 95.04 200.976 94.4853 200.976 93.792C200.976 93.184 201.131 92.6453 201.44 92.176C201.749 91.7067 202.181 91.344 202.736 91.088C203.301 90.832 203.947 90.704 204.672 90.704C205.717 90.704 206.571 90.9653 207.232 91.488C207.904 92.0107 208.283 92.704 208.368 93.568H206.768C206.715 93.1413 206.491 92.768 206.096 92.448C205.701 92.1173 205.179 91.952 204.528 91.952C203.92 91.952 203.424 92.112 203.04 92.432C202.656 92.7413 202.464 93.1787 202.464 93.744C202.464 94.1493 202.576 94.48 202.8 94.736C203.035 94.992 203.317 95.1893 203.648 95.328C203.989 95.456 204.464 95.6053 205.072 95.776C205.808 95.9787 206.4 96.1813 206.848 96.384C207.296 96.576 207.68 96.88 208 97.296C208.32 97.7013 208.48 98.256 208.48 98.96C208.48 99.504 208.336 100.016 208.048 100.496C207.76 100.976 207.333 101.365 206.768 101.664C206.203 101.963 205.536 102.112 204.768 102.112ZM211.375 91.808C211.097 91.808 210.863 91.712 210.671 91.52C210.479 91.328 210.383 91.0933 210.383 90.816C210.383 90.5387 210.479 90.304 210.671 90.112C210.863 89.92 211.097 89.824 211.375 89.824C211.641 89.824 211.865 89.92 212.047 90.112C212.239 90.304 212.335 90.5387 212.335 90.816C212.335 91.0933 212.239 91.328 212.047 91.52C211.865 91.712 211.641 91.808 211.375 91.808ZM212.079 93.232V102H210.623V93.232H212.079ZM218.832 93.072C219.899 93.072 220.763 93.3973 221.424 94.048C222.085 94.688 222.416 95.616 222.416 96.832V102H220.976V97.04C220.976 96.1653 220.757 95.4987 220.32 95.04C219.883 94.5707 219.285 94.336 218.528 94.336C217.76 94.336 217.147 94.576 216.688 95.056C216.24 95.536 216.016 96.2347 216.016 97.152V102H214.56V93.232H216.016V94.48C216.304 94.032 216.693 93.6853 217.184 93.44C217.685 93.1947 218.235 93.072 218.832 93.072ZM224.251 97.6C224.251 96.6933 224.432 95.904 224.795 95.232C225.157 94.5493 225.659 94.0213 226.299 93.648C226.949 93.2747 227.691 93.088 228.523 93.088C229.6 93.088 230.485 93.3493 231.179 93.872C231.883 94.3947 232.347 95.12 232.571 96.048H231.003C230.853 95.5147 230.56 95.0933 230.123 94.784C229.696 94.4747 229.163 94.32 228.523 94.32C227.691 94.32 227.019 94.608 226.507 95.184C225.995 95.7493 225.739 96.5547 225.739 97.6C225.739 98.656 225.995 99.472 226.507 100.048C227.019 100.624 227.691 100.912 228.523 100.912C229.163 100.912 229.696 100.763 230.123 100.464C230.549 100.165 230.843 99.7387 231.003 99.184H232.571C232.336 100.08 231.867 100.8 231.163 101.344C230.459 101.877 229.579 102.144 228.523 102.144C227.691 102.144 226.949 101.957 226.299 101.584C225.659 101.211 225.157 100.683 224.795 100C224.432 99.3173 224.251 98.5173 224.251 97.6ZM242.513 97.28C242.513 97.5573 242.497 97.8507 242.465 98.16H235.457C235.511 99.024 235.804 99.7013 236.337 100.192C236.881 100.672 237.537 100.912 238.305 100.912C238.935 100.912 239.457 100.768 239.873 100.48C240.3 100.181 240.599 99.7867 240.769 99.296H242.337C242.103 100.139 241.633 100.827 240.929 101.36C240.225 101.883 239.351 102.144 238.305 102.144C237.473 102.144 236.727 101.957 236.065 101.584C235.415 101.211 234.903 100.683 234.529 100C234.156 99.3067 233.969 98.5067 233.969 97.6C233.969 96.6933 234.151 95.8987 234.513 95.216C234.876 94.5333 235.383 94.0107 236.033 93.648C236.695 93.2747 237.452 93.088 238.305 93.088C239.137 93.088 239.873 93.2693 240.513 93.632C241.153 93.9947 241.644 94.496 241.985 95.136C242.337 95.7653 242.513 96.48 242.513 97.28ZM241.009 96.976C241.009 96.4213 240.887 95.9467 240.641 95.552C240.396 95.1467 240.06 94.8427 239.633 94.64C239.217 94.4267 238.753 94.32 238.241 94.32C237.505 94.32 236.876 94.5547 236.353 95.024C235.841 95.4933 235.548 96.144 235.473 96.976H241.009ZM255.837 91.696H250.221V95.344C250.466 95.0027 250.829 94.7253 251.309 94.512C251.789 94.288 252.306 94.176 252.861 94.176C253.746 94.176 254.466 94.3627 255.021 94.736C255.575 95.0987 255.97 95.5733 256.205 96.16C256.45 96.736 256.573 97.3493 256.573 98C256.573 98.768 256.429 99.456 256.141 100.064C255.853 100.672 255.41 101.152 254.813 101.504C254.226 101.856 253.495 102.032 252.621 102.032C251.501 102.032 250.594 101.744 249.901 101.168C249.207 100.592 248.786 99.824 248.637 98.864H250.061C250.199 99.472 250.493 99.9467 250.941 100.288C251.389 100.629 251.954 100.8 252.637 100.8C253.479 100.8 254.114 100.549 254.541 100.048C254.967 99.536 255.181 98.864 255.181 98.032C255.181 97.2 254.967 96.56 254.541 96.112C254.114 95.6533 253.485 95.424 252.653 95.424C252.087 95.424 251.591 95.5627 251.165 95.84C250.749 96.1067 250.445 96.4747 250.253 96.944H248.877V90.416H255.837V91.696ZM269.605 99.52H264.741L263.845 102H262.309L266.341 90.912H268.021L272.037 102H270.501L269.605 99.52ZM269.189 98.336L267.173 92.704L265.157 98.336H269.189ZM275.251 94.848C275.539 94.3467 275.965 93.9307 276.531 93.6C277.107 93.2587 277.773 93.088 278.531 93.088C279.309 93.088 280.013 93.2747 280.642 93.648C281.282 94.0213 281.784 94.5493 282.147 95.232C282.509 95.904 282.691 96.688 282.691 97.584C282.691 98.4693 282.509 99.2587 282.147 99.952C281.784 100.645 281.282 101.184 280.642 101.568C280.013 101.952 279.309 102.144 278.531 102.144C277.784 102.144 277.123 101.979 276.547 101.648C275.981 101.307 275.549 100.885 275.251 100.384V106.16H273.795V93.232H275.251V94.848ZM281.203 97.584C281.203 96.9227 281.069 96.3467 280.803 95.856C280.536 95.3653 280.173 94.992 279.715 94.736C279.267 94.48 278.771 94.352 278.227 94.352C277.693 94.352 277.197 94.4853 276.739 94.752C276.291 95.008 275.928 95.3867 275.651 95.888C275.384 96.3787 275.251 96.9493 275.251 97.6C275.251 98.2613 275.384 98.8427 275.651 99.344C275.928 99.8347 276.291 100.213 276.739 100.48C277.197 100.736 277.693 100.864 278.227 100.864C278.771 100.864 279.267 100.736 279.715 100.48C280.173 100.213 280.536 99.8347 280.803 99.344C281.069 98.8427 281.203 98.256 281.203 97.584ZM286.063 94.656C286.319 94.1547 286.682 93.7653 287.151 93.488C287.631 93.2107 288.212 93.072 288.895 93.072V94.576H288.511C286.879 94.576 286.063 95.4613 286.063 97.232V102H284.607V93.232H286.063V94.656ZM291.328 91.808C291.05 91.808 290.816 91.712 290.624 91.52C290.432 91.328 290.336 91.0933 290.336 90.816C290.336 90.5387 290.432 90.304 290.624 90.112C290.816 89.92 291.05 89.824 291.328 89.824C291.594 89.824 291.818 89.92 292 90.112C292.192 90.304 292.288 90.5387 292.288 90.816C292.288 91.0933 292.192 91.328 292 91.52C291.818 91.712 291.594 91.808 291.328 91.808ZM292.032 93.232V102H290.576V93.232H292.032ZM295.969 90.16V102H294.513V90.16H295.969ZM299.955 99.984L298.163 104.288H297.187L298.355 99.984H299.955ZM305.472 100.832C306.827 99.744 307.888 98.8533 308.656 98.16C309.424 97.456 310.07 96.7253 310.592 95.968C311.126 95.2 311.392 94.448 311.392 93.712C311.392 93.0187 311.222 92.4747 310.88 92.08C310.55 91.6747 310.011 91.472 309.264 91.472C308.539 91.472 307.974 91.7013 307.568 92.16C307.174 92.608 306.96 93.2107 306.928 93.968H305.52C305.563 92.7733 305.926 91.8507 306.608 91.2C307.291 90.5493 308.171 90.224 309.248 90.224C310.347 90.224 311.216 90.528 311.856 91.136C312.507 91.744 312.832 92.5813 312.832 93.648C312.832 94.5333 312.566 95.3973 312.032 96.24C311.51 97.072 310.912 97.808 310.24 98.448C309.568 99.0773 308.71 99.8133 307.664 100.656H313.168V101.872H305.472V100.832ZM314.851 96.096C314.851 94.2613 315.15 92.832 315.747 91.808C316.345 90.7733 317.39 90.256 318.883 90.256C320.366 90.256 321.406 90.7733 322.003 91.808C322.601 92.832 322.899 94.2613 322.899 96.096C322.899 97.9627 322.601 99.4133 322.003 100.448C321.406 101.483 320.366 102 318.883 102C317.39 102 316.345 101.483 315.747 100.448C315.15 99.4133 314.851 97.9627 314.851 96.096ZM321.459 96.096C321.459 95.168 321.395 94.384 321.267 93.744C321.15 93.0933 320.899 92.5707 320.515 92.176C320.142 91.7813 319.598 91.584 318.883 91.584C318.158 91.584 317.603 91.7813 317.219 92.176C316.846 92.5707 316.595 93.0933 316.467 93.744C316.35 94.384 316.291 95.168 316.291 96.096C316.291 97.056 316.35 97.8613 316.467 98.512C316.595 99.1627 316.846 99.6853 317.219 100.08C317.603 100.475 318.158 100.672 318.883 100.672C319.598 100.672 320.142 100.475 320.515 100.08C320.899 99.6853 321.15 99.1627 321.267 98.512C321.395 97.8613 321.459 97.056 321.459 96.096ZM324.722 100.832C326.077 99.744 327.138 98.8533 327.906 98.16C328.674 97.456 329.32 96.7253 329.842 95.968C330.376 95.2 330.642 94.448 330.642 93.712C330.642 93.0187 330.472 92.4747 330.13 92.08C329.8 91.6747 329.261 91.472 328.514 91.472C327.789 91.472 327.224 91.7013 326.818 92.16C326.424 92.608 326.21 93.2107 326.178 93.968H324.77C324.813 92.7733 325.176 91.8507 325.858 91.2C326.541 90.5493 327.421 90.224 328.498 90.224C329.597 90.224 330.466 90.528 331.106 91.136C331.757 91.744 332.082 92.5813 332.082 93.648C332.082 94.5333 331.816 95.3973 331.282 96.24C330.76 97.072 330.162 97.808 329.49 98.448C328.818 99.0773 327.96 99.8133 326.914 100.656H332.418V101.872H324.722V100.832ZM333.749 99.424V98.32L339.365 90.544H341.109V98.16H342.709V99.424H341.109V102H339.669V99.424H333.749ZM339.733 92.064L335.429 98.16H339.733V92.064Z" fill="#6E7E9E"/>
<path d="M50.404 265.324C50.404 265.996 50.242 266.626 49.918 267.214C49.606 267.802 49.108 268.276 48.424 268.636C47.752 268.996 46.9 269.176 45.868 269.176H43.762V274H41.242V261.436H45.868C46.84 261.436 47.668 261.604 48.352 261.94C49.036 262.276 49.546 262.738 49.882 263.326C50.23 263.914 50.404 264.58 50.404 265.324ZM45.76 267.142C46.456 267.142 46.972 266.986 47.308 266.674C47.644 266.35 47.812 265.9 47.812 265.324C47.812 264.1 47.128 263.488 45.76 263.488H43.762V267.142H45.76ZM61.4632 268.798C61.4632 269.158 61.4392 269.482 61.3912 269.77H54.1012C54.1612 270.49 54.4132 271.054 54.8572 271.462C55.3012 271.87 55.8472 272.074 56.4952 272.074C57.4312 272.074 58.0972 271.672 58.4932 270.868H61.2112C60.9232 271.828 60.3712 272.62 59.5552 273.244C58.7392 273.856 57.7372 274.162 56.5492 274.162C55.5892 274.162 54.7252 273.952 53.9572 273.532C53.2012 273.1 52.6072 272.494 52.1752 271.714C51.7552 270.934 51.5452 270.034 51.5452 269.014C51.5452 267.982 51.7552 267.076 52.1752 266.296C52.5952 265.516 53.1832 264.916 53.9392 264.496C54.6952 264.076 55.5652 263.866 56.5492 263.866C57.4972 263.866 58.3432 264.07 59.0872 264.478C59.8432 264.886 60.4252 265.468 60.8332 266.224C61.2532 266.968 61.4632 267.826 61.4632 268.798ZM58.8532 268.078C58.8412 267.43 58.6072 266.914 58.1512 266.53C57.6952 266.134 57.1372 265.936 56.4772 265.936C55.8532 265.936 55.3252 266.128 54.8932 266.512C54.4732 266.884 54.2152 267.406 54.1192 268.078H58.8532ZM65.8225 265.576C66.1465 265.048 66.5665 264.634 67.0825 264.334C67.6105 264.034 68.2105 263.884 68.8825 263.884V266.53H68.2165C67.4245 266.53 66.8245 266.716 66.4165 267.088C66.0205 267.46 65.8225 268.108 65.8225 269.032V274H63.3025V264.028H65.8225V265.576ZM74.3959 274.162C73.5799 274.162 72.8479 274.018 72.1999 273.73C71.5519 273.43 71.0359 273.028 70.6519 272.524C70.2799 272.02 70.0759 271.462 70.0399 270.85H72.5779C72.6259 271.234 72.8119 271.552 73.1359 271.804C73.4719 272.056 73.8859 272.182 74.3779 272.182C74.8579 272.182 75.2299 272.086 75.4939 271.894C75.7699 271.702 75.9079 271.456 75.9079 271.156C75.9079 270.832 75.7399 270.592 75.4039 270.436C75.0799 270.268 74.5579 270.088 73.8379 269.896C73.0939 269.716 72.4819 269.53 72.0019 269.338C71.5339 269.146 71.1259 268.852 70.7779 268.456C70.4419 268.06 70.2739 267.526 70.2739 266.854C70.2739 266.302 70.4299 265.798 70.7419 265.342C71.0659 264.886 71.5219 264.526 72.1099 264.262C72.7099 263.998 73.4119 263.866 74.2159 263.866C75.4039 263.866 76.3519 264.166 77.0599 264.766C77.7679 265.354 78.1579 266.152 78.2299 267.16H75.8179C75.7819 266.764 75.6139 266.452 75.3139 266.224C75.0259 265.984 74.6359 265.864 74.1439 265.864C73.6879 265.864 73.3339 265.948 73.0819 266.116C72.8419 266.284 72.7219 266.518 72.7219 266.818C72.7219 267.154 72.8899 267.412 73.2259 267.592C73.5619 267.76 74.0839 267.934 74.7919 268.114C75.5119 268.294 76.1059 268.48 76.5739 268.672C77.0419 268.864 77.4439 269.164 77.7799 269.572C78.1279 269.968 78.3079 270.496 78.3199 271.156C78.3199 271.732 78.1579 272.248 77.8339 272.704C77.5219 273.16 77.0659 273.52 76.4659 273.784C75.8779 274.036 75.1879 274.162 74.3959 274.162ZM84.8165 274.162C83.8565 274.162 82.9925 273.952 82.2245 273.532C81.4565 273.1 80.8505 272.494 80.4065 271.714C79.9745 270.934 79.7585 270.034 79.7585 269.014C79.7585 267.994 79.9805 267.094 80.4245 266.314C80.8805 265.534 81.4985 264.934 82.2785 264.514C83.0585 264.082 83.9285 263.866 84.8885 263.866C85.8485 263.866 86.7185 264.082 87.4985 264.514C88.2785 264.934 88.8905 265.534 89.3345 266.314C89.7905 267.094 90.0185 267.994 90.0185 269.014C90.0185 270.034 89.7845 270.934 89.3165 271.714C88.8605 272.494 88.2365 273.1 87.4445 273.532C86.6645 273.952 85.7885 274.162 84.8165 274.162ZM84.8165 271.966C85.2725 271.966 85.6985 271.858 86.0945 271.642C86.5025 271.414 86.8265 271.078 87.0665 270.634C87.3065 270.19 87.4265 269.65 87.4265 269.014C87.4265 268.066 87.1745 267.34 86.6705 266.836C86.1785 266.32 85.5725 266.062 84.8525 266.062C84.1325 266.062 83.5265 266.32 83.0345 266.836C82.5545 267.34 82.3145 268.066 82.3145 269.014C82.3145 269.962 82.5485 270.694 83.0165 271.21C83.4965 271.714 84.0965 271.966 84.8165 271.966ZM97.393 263.884C98.581 263.884 99.541 264.262 100.273 265.018C101.005 265.762 101.371 266.806 101.371 268.15V274H98.851V268.492C98.851 267.7 98.653 267.094 98.257 266.674C97.861 266.242 97.321 266.026 96.637 266.026C95.941 266.026 95.389 266.242 94.981 266.674C94.585 267.094 94.387 267.7 94.387 268.492V274H91.867V264.028H94.387V265.27C94.723 264.838 95.149 264.502 95.665 264.262C96.193 264.01 96.769 263.884 97.393 263.884ZM103.119 268.978C103.119 267.97 103.317 267.076 103.713 266.296C104.121 265.516 104.667 264.916 105.351 264.496C106.047 264.076 106.821 263.866 107.673 263.866C108.417 263.866 109.065 264.016 109.617 264.316C110.181 264.616 110.631 264.994 110.967 265.45V264.028H113.505V274H110.967V272.542C110.643 273.01 110.193 273.4 109.617 273.712C109.053 274.012 108.399 274.162 107.655 274.162C106.815 274.162 106.047 273.946 105.351 273.514C104.667 273.082 104.121 272.476 103.713 271.696C103.317 270.904 103.119 269.998 103.119 268.978ZM110.967 269.014C110.967 268.402 110.847 267.88 110.607 267.448C110.367 267.004 110.043 266.668 109.635 266.44C109.227 266.2 108.789 266.08 108.321 266.08C107.853 266.08 107.421 266.194 107.025 266.422C106.629 266.65 106.305 266.986 106.053 267.43C105.813 267.862 105.693 268.378 105.693 268.978C105.693 269.578 105.813 270.106 106.053 270.562C106.305 271.006 106.629 271.348 107.025 271.588C107.433 271.828 107.865 271.948 108.321 271.948C108.789 271.948 109.227 271.834 109.635 271.606C110.043 271.366 110.367 271.03 110.607 270.598C110.847 270.154 110.967 269.626 110.967 269.014ZM118.487 260.68V274H115.967V260.68H118.487ZM129.657 261.436C130.977 261.436 132.135 261.694 133.131 262.21C134.139 262.726 134.913 263.464 135.453 264.424C136.005 265.372 136.281 266.476 136.281 267.736C136.281 268.996 136.005 270.1 135.453 271.048C134.913 271.984 134.139 272.71 133.131 273.226C132.135 273.742 130.977 274 129.657 274H125.265V261.436H129.657ZM129.567 271.858C130.887 271.858 131.907 271.498 132.627 270.778C133.347 270.058 133.707 269.044 133.707 267.736C133.707 266.428 133.347 265.408 132.627 264.676C131.907 263.932 130.887 263.56 129.567 263.56H127.785V271.858H129.567ZM147.438 268.798C147.438 269.158 147.414 269.482 147.366 269.77H140.076C140.136 270.49 140.388 271.054 140.832 271.462C141.276 271.87 141.822 272.074 142.47 272.074C143.406 272.074 144.072 271.672 144.468 270.868H147.186C146.898 271.828 146.346 272.62 145.53 273.244C144.714 273.856 143.712 274.162 142.524 274.162C141.564 274.162 140.7 273.952 139.932 273.532C139.176 273.1 138.582 272.494 138.15 271.714C137.73 270.934 137.52 270.034 137.52 269.014C137.52 267.982 137.73 267.076 138.15 266.296C138.57 265.516 139.158 264.916 139.914 264.496C140.67 264.076 141.54 263.866 142.524 263.866C143.472 263.866 144.318 264.07 145.062 264.478C145.818 264.886 146.4 265.468 146.808 266.224C147.228 266.968 147.438 267.826 147.438 268.798ZM144.828 268.078C144.816 267.43 144.582 266.914 144.126 266.53C143.67 266.134 143.112 265.936 142.452 265.936C141.828 265.936 141.3 266.128 140.868 266.512C140.448 266.884 140.19 267.406 140.094 268.078H144.828ZM152.211 266.098V270.922C152.211 271.258 152.289 271.504 152.445 271.66C152.613 271.804 152.889 271.876 153.273 271.876H154.443V274H152.859C150.735 274 149.673 272.968 149.673 270.904V266.098H148.485V264.028H149.673V261.562H152.211V264.028H154.443V266.098H152.211ZM155.608 268.978C155.608 267.97 155.806 267.076 156.202 266.296C156.61 265.516 157.156 264.916 157.84 264.496C158.536 264.076 159.31 263.866 160.162 263.866C160.906 263.866 161.554 264.016 162.106 264.316C162.67 264.616 163.12 264.994 163.456 265.45V264.028H165.994V274H163.456V272.542C163.132 273.01 162.682 273.4 162.106 273.712C161.542 274.012 160.888 274.162 160.144 274.162C159.304 274.162 158.536 273.946 157.84 273.514C157.156 273.082 156.61 272.476 156.202 271.696C155.806 270.904 155.608 269.998 155.608 268.978ZM163.456 269.014C163.456 268.402 163.336 267.88 163.096 267.448C162.856 267.004 162.532 266.668 162.124 266.44C161.716 266.2 161.278 266.08 160.81 266.08C160.342 266.08 159.91 266.194 159.514 266.422C159.118 266.65 158.794 266.986 158.542 267.43C158.302 267.862 158.182 268.378 158.182 268.978C158.182 269.578 158.302 270.106 158.542 270.562C158.794 271.006 159.118 271.348 159.514 271.588C159.922 271.828 160.354 271.948 160.81 271.948C161.278 271.948 161.716 271.834 162.124 271.606C162.532 271.366 162.856 271.03 163.096 270.598C163.336 270.154 163.456 269.626 163.456 269.014ZM169.733 262.84C169.289 262.84 168.917 262.702 168.617 262.426C168.329 262.138 168.185 261.784 168.185 261.364C168.185 260.944 168.329 260.596 168.617 260.32C168.917 260.032 169.289 259.888 169.733 259.888C170.177 259.888 170.543 260.032 170.831 260.32C171.131 260.596 171.281 260.944 171.281 261.364C171.281 261.784 171.131 262.138 170.831 262.426C170.543 262.702 170.177 262.84 169.733 262.84ZM170.975 264.028V274H168.455V264.028H170.975ZM175.985 260.68V274H173.465V260.68H175.985ZM182.29 274.162C181.474 274.162 180.742 274.018 180.094 273.73C179.446 273.43 178.93 273.028 178.546 272.524C178.174 272.02 177.97 271.462 177.934 270.85H180.472C180.52 271.234 180.706 271.552 181.03 271.804C181.366 272.056 181.78 272.182 182.272 272.182C182.752 272.182 183.124 272.086 183.388 271.894C183.664 271.702 183.802 271.456 183.802 271.156C183.802 270.832 183.634 270.592 183.298 270.436C182.974 270.268 182.452 270.088 181.732 269.896C180.988 269.716 180.376 269.53 179.896 269.338C179.428 269.146 179.02 268.852 178.672 268.456C178.336 268.06 178.168 267.526 178.168 266.854C178.168 266.302 178.324 265.798 178.636 265.342C178.96 264.886 179.416 264.526 180.004 264.262C180.604 263.998 181.306 263.866 182.11 263.866C183.298 263.866 184.246 264.166 184.954 264.766C185.662 265.354 186.052 266.152 186.124 267.16H183.712C183.676 266.764 183.508 266.452 183.208 266.224C182.92 265.984 182.53 265.864 182.038 265.864C181.582 265.864 181.228 265.948 180.976 266.116C180.736 266.284 180.616 266.518 180.616 266.818C180.616 267.154 180.784 267.412 181.12 267.592C181.456 267.76 181.978 267.934 182.686 268.114C183.406 268.294 184 268.48 184.468 268.672C184.936 268.864 185.338 269.164 185.674 269.572C186.022 269.968 186.202 270.496 186.214 271.156C186.214 271.732 186.052 272.248 185.728 272.704C185.416 273.16 184.96 273.52 184.36 273.784C183.772 274.036 183.082 274.162 182.29 274.162Z" fill="#1A1E26"/>
<path d="M47.536 318.848V320.032H42.688V323.792H46.624V324.976H42.688V330H41.232V318.848H47.536ZM50.0465 319.808C49.7692 319.808 49.5345 319.712 49.3425 319.52C49.1505 319.328 49.0545 319.093 49.0545 318.816C49.0545 318.539 49.1505 318.304 49.3425 318.112C49.5345 317.92 49.7692 317.824 50.0465 317.824C50.3132 317.824 50.5372 317.92 50.7185 318.112C50.9105 318.304 51.0065 318.539 51.0065 318.816C51.0065 319.093 50.9105 319.328 50.7185 319.52C50.5372 319.712 50.3132 319.808 50.0465 319.808ZM50.7505 321.232V330H49.2945V321.232H50.7505ZM54.688 322.656C54.944 322.155 55.3067 321.765 55.776 321.488C56.256 321.211 56.8373 321.072 57.52 321.072V322.576H57.136C55.504 322.576 54.688 323.461 54.688 325.232V330H53.232V321.232H54.688V322.656ZM62.3048 330.144C61.6328 330.144 61.0301 330.032 60.4968 329.808C59.9634 329.573 59.5421 329.253 59.2328 328.848C58.9234 328.432 58.7528 327.957 58.7208 327.424H60.2248C60.2674 327.861 60.4701 328.219 60.8328 328.496C61.2061 328.773 61.6914 328.912 62.2888 328.912C62.8434 328.912 63.2808 328.789 63.6008 328.544C63.9208 328.299 64.0808 327.989 64.0808 327.616C64.0808 327.232 63.9101 326.949 63.5688 326.768C63.2274 326.576 62.6994 326.389 61.9848 326.208C61.3341 326.037 60.8008 325.867 60.3848 325.696C59.9794 325.515 59.6274 325.253 59.3288 324.912C59.0408 324.56 58.8968 324.101 58.8968 323.536C58.8968 323.088 59.0301 322.677 59.2968 322.304C59.5634 321.931 59.9421 321.637 60.4328 321.424C60.9234 321.2 61.4834 321.088 62.1128 321.088C63.0834 321.088 63.8674 321.333 64.4648 321.824C65.0621 322.315 65.3821 322.987 65.4248 323.84H63.9688C63.9368 323.381 63.7501 323.013 63.4088 322.736C63.0781 322.459 62.6301 322.32 62.0648 322.32C61.5421 322.32 61.1261 322.432 60.8168 322.656C60.5074 322.88 60.3528 323.173 60.3528 323.536C60.3528 323.824 60.4434 324.064 60.6248 324.256C60.8168 324.437 61.0514 324.587 61.3288 324.704C61.6168 324.811 62.0114 324.933 62.5128 325.072C63.1421 325.243 63.6541 325.413 64.0488 325.584C64.4434 325.744 64.7794 325.989 65.0568 326.32C65.3448 326.651 65.4941 327.083 65.5048 327.616C65.5048 328.096 65.3714 328.528 65.1048 328.912C64.8381 329.296 64.4594 329.6 63.9688 329.824C63.4888 330.037 62.9341 330.144 62.3048 330.144ZM69.3361 322.432V327.6C69.3361 328.027 69.4268 328.331 69.6081 328.512C69.7895 328.683 70.1041 328.768 70.5521 328.768H71.6241V330H70.3121C69.5015 330 68.8935 329.813 68.4881 329.44C68.0828 329.067 67.8801 328.453 67.8801 327.6V322.432H66.7441V321.232H67.8801V319.024H69.3361V321.232H71.6241V322.432H69.3361ZM81.9259 321.072C82.9925 321.072 83.8565 321.397 84.5179 322.048C85.1792 322.688 85.5099 323.616 85.5099 324.832V330H84.0699V325.04C84.0699 324.165 83.8512 323.499 83.4139 323.04C82.9765 322.571 82.3792 322.336 81.6219 322.336C80.8539 322.336 80.2405 322.576 79.7819 323.056C79.3339 323.536 79.1099 324.235 79.1099 325.152V330H77.6539V321.232H79.1099V322.48C79.3979 322.032 79.7872 321.685 80.2779 321.44C80.7792 321.195 81.3285 321.072 81.9259 321.072ZM87.3443 325.584C87.3443 324.688 87.5256 323.904 87.8883 323.232C88.2509 322.549 88.7469 322.021 89.3763 321.648C90.0163 321.275 90.7256 321.088 91.5043 321.088C92.2723 321.088 92.9389 321.253 93.5043 321.584C94.0696 321.915 94.4909 322.331 94.7683 322.832V321.232H96.2403V330H94.7683V328.368C94.4803 328.88 94.0483 329.307 93.4723 329.648C92.9069 329.979 92.2456 330.144 91.4883 330.144C90.7096 330.144 90.0056 329.952 89.3763 329.568C88.7469 329.184 88.2509 328.645 87.8883 327.952C87.5256 327.259 87.3443 326.469 87.3443 325.584ZM94.7683 325.6C94.7683 324.939 94.6349 324.363 94.3683 323.872C94.1016 323.381 93.7389 323.008 93.2803 322.752C92.8323 322.485 92.3363 322.352 91.7923 322.352C91.2483 322.352 90.7523 322.48 90.3043 322.736C89.8563 322.992 89.4989 323.365 89.2323 323.856C88.9656 324.347 88.8323 324.923 88.8323 325.584C88.8323 326.256 88.9656 326.843 89.2323 327.344C89.4989 327.835 89.8563 328.213 90.3043 328.48C90.7523 328.736 91.2483 328.864 91.7923 328.864C92.3363 328.864 92.8323 328.736 93.2803 328.48C93.7389 328.213 94.1016 327.835 94.3683 327.344C94.6349 326.843 94.7683 326.261 94.7683 325.6ZM109.245 321.072C109.927 321.072 110.535 321.216 111.069 321.504C111.602 321.781 112.023 322.203 112.333 322.768C112.642 323.333 112.797 324.021 112.797 324.832V330H111.357V325.04C111.357 324.165 111.138 323.499 110.701 323.04C110.274 322.571 109.693 322.336 108.957 322.336C108.199 322.336 107.597 322.581 107.149 323.072C106.701 323.552 106.477 324.251 106.477 325.168V330H105.037V325.04C105.037 324.165 104.818 323.499 104.381 323.04C103.954 322.571 103.373 322.336 102.637 322.336C101.879 322.336 101.277 322.581 100.829 323.072C100.381 323.552 100.157 324.251 100.157 325.168V330H98.7008V321.232H100.157V322.496C100.445 322.037 100.829 321.685 101.309 321.44C101.799 321.195 102.338 321.072 102.925 321.072C103.661 321.072 104.311 321.237 104.877 321.568C105.442 321.899 105.863 322.384 106.141 323.024C106.386 322.405 106.791 321.925 107.357 321.584C107.922 321.243 108.551 321.072 109.245 321.072ZM123.185 325.28C123.185 325.557 123.169 325.851 123.137 326.16H116.129C116.182 327.024 116.476 327.701 117.009 328.192C117.553 328.672 118.209 328.912 118.977 328.912C119.606 328.912 120.129 328.768 120.545 328.48C120.972 328.181 121.27 327.787 121.441 327.296H123.009C122.774 328.139 122.305 328.827 121.601 329.36C120.897 329.883 120.022 330.144 118.977 330.144C118.145 330.144 117.398 329.957 116.737 329.584C116.086 329.211 115.574 328.683 115.201 328C114.828 327.307 114.641 326.507 114.641 325.6C114.641 324.693 114.822 323.899 115.185 323.216C115.548 322.533 116.054 322.011 116.705 321.648C117.366 321.275 118.124 321.088 118.977 321.088C119.809 321.088 120.545 321.269 121.185 321.632C121.825 321.995 122.316 322.496 122.657 323.136C123.009 323.765 123.185 324.48 123.185 325.28ZM121.681 324.976C121.681 324.421 121.558 323.947 121.313 323.552C121.068 323.147 120.732 322.843 120.305 322.64C119.889 322.427 119.425 322.32 118.913 322.32C118.177 322.32 117.548 322.555 117.025 323.024C116.513 323.493 116.22 324.144 116.145 324.976H121.681ZM125.571 330.096C125.294 330.096 125.059 330 124.867 329.808C124.675 329.616 124.579 329.381 124.579 329.104C124.579 328.827 124.675 328.592 124.867 328.4C125.059 328.208 125.294 328.112 125.571 328.112C125.838 328.112 126.062 328.208 126.243 328.4C126.435 328.592 126.531 328.827 126.531 329.104C126.531 329.381 126.435 329.616 126.243 329.808C126.062 330 125.838 330.096 125.571 330.096ZM125.571 323.248C125.294 323.248 125.059 323.152 124.867 322.96C124.675 322.768 124.579 322.533 124.579 322.256C124.579 321.979 124.675 321.744 124.867 321.552C125.059 321.36 125.294 321.264 125.571 321.264C125.838 321.264 126.062 321.36 126.243 321.552C126.435 321.744 126.531 321.979 126.531 322.256C126.531 322.533 126.435 322.768 126.243 322.96C126.062 323.152 125.838 323.248 125.571 323.248Z" fill="#6E7E9E"/>
<path d="M178.848 318.848V327.088C178.848 328.005 178.565 328.741 178 329.296C177.435 329.84 176.688 330.112 175.76 330.112C174.821 330.112 174.069 329.835 173.504 329.28C172.939 328.715 172.656 327.947 172.656 326.976H174.112C174.123 327.52 174.261 327.963 174.528 328.304C174.805 328.645 175.216 328.816 175.76 328.816C176.304 328.816 176.709 328.656 176.976 328.336C177.243 328.005 177.376 327.589 177.376 327.088V318.848H178.848ZM181.172 325.584C181.172 324.688 181.354 323.904 181.716 323.232C182.079 322.549 182.575 322.021 183.204 321.648C183.844 321.275 184.554 321.088 185.332 321.088C186.1 321.088 186.767 321.253 187.332 321.584C187.898 321.915 188.319 322.331 188.596 322.832V321.232H190.068V330H188.596V328.368C188.308 328.88 187.876 329.307 187.3 329.648C186.735 329.979 186.074 330.144 185.316 330.144C184.538 330.144 183.834 329.952 183.204 329.568C182.575 329.184 182.079 328.645 181.716 327.952C181.354 327.259 181.172 326.469 181.172 325.584ZM188.596 325.6C188.596 324.939 188.463 324.363 188.196 323.872C187.93 323.381 187.567 323.008 187.108 322.752C186.66 322.485 186.164 322.352 185.62 322.352C185.076 322.352 184.58 322.48 184.132 322.736C183.684 322.992 183.327 323.365 183.06 323.856C182.794 324.347 182.66 324.923 182.66 325.584C182.66 326.256 182.794 326.843 183.06 327.344C183.327 327.835 183.684 328.213 184.132 328.48C184.58 328.736 185.076 328.864 185.62 328.864C186.164 328.864 186.66 328.736 187.108 328.48C187.567 328.213 187.93 327.835 188.196 327.344C188.463 326.843 188.596 326.261 188.596 325.6ZM203.073 321.072C203.756 321.072 204.364 321.216 204.897 321.504C205.43 321.781 205.852 322.203 206.161 322.768C206.47 323.333 206.625 324.021 206.625 324.832V330H205.185V325.04C205.185 324.165 204.966 323.499 204.529 323.04C204.102 322.571 203.521 322.336 202.785 322.336C202.028 322.336 201.425 322.581 200.977 323.072C200.529 323.552 200.305 324.251 200.305 325.168V330H198.865V325.04C198.865 324.165 198.646 323.499 198.209 323.04C197.782 322.571 197.201 322.336 196.465 322.336C195.708 322.336 195.105 322.581 194.657 323.072C194.209 323.552 193.985 324.251 193.985 325.168V330H192.529V321.232H193.985V322.496C194.273 322.037 194.657 321.685 195.137 321.44C195.628 321.195 196.166 321.072 196.753 321.072C197.489 321.072 198.14 321.237 198.705 321.568C199.27 321.899 199.692 322.384 199.969 323.024C200.214 322.405 200.62 321.925 201.185 321.584C201.75 321.243 202.38 321.072 203.073 321.072ZM209.765 319.808C209.488 319.808 209.253 319.712 209.061 319.52C208.869 319.328 208.773 319.093 208.773 318.816C208.773 318.539 208.869 318.304 209.061 318.112C209.253 317.92 209.488 317.824 209.765 317.824C210.032 317.824 210.256 317.92 210.437 318.112C210.629 318.304 210.725 318.539 210.725 318.816C210.725 319.093 210.629 319.328 210.437 319.52C210.256 319.712 210.032 319.808 209.765 319.808ZM210.469 321.232V330H209.013V321.232H210.469ZM220.951 325.28C220.951 325.557 220.935 325.851 220.903 326.16H213.895C213.948 327.024 214.241 327.701 214.775 328.192C215.319 328.672 215.975 328.912 216.743 328.912C217.372 328.912 217.895 328.768 218.311 328.48C218.737 328.181 219.036 327.787 219.207 327.296H220.775C220.54 328.139 220.071 328.827 219.367 329.36C218.663 329.883 217.788 330.144 216.743 330.144C215.911 330.144 215.164 329.957 214.503 329.584C213.852 329.211 213.34 328.683 212.967 328C212.593 327.307 212.407 326.507 212.407 325.6C212.407 324.693 212.588 323.899 212.951 323.216C213.313 322.533 213.82 322.011 214.471 321.648C215.132 321.275 215.889 321.088 216.743 321.088C217.575 321.088 218.311 321.269 218.951 321.632C219.591 321.995 220.081 322.496 220.423 323.136C220.775 323.765 220.951 324.48 220.951 325.28ZM219.447 324.976C219.447 324.421 219.324 323.947 219.079 323.552C218.833 323.147 218.497 322.843 218.071 322.64C217.655 322.427 217.191 322.32 216.679 322.32C215.943 322.32 215.313 322.555 214.791 323.024C214.279 323.493 213.985 324.144 213.911 324.976H219.447Z" fill="#6E7E9E"/>
<line x1="40" y1="351.5" x2="472" y2="351.5" stroke="#E1E4EB"/>
<path d="M42.688 384.816H46.592V386H41.232V374.848H42.688V384.816ZM47.5943 381.584C47.5943 380.688 47.7756 379.904 48.1383 379.232C48.5009 378.549 48.9969 378.021 49.6263 377.648C50.2663 377.275 50.9756 377.088 51.7543 377.088C52.5223 377.088 53.1889 377.253 53.7543 377.584C54.3196 377.915 54.7409 378.331 55.0183 378.832V377.232H56.4903V386H55.0183V384.368C54.7303 384.88 54.2983 385.307 53.7223 385.648C53.1569 385.979 52.4956 386.144 51.7383 386.144C50.9596 386.144 50.2556 385.952 49.6263 385.568C48.9969 385.184 48.5009 384.645 48.1383 383.952C47.7756 383.259 47.5943 382.469 47.5943 381.584ZM55.0183 381.6C55.0183 380.939 54.8849 380.363 54.6183 379.872C54.3516 379.381 53.9889 379.008 53.5303 378.752C53.0823 378.485 52.5863 378.352 52.0423 378.352C51.4983 378.352 51.0023 378.48 50.5543 378.736C50.1063 378.992 49.7489 379.365 49.4823 379.856C49.2156 380.347 49.0823 380.923 49.0823 381.584C49.0823 382.256 49.2156 382.843 49.4823 383.344C49.7489 383.835 50.1063 384.213 50.5543 384.48C51.0023 384.736 51.4983 384.864 52.0423 384.864C52.5863 384.864 53.0823 384.736 53.5303 384.48C53.9889 384.213 54.3516 383.835 54.6183 383.344C54.8849 382.843 55.0183 382.261 55.0183 381.6ZM62.0548 386.144C61.3828 386.144 60.7801 386.032 60.2468 385.808C59.7134 385.573 59.2921 385.253 58.9828 384.848C58.6734 384.432 58.5028 383.957 58.4708 383.424H59.9748C60.0174 383.861 60.2201 384.219 60.5828 384.496C60.9561 384.773 61.4414 384.912 62.0388 384.912C62.5934 384.912 63.0308 384.789 63.3508 384.544C63.6708 384.299 63.8308 383.989 63.8308 383.616C63.8308 383.232 63.6601 382.949 63.3188 382.768C62.9774 382.576 62.4494 382.389 61.7348 382.208C61.0841 382.037 60.5508 381.867 60.1348 381.696C59.7294 381.515 59.3774 381.253 59.0788 380.912C58.7908 380.56 58.6468 380.101 58.6468 379.536C58.6468 379.088 58.7801 378.677 59.0468 378.304C59.3134 377.931 59.6921 377.637 60.1828 377.424C60.6734 377.2 61.2334 377.088 61.8628 377.088C62.8334 377.088 63.6174 377.333 64.2148 377.824C64.8121 378.315 65.1321 378.987 65.1748 379.84H63.7188C63.6868 379.381 63.5001 379.013 63.1588 378.736C62.8281 378.459 62.3801 378.32 61.8148 378.32C61.2921 378.32 60.8761 378.432 60.5668 378.656C60.2574 378.88 60.1028 379.173 60.1028 379.536C60.1028 379.824 60.1934 380.064 60.3748 380.256C60.5668 380.437 60.8014 380.587 61.0788 380.704C61.3668 380.811 61.7614 380.933 62.2628 381.072C62.8921 381.243 63.4041 381.413 63.7988 381.584C64.1934 381.744 64.5294 381.989 64.8068 382.32C65.0948 382.651 65.2441 383.083 65.2548 383.616C65.2548 384.096 65.1214 384.528 64.8548 384.912C64.5881 385.296 64.2094 385.6 63.7188 385.824C63.2388 386.037 62.6841 386.144 62.0548 386.144ZM69.0861 378.432V383.6C69.0861 384.027 69.1768 384.331 69.3581 384.512C69.5395 384.683 69.8541 384.768 70.3021 384.768H71.3741V386H70.0621C69.2515 386 68.6435 385.813 68.2381 385.44C67.8328 385.067 67.6301 384.453 67.6301 383.6V378.432H66.4941V377.232H67.6301V375.024H69.0861V377.232H71.3741V378.432H69.0861ZM81.6759 377.072C82.7425 377.072 83.6065 377.397 84.2679 378.048C84.9292 378.688 85.2599 379.616 85.2599 380.832V386H83.8199V381.04C83.8199 380.165 83.6012 379.499 83.1639 379.04C82.7265 378.571 82.1292 378.336 81.3719 378.336C80.6039 378.336 79.9905 378.576 79.5319 379.056C79.0839 379.536 78.8599 380.235 78.8599 381.152V386H77.4039V377.232H78.8599V378.48C79.1479 378.032 79.5372 377.685 80.0279 377.44C80.5292 377.195 81.0785 377.072 81.6759 377.072ZM87.0943 381.584C87.0943 380.688 87.2756 379.904 87.6383 379.232C88.0009 378.549 88.4969 378.021 89.1263 377.648C89.7663 377.275 90.4756 377.088 91.2543 377.088C92.0223 377.088 92.6889 377.253 93.2543 377.584C93.8196 377.915 94.2409 378.331 94.5183 378.832V377.232H95.9903V386H94.5183V384.368C94.2303 384.88 93.7983 385.307 93.2223 385.648C92.6569 385.979 91.9956 386.144 91.2383 386.144C90.4596 386.144 89.7556 385.952 89.1263 385.568C88.4969 385.184 88.0009 384.645 87.6383 383.952C87.2756 383.259 87.0943 382.469 87.0943 381.584ZM94.5183 381.6C94.5183 380.939 94.3849 380.363 94.1183 379.872C93.8516 379.381 93.4889 379.008 93.0303 378.752C92.5823 378.485 92.0863 378.352 91.5423 378.352C90.9983 378.352 90.5023 378.48 90.0543 378.736C89.6063 378.992 89.2489 379.365 88.9823 379.856C88.7156 380.347 88.5823 380.923 88.5823 381.584C88.5823 382.256 88.7156 382.843 88.9823 383.344C89.2489 383.835 89.6063 384.213 90.0543 384.48C90.5023 384.736 90.9983 384.864 91.5423 384.864C92.0863 384.864 92.5823 384.736 93.0303 384.48C93.4889 384.213 93.8516 383.835 94.1183 383.344C94.3849 382.843 94.5183 382.261 94.5183 381.6ZM108.995 377.072C109.677 377.072 110.285 377.216 110.819 377.504C111.352 377.781 111.773 378.203 112.083 378.768C112.392 379.333 112.547 380.021 112.547 380.832V386H111.107V381.04C111.107 380.165 110.888 379.499 110.451 379.04C110.024 378.571 109.443 378.336 108.707 378.336C107.949 378.336 107.347 378.581 106.899 379.072C106.451 379.552 106.227 380.251 106.227 381.168V386H104.787V381.04C104.787 380.165 104.568 379.499 104.131 379.04C103.704 378.571 103.123 378.336 102.387 378.336C101.629 378.336 101.027 378.581 100.579 379.072C100.131 379.552 99.9068 380.251 99.9068 381.168V386H98.4508V377.232H99.9068V378.496C100.195 378.037 100.579 377.685 101.059 377.44C101.549 377.195 102.088 377.072 102.675 377.072C103.411 377.072 104.061 377.237 104.627 377.568C105.192 377.899 105.613 378.384 105.891 379.024C106.136 378.405 106.541 377.925 107.107 377.584C107.672 377.243 108.301 377.072 108.995 377.072ZM122.935 381.28C122.935 381.557 122.919 381.851 122.887 382.16H115.879C115.932 383.024 116.226 383.701 116.759 384.192C117.303 384.672 117.959 384.912 118.727 384.912C119.356 384.912 119.879 384.768 120.295 384.48C120.722 384.181 121.02 383.787 121.191 383.296H122.759C122.524 384.139 122.055 384.827 121.351 385.36C120.647 385.883 119.772 386.144 118.727 386.144C117.895 386.144 117.148 385.957 116.487 385.584C115.836 385.211 115.324 384.683 114.951 384C114.578 383.307 114.391 382.507 114.391 381.6C114.391 380.693 114.572 379.899 114.935 379.216C115.298 378.533 115.804 378.011 116.455 377.648C117.116 377.275 117.874 377.088 118.727 377.088C119.559 377.088 120.295 377.269 120.935 377.632C121.575 377.995 122.066 378.496 122.407 379.136C122.759 379.765 122.935 380.48 122.935 381.28ZM121.431 380.976C121.431 380.421 121.308 379.947 121.063 379.552C120.818 379.147 120.482 378.843 120.055 378.64C119.639 378.427 119.175 378.32 118.663 378.32C117.927 378.32 117.298 378.555 116.775 379.024C116.263 379.493 115.97 380.144 115.895 380.976H121.431ZM125.321 386.096C125.044 386.096 124.809 386 124.617 385.808C124.425 385.616 124.329 385.381 124.329 385.104C124.329 384.827 124.425 384.592 124.617 384.4C124.809 384.208 125.044 384.112 125.321 384.112C125.588 384.112 125.812 384.208 125.993 384.4C126.185 384.592 126.281 384.827 126.281 385.104C126.281 385.381 126.185 385.616 125.993 385.808C125.812 386 125.588 386.096 125.321 386.096ZM125.321 379.248C125.044 379.248 124.809 379.152 124.617 378.96C124.425 378.768 124.329 378.533 124.329 378.256C124.329 377.979 124.425 377.744 124.617 377.552C124.809 377.36 125.044 377.264 125.321 377.264C125.588 377.264 125.812 377.36 125.993 377.552C126.185 377.744 126.281 377.979 126.281 378.256C126.281 378.533 126.185 378.768 125.993 378.96C125.812 379.152 125.588 379.248 125.321 379.248Z" fill="#6E7E9E"/>
<path d="M179.536 374.848V376.032H174.688V379.792H178.624V380.976H174.688V386H173.232V374.848H179.536ZM185.119 386.144C184.297 386.144 183.551 385.957 182.879 385.584C182.217 385.211 181.695 384.683 181.311 384C180.937 383.307 180.751 382.507 180.751 381.6C180.751 380.704 180.943 379.915 181.327 379.232C181.721 378.539 182.255 378.011 182.927 377.648C183.599 377.275 184.351 377.088 185.183 377.088C186.015 377.088 186.767 377.275 187.439 377.648C188.111 378.011 188.639 378.533 189.023 379.216C189.417 379.899 189.615 380.693 189.615 381.6C189.615 382.507 189.412 383.307 189.007 384C188.612 384.683 188.073 385.211 187.391 385.584C186.708 385.957 185.951 386.144 185.119 386.144ZM185.119 384.864C185.641 384.864 186.132 384.741 186.591 384.496C187.049 384.251 187.417 383.883 187.695 383.392C187.983 382.901 188.127 382.304 188.127 381.6C188.127 380.896 187.988 380.299 187.711 379.808C187.433 379.317 187.071 378.955 186.623 378.72C186.175 378.475 185.689 378.352 185.167 378.352C184.633 378.352 184.143 378.475 183.695 378.72C183.257 378.955 182.905 379.317 182.639 379.808C182.372 380.299 182.239 380.896 182.239 381.6C182.239 382.315 182.367 382.917 182.623 383.408C182.889 383.899 183.241 384.267 183.679 384.512C184.116 384.747 184.596 384.864 185.119 384.864ZM196.105 386L194.025 382.736L192.025 386H190.505L193.337 381.648L190.505 377.232H192.153L194.233 380.48L196.217 377.232H197.737L194.921 381.568L197.753 386H196.105ZM203.761 386L201.681 382.736L199.681 386H198.161L200.993 381.648L198.161 377.232H199.809L201.889 380.48L203.873 377.232H205.393L202.577 381.568L205.409 386H203.761Z" fill="#6E7E9E"/>
<line x1="40" y1="407.5" x2="472" y2="407.5" stroke="#E1E4EB"/>
<rect x="40" y="432" width="100" height="8" rx="4" fill="#E1E4EB"/>
<rect x="40" y="464" width="100" height="8" rx="4" fill="#E1E4EB"/>
<rect x="172" y="432" width="160" height="8" rx="4" fill="#E1E4EB"/>
<rect x="172" y="464" width="100" height="8" rx="4" fill="#E1E4EB"/>
<defs>
<clipPath id="clip0_3184_20200">
<rect width="98" height="98" fill="white" transform="translate(55 70)"/>
</clipPath>
<clipPath id="clip1_3184_20200">
<rect width="16" height="16" fill="white" transform="translate(256 136)"/>
</clipPath>
<clipPath id="clip2_3184_20200">
<rect width="18" height="18" fill="white" transform="translate(351 135)"/>
</clipPath>
</defs>
</svg>
