<svg width="512" height="512" viewBox="0 0 512 512" fill="none" xmlns="http://www.w3.org/2000/svg">
<rect width="512" height="512" fill="white"/>
<rect x="192" y="40" width="128" height="128" rx="64" fill="#C9CFDB"/>
<g clip-path="url(#clip0_3184_20270)">
<path d="M256 125.125C267.275 125.125 276.416 115.984 276.416 104.708C276.416 93.4326 267.275 84.2917 256 84.2917C244.724 84.2917 235.583 93.4326 235.583 104.708C235.583 115.984 244.724 125.125 256 125.125Z" fill="white"/>
<path d="M256 135.333C235.543 135.333 218.883 149.053 218.883 165.958C218.883 167.102 219.781 168 220.924 168H291.076C292.22 168 293.118 167.102 293.118 165.958C293.118 149.053 276.458 135.333 256 135.333Z" fill="white"/>
</g>
<rect x="344" y="40" width="32" height="32" rx="16" fill="#C9CFDB"/>
<path fill-rule="evenodd" clip-rule="evenodd" d="M361.639 65V56.9H364.098L364.5 53.3H361.639V51.5466C361.639 50.6196 361.663 49.7 362.958 49.7H364.27V47.1261C364.27 47.0874 363.143 47 362.003 47C359.622 47 358.131 48.4915 358.131 51.2302V53.3H355.5V56.9H358.131V65H361.639Z" fill="white"/>
<rect x="392" y="40" width="32" height="32" rx="16" fill="#C9CFDB"/>
<g clip-path="url(#clip1_3184_20270)">
<path fill-rule="evenodd" clip-rule="evenodd" d="M416 64H412.8V58.4008C412.8 56.8648 412.122 56.0078 410.907 56.0078C409.585 56.0078 408.8 56.9008 408.8 58.4008V64H405.6V53.6H408.8V54.7695C408.8 54.7695 409.804 53.0078 412.066 53.0078C414.33 53.0078 416 54.3889 416 57.2465V64ZM401.954 51.9367C400.874 51.9367 400 51.0552 400 49.968C400 48.8816 400.874 48 401.954 48C403.032 48 403.906 48.8816 403.906 49.968C403.907 51.0552 403.032 51.9367 401.954 51.9367ZM400 64H404V53.6H400V64Z" fill="white"/>
</g>
<rect x="440" y="40" width="32" height="32" rx="16" fill="#C9CFDB"/>
<path d="M456 48C458.174 48 458.445 48.008 459.298 48.048C460.15 48.088 460.73 48.2216 461.24 48.42C461.768 48.6232 462.213 48.8984 462.658 49.3424C463.064 49.7423 463.379 50.2261 463.58 50.76C463.778 51.2696 463.912 51.8504 463.952 52.7024C463.99 53.5552 464 53.8264 464 56C464 58.1736 463.992 58.4448 463.952 59.2976C463.912 60.1496 463.778 60.7296 463.58 61.24C463.38 61.7742 463.065 62.2581 462.658 62.6576C462.258 63.0643 461.774 63.379 461.24 63.58C460.73 63.7776 460.15 63.912 459.298 63.952C458.445 63.9896 458.174 64 456 64C453.826 64 453.555 63.992 452.702 63.952C451.85 63.912 451.27 63.7776 450.76 63.58C450.226 63.3796 449.742 63.0648 449.342 62.6576C448.936 62.2577 448.621 61.774 448.42 61.24C448.222 60.7304 448.088 60.1496 448.048 59.2976C448.01 58.4448 448 58.1736 448 56C448 53.8264 448.008 53.5552 448.048 52.7024C448.088 51.8496 448.222 51.2704 448.42 50.76C448.62 50.2257 448.935 49.7419 449.342 49.3424C449.742 48.9354 450.226 48.6206 450.76 48.42C451.27 48.2216 451.85 48.088 452.702 48.048C453.555 48.0104 453.826 48 456 48ZM456 52C454.939 52 453.922 52.4214 453.172 53.1716C452.421 53.9217 452 54.9391 452 56C452 57.0609 452.421 58.0783 453.172 58.8284C453.922 59.5786 454.939 60 456 60C457.061 60 458.078 59.5786 458.828 58.8284C459.579 58.0783 460 57.0609 460 56C460 54.9391 459.579 53.9217 458.828 53.1716C458.078 52.4214 457.061 52 456 52ZM461.2 51.8C461.2 51.5348 461.095 51.2804 460.907 51.0929C460.72 50.9054 460.465 50.8 460.2 50.8C459.935 50.8 459.68 50.9054 459.493 51.0929C459.305 51.2804 459.2 51.5348 459.2 51.8C459.2 52.0652 459.305 52.3196 459.493 52.5071C459.68 52.6946 459.935 52.8 460.2 52.8C460.465 52.8 460.72 52.6946 460.907 52.5071C461.095 52.3196 461.2 52.0652 461.2 51.8ZM456 53.6C456.637 53.6 457.247 53.8529 457.697 54.3029C458.147 54.753 458.4 55.3635 458.4 56C458.4 56.6365 458.147 57.247 457.697 57.6971C457.247 58.1471 456.637 58.4 456 58.4C455.363 58.4 454.753 58.1471 454.303 57.6971C453.853 57.247 453.6 56.6365 453.6 56C453.6 55.3635 453.853 54.753 454.303 54.3029C454.753 53.8529 455.363 53.6 456 53.6Z" fill="white"/>
<rect x="40" y="40" width="32" height="32" rx="16" fill="#C9CFDB"/>
<path d="M59.75 63.5H52.25C51.9425 63.5 51.6875 63.245 51.6875 62.9375C51.6875 62.63 51.9425 62.375 52.25 62.375H59.75C60.0575 62.375 60.3125 62.63 60.3125 62.9375C60.3125 63.245 60.0575 63.5 59.75 63.5Z" fill="white"/>
<path d="M62.2631 51.1393L59.2631 53.2843C58.8656 53.5693 58.2956 53.3968 58.1231 52.9393L56.7056 49.1593C56.4656 48.5068 55.5431 48.5068 55.3031 49.1593L53.8782 52.9318C53.7057 53.3968 53.1432 53.5693 52.7457 53.2768L49.7457 51.1318C49.1457 50.7118 48.3507 51.3043 48.5982 52.0018L51.7182 60.7393C51.8232 61.0393 52.1082 61.2343 52.4232 61.2343H59.5706C59.8856 61.2343 60.1706 61.0318 60.2756 60.7393L63.3956 52.0018C63.6506 51.3043 62.8556 50.7118 62.2631 51.1393ZM57.8756 58.0618H54.1257C53.8182 58.0618 53.5632 57.8068 53.5632 57.4993C53.5632 57.1918 53.8182 56.9368 54.1257 56.9368H57.8756C58.1831 56.9368 58.4381 57.1918 58.4381 57.4993C58.4381 57.8068 58.1831 58.0618 57.8756 58.0618Z" fill="white"/>
<rect x="88" y="40" width="32" height="32" rx="16" fill="#C9CFDB"/>
<path d="M108.433 55.0407H106.116V49.6407C106.116 48.3807 105.433 48.1257 104.601 49.0707L104.001 49.7532L98.9234 55.5282C98.2259 56.3157 98.5184 56.9607 99.5684 56.9607H101.886V62.3607C101.886 63.6207 102.568 63.8757 103.401 62.9307L104.001 62.2482L109.078 56.4732C109.776 55.6857 109.483 55.0407 108.433 55.0407Z" fill="white"/>
<rect x="136" y="40" width="32" height="32" rx="16" fill="#C9CFDB"/>
<path fill-rule="evenodd" clip-rule="evenodd" d="M153.562 50.2123C153.217 49.5145 152.679 49 151.998 49C151.318 49 150.777 49.5136 150.43 50.2109L149.283 52.5211L149.282 52.5247C149.247 52.5955 149.165 52.6962 149.041 52.7888C148.918 52.881 148.798 52.9315 148.721 52.9448L148.72 52.9449L146.645 53.2923C145.897 53.4181 145.268 53.7853 145.064 54.4284C144.86 55.0711 145.161 55.7376 145.697 56.2775L147.311 57.9046C147.375 57.9686 147.446 58.0892 147.491 58.2464C147.535 58.4026 147.539 58.5443 147.519 58.6352L147.518 58.6365L147.057 60.6473C146.865 61.4852 146.931 62.3171 147.523 62.7524C148.115 63.1873 148.922 62.9987 149.657 62.559L151.6 61.4L151.601 61.3993C151.688 61.3485 151.832 61.3092 152.001 61.3092C152.171 61.3092 152.312 61.349 152.394 61.398L154.341 62.5593C155.077 62.9974 155.885 63.1894 156.476 62.7549C157.068 62.3198 157.132 61.4863 156.94 60.6477L156.479 58.6365L156.478 58.6352C156.458 58.5443 156.462 58.4026 156.507 58.2464C156.551 58.0892 156.622 57.9686 156.686 57.9046L158.299 56.2787L158.3 56.2781C158.839 55.7381 159.14 55.0711 158.935 54.4276C158.73 53.7848 158.1 53.4181 157.352 53.2924L155.275 52.9447" fill="white"/>
<path d="M168.881 216.276H161.097L159.809 220H155.693L162.721 200.428H167.285L174.313 220H170.169L168.881 216.276ZM167.817 213.14L164.989 204.964L162.161 213.14H167.817ZM185.536 204.264C187.384 204.264 188.877 204.852 190.016 206.028C191.154 207.185 191.724 208.809 191.724 210.9V220H187.804V211.432C187.804 210.2 187.496 209.257 186.88 208.604C186.264 207.932 185.424 207.596 184.36 207.596C183.277 207.596 182.418 207.932 181.784 208.604C181.168 209.257 180.86 210.2 180.86 211.432V220H176.94V204.488H180.86V206.42C181.382 205.748 182.045 205.225 182.848 204.852C183.669 204.46 184.565 204.264 185.536 204.264ZM194.444 212.188C194.444 210.62 194.752 209.229 195.368 208.016C196.002 206.803 196.852 205.869 197.916 205.216C198.998 204.563 200.202 204.236 201.528 204.236C202.685 204.236 203.693 204.469 204.552 204.936C205.429 205.403 206.129 205.991 206.652 206.7V204.488H210.6V220H206.652V217.732C206.148 218.46 205.448 219.067 204.552 219.552C203.674 220.019 202.657 220.252 201.5 220.252C200.193 220.252 198.998 219.916 197.916 219.244C196.852 218.572 196.002 217.629 195.368 216.416C194.752 215.184 194.444 213.775 194.444 212.188ZM206.652 212.244C206.652 211.292 206.465 210.48 206.092 209.808C205.718 209.117 205.214 208.595 204.58 208.24C203.945 207.867 203.264 207.68 202.536 207.68C201.808 207.68 201.136 207.857 200.52 208.212C199.904 208.567 199.4 209.089 199.008 209.78C198.634 210.452 198.448 211.255 198.448 212.188C198.448 213.121 198.634 213.943 199.008 214.652C199.4 215.343 199.904 215.875 200.52 216.248C201.154 216.621 201.826 216.808 202.536 216.808C203.264 216.808 203.945 216.631 204.58 216.276C205.214 215.903 205.718 215.38 206.092 214.708C206.465 214.017 206.652 213.196 206.652 212.244ZM220.092 212.188C220.092 210.62 220.4 209.229 221.016 208.016C221.651 206.803 222.509 205.869 223.592 205.216C224.675 204.563 225.879 204.236 227.204 204.236C228.212 204.236 229.173 204.46 230.088 204.908C231.003 205.337 231.731 205.916 232.272 206.644V199.28H236.248V220H232.272V217.704C231.787 218.469 231.105 219.085 230.228 219.552C229.351 220.019 228.333 220.252 227.176 220.252C225.869 220.252 224.675 219.916 223.592 219.244C222.509 218.572 221.651 217.629 221.016 216.416C220.4 215.184 220.092 213.775 220.092 212.188ZM232.3 212.244C232.3 211.292 232.113 210.48 231.74 209.808C231.367 209.117 230.863 208.595 230.228 208.24C229.593 207.867 228.912 207.68 228.184 207.68C227.456 207.68 226.784 207.857 226.168 208.212C225.552 208.567 225.048 209.089 224.656 209.78C224.283 210.452 224.096 211.255 224.096 212.188C224.096 213.121 224.283 213.943 224.656 214.652C225.048 215.343 225.552 215.875 226.168 216.248C226.803 216.621 227.475 216.808 228.184 216.808C228.912 216.808 229.593 216.631 230.228 216.276C230.863 215.903 231.367 215.38 231.74 214.708C232.113 214.017 232.3 213.196 232.3 212.244ZM254.497 211.908C254.497 212.468 254.459 212.972 254.385 213.42H243.045C243.138 214.54 243.53 215.417 244.221 216.052C244.911 216.687 245.761 217.004 246.769 217.004C248.225 217.004 249.261 216.379 249.877 215.128H254.105C253.657 216.621 252.798 217.853 251.529 218.824C250.259 219.776 248.701 220.252 246.853 220.252C245.359 220.252 244.015 219.925 242.821 219.272C241.645 218.6 240.721 217.657 240.049 216.444C239.395 215.231 239.069 213.831 239.069 212.244C239.069 210.639 239.395 209.229 240.049 208.016C240.702 206.803 241.617 205.869 242.793 205.216C243.969 204.563 245.322 204.236 246.853 204.236C248.327 204.236 249.643 204.553 250.801 205.188C251.977 205.823 252.882 206.728 253.517 207.904C254.17 209.061 254.497 210.396 254.497 211.908ZM250.437 210.788C250.418 209.78 250.054 208.977 249.345 208.38C248.635 207.764 247.767 207.456 246.741 207.456C245.77 207.456 244.949 207.755 244.277 208.352C243.623 208.931 243.222 209.743 243.073 210.788H250.437ZM276.014 216.276H268.23L266.942 220H262.826L269.854 200.428H274.418L281.446 220H277.302L276.014 216.276ZM274.95 213.14L272.122 204.964L269.294 213.14H274.95ZM287.993 206.896C288.497 206.075 289.15 205.431 289.953 204.964C290.774 204.497 291.707 204.264 292.753 204.264V208.38H291.717C290.485 208.38 289.551 208.669 288.917 209.248C288.301 209.827 287.993 210.835 287.993 212.272V220H284.073V204.488H287.993V206.896ZM314.657 204.264C316.561 204.264 318.092 204.852 319.249 206.028C320.425 207.185 321.013 208.809 321.013 210.9V220H317.093V211.432C317.093 210.219 316.785 209.295 316.169 208.66C315.553 208.007 314.713 207.68 313.649 207.68C312.585 207.68 311.736 208.007 311.101 208.66C310.485 209.295 310.177 210.219 310.177 211.432V220H306.257V211.432C306.257 210.219 305.949 209.295 305.333 208.66C304.717 208.007 303.877 207.68 302.813 207.68C301.73 207.68 300.872 208.007 300.237 208.66C299.621 209.295 299.313 210.219 299.313 211.432V220H295.393V204.488H299.313V206.364C299.817 205.711 300.461 205.197 301.245 204.824C302.048 204.451 302.925 204.264 303.877 204.264C305.09 204.264 306.173 204.525 307.125 205.048C308.077 205.552 308.814 206.28 309.337 207.232C309.841 206.336 310.569 205.617 311.521 205.076C312.492 204.535 313.537 204.264 314.657 204.264ZM323.725 212.188C323.725 210.62 324.033 209.229 324.649 208.016C325.283 206.803 326.133 205.869 327.197 205.216C328.279 204.563 329.483 204.236 330.809 204.236C331.966 204.236 332.974 204.469 333.833 204.936C334.71 205.403 335.41 205.991 335.933 206.7V204.488H339.881V220H335.933V217.732C335.429 218.46 334.729 219.067 333.833 219.552C332.955 220.019 331.938 220.252 330.781 220.252C329.474 220.252 328.279 219.916 327.197 219.244C326.133 218.572 325.283 217.629 324.649 216.416C324.033 215.184 323.725 213.775 323.725 212.188ZM335.933 212.244C335.933 211.292 335.746 210.48 335.373 209.808C334.999 209.117 334.495 208.595 333.861 208.24C333.226 207.867 332.545 207.68 331.817 207.68C331.089 207.68 330.417 207.857 329.801 208.212C329.185 208.567 328.681 209.089 328.289 209.78C327.915 210.452 327.729 211.255 327.729 212.188C327.729 213.121 327.915 213.943 328.289 214.652C328.681 215.343 329.185 215.875 329.801 216.248C330.435 216.621 331.107 216.808 331.817 216.808C332.545 216.808 333.226 216.631 333.861 216.276C334.495 215.903 334.999 215.38 335.373 214.708C335.746 214.017 335.933 213.196 335.933 212.244ZM349.645 220.252C348.376 220.252 347.237 220.028 346.229 219.58C345.221 219.113 344.419 218.488 343.821 217.704C343.243 216.92 342.925 216.052 342.869 215.1H346.817C346.892 215.697 347.181 216.192 347.685 216.584C348.208 216.976 348.852 217.172 349.617 217.172C350.364 217.172 350.943 217.023 351.353 216.724C351.783 216.425 351.997 216.043 351.997 215.576C351.997 215.072 351.736 214.699 351.213 214.456C350.709 214.195 349.897 213.915 348.777 213.616C347.62 213.336 346.668 213.047 345.921 212.748C345.193 212.449 344.559 211.992 344.017 211.376C343.495 210.76 343.233 209.929 343.233 208.884C343.233 208.025 343.476 207.241 343.961 206.532C344.465 205.823 345.175 205.263 346.089 204.852C347.023 204.441 348.115 204.236 349.365 204.236C351.213 204.236 352.688 204.703 353.789 205.636C354.891 206.551 355.497 207.792 355.609 209.36H351.857C351.801 208.744 351.54 208.259 351.073 207.904C350.625 207.531 350.019 207.344 349.253 207.344C348.544 207.344 347.993 207.475 347.601 207.736C347.228 207.997 347.041 208.361 347.041 208.828C347.041 209.351 347.303 209.752 347.825 210.032C348.348 210.293 349.16 210.564 350.261 210.844C351.381 211.124 352.305 211.413 353.033 211.712C353.761 212.011 354.387 212.477 354.909 213.112C355.451 213.728 355.731 214.549 355.749 215.576C355.749 216.472 355.497 217.275 354.993 217.984C354.508 218.693 353.799 219.253 352.865 219.664C351.951 220.056 350.877 220.252 349.645 220.252Z" fill="#1A1E26"/>
<path d="M189.182 254.112C188.446 254.112 187.785 253.984 187.198 253.728C186.622 253.461 186.169 253.099 185.838 252.64C185.507 252.171 185.337 251.632 185.326 251.024H186.878C186.931 251.547 187.145 251.989 187.518 252.352C187.902 252.704 188.457 252.88 189.182 252.88C189.875 252.88 190.419 252.709 190.814 252.368C191.219 252.016 191.422 251.568 191.422 251.024C191.422 250.597 191.305 250.251 191.07 249.984C190.835 249.717 190.542 249.515 190.19 249.376C189.838 249.237 189.363 249.088 188.766 248.928C188.03 248.736 187.438 248.544 186.99 248.352C186.553 248.16 186.174 247.861 185.854 247.456C185.545 247.04 185.39 246.485 185.39 245.792C185.39 245.184 185.545 244.645 185.854 244.176C186.163 243.707 186.595 243.344 187.15 243.088C187.715 242.832 188.361 242.704 189.086 242.704C190.131 242.704 190.985 242.965 191.646 243.488C192.318 244.011 192.697 244.704 192.782 245.568H191.182C191.129 245.141 190.905 244.768 190.51 244.448C190.115 244.117 189.593 243.952 188.942 243.952C188.334 243.952 187.838 244.112 187.454 244.432C187.07 244.741 186.878 245.179 186.878 245.744C186.878 246.149 186.99 246.48 187.214 246.736C187.449 246.992 187.731 247.189 188.062 247.328C188.403 247.456 188.878 247.605 189.486 247.776C190.222 247.979 190.814 248.181 191.262 248.384C191.71 248.576 192.094 248.88 192.414 249.296C192.734 249.701 192.894 250.256 192.894 250.96C192.894 251.504 192.75 252.016 192.462 252.496C192.174 252.976 191.747 253.365 191.182 253.664C190.617 253.963 189.95 254.112 189.182 254.112ZM195.789 243.808C195.511 243.808 195.277 243.712 195.085 243.52C194.893 243.328 194.797 243.093 194.797 242.816C194.797 242.539 194.893 242.304 195.085 242.112C195.277 241.92 195.511 241.824 195.789 241.824C196.055 241.824 196.279 241.92 196.461 242.112C196.653 242.304 196.749 242.539 196.749 242.816C196.749 243.093 196.653 243.328 196.461 243.52C196.279 243.712 196.055 243.808 195.789 243.808ZM196.493 245.232V254H195.037V245.232H196.493ZM203.246 245.072C204.313 245.072 205.177 245.397 205.838 246.048C206.5 246.688 206.83 247.616 206.83 248.832V254H205.39V249.04C205.39 248.165 205.172 247.499 204.734 247.04C204.297 246.571 203.7 246.336 202.942 246.336C202.174 246.336 201.561 246.576 201.102 247.056C200.654 247.536 200.43 248.235 200.43 249.152V254H198.974V245.232H200.43V246.48C200.718 246.032 201.108 245.685 201.598 245.44C202.1 245.195 202.649 245.072 203.246 245.072ZM208.665 249.6C208.665 248.693 208.846 247.904 209.209 247.232C209.571 246.549 210.073 246.021 210.713 245.648C211.363 245.275 212.105 245.088 212.937 245.088C214.014 245.088 214.899 245.349 215.593 245.872C216.297 246.395 216.761 247.12 216.985 248.048H215.417C215.267 247.515 214.974 247.093 214.537 246.784C214.11 246.475 213.577 246.32 212.937 246.32C212.105 246.32 211.433 246.608 210.921 247.184C210.409 247.749 210.153 248.555 210.153 249.6C210.153 250.656 210.409 251.472 210.921 252.048C211.433 252.624 212.105 252.912 212.937 252.912C213.577 252.912 214.11 252.763 214.537 252.464C214.963 252.165 215.257 251.739 215.417 251.184H216.985C216.75 252.08 216.281 252.8 215.577 253.344C214.873 253.877 213.993 254.144 212.937 254.144C212.105 254.144 211.363 253.957 210.713 253.584C210.073 253.211 209.571 252.683 209.209 252C208.846 251.317 208.665 250.517 208.665 249.6ZM226.927 249.28C226.927 249.557 226.911 249.851 226.879 250.16H219.871C219.925 251.024 220.218 251.701 220.751 252.192C221.295 252.672 221.951 252.912 222.719 252.912C223.349 252.912 223.871 252.768 224.287 252.48C224.714 252.181 225.013 251.787 225.183 251.296H226.751C226.517 252.139 226.047 252.827 225.343 253.36C224.639 253.883 223.765 254.144 222.719 254.144C221.887 254.144 221.141 253.957 220.479 253.584C219.829 253.211 219.317 252.683 218.943 252C218.57 251.307 218.383 250.507 218.383 249.6C218.383 248.693 218.565 247.899 218.927 247.216C219.29 246.533 219.797 246.011 220.447 245.648C221.109 245.275 221.866 245.088 222.719 245.088C223.551 245.088 224.287 245.269 224.927 245.632C225.567 245.995 226.058 246.496 226.399 247.136C226.751 247.765 226.927 248.48 226.927 249.28ZM225.423 248.976C225.423 248.421 225.301 247.947 225.055 247.552C224.81 247.147 224.474 246.843 224.047 246.64C223.631 246.427 223.167 246.32 222.655 246.32C221.919 246.32 221.29 246.555 220.767 247.024C220.255 247.493 219.962 248.144 219.887 248.976H225.423ZM240.251 243.696H234.635V247.344C234.88 247.003 235.243 246.725 235.723 246.512C236.203 246.288 236.72 246.176 237.275 246.176C238.16 246.176 238.88 246.363 239.435 246.736C239.989 247.099 240.384 247.573 240.619 248.16C240.864 248.736 240.987 249.349 240.987 250C240.987 250.768 240.843 251.456 240.555 252.064C240.267 252.672 239.824 253.152 239.227 253.504C238.64 253.856 237.909 254.032 237.035 254.032C235.915 254.032 235.008 253.744 234.315 253.168C233.621 252.592 233.2 251.824 233.051 250.864H234.475C234.613 251.472 234.907 251.947 235.355 252.288C235.803 252.629 236.368 252.8 237.051 252.8C237.893 252.8 238.528 252.549 238.955 252.048C239.381 251.536 239.595 250.864 239.595 250.032C239.595 249.2 239.381 248.56 238.955 248.112C238.528 247.653 237.899 247.424 237.067 247.424C236.501 247.424 236.005 247.563 235.579 247.84C235.163 248.107 234.859 248.475 234.667 248.944H233.291V242.416H240.251V243.696ZM254.019 251.52H249.155L248.259 254H246.723L250.755 242.912H252.435L256.451 254H254.915L254.019 251.52ZM253.603 250.336L251.587 244.704L249.571 250.336H253.603ZM259.665 246.848C259.953 246.347 260.379 245.931 260.945 245.6C261.521 245.259 262.187 245.088 262.945 245.088C263.723 245.088 264.427 245.275 265.057 245.648C265.697 246.021 266.198 246.549 266.561 247.232C266.923 247.904 267.105 248.688 267.105 249.584C267.105 250.469 266.923 251.259 266.561 251.952C266.198 252.645 265.697 253.184 265.057 253.568C264.427 253.952 263.723 254.144 262.945 254.144C262.198 254.144 261.537 253.979 260.961 253.648C260.395 253.307 259.963 252.885 259.665 252.384V258.16H258.209V245.232H259.665V246.848ZM265.617 249.584C265.617 248.923 265.483 248.347 265.217 247.856C264.95 247.365 264.587 246.992 264.129 246.736C263.681 246.48 263.185 246.352 262.641 246.352C262.107 246.352 261.611 246.485 261.153 246.752C260.705 247.008 260.342 247.387 260.065 247.888C259.798 248.379 259.665 248.949 259.665 249.6C259.665 250.261 259.798 250.843 260.065 251.344C260.342 251.835 260.705 252.213 261.153 252.48C261.611 252.736 262.107 252.864 262.641 252.864C263.185 252.864 263.681 252.736 264.129 252.48C264.587 252.213 264.95 251.835 265.217 251.344C265.483 250.843 265.617 250.256 265.617 249.584ZM270.477 246.656C270.733 246.155 271.096 245.765 271.565 245.488C272.045 245.211 272.626 245.072 273.309 245.072V246.576H272.925C271.293 246.576 270.477 247.461 270.477 249.232V254H269.021V245.232H270.477V246.656ZM275.742 243.808C275.464 243.808 275.23 243.712 275.038 243.52C274.846 243.328 274.75 243.093 274.75 242.816C274.75 242.539 274.846 242.304 275.038 242.112C275.23 241.92 275.464 241.824 275.742 241.824C276.008 241.824 276.232 241.92 276.414 242.112C276.606 242.304 276.702 242.539 276.702 242.816C276.702 243.093 276.606 243.328 276.414 243.52C276.232 243.712 276.008 243.808 275.742 243.808ZM276.446 245.232V254H274.99V245.232H276.446ZM280.383 242.16V254H278.927V242.16H280.383ZM284.369 251.984L282.577 256.288H281.601L282.769 251.984H284.369ZM289.886 252.832C291.241 251.744 292.302 250.853 293.07 250.16C293.838 249.456 294.484 248.725 295.006 247.968C295.54 247.2 295.806 246.448 295.806 245.712C295.806 245.019 295.636 244.475 295.294 244.08C294.964 243.675 294.425 243.472 293.678 243.472C292.953 243.472 292.388 243.701 291.982 244.16C291.588 244.608 291.374 245.211 291.342 245.968H289.934C289.977 244.773 290.34 243.851 291.022 243.2C291.705 242.549 292.585 242.224 293.662 242.224C294.761 242.224 295.63 242.528 296.27 243.136C296.921 243.744 297.246 244.581 297.246 245.648C297.246 246.533 296.98 247.397 296.446 248.24C295.924 249.072 295.326 249.808 294.654 250.448C293.982 251.077 293.124 251.813 292.078 252.656H297.582V253.872H289.886V252.832ZM299.265 248.096C299.265 246.261 299.564 244.832 300.161 243.808C300.759 242.773 301.804 242.256 303.297 242.256C304.78 242.256 305.82 242.773 306.417 243.808C307.015 244.832 307.313 246.261 307.313 248.096C307.313 249.963 307.015 251.413 306.417 252.448C305.82 253.483 304.78 254 303.297 254C301.804 254 300.759 253.483 300.161 252.448C299.564 251.413 299.265 249.963 299.265 248.096ZM305.873 248.096C305.873 247.168 305.809 246.384 305.681 245.744C305.564 245.093 305.313 244.571 304.929 244.176C304.556 243.781 304.012 243.584 303.297 243.584C302.572 243.584 302.017 243.781 301.633 244.176C301.26 244.571 301.009 245.093 300.881 245.744C300.764 246.384 300.705 247.168 300.705 248.096C300.705 249.056 300.764 249.861 300.881 250.512C301.009 251.163 301.26 251.685 301.633 252.08C302.017 252.475 302.572 252.672 303.297 252.672C304.012 252.672 304.556 252.475 304.929 252.08C305.313 251.685 305.564 251.163 305.681 250.512C305.809 249.861 305.873 249.056 305.873 248.096ZM309.136 252.832C310.491 251.744 311.552 250.853 312.32 250.16C313.088 249.456 313.734 248.725 314.256 247.968C314.79 247.2 315.056 246.448 315.056 245.712C315.056 245.019 314.886 244.475 314.544 244.08C314.214 243.675 313.675 243.472 312.928 243.472C312.203 243.472 311.638 243.701 311.232 244.16C310.838 244.608 310.624 245.211 310.592 245.968H309.184C309.227 244.773 309.59 243.851 310.272 243.2C310.955 242.549 311.835 242.224 312.912 242.224C314.011 242.224 314.88 242.528 315.52 243.136C316.171 243.744 316.496 244.581 316.496 245.648C316.496 246.533 316.23 247.397 315.696 248.24C315.174 249.072 314.576 249.808 313.904 250.448C313.232 251.077 312.374 251.813 311.328 252.656H316.832V253.872H309.136V252.832ZM318.163 251.424V250.32L323.779 242.544H325.523V250.16H327.123V251.424H325.523V254H324.083V251.424H318.163ZM324.147 244.064L319.843 250.16H324.147V244.064Z" fill="#6E7E9E"/>
<path d="M50.404 301.324C50.404 301.996 50.242 302.626 49.918 303.214C49.606 303.802 49.108 304.276 48.424 304.636C47.752 304.996 46.9 305.176 45.868 305.176H43.762V310H41.242V297.436H45.868C46.84 297.436 47.668 297.604 48.352 297.94C49.036 298.276 49.546 298.738 49.882 299.326C50.23 299.914 50.404 300.58 50.404 301.324ZM45.76 303.142C46.456 303.142 46.972 302.986 47.308 302.674C47.644 302.35 47.812 301.9 47.812 301.324C47.812 300.1 47.128 299.488 45.76 299.488H43.762V303.142H45.76ZM61.4632 304.798C61.4632 305.158 61.4392 305.482 61.3912 305.77H54.1012C54.1612 306.49 54.4132 307.054 54.8572 307.462C55.3012 307.87 55.8472 308.074 56.4952 308.074C57.4312 308.074 58.0972 307.672 58.4932 306.868H61.2112C60.9232 307.828 60.3712 308.62 59.5552 309.244C58.7392 309.856 57.7372 310.162 56.5492 310.162C55.5892 310.162 54.7252 309.952 53.9572 309.532C53.2012 309.1 52.6072 308.494 52.1752 307.714C51.7552 306.934 51.5452 306.034 51.5452 305.014C51.5452 303.982 51.7552 303.076 52.1752 302.296C52.5952 301.516 53.1832 300.916 53.9392 300.496C54.6952 300.076 55.5652 299.866 56.5492 299.866C57.4972 299.866 58.3432 300.07 59.0872 300.478C59.8432 300.886 60.4252 301.468 60.8332 302.224C61.2532 302.968 61.4632 303.826 61.4632 304.798ZM58.8532 304.078C58.8412 303.43 58.6072 302.914 58.1512 302.53C57.6952 302.134 57.1372 301.936 56.4772 301.936C55.8532 301.936 55.3252 302.128 54.8932 302.512C54.4732 302.884 54.2152 303.406 54.1192 304.078H58.8532ZM65.8225 301.576C66.1465 301.048 66.5665 300.634 67.0825 300.334C67.6105 300.034 68.2105 299.884 68.8825 299.884V302.53H68.2165C67.4245 302.53 66.8245 302.716 66.4165 303.088C66.0205 303.46 65.8225 304.108 65.8225 305.032V310H63.3025V300.028H65.8225V301.576ZM74.3959 310.162C73.5799 310.162 72.8479 310.018 72.1999 309.73C71.5519 309.43 71.0359 309.028 70.6519 308.524C70.2799 308.02 70.0759 307.462 70.0399 306.85H72.5779C72.6259 307.234 72.8119 307.552 73.1359 307.804C73.4719 308.056 73.8859 308.182 74.3779 308.182C74.8579 308.182 75.2299 308.086 75.4939 307.894C75.7699 307.702 75.9079 307.456 75.9079 307.156C75.9079 306.832 75.7399 306.592 75.4039 306.436C75.0799 306.268 74.5579 306.088 73.8379 305.896C73.0939 305.716 72.4819 305.53 72.0019 305.338C71.5339 305.146 71.1259 304.852 70.7779 304.456C70.4419 304.06 70.2739 303.526 70.2739 302.854C70.2739 302.302 70.4299 301.798 70.7419 301.342C71.0659 300.886 71.5219 300.526 72.1099 300.262C72.7099 299.998 73.4119 299.866 74.2159 299.866C75.4039 299.866 76.3519 300.166 77.0599 300.766C77.7679 301.354 78.1579 302.152 78.2299 303.16H75.8179C75.7819 302.764 75.6139 302.452 75.3139 302.224C75.0259 301.984 74.6359 301.864 74.1439 301.864C73.6879 301.864 73.3339 301.948 73.0819 302.116C72.8419 302.284 72.7219 302.518 72.7219 302.818C72.7219 303.154 72.8899 303.412 73.2259 303.592C73.5619 303.76 74.0839 303.934 74.7919 304.114C75.5119 304.294 76.1059 304.48 76.5739 304.672C77.0419 304.864 77.4439 305.164 77.7799 305.572C78.1279 305.968 78.3079 306.496 78.3199 307.156C78.3199 307.732 78.1579 308.248 77.8339 308.704C77.5219 309.16 77.0659 309.52 76.4659 309.784C75.8779 310.036 75.1879 310.162 74.3959 310.162ZM84.8165 310.162C83.8565 310.162 82.9925 309.952 82.2245 309.532C81.4565 309.1 80.8505 308.494 80.4065 307.714C79.9745 306.934 79.7585 306.034 79.7585 305.014C79.7585 303.994 79.9805 303.094 80.4245 302.314C80.8805 301.534 81.4985 300.934 82.2785 300.514C83.0585 300.082 83.9285 299.866 84.8885 299.866C85.8485 299.866 86.7185 300.082 87.4985 300.514C88.2785 300.934 88.8905 301.534 89.3345 302.314C89.7905 303.094 90.0185 303.994 90.0185 305.014C90.0185 306.034 89.7845 306.934 89.3165 307.714C88.8605 308.494 88.2365 309.1 87.4445 309.532C86.6645 309.952 85.7885 310.162 84.8165 310.162ZM84.8165 307.966C85.2725 307.966 85.6985 307.858 86.0945 307.642C86.5025 307.414 86.8265 307.078 87.0665 306.634C87.3065 306.19 87.4265 305.65 87.4265 305.014C87.4265 304.066 87.1745 303.34 86.6705 302.836C86.1785 302.32 85.5725 302.062 84.8525 302.062C84.1325 302.062 83.5265 302.32 83.0345 302.836C82.5545 303.34 82.3145 304.066 82.3145 305.014C82.3145 305.962 82.5485 306.694 83.0165 307.21C83.4965 307.714 84.0965 307.966 84.8165 307.966ZM97.393 299.884C98.581 299.884 99.541 300.262 100.273 301.018C101.005 301.762 101.371 302.806 101.371 304.15V310H98.851V304.492C98.851 303.7 98.653 303.094 98.257 302.674C97.861 302.242 97.321 302.026 96.637 302.026C95.941 302.026 95.389 302.242 94.981 302.674C94.585 303.094 94.387 303.7 94.387 304.492V310H91.867V300.028H94.387V301.27C94.723 300.838 95.149 300.502 95.665 300.262C96.193 300.01 96.769 299.884 97.393 299.884ZM103.119 304.978C103.119 303.97 103.317 303.076 103.713 302.296C104.121 301.516 104.667 300.916 105.351 300.496C106.047 300.076 106.821 299.866 107.673 299.866C108.417 299.866 109.065 300.016 109.617 300.316C110.181 300.616 110.631 300.994 110.967 301.45V300.028H113.505V310H110.967V308.542C110.643 309.01 110.193 309.4 109.617 309.712C109.053 310.012 108.399 310.162 107.655 310.162C106.815 310.162 106.047 309.946 105.351 309.514C104.667 309.082 104.121 308.476 103.713 307.696C103.317 306.904 103.119 305.998 103.119 304.978ZM110.967 305.014C110.967 304.402 110.847 303.88 110.607 303.448C110.367 303.004 110.043 302.668 109.635 302.44C109.227 302.2 108.789 302.08 108.321 302.08C107.853 302.08 107.421 302.194 107.025 302.422C106.629 302.65 106.305 302.986 106.053 303.43C105.813 303.862 105.693 304.378 105.693 304.978C105.693 305.578 105.813 306.106 106.053 306.562C106.305 307.006 106.629 307.348 107.025 307.588C107.433 307.828 107.865 307.948 108.321 307.948C108.789 307.948 109.227 307.834 109.635 307.606C110.043 307.366 110.367 307.03 110.607 306.598C110.847 306.154 110.967 305.626 110.967 305.014ZM118.487 296.68V310H115.967V296.68H118.487ZM129.657 297.436C130.977 297.436 132.135 297.694 133.131 298.21C134.139 298.726 134.913 299.464 135.453 300.424C136.005 301.372 136.281 302.476 136.281 303.736C136.281 304.996 136.005 306.1 135.453 307.048C134.913 307.984 134.139 308.71 133.131 309.226C132.135 309.742 130.977 310 129.657 310H125.265V297.436H129.657ZM129.567 307.858C130.887 307.858 131.907 307.498 132.627 306.778C133.347 306.058 133.707 305.044 133.707 303.736C133.707 302.428 133.347 301.408 132.627 300.676C131.907 299.932 130.887 299.56 129.567 299.56H127.785V307.858H129.567ZM147.438 304.798C147.438 305.158 147.414 305.482 147.366 305.77H140.076C140.136 306.49 140.388 307.054 140.832 307.462C141.276 307.87 141.822 308.074 142.47 308.074C143.406 308.074 144.072 307.672 144.468 306.868H147.186C146.898 307.828 146.346 308.62 145.53 309.244C144.714 309.856 143.712 310.162 142.524 310.162C141.564 310.162 140.7 309.952 139.932 309.532C139.176 309.1 138.582 308.494 138.15 307.714C137.73 306.934 137.52 306.034 137.52 305.014C137.52 303.982 137.73 303.076 138.15 302.296C138.57 301.516 139.158 300.916 139.914 300.496C140.67 300.076 141.54 299.866 142.524 299.866C143.472 299.866 144.318 300.07 145.062 300.478C145.818 300.886 146.4 301.468 146.808 302.224C147.228 302.968 147.438 303.826 147.438 304.798ZM144.828 304.078C144.816 303.43 144.582 302.914 144.126 302.53C143.67 302.134 143.112 301.936 142.452 301.936C141.828 301.936 141.3 302.128 140.868 302.512C140.448 302.884 140.19 303.406 140.094 304.078H144.828ZM152.211 302.098V306.922C152.211 307.258 152.289 307.504 152.445 307.66C152.613 307.804 152.889 307.876 153.273 307.876H154.443V310H152.859C150.735 310 149.673 308.968 149.673 306.904V302.098H148.485V300.028H149.673V297.562H152.211V300.028H154.443V302.098H152.211ZM155.608 304.978C155.608 303.97 155.806 303.076 156.202 302.296C156.61 301.516 157.156 300.916 157.84 300.496C158.536 300.076 159.31 299.866 160.162 299.866C160.906 299.866 161.554 300.016 162.106 300.316C162.67 300.616 163.12 300.994 163.456 301.45V300.028H165.994V310H163.456V308.542C163.132 309.01 162.682 309.4 162.106 309.712C161.542 310.012 160.888 310.162 160.144 310.162C159.304 310.162 158.536 309.946 157.84 309.514C157.156 309.082 156.61 308.476 156.202 307.696C155.806 306.904 155.608 305.998 155.608 304.978ZM163.456 305.014C163.456 304.402 163.336 303.88 163.096 303.448C162.856 303.004 162.532 302.668 162.124 302.44C161.716 302.2 161.278 302.08 160.81 302.08C160.342 302.08 159.91 302.194 159.514 302.422C159.118 302.65 158.794 302.986 158.542 303.43C158.302 303.862 158.182 304.378 158.182 304.978C158.182 305.578 158.302 306.106 158.542 306.562C158.794 307.006 159.118 307.348 159.514 307.588C159.922 307.828 160.354 307.948 160.81 307.948C161.278 307.948 161.716 307.834 162.124 307.606C162.532 307.366 162.856 307.03 163.096 306.598C163.336 306.154 163.456 305.626 163.456 305.014ZM169.733 298.84C169.289 298.84 168.917 298.702 168.617 298.426C168.329 298.138 168.185 297.784 168.185 297.364C168.185 296.944 168.329 296.596 168.617 296.32C168.917 296.032 169.289 295.888 169.733 295.888C170.177 295.888 170.543 296.032 170.831 296.32C171.131 296.596 171.281 296.944 171.281 297.364C171.281 297.784 171.131 298.138 170.831 298.426C170.543 298.702 170.177 298.84 169.733 298.84ZM170.975 300.028V310H168.455V300.028H170.975ZM175.985 296.68V310H173.465V296.68H175.985ZM182.29 310.162C181.474 310.162 180.742 310.018 180.094 309.73C179.446 309.43 178.93 309.028 178.546 308.524C178.174 308.02 177.97 307.462 177.934 306.85H180.472C180.52 307.234 180.706 307.552 181.03 307.804C181.366 308.056 181.78 308.182 182.272 308.182C182.752 308.182 183.124 308.086 183.388 307.894C183.664 307.702 183.802 307.456 183.802 307.156C183.802 306.832 183.634 306.592 183.298 306.436C182.974 306.268 182.452 306.088 181.732 305.896C180.988 305.716 180.376 305.53 179.896 305.338C179.428 305.146 179.02 304.852 178.672 304.456C178.336 304.06 178.168 303.526 178.168 302.854C178.168 302.302 178.324 301.798 178.636 301.342C178.96 300.886 179.416 300.526 180.004 300.262C180.604 299.998 181.306 299.866 182.11 299.866C183.298 299.866 184.246 300.166 184.954 300.766C185.662 301.354 186.052 302.152 186.124 303.16H183.712C183.676 302.764 183.508 302.452 183.208 302.224C182.92 301.984 182.53 301.864 182.038 301.864C181.582 301.864 181.228 301.948 180.976 302.116C180.736 302.284 180.616 302.518 180.616 302.818C180.616 303.154 180.784 303.412 181.12 303.592C181.456 303.76 181.978 303.934 182.686 304.114C183.406 304.294 184 304.48 184.468 304.672C184.936 304.864 185.338 305.164 185.674 305.572C186.022 305.968 186.202 306.496 186.214 307.156C186.214 307.732 186.052 308.248 185.728 308.704C185.416 309.16 184.96 309.52 184.36 309.784C183.772 310.036 183.082 310.162 182.29 310.162Z" fill="#1A1E26"/>
<path d="M42.656 354.848V361.904C42.656 362.896 42.896 363.632 43.376 364.112C43.8667 364.592 44.544 364.832 45.408 364.832C46.2613 364.832 46.928 364.592 47.408 364.112C47.8987 363.632 48.144 362.896 48.144 361.904V354.848H49.6V361.888C49.6 362.816 49.4133 363.6 49.04 364.24C48.6667 364.869 48.16 365.339 47.52 365.648C46.8907 365.957 46.1813 366.112 45.392 366.112C44.6027 366.112 43.888 365.957 43.248 365.648C42.6187 365.339 42.1173 364.869 41.744 364.24C41.3813 363.6 41.2 362.816 41.2 361.888V354.848H42.656ZM55.1329 366.144C54.4609 366.144 53.8582 366.032 53.3249 365.808C52.7915 365.573 52.3702 365.253 52.0609 364.848C51.7515 364.432 51.5809 363.957 51.5489 363.424H53.0529C53.0955 363.861 53.2982 364.219 53.6609 364.496C54.0342 364.773 54.5195 364.912 55.1169 364.912C55.6715 364.912 56.1089 364.789 56.4289 364.544C56.7489 364.299 56.9089 363.989 56.9089 363.616C56.9089 363.232 56.7382 362.949 56.3969 362.768C56.0555 362.576 55.5275 362.389 54.8129 362.208C54.1622 362.037 53.6289 361.867 53.2129 361.696C52.8075 361.515 52.4555 361.253 52.1569 360.912C51.8689 360.56 51.7249 360.101 51.7249 359.536C51.7249 359.088 51.8582 358.677 52.1249 358.304C52.3915 357.931 52.7702 357.637 53.2609 357.424C53.7515 357.2 54.3115 357.088 54.9409 357.088C55.9115 357.088 56.6955 357.333 57.2929 357.824C57.8902 358.315 58.2102 358.987 58.2529 359.84H56.7969C56.7649 359.381 56.5782 359.013 56.2369 358.736C55.9062 358.459 55.4582 358.32 54.8929 358.32C54.3702 358.32 53.9542 358.432 53.6449 358.656C53.3355 358.88 53.1809 359.173 53.1809 359.536C53.1809 359.824 53.2715 360.064 53.4529 360.256C53.6449 360.437 53.8795 360.587 54.1569 360.704C54.4449 360.811 54.8395 360.933 55.3409 361.072C55.9702 361.243 56.4822 361.413 56.8769 361.584C57.2715 361.744 57.6075 361.989 57.8849 362.32C58.1729 362.651 58.3222 363.083 58.3329 363.616C58.3329 364.096 58.1995 364.528 57.9329 364.912C57.6662 365.296 57.2875 365.6 56.7969 365.824C56.3169 366.037 55.7622 366.144 55.1329 366.144ZM68.3883 361.28C68.3883 361.557 68.3723 361.851 68.3403 362.16H61.3323C61.3856 363.024 61.6789 363.701 62.2123 364.192C62.7563 364.672 63.4123 364.912 64.1803 364.912C64.8096 364.912 65.3323 364.768 65.7483 364.48C66.1749 364.181 66.4736 363.787 66.6443 363.296H68.2123C67.9776 364.139 67.5083 364.827 66.8043 365.36C66.1003 365.883 65.2256 366.144 64.1803 366.144C63.3483 366.144 62.6016 365.957 61.9403 365.584C61.2896 365.211 60.7776 364.683 60.4043 364C60.0309 363.307 59.8443 362.507 59.8443 361.6C59.8443 360.693 60.0256 359.899 60.3883 359.216C60.7509 358.533 61.2576 358.011 61.9083 357.648C62.5696 357.275 63.3269 357.088 64.1803 357.088C65.0123 357.088 65.7483 357.269 66.3883 357.632C67.0283 357.995 67.5189 358.496 67.8603 359.136C68.2123 359.765 68.3883 360.48 68.3883 361.28ZM66.8843 360.976C66.8843 360.421 66.7616 359.947 66.5163 359.552C66.2709 359.147 65.9349 358.843 65.5083 358.64C65.0923 358.427 64.6283 358.32 64.1163 358.32C63.3803 358.32 62.7509 358.555 62.2283 359.024C61.7163 359.493 61.4229 360.144 61.3483 360.976H66.8843ZM71.7661 358.656C72.0221 358.155 72.3848 357.765 72.8541 357.488C73.3341 357.211 73.9155 357.072 74.5981 357.072V358.576H74.2141C72.5821 358.576 71.7661 359.461 71.7661 361.232V366H70.3101V357.232H71.7661V358.656ZM80.5509 357.072C81.6175 357.072 82.4815 357.397 83.1429 358.048C83.8042 358.688 84.1349 359.616 84.1349 360.832V366H82.6949V361.04C82.6949 360.165 82.4762 359.499 82.0389 359.04C81.6015 358.571 81.0042 358.336 80.2469 358.336C79.4789 358.336 78.8655 358.576 78.4069 359.056C77.9589 359.536 77.7349 360.235 77.7349 361.152V366H76.2789V357.232H77.7349V358.48C78.0229 358.032 78.4122 357.685 78.9029 357.44C79.4042 357.195 79.9535 357.072 80.5509 357.072ZM85.9693 361.584C85.9693 360.688 86.1506 359.904 86.5133 359.232C86.8759 358.549 87.3719 358.021 88.0013 357.648C88.6413 357.275 89.3506 357.088 90.1293 357.088C90.8973 357.088 91.5639 357.253 92.1293 357.584C92.6946 357.915 93.1159 358.331 93.3933 358.832V357.232H94.8653V366H93.3933V364.368C93.1053 364.88 92.6733 365.307 92.0973 365.648C91.5319 365.979 90.8706 366.144 90.1133 366.144C89.3346 366.144 88.6306 365.952 88.0013 365.568C87.3719 365.184 86.8759 364.645 86.5133 363.952C86.1506 363.259 85.9693 362.469 85.9693 361.584ZM93.3933 361.6C93.3933 360.939 93.2599 360.363 92.9933 359.872C92.7266 359.381 92.3639 359.008 91.9053 358.752C91.4573 358.485 90.9613 358.352 90.4173 358.352C89.8733 358.352 89.3773 358.48 88.9293 358.736C88.4813 358.992 88.1239 359.365 87.8573 359.856C87.5906 360.347 87.4573 360.923 87.4573 361.584C87.4573 362.256 87.5906 362.843 87.8573 363.344C88.1239 363.835 88.4813 364.213 88.9293 364.48C89.3773 364.736 89.8733 364.864 90.4173 364.864C90.9613 364.864 91.4573 364.736 91.9053 364.48C92.3639 364.213 92.7266 363.835 92.9933 363.344C93.2599 362.843 93.3933 362.261 93.3933 361.6ZM107.87 357.072C108.552 357.072 109.16 357.216 109.694 357.504C110.227 357.781 110.648 358.203 110.958 358.768C111.267 359.333 111.422 360.021 111.422 360.832V366H109.982V361.04C109.982 360.165 109.763 359.499 109.326 359.04C108.899 358.571 108.318 358.336 107.582 358.336C106.824 358.336 106.222 358.581 105.774 359.072C105.326 359.552 105.102 360.251 105.102 361.168V366H103.662V361.04C103.662 360.165 103.443 359.499 103.006 359.04C102.579 358.571 101.998 358.336 101.262 358.336C100.504 358.336 99.9018 358.581 99.4538 359.072C99.0058 359.552 98.7818 360.251 98.7818 361.168V366H97.3258V357.232H98.7818V358.496C99.0698 358.037 99.4538 357.685 99.9338 357.44C100.424 357.195 100.963 357.072 101.55 357.072C102.286 357.072 102.936 357.237 103.502 357.568C104.067 357.899 104.488 358.384 104.766 359.024C105.011 358.405 105.416 357.925 105.982 357.584C106.547 357.243 107.176 357.072 107.87 357.072ZM121.81 361.28C121.81 361.557 121.794 361.851 121.762 362.16H114.754C114.807 363.024 115.101 363.701 115.634 364.192C116.178 364.672 116.834 364.912 117.602 364.912C118.231 364.912 118.754 364.768 119.17 364.48C119.597 364.181 119.895 363.787 120.066 363.296H121.634C121.399 364.139 120.93 364.827 120.226 365.36C119.522 365.883 118.647 366.144 117.602 366.144C116.77 366.144 116.023 365.957 115.362 365.584C114.711 365.211 114.199 364.683 113.826 364C113.453 363.307 113.266 362.507 113.266 361.6C113.266 360.693 113.447 359.899 113.81 359.216C114.173 358.533 114.679 358.011 115.33 357.648C115.991 357.275 116.749 357.088 117.602 357.088C118.434 357.088 119.17 357.269 119.81 357.632C120.45 357.995 120.941 358.496 121.282 359.136C121.634 359.765 121.81 360.48 121.81 361.28ZM120.306 360.976C120.306 360.421 120.183 359.947 119.938 359.552C119.693 359.147 119.357 358.843 118.93 358.64C118.514 358.427 118.05 358.32 117.538 358.32C116.802 358.32 116.173 358.555 115.65 359.024C115.138 359.493 114.845 360.144 114.77 360.976H120.306ZM124.196 366.096C123.919 366.096 123.684 366 123.492 365.808C123.3 365.616 123.204 365.381 123.204 365.104C123.204 364.827 123.3 364.592 123.492 364.4C123.684 364.208 123.919 364.112 124.196 364.112C124.463 364.112 124.687 364.208 124.868 364.4C125.06 364.592 125.156 364.827 125.156 365.104C125.156 365.381 125.06 365.616 124.868 365.808C124.687 366 124.463 366.096 124.196 366.096ZM124.196 359.248C123.919 359.248 123.684 359.152 123.492 358.96C123.3 358.768 123.204 358.533 123.204 358.256C123.204 357.979 123.3 357.744 123.492 357.552C123.684 357.36 123.919 357.264 124.196 357.264C124.463 357.264 124.687 357.36 124.868 357.552C125.06 357.744 125.156 357.979 125.156 358.256C125.156 358.533 125.06 358.768 124.868 358.96C124.687 359.152 124.463 359.248 124.196 359.248Z" fill="#6E7E9E"/>
<path d="M177.584 357.072C178.245 357.072 178.843 357.216 179.376 357.504C179.909 357.781 180.325 358.203 180.624 358.768C180.933 359.333 181.088 360.021 181.088 360.832V366H179.648V361.04C179.648 360.165 179.429 359.499 178.992 359.04C178.555 358.571 177.957 358.336 177.2 358.336C176.432 358.336 175.819 358.576 175.36 359.056C174.912 359.536 174.688 360.235 174.688 361.152V366H173.232V354.16H174.688V358.48C174.976 358.032 175.371 357.685 175.872 357.44C176.384 357.195 176.955 357.072 177.584 357.072ZM191.466 361.28C191.466 361.557 191.45 361.851 191.418 362.16H184.41C184.464 363.024 184.757 363.701 185.29 364.192C185.834 364.672 186.49 364.912 187.258 364.912C187.888 364.912 188.41 364.768 188.826 364.48C189.253 364.181 189.552 363.787 189.722 363.296H191.29C191.056 364.139 190.586 364.827 189.882 365.36C189.178 365.883 188.304 366.144 187.258 366.144C186.426 366.144 185.68 365.957 185.018 365.584C184.368 365.211 183.856 364.683 183.482 364C183.109 363.307 182.922 362.507 182.922 361.6C182.922 360.693 183.104 359.899 183.466 359.216C183.829 358.533 184.336 358.011 184.986 357.648C185.648 357.275 186.405 357.088 187.258 357.088C188.09 357.088 188.826 357.269 189.466 357.632C190.106 357.995 190.597 358.496 190.938 359.136C191.29 359.765 191.466 360.48 191.466 361.28ZM189.962 360.976C189.962 360.421 189.84 359.947 189.594 359.552C189.349 359.147 189.013 358.843 188.586 358.64C188.17 358.427 187.706 358.32 187.194 358.32C186.458 358.32 185.829 358.555 185.306 359.024C184.794 359.493 184.501 360.144 184.426 360.976H189.962ZM200.94 357.232L195.66 370.128H194.156L195.884 365.904L192.348 357.232H193.964L196.716 364.336L199.436 357.232H200.94ZM211.364 366.608V367.952H202.852V366.608H211.364ZM220.73 363.52H215.866L214.97 366H213.434L217.466 354.912H219.146L223.162 366H221.626L220.73 363.52ZM220.314 362.336L218.298 356.704L216.282 362.336H220.314ZM229.192 357.072C230.258 357.072 231.122 357.397 231.784 358.048C232.445 358.688 232.776 359.616 232.776 360.832V366H231.336V361.04C231.336 360.165 231.117 359.499 230.68 359.04C230.242 358.571 229.645 358.336 228.888 358.336C228.12 358.336 227.506 358.576 227.048 359.056C226.6 359.536 226.376 360.235 226.376 361.152V366H224.92V357.232H226.376V358.48C226.664 358.032 227.053 357.685 227.544 357.44C228.045 357.195 228.594 357.072 229.192 357.072ZM234.61 361.584C234.61 360.688 234.791 359.904 235.154 359.232C235.517 358.549 236.013 358.021 236.642 357.648C237.282 357.275 237.991 357.088 238.77 357.088C239.538 357.088 240.205 357.253 240.77 357.584C241.335 357.915 241.757 358.331 242.034 358.832V357.232H243.506V366H242.034V364.368C241.746 364.88 241.314 365.307 240.738 365.648C240.173 365.979 239.511 366.144 238.754 366.144C237.975 366.144 237.271 365.952 236.642 365.568C236.013 365.184 235.517 364.645 235.154 363.952C234.791 363.259 234.61 362.469 234.61 361.584ZM242.034 361.6C242.034 360.939 241.901 360.363 241.634 359.872C241.367 359.381 241.005 359.008 240.546 358.752C240.098 358.485 239.602 358.352 239.058 358.352C238.514 358.352 238.018 358.48 237.57 358.736C237.122 358.992 236.765 359.365 236.498 359.856C236.231 360.347 236.098 360.923 236.098 361.584C236.098 362.256 236.231 362.843 236.498 363.344C236.765 363.835 237.122 364.213 237.57 364.48C238.018 364.736 238.514 364.864 239.058 364.864C239.602 364.864 240.098 364.736 240.546 364.48C241.005 364.213 241.367 363.835 241.634 363.344C241.901 362.843 242.034 362.261 242.034 361.6Z" fill="#6E7E9E"/>
<line x1="40" y1="387.5" x2="472" y2="387.5" stroke="#E1E4EB"/>
<rect x="40" y="412" width="100" height="8" rx="4" fill="#E1E4EB"/>
<rect x="40" y="444" width="100" height="8" rx="4" fill="#E1E4EB"/>
<rect x="172" y="412" width="160" height="8" rx="4" fill="#E1E4EB"/>
<rect x="172" y="444" width="100" height="8" rx="4" fill="#E1E4EB"/>
<defs>
<clipPath id="clip0_3184_20270">
<rect width="98" height="98" fill="white" transform="translate(207 70)"/>
</clipPath>
<clipPath id="clip1_3184_20270">
<rect width="16" height="16" fill="white" transform="translate(400 48)"/>
</clipPath>
</defs>
</svg>
