<svg width="512" height="512" viewBox="0 0 512 512" fill="none" xmlns="http://www.w3.org/2000/svg">
<rect width="512" height="512" fill="white"/>
<rect x="344" y="40" width="128" height="128" rx="64" fill="#C9CFDB"/>
<path d="M408 125.125C419.275 125.125 428.416 115.984 428.416 104.708C428.416 93.4325 419.275 84.2916 408 84.2916C396.724 84.2916 387.583 93.4325 387.583 104.708C387.583 115.984 396.724 125.125 408 125.125Z" fill="white"/>
<path d="M408 135.333C387.543 135.333 370.883 149.053 370.883 165.958C370.883 167.102 371.781 168 372.924 168H443.076C444.22 168 445.118 167.102 445.118 165.958C445.118 149.053 428.458 135.333 408 135.333Z" fill="white"/>
<rect x="40" y="180" width="32" height="32" rx="16" fill="#C9CFDB"/>
<path fill-rule="evenodd" clip-rule="evenodd" d="M57.6392 205V196.9H60.0983L60.5 193.3H57.6392V191.547C57.6392 190.62 57.6628 189.7 58.9582 189.7H60.2702V187.126C60.2702 187.087 59.1432 187 58.0031 187C55.622 187 54.1311 188.491 54.1311 191.23V193.3H51.5V196.9H54.1311V205H57.6392Z" fill="white"/>
<rect x="88" y="180" width="32" height="32" rx="16" fill="#C9CFDB"/>
<g clip-path="url(#clip0_3184_20371)">
<path fill-rule="evenodd" clip-rule="evenodd" d="M112 204H108.8V198.401C108.8 196.865 108.122 196.008 106.907 196.008C105.585 196.008 104.8 196.901 104.8 198.401V204H101.6V193.6H104.8V194.77C104.8 194.77 105.804 193.008 108.066 193.008C110.33 193.008 112 194.389 112 197.246V204ZM97.9536 191.937C96.8744 191.937 96 191.055 96 189.968C96 188.882 96.8744 188 97.9536 188C99.032 188 99.9064 188.882 99.9064 189.968C99.9072 191.055 99.032 191.937 97.9536 191.937ZM96 204H100V193.6H96V204Z" fill="white"/>
</g>
<rect x="136" y="180" width="32" height="32" rx="16" fill="#C9CFDB"/>
<path d="M152 188C154.174 188 154.445 188.008 155.298 188.048C156.15 188.088 156.73 188.222 157.24 188.42C157.768 188.623 158.213 188.898 158.658 189.342C159.064 189.742 159.379 190.226 159.58 190.76C159.778 191.27 159.912 191.85 159.952 192.702C159.99 193.555 160 193.826 160 196C160 198.174 159.992 198.445 159.952 199.298C159.912 200.15 159.778 200.73 159.58 201.24C159.38 201.774 159.065 202.258 158.658 202.658C158.258 203.064 157.774 203.379 157.24 203.58C156.73 203.778 156.15 203.912 155.298 203.952C154.445 203.99 154.174 204 152 204C149.826 204 149.555 203.992 148.702 203.952C147.85 203.912 147.27 203.778 146.76 203.58C146.226 203.38 145.742 203.065 145.342 202.658C144.936 202.258 144.621 201.774 144.42 201.24C144.222 200.73 144.088 200.15 144.048 199.298C144.01 198.445 144 198.174 144 196C144 193.826 144.008 193.555 144.048 192.702C144.088 191.85 144.222 191.27 144.42 190.76C144.62 190.226 144.935 189.742 145.342 189.342C145.742 188.935 146.226 188.621 146.76 188.42C147.27 188.222 147.85 188.088 148.702 188.048C149.555 188.01 149.826 188 152 188ZM152 192C150.939 192 149.922 192.421 149.172 193.172C148.421 193.922 148 194.939 148 196C148 197.061 148.421 198.078 149.172 198.828C149.922 199.579 150.939 200 152 200C153.061 200 154.078 199.579 154.828 198.828C155.579 198.078 156 197.061 156 196C156 194.939 155.579 193.922 154.828 193.172C154.078 192.421 153.061 192 152 192ZM157.2 191.8C157.2 191.535 157.095 191.28 156.907 191.093C156.72 190.905 156.465 190.8 156.2 190.8C155.935 190.8 155.68 190.905 155.493 191.093C155.305 191.28 155.2 191.535 155.2 191.8C155.2 192.065 155.305 192.32 155.493 192.507C155.68 192.695 155.935 192.8 156.2 192.8C156.465 192.8 156.72 192.695 156.907 192.507C157.095 192.32 157.2 192.065 157.2 191.8ZM152 193.6C152.637 193.6 153.247 193.853 153.697 194.303C154.147 194.753 154.4 195.363 154.4 196C154.4 196.637 154.147 197.247 153.697 197.697C153.247 198.147 152.637 198.4 152 198.4C151.363 198.4 150.753 198.147 150.303 197.697C149.853 197.247 149.6 196.637 149.6 196C149.6 195.363 149.853 194.753 150.303 194.303C150.753 193.853 151.363 193.6 152 193.6Z" fill="white"/>
<rect x="184" y="180" width="32" height="32" rx="16" fill="#C9CFDB"/>
<g clip-path="url(#clip1_3184_20371)">
<path fill-rule="evenodd" clip-rule="evenodd" d="M198.19 198.327V193.277C199.983 194.121 201.371 194.936 203.014 195.814C201.659 196.565 199.983 197.408 198.19 198.327ZM208.182 190.765C207.873 190.357 207.345 190.04 206.784 189.935C205.135 189.622 194.844 189.621 193.195 189.935C192.745 190.02 192.344 190.224 192 190.54C190.55 191.887 191.004 199.106 191.354 200.276C191.501 200.782 191.691 201.147 191.93 201.387C192.239 201.704 192.661 201.922 193.146 202.02C194.504 202.301 201.501 202.458 206.756 202.062C207.24 201.978 207.668 201.752 208.006 201.422C209.347 200.081 209.256 192.456 208.182 190.765Z" fill="white"/>
</g>
<rect x="232" y="180" width="32" height="32" rx="16" fill="#C9CFDB"/>
<path fill-rule="evenodd" clip-rule="evenodd" d="M252.001 200.78L252.8 203.062C252.499 203.487 251.13 203.978 249.902 203.998C246.261 204.058 244.871 201.516 244.871 199.726V194.4H243.2V192.431C245.736 191.556 246.345 189.366 246.488 188.119C246.498 188.034 246.568 188 246.609 188H249.049V192H252.392V194.4H249.049V199.479C249.049 200.156 249.317 201.09 250.655 201.056C251.099 201.045 251.691 200.922 252.001 200.78Z" fill="white"/>
<rect x="40" y="92" width="32" height="32" rx="16" fill="#C9CFDB"/>
<path d="M59.75 115.5H52.25C51.9425 115.5 51.6875 115.245 51.6875 114.938C51.6875 114.63 51.9425 114.375 52.25 114.375H59.75C60.0575 114.375 60.3125 114.63 60.3125 114.938C60.3125 115.245 60.0575 115.5 59.75 115.5Z" fill="white"/>
<path d="M62.2631 103.139L59.2631 105.284C58.8656 105.569 58.2956 105.397 58.1231 104.939L56.7056 101.159C56.4656 100.507 55.5431 100.507 55.3031 101.159L53.8782 104.932C53.7057 105.397 53.1432 105.569 52.7457 105.277L49.7457 103.132C49.1457 102.712 48.3507 103.304 48.5982 104.002L51.7182 112.739C51.8232 113.039 52.1082 113.234 52.4232 113.234H59.5706C59.8856 113.234 60.1706 113.032 60.2756 112.739L63.3956 104.002C63.6506 103.304 62.8556 102.712 62.2631 103.139ZM57.8756 110.062H54.1257C53.8182 110.062 53.5632 109.807 53.5632 109.499C53.5632 109.192 53.8182 108.937 54.1257 108.937H57.8756C58.1831 108.937 58.4381 109.192 58.4381 109.499C58.4381 109.807 58.1831 110.062 57.8756 110.062Z" fill="white"/>
<rect x="88" y="92" width="32" height="32" rx="16" fill="#C9CFDB"/>
<path d="M108.433 107.041H106.116V101.641C106.116 100.381 105.433 100.126 104.601 101.071L104.001 101.753L98.9234 107.528C98.2259 108.316 98.5184 108.961 99.5684 108.961H101.886V114.361C101.886 115.621 102.568 115.876 103.401 114.931L104.001 114.248L109.078 108.473C109.776 107.686 109.483 107.041 108.433 107.041Z" fill="white"/>
<rect x="136" y="92" width="32" height="32" rx="16" fill="#C9CFDB"/>
<path fill-rule="evenodd" clip-rule="evenodd" d="M153.562 102.212C153.217 101.514 152.679 101 151.998 101C151.318 101 150.777 101.514 150.43 102.211L149.283 104.521L149.282 104.525C149.247 104.595 149.165 104.696 149.041 104.789C148.918 104.881 148.798 104.931 148.721 104.945L148.72 104.945L146.645 105.292C145.897 105.418 145.268 105.785 145.064 106.428C144.86 107.071 145.161 107.738 145.697 108.278L147.311 109.905C147.375 109.969 147.446 110.089 147.491 110.246C147.535 110.403 147.539 110.544 147.519 110.635L147.518 110.636L147.057 112.647C146.865 113.485 146.931 114.317 147.523 114.752C148.115 115.187 148.922 114.999 149.657 114.559L151.6 113.4L151.601 113.399C151.688 113.348 151.832 113.309 152.001 113.309C152.171 113.309 152.312 113.349 152.394 113.398L154.341 114.559C155.077 114.997 155.885 115.189 156.476 114.755C157.068 114.32 157.132 113.486 156.94 112.648L156.479 110.636L156.478 110.635C156.458 110.544 156.462 110.403 156.507 110.246C156.551 110.089 156.622 109.969 156.686 109.905L158.299 108.279L158.3 108.278C158.839 107.738 159.14 107.071 158.935 106.428C158.73 105.785 158.1 105.418 157.352 105.292L155.275 104.945" fill="white"/>
<path d="M48.764 48.456C50.8173 48.456 52.6187 48.8573 54.168 49.66C55.736 50.4627 56.94 51.6107 57.78 53.104C58.6387 54.5787 59.068 56.296 59.068 58.256C59.068 60.216 58.6387 61.9333 57.78 63.408C56.94 64.864 55.736 65.9933 54.168 66.796C52.6187 67.5987 50.8173 68 48.764 68H41.932V48.456H48.764ZM48.624 64.668C50.6773 64.668 52.264 64.108 53.384 62.988C54.504 61.868 55.064 60.2907 55.064 58.256C55.064 56.2213 54.504 54.6347 53.384 53.496C52.264 52.3387 50.6773 51.76 48.624 51.76H45.852V64.668H48.624ZM60.9943 60.188C60.9943 58.62 61.3023 57.2293 61.9183 56.016C62.553 54.8027 63.4023 53.8693 64.4663 53.216C65.549 52.5627 66.753 52.236 68.0783 52.236C69.2356 52.236 70.2436 52.4693 71.1023 52.936C71.9796 53.4027 72.6796 53.9907 73.2023 54.7V52.488H77.1503V68H73.2023V65.732C72.6983 66.46 71.9983 67.0667 71.1023 67.552C70.225 68.0187 69.2076 68.252 68.0503 68.252C66.7436 68.252 65.549 67.916 64.4663 67.244C63.4023 66.572 62.553 65.6293 61.9183 64.416C61.3023 63.184 60.9943 61.7747 60.9943 60.188ZM73.2023 60.244C73.2023 59.292 73.0156 58.48 72.6423 57.808C72.269 57.1173 71.765 56.5947 71.1303 56.24C70.4956 55.8667 69.8143 55.68 69.0863 55.68C68.3583 55.68 67.6863 55.8573 67.0703 56.212C66.4543 56.5667 65.9503 57.0893 65.5583 57.78C65.185 58.452 64.9983 59.2547 64.9983 60.188C64.9983 61.1213 65.185 61.9427 65.5583 62.652C65.9503 63.3427 66.4543 63.8747 67.0703 64.248C67.705 64.6213 68.377 64.808 69.0863 64.808C69.8143 64.808 70.4956 64.6307 71.1303 64.276C71.765 63.9027 72.269 63.38 72.6423 62.708C73.0156 62.0173 73.2023 61.196 73.2023 60.244ZM90.1629 68L84.8989 61.392V68H80.9789V47.28H84.8989V59.068L90.1069 52.488H95.2029L88.3709 60.272L95.2589 68H90.1629ZM104.218 68.252C102.725 68.252 101.381 67.9253 100.186 67.272C98.9918 66.6 98.0491 65.6573 97.3584 64.444C96.6864 63.2307 96.3504 61.8307 96.3504 60.244C96.3504 58.6573 96.6958 57.2573 97.3864 56.044C98.0958 54.8307 99.0571 53.8973 100.27 53.244C101.484 52.572 102.837 52.236 104.33 52.236C105.824 52.236 107.177 52.572 108.39 53.244C109.604 53.8973 110.556 54.8307 111.246 56.044C111.956 57.2573 112.31 58.6573 112.31 60.244C112.31 61.8307 111.946 63.2307 111.218 64.444C110.509 65.6573 109.538 66.6 108.306 67.272C107.093 67.9253 105.73 68.252 104.218 68.252ZM104.218 64.836C104.928 64.836 105.59 64.668 106.206 64.332C106.841 63.9773 107.345 63.4547 107.718 62.764C108.092 62.0733 108.278 61.2333 108.278 60.244C108.278 58.7693 107.886 57.64 107.102 56.856C106.337 56.0533 105.394 55.652 104.274 55.652C103.154 55.652 102.212 56.0533 101.446 56.856C100.7 57.64 100.326 58.7693 100.326 60.244C100.326 61.7187 100.69 62.8573 101.418 63.66C102.165 64.444 103.098 64.836 104.218 64.836ZM119.75 55.708V63.212C119.75 63.7347 119.871 64.1173 120.114 64.36C120.375 64.584 120.805 64.696 121.402 64.696H123.222V68H120.758C117.454 68 115.802 66.3947 115.802 63.184V55.708H113.954V52.488H115.802V48.652H119.75V52.488H123.222V55.708H119.75ZM125.033 60.188C125.033 58.62 125.341 57.2293 125.957 56.016C126.592 54.8027 127.441 53.8693 128.505 53.216C129.588 52.5627 130.792 52.236 132.117 52.236C133.275 52.236 134.283 52.4693 135.141 52.936C136.019 53.4027 136.719 53.9907 137.241 54.7V52.488H141.189V68H137.241V65.732C136.737 66.46 136.037 67.0667 135.141 67.552C134.264 68.0187 133.247 68.252 132.089 68.252C130.783 68.252 129.588 67.916 128.505 67.244C127.441 66.572 126.592 65.6293 125.957 64.416C125.341 63.184 125.033 61.7747 125.033 60.188ZM137.241 60.244C137.241 59.292 137.055 58.48 136.681 57.808C136.308 57.1173 135.804 56.5947 135.169 56.24C134.535 55.8667 133.853 55.68 133.125 55.68C132.397 55.68 131.725 55.8573 131.109 56.212C130.493 56.5667 129.989 57.0893 129.597 57.78C129.224 58.452 129.037 59.2547 129.037 60.188C129.037 61.1213 129.224 61.9427 129.597 62.652C129.989 63.3427 130.493 63.8747 131.109 64.248C131.744 64.6213 132.416 64.808 133.125 64.808C133.853 64.808 134.535 64.6307 135.169 64.276C135.804 63.9027 136.308 63.38 136.681 62.708C137.055 62.0173 137.241 61.196 137.241 60.244ZM163.086 48.456V62.176C163.086 64.08 162.535 65.564 161.434 66.628C160.332 67.6733 158.858 68.196 157.01 68.196C155.143 68.196 153.631 67.6547 152.474 66.572C151.335 65.4893 150.766 63.9773 150.766 62.036H154.686C154.704 62.876 154.9 63.5293 155.274 63.996C155.666 64.4627 156.226 64.696 156.954 64.696C157.663 64.696 158.204 64.472 158.578 64.024C158.951 63.576 159.138 62.96 159.138 62.176V48.456H163.086ZM174.547 68.252C173.053 68.252 171.709 67.9253 170.515 67.272C169.32 66.6 168.377 65.6573 167.687 64.444C167.015 63.2307 166.679 61.8307 166.679 60.244C166.679 58.6573 167.024 57.2573 167.715 56.044C168.424 54.8307 169.385 53.8973 170.599 53.244C171.812 52.572 173.165 52.236 174.659 52.236C176.152 52.236 177.505 52.572 178.719 53.244C179.932 53.8973 180.884 54.8307 181.575 56.044C182.284 57.2573 182.639 58.6573 182.639 60.244C182.639 61.8307 182.275 63.2307 181.547 64.444C180.837 65.6573 179.867 66.6 178.635 67.272C177.421 67.9253 176.059 68.252 174.547 68.252ZM174.547 64.836C175.256 64.836 175.919 64.668 176.535 64.332C177.169 63.9773 177.673 63.4547 178.047 62.764C178.42 62.0733 178.607 61.2333 178.607 60.244C178.607 58.7693 178.215 57.64 177.431 56.856C176.665 56.0533 175.723 55.652 174.603 55.652C173.483 55.652 172.54 56.0533 171.775 56.856C171.028 57.64 170.655 58.7693 170.655 60.244C170.655 61.7187 171.019 62.8573 171.747 63.66C172.493 64.444 173.427 64.836 174.547 64.836ZM194.25 52.264C195.426 52.264 196.471 52.5253 197.386 53.048C198.301 53.552 199.01 54.308 199.514 55.316C200.037 56.3053 200.298 57.5 200.298 58.9V68H196.378V59.432C196.378 58.2 196.07 57.2573 195.454 56.604C194.838 55.932 193.998 55.596 192.934 55.596C191.851 55.596 190.993 55.932 190.358 56.604C189.742 57.2573 189.434 58.2 189.434 59.432V68H185.514V47.28H189.434V54.42C189.938 53.748 190.61 53.2253 191.45 52.852C192.29 52.46 193.223 52.264 194.25 52.264ZM212.622 52.264C214.47 52.264 215.963 52.852 217.102 54.028C218.24 55.1853 218.81 56.8093 218.81 58.9V68H214.89V59.432C214.89 58.2 214.582 57.2573 213.966 56.604C213.35 55.932 212.51 55.596 211.446 55.596C210.363 55.596 209.504 55.932 208.87 56.604C208.254 57.2573 207.946 58.2 207.946 59.432V68H204.026V52.488H207.946V54.42C208.468 53.748 209.131 53.2253 209.934 52.852C210.755 52.46 211.651 52.264 212.622 52.264ZM228.473 68.252C227.204 68.252 226.065 68.028 225.057 67.58C224.049 67.1133 223.247 66.488 222.649 65.704C222.071 64.92 221.753 64.052 221.697 63.1H225.645C225.72 63.6973 226.009 64.192 226.513 64.584C227.036 64.976 227.68 65.172 228.445 65.172C229.192 65.172 229.771 65.0227 230.181 64.724C230.611 64.4253 230.825 64.0427 230.825 63.576C230.825 63.072 230.564 62.6987 230.041 62.456C229.537 62.1947 228.725 61.9147 227.605 61.616C226.448 61.336 225.496 61.0467 224.749 60.748C224.021 60.4493 223.387 59.992 222.845 59.376C222.323 58.76 222.061 57.9293 222.061 56.884C222.061 56.0253 222.304 55.2413 222.789 54.532C223.293 53.8227 224.003 53.2627 224.917 52.852C225.851 52.4413 226.943 52.236 228.193 52.236C230.041 52.236 231.516 52.7027 232.617 53.636C233.719 54.5507 234.325 55.792 234.437 57.36H230.685C230.629 56.744 230.368 56.2587 229.901 55.904C229.453 55.5307 228.847 55.344 228.081 55.344C227.372 55.344 226.821 55.4747 226.429 55.736C226.056 55.9973 225.869 56.3613 225.869 56.828C225.869 57.3507 226.131 57.752 226.653 58.032C227.176 58.2933 227.988 58.564 229.089 58.844C230.209 59.124 231.133 59.4133 231.861 59.712C232.589 60.0107 233.215 60.4773 233.737 61.112C234.279 61.728 234.559 62.5493 234.577 63.576C234.577 64.472 234.325 65.2747 233.821 65.984C233.336 66.6933 232.627 67.2533 231.693 67.664C230.779 68.056 229.705 68.252 228.473 68.252ZM244.683 68.252C243.19 68.252 241.846 67.9253 240.651 67.272C239.457 66.6 238.514 65.6573 237.823 64.444C237.151 63.2307 236.815 61.8307 236.815 60.244C236.815 58.6573 237.161 57.2573 237.851 56.044C238.561 54.8307 239.522 53.8973 240.735 53.244C241.949 52.572 243.302 52.236 244.795 52.236C246.289 52.236 247.642 52.572 248.855 53.244C250.069 53.8973 251.021 54.8307 251.711 56.044C252.421 57.2573 252.775 58.6573 252.775 60.244C252.775 61.8307 252.411 63.2307 251.683 64.444C250.974 65.6573 250.003 66.6 248.771 67.272C247.558 67.9253 246.195 68.252 244.683 68.252ZM244.683 64.836C245.393 64.836 246.055 64.668 246.671 64.332C247.306 63.9773 247.81 63.4547 248.183 62.764C248.557 62.0733 248.743 61.2333 248.743 60.244C248.743 58.7693 248.351 57.64 247.567 56.856C246.802 56.0533 245.859 55.652 244.739 55.652C243.619 55.652 242.677 56.0533 241.911 56.856C241.165 57.64 240.791 58.7693 240.791 60.244C240.791 61.7187 241.155 62.8573 241.883 63.66C242.63 64.444 243.563 64.836 244.683 64.836ZM264.247 52.264C266.095 52.264 267.588 52.852 268.727 54.028C269.865 55.1853 270.435 56.8093 270.435 58.9V68H266.515V59.432C266.515 58.2 266.207 57.2573 265.591 56.604C264.975 55.932 264.135 55.596 263.071 55.596C261.988 55.596 261.129 55.932 260.495 56.604C259.879 57.2573 259.571 58.2 259.571 59.432V68H255.651V52.488H259.571V54.42C260.093 53.748 260.756 53.2253 261.559 52.852C262.38 52.46 263.276 52.264 264.247 52.264Z" fill="#1A1E26"/>
<path d="M44.768 158.112C44.032 158.112 43.3707 157.984 42.784 157.728C42.208 157.461 41.7547 157.099 41.424 156.64C41.0933 156.171 40.9227 155.632 40.912 155.024H42.464C42.5173 155.547 42.7307 155.989 43.104 156.352C43.488 156.704 44.0427 156.88 44.768 156.88C45.4613 156.88 46.0053 156.709 46.4 156.368C46.8053 156.016 47.008 155.568 47.008 155.024C47.008 154.597 46.8907 154.251 46.656 153.984C46.4213 153.717 46.128 153.515 45.776 153.376C45.424 153.237 44.9493 153.088 44.352 152.928C43.616 152.736 43.024 152.544 42.576 152.352C42.1387 152.16 41.76 151.861 41.44 151.456C41.1307 151.04 40.976 150.485 40.976 149.792C40.976 149.184 41.1307 148.645 41.44 148.176C41.7493 147.707 42.1813 147.344 42.736 147.088C43.3013 146.832 43.9467 146.704 44.672 146.704C45.7173 146.704 46.5707 146.965 47.232 147.488C47.904 148.011 48.2827 148.704 48.368 149.568H46.768C46.7147 149.141 46.4907 148.768 46.096 148.448C45.7013 148.117 45.1787 147.952 44.528 147.952C43.92 147.952 43.424 148.112 43.04 148.432C42.656 148.741 42.464 149.179 42.464 149.744C42.464 150.149 42.576 150.48 42.8 150.736C43.0347 150.992 43.3173 151.189 43.648 151.328C43.9893 151.456 44.464 151.605 45.072 151.776C45.808 151.979 46.4 152.181 46.848 152.384C47.296 152.576 47.68 152.88 48 153.296C48.32 153.701 48.48 154.256 48.48 154.96C48.48 155.504 48.336 156.016 48.048 156.496C47.76 156.976 47.3333 157.365 46.768 157.664C46.2027 157.963 45.536 158.112 44.768 158.112ZM51.3746 147.808C51.0973 147.808 50.8626 147.712 50.6706 147.52C50.4786 147.328 50.3826 147.093 50.3826 146.816C50.3826 146.539 50.4786 146.304 50.6706 146.112C50.8626 145.92 51.0973 145.824 51.3746 145.824C51.6413 145.824 51.8653 145.92 52.0466 146.112C52.2386 146.304 52.3346 146.539 52.3346 146.816C52.3346 147.093 52.2386 147.328 52.0466 147.52C51.8653 147.712 51.6413 147.808 51.3746 147.808ZM52.0786 149.232V158H50.6226V149.232H52.0786ZM58.8321 149.072C59.8988 149.072 60.7628 149.397 61.4241 150.048C62.0855 150.688 62.4161 151.616 62.4161 152.832V158H60.9761V153.04C60.9761 152.165 60.7575 151.499 60.3201 151.04C59.8828 150.571 59.2855 150.336 58.5281 150.336C57.7601 150.336 57.1468 150.576 56.6881 151.056C56.2401 151.536 56.0161 152.235 56.0161 153.152V158H54.5601V149.232H56.0161V150.48C56.3041 150.032 56.6935 149.685 57.1841 149.44C57.6855 149.195 58.2348 149.072 58.8321 149.072ZM64.2505 153.6C64.2505 152.693 64.4318 151.904 64.7945 151.232C65.1572 150.549 65.6585 150.021 66.2985 149.648C66.9492 149.275 67.6905 149.088 68.5225 149.088C69.5998 149.088 70.4852 149.349 71.1785 149.872C71.8825 150.395 72.3465 151.12 72.5705 152.048H71.0025C70.8532 151.515 70.5598 151.093 70.1225 150.784C69.6958 150.475 69.1625 150.32 68.5225 150.32C67.6905 150.32 67.0185 150.608 66.5065 151.184C65.9945 151.749 65.7385 152.555 65.7385 153.6C65.7385 154.656 65.9945 155.472 66.5065 156.048C67.0185 156.624 67.6905 156.912 68.5225 156.912C69.1625 156.912 69.6958 156.763 70.1225 156.464C70.5492 156.165 70.8425 155.739 71.0025 155.184H72.5705C72.3358 156.08 71.8665 156.8 71.1625 157.344C70.4585 157.877 69.5785 158.144 68.5225 158.144C67.6905 158.144 66.9492 157.957 66.2985 157.584C65.6585 157.211 65.1572 156.683 64.7945 156C64.4318 155.317 64.2505 154.517 64.2505 153.6ZM82.5133 153.28C82.5133 153.557 82.4973 153.851 82.4653 154.16H75.4573C75.5106 155.024 75.8039 155.701 76.3373 156.192C76.8813 156.672 77.5373 156.912 78.3053 156.912C78.9346 156.912 79.4573 156.768 79.8733 156.48C80.2999 156.181 80.5986 155.787 80.7693 155.296H82.3373C82.1026 156.139 81.6333 156.827 80.9293 157.36C80.2253 157.883 79.3506 158.144 78.3053 158.144C77.4733 158.144 76.7266 157.957 76.0653 157.584C75.4146 157.211 74.9026 156.683 74.5293 156C74.1559 155.307 73.9693 154.507 73.9693 153.6C73.9693 152.693 74.1506 151.899 74.5133 151.216C74.8759 150.533 75.3826 150.011 76.0333 149.648C76.6946 149.275 77.4519 149.088 78.3053 149.088C79.1373 149.088 79.8733 149.269 80.5133 149.632C81.1533 149.995 81.6439 150.496 81.9853 151.136C82.3373 151.765 82.5133 152.48 82.5133 153.28ZM81.0093 152.976C81.0093 152.421 80.8866 151.947 80.6413 151.552C80.3959 151.147 80.0599 150.843 79.6333 150.64C79.2173 150.427 78.7533 150.32 78.2413 150.32C77.5053 150.32 76.8759 150.555 76.3533 151.024C75.8413 151.493 75.5479 152.144 75.4733 152.976H81.0093ZM95.8368 147.696H90.2208V151.344C90.4661 151.003 90.8288 150.725 91.3088 150.512C91.7888 150.288 92.3061 150.176 92.8608 150.176C93.7461 150.176 94.4661 150.363 95.0208 150.736C95.5754 151.099 95.9701 151.573 96.2048 152.16C96.4501 152.736 96.5728 153.349 96.5728 154C96.5728 154.768 96.4288 155.456 96.1408 156.064C95.8528 156.672 95.4101 157.152 94.8128 157.504C94.2261 157.856 93.4954 158.032 92.6208 158.032C91.5008 158.032 90.5941 157.744 89.9008 157.168C89.2074 156.592 88.7861 155.824 88.6368 154.864H90.0608C90.1994 155.472 90.4928 155.947 90.9408 156.288C91.3888 156.629 91.9541 156.8 92.6368 156.8C93.4794 156.8 94.1141 156.549 94.5408 156.048C94.9674 155.536 95.1808 154.864 95.1808 154.032C95.1808 153.2 94.9674 152.56 94.5408 152.112C94.1141 151.653 93.4848 151.424 92.6528 151.424C92.0874 151.424 91.5914 151.563 91.1648 151.84C90.7488 152.107 90.4448 152.475 90.2528 152.944H88.8768V146.416H95.8368V147.696ZM109.605 155.52H104.741L103.845 158H102.309L106.341 146.912H108.021L112.037 158H110.501L109.605 155.52ZM109.189 154.336L107.173 148.704L105.157 154.336H109.189ZM115.251 150.848C115.539 150.347 115.965 149.931 116.531 149.6C117.107 149.259 117.773 149.088 118.531 149.088C119.309 149.088 120.013 149.275 120.642 149.648C121.282 150.021 121.784 150.549 122.147 151.232C122.509 151.904 122.691 152.688 122.691 153.584C122.691 154.469 122.509 155.259 122.147 155.952C121.784 156.645 121.282 157.184 120.642 157.568C120.013 157.952 119.309 158.144 118.531 158.144C117.784 158.144 117.123 157.979 116.547 157.648C115.981 157.307 115.549 156.885 115.251 156.384V162.16H113.795V149.232H115.251V150.848ZM121.203 153.584C121.203 152.923 121.069 152.347 120.803 151.856C120.536 151.365 120.173 150.992 119.715 150.736C119.267 150.48 118.771 150.352 118.227 150.352C117.693 150.352 117.197 150.485 116.739 150.752C116.291 151.008 115.928 151.387 115.651 151.888C115.384 152.379 115.251 152.949 115.251 153.6C115.251 154.261 115.384 154.843 115.651 155.344C115.928 155.835 116.291 156.213 116.739 156.48C117.197 156.736 117.693 156.864 118.227 156.864C118.771 156.864 119.267 156.736 119.715 156.48C120.173 156.213 120.536 155.835 120.803 155.344C121.069 154.843 121.203 154.256 121.203 153.584ZM126.063 150.656C126.319 150.155 126.682 149.765 127.151 149.488C127.631 149.211 128.212 149.072 128.895 149.072V150.576H128.511C126.879 150.576 126.063 151.461 126.063 153.232V158H124.607V149.232H126.063V150.656ZM131.328 147.808C131.05 147.808 130.816 147.712 130.624 147.52C130.432 147.328 130.336 147.093 130.336 146.816C130.336 146.539 130.432 146.304 130.624 146.112C130.816 145.92 131.05 145.824 131.328 145.824C131.594 145.824 131.818 145.92 132 146.112C132.192 146.304 132.288 146.539 132.288 146.816C132.288 147.093 132.192 147.328 132 147.52C131.818 147.712 131.594 147.808 131.328 147.808ZM132.032 149.232V158H130.576V149.232H132.032ZM135.969 146.16V158H134.513V146.16H135.969ZM139.955 155.984L138.163 160.288H137.187L138.355 155.984H139.955ZM145.472 156.832C146.827 155.744 147.888 154.853 148.656 154.16C149.424 153.456 150.07 152.725 150.592 151.968C151.126 151.2 151.392 150.448 151.392 149.712C151.392 149.019 151.222 148.475 150.88 148.08C150.55 147.675 150.011 147.472 149.264 147.472C148.539 147.472 147.974 147.701 147.568 148.16C147.174 148.608 146.96 149.211 146.928 149.968H145.52C145.563 148.773 145.926 147.851 146.608 147.2C147.291 146.549 148.171 146.224 149.248 146.224C150.347 146.224 151.216 146.528 151.856 147.136C152.507 147.744 152.832 148.581 152.832 149.648C152.832 150.533 152.566 151.397 152.032 152.24C151.51 153.072 150.912 153.808 150.24 154.448C149.568 155.077 148.71 155.813 147.664 156.656H153.168V157.872H145.472V156.832ZM154.851 152.096C154.851 150.261 155.15 148.832 155.747 147.808C156.345 146.773 157.39 146.256 158.883 146.256C160.366 146.256 161.406 146.773 162.003 147.808C162.601 148.832 162.899 150.261 162.899 152.096C162.899 153.963 162.601 155.413 162.003 156.448C161.406 157.483 160.366 158 158.883 158C157.39 158 156.345 157.483 155.747 156.448C155.15 155.413 154.851 153.963 154.851 152.096ZM161.459 152.096C161.459 151.168 161.395 150.384 161.267 149.744C161.15 149.093 160.899 148.571 160.515 148.176C160.142 147.781 159.598 147.584 158.883 147.584C158.158 147.584 157.603 147.781 157.219 148.176C156.846 148.571 156.595 149.093 156.467 149.744C156.35 150.384 156.291 151.168 156.291 152.096C156.291 153.056 156.35 153.861 156.467 154.512C156.595 155.163 156.846 155.685 157.219 156.08C157.603 156.475 158.158 156.672 158.883 156.672C159.598 156.672 160.142 156.475 160.515 156.08C160.899 155.685 161.15 155.163 161.267 154.512C161.395 153.861 161.459 153.056 161.459 152.096ZM164.722 156.832C166.077 155.744 167.138 154.853 167.906 154.16C168.674 153.456 169.32 152.725 169.842 151.968C170.376 151.2 170.642 150.448 170.642 149.712C170.642 149.019 170.472 148.475 170.13 148.08C169.8 147.675 169.261 147.472 168.514 147.472C167.789 147.472 167.224 147.701 166.818 148.16C166.424 148.608 166.21 149.211 166.178 149.968H164.77C164.813 148.773 165.176 147.851 165.858 147.2C166.541 146.549 167.421 146.224 168.498 146.224C169.597 146.224 170.466 146.528 171.106 147.136C171.757 147.744 172.082 148.581 172.082 149.648C172.082 150.533 171.816 151.397 171.282 152.24C170.76 153.072 170.162 153.808 169.49 154.448C168.818 155.077 167.96 155.813 166.914 156.656H172.418V157.872H164.722V156.832ZM173.749 155.424V154.32L179.365 146.544H181.109V154.16H182.709V155.424H181.109V158H179.669V155.424H173.749ZM179.733 148.064L175.429 154.16H179.733V148.064Z" fill="#6E7E9E"/>
<path d="M50.404 265.324C50.404 265.996 50.242 266.626 49.918 267.214C49.606 267.802 49.108 268.276 48.424 268.636C47.752 268.996 46.9 269.176 45.868 269.176H43.762V274H41.242V261.436H45.868C46.84 261.436 47.668 261.604 48.352 261.94C49.036 262.276 49.546 262.738 49.882 263.326C50.23 263.914 50.404 264.58 50.404 265.324ZM45.76 267.142C46.456 267.142 46.972 266.986 47.308 266.674C47.644 266.35 47.812 265.9 47.812 265.324C47.812 264.1 47.128 263.488 45.76 263.488H43.762V267.142H45.76ZM61.4632 268.798C61.4632 269.158 61.4392 269.482 61.3912 269.77H54.1012C54.1612 270.49 54.4132 271.054 54.8572 271.462C55.3012 271.87 55.8472 272.074 56.4952 272.074C57.4312 272.074 58.0972 271.672 58.4932 270.868H61.2112C60.9232 271.828 60.3712 272.62 59.5552 273.244C58.7392 273.856 57.7372 274.162 56.5492 274.162C55.5892 274.162 54.7252 273.952 53.9572 273.532C53.2012 273.1 52.6072 272.494 52.1752 271.714C51.7552 270.934 51.5452 270.034 51.5452 269.014C51.5452 267.982 51.7552 267.076 52.1752 266.296C52.5952 265.516 53.1832 264.916 53.9392 264.496C54.6952 264.076 55.5652 263.866 56.5492 263.866C57.4972 263.866 58.3432 264.07 59.0872 264.478C59.8432 264.886 60.4252 265.468 60.8332 266.224C61.2532 266.968 61.4632 267.826 61.4632 268.798ZM58.8532 268.078C58.8412 267.43 58.6072 266.914 58.1512 266.53C57.6952 266.134 57.1372 265.936 56.4772 265.936C55.8532 265.936 55.3252 266.128 54.8932 266.512C54.4732 266.884 54.2152 267.406 54.1192 268.078H58.8532ZM65.8225 265.576C66.1465 265.048 66.5665 264.634 67.0825 264.334C67.6105 264.034 68.2105 263.884 68.8825 263.884V266.53H68.2165C67.4245 266.53 66.8245 266.716 66.4165 267.088C66.0205 267.46 65.8225 268.108 65.8225 269.032V274H63.3025V264.028H65.8225V265.576ZM74.3959 274.162C73.5799 274.162 72.8479 274.018 72.1999 273.73C71.5519 273.43 71.0359 273.028 70.6519 272.524C70.2799 272.02 70.0759 271.462 70.0399 270.85H72.5779C72.6259 271.234 72.8119 271.552 73.1359 271.804C73.4719 272.056 73.8859 272.182 74.3779 272.182C74.8579 272.182 75.2299 272.086 75.4939 271.894C75.7699 271.702 75.9079 271.456 75.9079 271.156C75.9079 270.832 75.7399 270.592 75.4039 270.436C75.0799 270.268 74.5579 270.088 73.8379 269.896C73.0939 269.716 72.4819 269.53 72.0019 269.338C71.5339 269.146 71.1259 268.852 70.7779 268.456C70.4419 268.06 70.2739 267.526 70.2739 266.854C70.2739 266.302 70.4299 265.798 70.7419 265.342C71.0659 264.886 71.5219 264.526 72.1099 264.262C72.7099 263.998 73.4119 263.866 74.2159 263.866C75.4039 263.866 76.3519 264.166 77.0599 264.766C77.7679 265.354 78.1579 266.152 78.2299 267.16H75.8179C75.7819 266.764 75.6139 266.452 75.3139 266.224C75.0259 265.984 74.6359 265.864 74.1439 265.864C73.6879 265.864 73.3339 265.948 73.0819 266.116C72.8419 266.284 72.7219 266.518 72.7219 266.818C72.7219 267.154 72.8899 267.412 73.2259 267.592C73.5619 267.76 74.0839 267.934 74.7919 268.114C75.5119 268.294 76.1059 268.48 76.5739 268.672C77.0419 268.864 77.4439 269.164 77.7799 269.572C78.1279 269.968 78.3079 270.496 78.3199 271.156C78.3199 271.732 78.1579 272.248 77.8339 272.704C77.5219 273.16 77.0659 273.52 76.4659 273.784C75.8779 274.036 75.1879 274.162 74.3959 274.162ZM84.8165 274.162C83.8565 274.162 82.9925 273.952 82.2245 273.532C81.4565 273.1 80.8505 272.494 80.4065 271.714C79.9745 270.934 79.7585 270.034 79.7585 269.014C79.7585 267.994 79.9805 267.094 80.4245 266.314C80.8805 265.534 81.4985 264.934 82.2785 264.514C83.0585 264.082 83.9285 263.866 84.8885 263.866C85.8485 263.866 86.7185 264.082 87.4985 264.514C88.2785 264.934 88.8905 265.534 89.3345 266.314C89.7905 267.094 90.0185 267.994 90.0185 269.014C90.0185 270.034 89.7845 270.934 89.3165 271.714C88.8605 272.494 88.2365 273.1 87.4445 273.532C86.6645 273.952 85.7885 274.162 84.8165 274.162ZM84.8165 271.966C85.2725 271.966 85.6985 271.858 86.0945 271.642C86.5025 271.414 86.8265 271.078 87.0665 270.634C87.3065 270.19 87.4265 269.65 87.4265 269.014C87.4265 268.066 87.1745 267.34 86.6705 266.836C86.1785 266.32 85.5725 266.062 84.8525 266.062C84.1325 266.062 83.5265 266.32 83.0345 266.836C82.5545 267.34 82.3145 268.066 82.3145 269.014C82.3145 269.962 82.5485 270.694 83.0165 271.21C83.4965 271.714 84.0965 271.966 84.8165 271.966ZM97.393 263.884C98.581 263.884 99.541 264.262 100.273 265.018C101.005 265.762 101.371 266.806 101.371 268.15V274H98.851V268.492C98.851 267.7 98.653 267.094 98.257 266.674C97.861 266.242 97.321 266.026 96.637 266.026C95.941 266.026 95.389 266.242 94.981 266.674C94.585 267.094 94.387 267.7 94.387 268.492V274H91.867V264.028H94.387V265.27C94.723 264.838 95.149 264.502 95.665 264.262C96.193 264.01 96.769 263.884 97.393 263.884ZM103.119 268.978C103.119 267.97 103.317 267.076 103.713 266.296C104.121 265.516 104.667 264.916 105.351 264.496C106.047 264.076 106.821 263.866 107.673 263.866C108.417 263.866 109.065 264.016 109.617 264.316C110.181 264.616 110.631 264.994 110.967 265.45V264.028H113.505V274H110.967V272.542C110.643 273.01 110.193 273.4 109.617 273.712C109.053 274.012 108.399 274.162 107.655 274.162C106.815 274.162 106.047 273.946 105.351 273.514C104.667 273.082 104.121 272.476 103.713 271.696C103.317 270.904 103.119 269.998 103.119 268.978ZM110.967 269.014C110.967 268.402 110.847 267.88 110.607 267.448C110.367 267.004 110.043 266.668 109.635 266.44C109.227 266.2 108.789 266.08 108.321 266.08C107.853 266.08 107.421 266.194 107.025 266.422C106.629 266.65 106.305 266.986 106.053 267.43C105.813 267.862 105.693 268.378 105.693 268.978C105.693 269.578 105.813 270.106 106.053 270.562C106.305 271.006 106.629 271.348 107.025 271.588C107.433 271.828 107.865 271.948 108.321 271.948C108.789 271.948 109.227 271.834 109.635 271.606C110.043 271.366 110.367 271.03 110.607 270.598C110.847 270.154 110.967 269.626 110.967 269.014ZM118.487 260.68V274H115.967V260.68H118.487ZM129.657 261.436C130.977 261.436 132.135 261.694 133.131 262.21C134.139 262.726 134.913 263.464 135.453 264.424C136.005 265.372 136.281 266.476 136.281 267.736C136.281 268.996 136.005 270.1 135.453 271.048C134.913 271.984 134.139 272.71 133.131 273.226C132.135 273.742 130.977 274 129.657 274H125.265V261.436H129.657ZM129.567 271.858C130.887 271.858 131.907 271.498 132.627 270.778C133.347 270.058 133.707 269.044 133.707 267.736C133.707 266.428 133.347 265.408 132.627 264.676C131.907 263.932 130.887 263.56 129.567 263.56H127.785V271.858H129.567ZM147.438 268.798C147.438 269.158 147.414 269.482 147.366 269.77H140.076C140.136 270.49 140.388 271.054 140.832 271.462C141.276 271.87 141.822 272.074 142.47 272.074C143.406 272.074 144.072 271.672 144.468 270.868H147.186C146.898 271.828 146.346 272.62 145.53 273.244C144.714 273.856 143.712 274.162 142.524 274.162C141.564 274.162 140.7 273.952 139.932 273.532C139.176 273.1 138.582 272.494 138.15 271.714C137.73 270.934 137.52 270.034 137.52 269.014C137.52 267.982 137.73 267.076 138.15 266.296C138.57 265.516 139.158 264.916 139.914 264.496C140.67 264.076 141.54 263.866 142.524 263.866C143.472 263.866 144.318 264.07 145.062 264.478C145.818 264.886 146.4 265.468 146.808 266.224C147.228 266.968 147.438 267.826 147.438 268.798ZM144.828 268.078C144.816 267.43 144.582 266.914 144.126 266.53C143.67 266.134 143.112 265.936 142.452 265.936C141.828 265.936 141.3 266.128 140.868 266.512C140.448 266.884 140.19 267.406 140.094 268.078H144.828ZM152.211 266.098V270.922C152.211 271.258 152.289 271.504 152.445 271.66C152.613 271.804 152.889 271.876 153.273 271.876H154.443V274H152.859C150.735 274 149.673 272.968 149.673 270.904V266.098H148.485V264.028H149.673V261.562H152.211V264.028H154.443V266.098H152.211ZM155.608 268.978C155.608 267.97 155.806 267.076 156.202 266.296C156.61 265.516 157.156 264.916 157.84 264.496C158.536 264.076 159.31 263.866 160.162 263.866C160.906 263.866 161.554 264.016 162.106 264.316C162.67 264.616 163.12 264.994 163.456 265.45V264.028H165.994V274H163.456V272.542C163.132 273.01 162.682 273.4 162.106 273.712C161.542 274.012 160.888 274.162 160.144 274.162C159.304 274.162 158.536 273.946 157.84 273.514C157.156 273.082 156.61 272.476 156.202 271.696C155.806 270.904 155.608 269.998 155.608 268.978ZM163.456 269.014C163.456 268.402 163.336 267.88 163.096 267.448C162.856 267.004 162.532 266.668 162.124 266.44C161.716 266.2 161.278 266.08 160.81 266.08C160.342 266.08 159.91 266.194 159.514 266.422C159.118 266.65 158.794 266.986 158.542 267.43C158.302 267.862 158.182 268.378 158.182 268.978C158.182 269.578 158.302 270.106 158.542 270.562C158.794 271.006 159.118 271.348 159.514 271.588C159.922 271.828 160.354 271.948 160.81 271.948C161.278 271.948 161.716 271.834 162.124 271.606C162.532 271.366 162.856 271.03 163.096 270.598C163.336 270.154 163.456 269.626 163.456 269.014ZM169.733 262.84C169.289 262.84 168.917 262.702 168.617 262.426C168.329 262.138 168.185 261.784 168.185 261.364C168.185 260.944 168.329 260.596 168.617 260.32C168.917 260.032 169.289 259.888 169.733 259.888C170.177 259.888 170.543 260.032 170.831 260.32C171.131 260.596 171.281 260.944 171.281 261.364C171.281 261.784 171.131 262.138 170.831 262.426C170.543 262.702 170.177 262.84 169.733 262.84ZM170.975 264.028V274H168.455V264.028H170.975ZM175.985 260.68V274H173.465V260.68H175.985ZM182.29 274.162C181.474 274.162 180.742 274.018 180.094 273.73C179.446 273.43 178.93 273.028 178.546 272.524C178.174 272.02 177.97 271.462 177.934 270.85H180.472C180.52 271.234 180.706 271.552 181.03 271.804C181.366 272.056 181.78 272.182 182.272 272.182C182.752 272.182 183.124 272.086 183.388 271.894C183.664 271.702 183.802 271.456 183.802 271.156C183.802 270.832 183.634 270.592 183.298 270.436C182.974 270.268 182.452 270.088 181.732 269.896C180.988 269.716 180.376 269.53 179.896 269.338C179.428 269.146 179.02 268.852 178.672 268.456C178.336 268.06 178.168 267.526 178.168 266.854C178.168 266.302 178.324 265.798 178.636 265.342C178.96 264.886 179.416 264.526 180.004 264.262C180.604 263.998 181.306 263.866 182.11 263.866C183.298 263.866 184.246 264.166 184.954 264.766C185.662 265.354 186.052 266.152 186.124 267.16H183.712C183.676 266.764 183.508 266.452 183.208 266.224C182.92 265.984 182.53 265.864 182.038 265.864C181.582 265.864 181.228 265.948 180.976 266.116C180.736 266.284 180.616 266.518 180.616 266.818C180.616 267.154 180.784 267.412 181.12 267.592C181.456 267.76 181.978 267.934 182.686 268.114C183.406 268.294 184 268.48 184.468 268.672C184.936 268.864 185.338 269.164 185.674 269.572C186.022 269.968 186.202 270.496 186.214 271.156C186.214 271.732 186.052 272.248 185.728 272.704C185.416 273.16 184.96 273.52 184.36 273.784C183.772 274.036 183.082 274.162 182.29 274.162Z" fill="#1A1E26"/>
<path d="M47.536 318.848V320.032H42.688V323.792H46.624V324.976H42.688V330H41.232V318.848H47.536ZM50.0465 319.808C49.7692 319.808 49.5345 319.712 49.3425 319.52C49.1505 319.328 49.0545 319.093 49.0545 318.816C49.0545 318.539 49.1505 318.304 49.3425 318.112C49.5345 317.92 49.7692 317.824 50.0465 317.824C50.3132 317.824 50.5372 317.92 50.7185 318.112C50.9105 318.304 51.0065 318.539 51.0065 318.816C51.0065 319.093 50.9105 319.328 50.7185 319.52C50.5372 319.712 50.3132 319.808 50.0465 319.808ZM50.7505 321.232V330H49.2945V321.232H50.7505ZM54.688 322.656C54.944 322.155 55.3067 321.765 55.776 321.488C56.256 321.211 56.8373 321.072 57.52 321.072V322.576H57.136C55.504 322.576 54.688 323.461 54.688 325.232V330H53.232V321.232H54.688V322.656ZM62.3048 330.144C61.6328 330.144 61.0301 330.032 60.4968 329.808C59.9634 329.573 59.5421 329.253 59.2328 328.848C58.9234 328.432 58.7528 327.957 58.7208 327.424H60.2248C60.2674 327.861 60.4701 328.219 60.8328 328.496C61.2061 328.773 61.6914 328.912 62.2888 328.912C62.8434 328.912 63.2808 328.789 63.6008 328.544C63.9208 328.299 64.0808 327.989 64.0808 327.616C64.0808 327.232 63.9101 326.949 63.5688 326.768C63.2274 326.576 62.6994 326.389 61.9848 326.208C61.3341 326.037 60.8008 325.867 60.3848 325.696C59.9794 325.515 59.6274 325.253 59.3288 324.912C59.0408 324.56 58.8968 324.101 58.8968 323.536C58.8968 323.088 59.0301 322.677 59.2968 322.304C59.5634 321.931 59.9421 321.637 60.4328 321.424C60.9234 321.2 61.4834 321.088 62.1128 321.088C63.0834 321.088 63.8674 321.333 64.4648 321.824C65.0621 322.315 65.3821 322.987 65.4248 323.84H63.9688C63.9368 323.381 63.7501 323.013 63.4088 322.736C63.0781 322.459 62.6301 322.32 62.0648 322.32C61.5421 322.32 61.1261 322.432 60.8168 322.656C60.5074 322.88 60.3528 323.173 60.3528 323.536C60.3528 323.824 60.4434 324.064 60.6248 324.256C60.8168 324.437 61.0514 324.587 61.3288 324.704C61.6168 324.811 62.0114 324.933 62.5128 325.072C63.1421 325.243 63.6541 325.413 64.0488 325.584C64.4434 325.744 64.7794 325.989 65.0568 326.32C65.3448 326.651 65.4941 327.083 65.5048 327.616C65.5048 328.096 65.3714 328.528 65.1048 328.912C64.8381 329.296 64.4594 329.6 63.9688 329.824C63.4888 330.037 62.9341 330.144 62.3048 330.144ZM69.3361 322.432V327.6C69.3361 328.027 69.4268 328.331 69.6081 328.512C69.7895 328.683 70.1041 328.768 70.5521 328.768H71.6241V330H70.3121C69.5015 330 68.8935 329.813 68.4881 329.44C68.0828 329.067 67.8801 328.453 67.8801 327.6V322.432H66.7441V321.232H67.8801V319.024H69.3361V321.232H71.6241V322.432H69.3361ZM81.9259 321.072C82.9925 321.072 83.8565 321.397 84.5179 322.048C85.1792 322.688 85.5099 323.616 85.5099 324.832V330H84.0699V325.04C84.0699 324.165 83.8512 323.499 83.4139 323.04C82.9765 322.571 82.3792 322.336 81.6219 322.336C80.8539 322.336 80.2405 322.576 79.7819 323.056C79.3339 323.536 79.1099 324.235 79.1099 325.152V330H77.6539V321.232H79.1099V322.48C79.3979 322.032 79.7872 321.685 80.2779 321.44C80.7792 321.195 81.3285 321.072 81.9259 321.072ZM87.3443 325.584C87.3443 324.688 87.5256 323.904 87.8883 323.232C88.2509 322.549 88.7469 322.021 89.3763 321.648C90.0163 321.275 90.7256 321.088 91.5043 321.088C92.2723 321.088 92.9389 321.253 93.5043 321.584C94.0696 321.915 94.4909 322.331 94.7683 322.832V321.232H96.2403V330H94.7683V328.368C94.4803 328.88 94.0483 329.307 93.4723 329.648C92.9069 329.979 92.2456 330.144 91.4883 330.144C90.7096 330.144 90.0056 329.952 89.3763 329.568C88.7469 329.184 88.2509 328.645 87.8883 327.952C87.5256 327.259 87.3443 326.469 87.3443 325.584ZM94.7683 325.6C94.7683 324.939 94.6349 324.363 94.3683 323.872C94.1016 323.381 93.7389 323.008 93.2803 322.752C92.8323 322.485 92.3363 322.352 91.7923 322.352C91.2483 322.352 90.7523 322.48 90.3043 322.736C89.8563 322.992 89.4989 323.365 89.2323 323.856C88.9656 324.347 88.8323 324.923 88.8323 325.584C88.8323 326.256 88.9656 326.843 89.2323 327.344C89.4989 327.835 89.8563 328.213 90.3043 328.48C90.7523 328.736 91.2483 328.864 91.7923 328.864C92.3363 328.864 92.8323 328.736 93.2803 328.48C93.7389 328.213 94.1016 327.835 94.3683 327.344C94.6349 326.843 94.7683 326.261 94.7683 325.6ZM109.245 321.072C109.927 321.072 110.535 321.216 111.069 321.504C111.602 321.781 112.023 322.203 112.333 322.768C112.642 323.333 112.797 324.021 112.797 324.832V330H111.357V325.04C111.357 324.165 111.138 323.499 110.701 323.04C110.274 322.571 109.693 322.336 108.957 322.336C108.199 322.336 107.597 322.581 107.149 323.072C106.701 323.552 106.477 324.251 106.477 325.168V330H105.037V325.04C105.037 324.165 104.818 323.499 104.381 323.04C103.954 322.571 103.373 322.336 102.637 322.336C101.879 322.336 101.277 322.581 100.829 323.072C100.381 323.552 100.157 324.251 100.157 325.168V330H98.7008V321.232H100.157V322.496C100.445 322.037 100.829 321.685 101.309 321.44C101.799 321.195 102.338 321.072 102.925 321.072C103.661 321.072 104.311 321.237 104.877 321.568C105.442 321.899 105.863 322.384 106.141 323.024C106.386 322.405 106.791 321.925 107.357 321.584C107.922 321.243 108.551 321.072 109.245 321.072ZM123.185 325.28C123.185 325.557 123.169 325.851 123.137 326.16H116.129C116.182 327.024 116.476 327.701 117.009 328.192C117.553 328.672 118.209 328.912 118.977 328.912C119.606 328.912 120.129 328.768 120.545 328.48C120.972 328.181 121.27 327.787 121.441 327.296H123.009C122.774 328.139 122.305 328.827 121.601 329.36C120.897 329.883 120.022 330.144 118.977 330.144C118.145 330.144 117.398 329.957 116.737 329.584C116.086 329.211 115.574 328.683 115.201 328C114.828 327.307 114.641 326.507 114.641 325.6C114.641 324.693 114.822 323.899 115.185 323.216C115.548 322.533 116.054 322.011 116.705 321.648C117.366 321.275 118.124 321.088 118.977 321.088C119.809 321.088 120.545 321.269 121.185 321.632C121.825 321.995 122.316 322.496 122.657 323.136C123.009 323.765 123.185 324.48 123.185 325.28ZM121.681 324.976C121.681 324.421 121.558 323.947 121.313 323.552C121.068 323.147 120.732 322.843 120.305 322.64C119.889 322.427 119.425 322.32 118.913 322.32C118.177 322.32 117.548 322.555 117.025 323.024C116.513 323.493 116.22 324.144 116.145 324.976H121.681ZM125.571 330.096C125.294 330.096 125.059 330 124.867 329.808C124.675 329.616 124.579 329.381 124.579 329.104C124.579 328.827 124.675 328.592 124.867 328.4C125.059 328.208 125.294 328.112 125.571 328.112C125.838 328.112 126.062 328.208 126.243 328.4C126.435 328.592 126.531 328.827 126.531 329.104C126.531 329.381 126.435 329.616 126.243 329.808C126.062 330 125.838 330.096 125.571 330.096ZM125.571 323.248C125.294 323.248 125.059 323.152 124.867 322.96C124.675 322.768 124.579 322.533 124.579 322.256C124.579 321.979 124.675 321.744 124.867 321.552C125.059 321.36 125.294 321.264 125.571 321.264C125.838 321.264 126.062 321.36 126.243 321.552C126.435 321.744 126.531 321.979 126.531 322.256C126.531 322.533 126.435 322.768 126.243 322.96C126.062 323.152 125.838 323.248 125.571 323.248Z" fill="#6E7E9E"/>
<path d="M176.704 318.848C177.92 318.848 178.971 319.077 179.856 319.536C180.752 319.984 181.435 320.629 181.904 321.472C182.384 322.315 182.624 323.307 182.624 324.448C182.624 325.589 182.384 326.581 181.904 327.424C181.435 328.256 180.752 328.896 179.856 329.344C178.971 329.781 177.92 330 176.704 330H173.232V318.848H176.704ZM176.704 328.8C178.144 328.8 179.243 328.421 180 327.664C180.757 326.896 181.136 325.824 181.136 324.448C181.136 323.061 180.752 321.979 179.984 321.2C179.227 320.421 178.133 320.032 176.704 320.032H174.688V328.8H176.704ZM184.001 325.584C184.001 324.688 184.182 323.904 184.545 323.232C184.907 322.549 185.403 322.021 186.033 321.648C186.673 321.275 187.382 321.088 188.161 321.088C188.929 321.088 189.595 321.253 190.161 321.584C190.726 321.915 191.147 322.331 191.425 322.832V321.232H192.897V330H191.425V328.368C191.137 328.88 190.705 329.307 190.129 329.648C189.563 329.979 188.902 330.144 188.145 330.144C187.366 330.144 186.662 329.952 186.033 329.568C185.403 329.184 184.907 328.645 184.545 327.952C184.182 327.259 184.001 326.469 184.001 325.584ZM191.425 325.6C191.425 324.939 191.291 324.363 191.025 323.872C190.758 323.381 190.395 323.008 189.937 322.752C189.489 322.485 188.993 322.352 188.449 322.352C187.905 322.352 187.409 322.48 186.961 322.736C186.513 322.992 186.155 323.365 185.889 323.856C185.622 324.347 185.489 324.923 185.489 325.584C185.489 326.256 185.622 326.843 185.889 327.344C186.155 327.835 186.513 328.213 186.961 328.48C187.409 328.736 187.905 328.864 188.449 328.864C188.993 328.864 189.489 328.736 189.937 328.48C190.395 328.213 190.758 327.835 191.025 327.344C191.291 326.843 191.425 326.261 191.425 325.6ZM200.253 330L196.813 326.128V330H195.357V318.16H196.813V325.12L200.189 321.232H202.221L198.093 325.6L202.237 330H200.253ZM207.415 330.144C206.594 330.144 205.847 329.957 205.175 329.584C204.514 329.211 203.991 328.683 203.607 328C203.234 327.307 203.047 326.507 203.047 325.6C203.047 324.704 203.239 323.915 203.623 323.232C204.018 322.539 204.551 322.011 205.223 321.648C205.895 321.275 206.647 321.088 207.479 321.088C208.311 321.088 209.063 321.275 209.735 321.648C210.407 322.011 210.935 322.533 211.319 323.216C211.714 323.899 211.911 324.693 211.911 325.6C211.911 326.507 211.709 327.307 211.303 328C210.909 328.683 210.37 329.211 209.687 329.584C209.005 329.957 208.247 330.144 207.415 330.144ZM207.415 328.864C207.938 328.864 208.429 328.741 208.887 328.496C209.346 328.251 209.714 327.883 209.991 327.392C210.279 326.901 210.423 326.304 210.423 325.6C210.423 324.896 210.285 324.299 210.007 323.808C209.73 323.317 209.367 322.955 208.919 322.72C208.471 322.475 207.986 322.352 207.463 322.352C206.93 322.352 206.439 322.475 205.991 322.72C205.554 322.955 205.202 323.317 204.935 323.808C204.669 324.299 204.535 324.896 204.535 325.6C204.535 326.315 204.663 326.917 204.919 327.408C205.186 327.899 205.538 328.267 205.975 328.512C206.413 328.747 206.893 328.864 207.415 328.864ZM215.602 322.432V327.6C215.602 328.027 215.692 328.331 215.874 328.512C216.055 328.683 216.37 328.768 216.818 328.768H217.89V330H216.578C215.767 330 215.159 329.813 214.754 329.44C214.348 329.067 214.146 328.453 214.146 327.6V322.432H213.01V321.232H214.146V319.024H215.602V321.232H217.89V322.432H215.602ZM219.11 325.584C219.11 324.688 219.291 323.904 219.654 323.232C220.017 322.549 220.513 322.021 221.142 321.648C221.782 321.275 222.491 321.088 223.27 321.088C224.038 321.088 224.705 321.253 225.27 321.584C225.835 321.915 226.257 322.331 226.534 322.832V321.232H228.006V330H226.534V328.368C226.246 328.88 225.814 329.307 225.238 329.648C224.673 329.979 224.011 330.144 223.254 330.144C222.475 330.144 221.771 329.952 221.142 329.568C220.513 329.184 220.017 328.645 219.654 327.952C219.291 327.259 219.11 326.469 219.11 325.584ZM226.534 325.6C226.534 324.939 226.401 324.363 226.134 323.872C225.867 323.381 225.505 323.008 225.046 322.752C224.598 322.485 224.102 322.352 223.558 322.352C223.014 322.352 222.518 322.48 222.07 322.736C221.622 322.992 221.265 323.365 220.998 323.856C220.731 324.347 220.598 324.923 220.598 325.584C220.598 326.256 220.731 326.843 220.998 327.344C221.265 327.835 221.622 328.213 222.07 328.48C222.518 328.736 223.014 328.864 223.558 328.864C224.102 328.864 224.598 328.736 225.046 328.48C225.505 328.213 225.867 327.835 226.134 327.344C226.401 326.843 226.534 326.261 226.534 325.6Z" fill="#6E7E9E"/>
<line x1="40" y1="351.5" x2="472" y2="351.5" stroke="#E1E4EB"/>
<path d="M42.688 384.816H46.592V386H41.232V374.848H42.688V384.816ZM47.5943 381.584C47.5943 380.688 47.7756 379.904 48.1383 379.232C48.5009 378.549 48.9969 378.021 49.6263 377.648C50.2663 377.275 50.9756 377.088 51.7543 377.088C52.5223 377.088 53.1889 377.253 53.7543 377.584C54.3196 377.915 54.7409 378.331 55.0183 378.832V377.232H56.4903V386H55.0183V384.368C54.7303 384.88 54.2983 385.307 53.7223 385.648C53.1569 385.979 52.4956 386.144 51.7383 386.144C50.9596 386.144 50.2556 385.952 49.6263 385.568C48.9969 385.184 48.5009 384.645 48.1383 383.952C47.7756 383.259 47.5943 382.469 47.5943 381.584ZM55.0183 381.6C55.0183 380.939 54.8849 380.363 54.6183 379.872C54.3516 379.381 53.9889 379.008 53.5303 378.752C53.0823 378.485 52.5863 378.352 52.0423 378.352C51.4983 378.352 51.0023 378.48 50.5543 378.736C50.1063 378.992 49.7489 379.365 49.4823 379.856C49.2156 380.347 49.0823 380.923 49.0823 381.584C49.0823 382.256 49.2156 382.843 49.4823 383.344C49.7489 383.835 50.1063 384.213 50.5543 384.48C51.0023 384.736 51.4983 384.864 52.0423 384.864C52.5863 384.864 53.0823 384.736 53.5303 384.48C53.9889 384.213 54.3516 383.835 54.6183 383.344C54.8849 382.843 55.0183 382.261 55.0183 381.6ZM62.0548 386.144C61.3828 386.144 60.7801 386.032 60.2468 385.808C59.7134 385.573 59.2921 385.253 58.9828 384.848C58.6734 384.432 58.5028 383.957 58.4708 383.424H59.9748C60.0174 383.861 60.2201 384.219 60.5828 384.496C60.9561 384.773 61.4414 384.912 62.0388 384.912C62.5934 384.912 63.0308 384.789 63.3508 384.544C63.6708 384.299 63.8308 383.989 63.8308 383.616C63.8308 383.232 63.6601 382.949 63.3188 382.768C62.9774 382.576 62.4494 382.389 61.7348 382.208C61.0841 382.037 60.5508 381.867 60.1348 381.696C59.7294 381.515 59.3774 381.253 59.0788 380.912C58.7908 380.56 58.6468 380.101 58.6468 379.536C58.6468 379.088 58.7801 378.677 59.0468 378.304C59.3134 377.931 59.6921 377.637 60.1828 377.424C60.6734 377.2 61.2334 377.088 61.8628 377.088C62.8334 377.088 63.6174 377.333 64.2148 377.824C64.8121 378.315 65.1321 378.987 65.1748 379.84H63.7188C63.6868 379.381 63.5001 379.013 63.1588 378.736C62.8281 378.459 62.3801 378.32 61.8148 378.32C61.2921 378.32 60.8761 378.432 60.5668 378.656C60.2574 378.88 60.1028 379.173 60.1028 379.536C60.1028 379.824 60.1934 380.064 60.3748 380.256C60.5668 380.437 60.8014 380.587 61.0788 380.704C61.3668 380.811 61.7614 380.933 62.2628 381.072C62.8921 381.243 63.4041 381.413 63.7988 381.584C64.1934 381.744 64.5294 381.989 64.8068 382.32C65.0948 382.651 65.2441 383.083 65.2548 383.616C65.2548 384.096 65.1214 384.528 64.8548 384.912C64.5881 385.296 64.2094 385.6 63.7188 385.824C63.2388 386.037 62.6841 386.144 62.0548 386.144ZM69.0861 378.432V383.6C69.0861 384.027 69.1768 384.331 69.3581 384.512C69.5395 384.683 69.8541 384.768 70.3021 384.768H71.3741V386H70.0621C69.2515 386 68.6435 385.813 68.2381 385.44C67.8328 385.067 67.6301 384.453 67.6301 383.6V378.432H66.4941V377.232H67.6301V375.024H69.0861V377.232H71.3741V378.432H69.0861ZM81.6759 377.072C82.7425 377.072 83.6065 377.397 84.2679 378.048C84.9292 378.688 85.2599 379.616 85.2599 380.832V386H83.8199V381.04C83.8199 380.165 83.6012 379.499 83.1639 379.04C82.7265 378.571 82.1292 378.336 81.3719 378.336C80.6039 378.336 79.9905 378.576 79.5319 379.056C79.0839 379.536 78.8599 380.235 78.8599 381.152V386H77.4039V377.232H78.8599V378.48C79.1479 378.032 79.5372 377.685 80.0279 377.44C80.5292 377.195 81.0785 377.072 81.6759 377.072ZM87.0943 381.584C87.0943 380.688 87.2756 379.904 87.6383 379.232C88.0009 378.549 88.4969 378.021 89.1263 377.648C89.7663 377.275 90.4756 377.088 91.2543 377.088C92.0223 377.088 92.6889 377.253 93.2543 377.584C93.8196 377.915 94.2409 378.331 94.5183 378.832V377.232H95.9903V386H94.5183V384.368C94.2303 384.88 93.7983 385.307 93.2223 385.648C92.6569 385.979 91.9956 386.144 91.2383 386.144C90.4596 386.144 89.7556 385.952 89.1263 385.568C88.4969 385.184 88.0009 384.645 87.6383 383.952C87.2756 383.259 87.0943 382.469 87.0943 381.584ZM94.5183 381.6C94.5183 380.939 94.3849 380.363 94.1183 379.872C93.8516 379.381 93.4889 379.008 93.0303 378.752C92.5823 378.485 92.0863 378.352 91.5423 378.352C90.9983 378.352 90.5023 378.48 90.0543 378.736C89.6063 378.992 89.2489 379.365 88.9823 379.856C88.7156 380.347 88.5823 380.923 88.5823 381.584C88.5823 382.256 88.7156 382.843 88.9823 383.344C89.2489 383.835 89.6063 384.213 90.0543 384.48C90.5023 384.736 90.9983 384.864 91.5423 384.864C92.0863 384.864 92.5823 384.736 93.0303 384.48C93.4889 384.213 93.8516 383.835 94.1183 383.344C94.3849 382.843 94.5183 382.261 94.5183 381.6ZM108.995 377.072C109.677 377.072 110.285 377.216 110.819 377.504C111.352 377.781 111.773 378.203 112.083 378.768C112.392 379.333 112.547 380.021 112.547 380.832V386H111.107V381.04C111.107 380.165 110.888 379.499 110.451 379.04C110.024 378.571 109.443 378.336 108.707 378.336C107.949 378.336 107.347 378.581 106.899 379.072C106.451 379.552 106.227 380.251 106.227 381.168V386H104.787V381.04C104.787 380.165 104.568 379.499 104.131 379.04C103.704 378.571 103.123 378.336 102.387 378.336C101.629 378.336 101.027 378.581 100.579 379.072C100.131 379.552 99.9068 380.251 99.9068 381.168V386H98.4508V377.232H99.9068V378.496C100.195 378.037 100.579 377.685 101.059 377.44C101.549 377.195 102.088 377.072 102.675 377.072C103.411 377.072 104.061 377.237 104.627 377.568C105.192 377.899 105.613 378.384 105.891 379.024C106.136 378.405 106.541 377.925 107.107 377.584C107.672 377.243 108.301 377.072 108.995 377.072ZM122.935 381.28C122.935 381.557 122.919 381.851 122.887 382.16H115.879C115.932 383.024 116.226 383.701 116.759 384.192C117.303 384.672 117.959 384.912 118.727 384.912C119.356 384.912 119.879 384.768 120.295 384.48C120.722 384.181 121.02 383.787 121.191 383.296H122.759C122.524 384.139 122.055 384.827 121.351 385.36C120.647 385.883 119.772 386.144 118.727 386.144C117.895 386.144 117.148 385.957 116.487 385.584C115.836 385.211 115.324 384.683 114.951 384C114.578 383.307 114.391 382.507 114.391 381.6C114.391 380.693 114.572 379.899 114.935 379.216C115.298 378.533 115.804 378.011 116.455 377.648C117.116 377.275 117.874 377.088 118.727 377.088C119.559 377.088 120.295 377.269 120.935 377.632C121.575 377.995 122.066 378.496 122.407 379.136C122.759 379.765 122.935 380.48 122.935 381.28ZM121.431 380.976C121.431 380.421 121.308 379.947 121.063 379.552C120.818 379.147 120.482 378.843 120.055 378.64C119.639 378.427 119.175 378.32 118.663 378.32C117.927 378.32 117.298 378.555 116.775 379.024C116.263 379.493 115.97 380.144 115.895 380.976H121.431ZM125.321 386.096C125.044 386.096 124.809 386 124.617 385.808C124.425 385.616 124.329 385.381 124.329 385.104C124.329 384.827 124.425 384.592 124.617 384.4C124.809 384.208 125.044 384.112 125.321 384.112C125.588 384.112 125.812 384.208 125.993 384.4C126.185 384.592 126.281 384.827 126.281 385.104C126.281 385.381 126.185 385.616 125.993 385.808C125.812 386 125.588 386.096 125.321 386.096ZM125.321 379.248C125.044 379.248 124.809 379.152 124.617 378.96C124.425 378.768 124.329 378.533 124.329 378.256C124.329 377.979 124.425 377.744 124.617 377.552C124.809 377.36 125.044 377.264 125.321 377.264C125.588 377.264 125.812 377.36 125.993 377.552C126.185 377.744 126.281 377.979 126.281 378.256C126.281 378.533 126.185 378.768 125.993 378.96C125.812 379.152 125.588 379.248 125.321 379.248Z" fill="#6E7E9E"/>
<path d="M178.848 374.848V383.088C178.848 384.005 178.565 384.741 178 385.296C177.435 385.84 176.688 386.112 175.76 386.112C174.821 386.112 174.069 385.835 173.504 385.28C172.939 384.715 172.656 383.947 172.656 382.976H174.112C174.123 383.52 174.261 383.963 174.528 384.304C174.805 384.645 175.216 384.816 175.76 384.816C176.304 384.816 176.709 384.656 176.976 384.336C177.243 384.005 177.376 383.589 177.376 383.088V374.848H178.848ZM185.54 386.144C184.719 386.144 183.972 385.957 183.3 385.584C182.639 385.211 182.116 384.683 181.732 384C181.359 383.307 181.172 382.507 181.172 381.6C181.172 380.704 181.364 379.915 181.748 379.232C182.143 378.539 182.676 378.011 183.348 377.648C184.02 377.275 184.772 377.088 185.604 377.088C186.436 377.088 187.188 377.275 187.86 377.648C188.532 378.011 189.06 378.533 189.444 379.216C189.839 379.899 190.036 380.693 190.036 381.6C190.036 382.507 189.834 383.307 189.428 384C189.034 384.683 188.495 385.211 187.812 385.584C187.13 385.957 186.372 386.144 185.54 386.144ZM185.54 384.864C186.063 384.864 186.554 384.741 187.012 384.496C187.471 384.251 187.839 383.883 188.116 383.392C188.404 382.901 188.548 382.304 188.548 381.6C188.548 380.896 188.41 380.299 188.132 379.808C187.855 379.317 187.492 378.955 187.044 378.72C186.596 378.475 186.111 378.352 185.588 378.352C185.055 378.352 184.564 378.475 184.116 378.72C183.679 378.955 183.327 379.317 183.06 379.808C182.794 380.299 182.66 380.896 182.66 381.6C182.66 382.315 182.788 382.917 183.044 383.408C183.311 383.899 183.663 384.267 184.1 384.512C184.538 384.747 185.018 384.864 185.54 384.864ZM196.303 377.072C196.964 377.072 197.561 377.216 198.095 377.504C198.628 377.781 199.044 378.203 199.343 378.768C199.652 379.333 199.807 380.021 199.807 380.832V386H198.367V381.04C198.367 380.165 198.148 379.499 197.711 379.04C197.273 378.571 196.676 378.336 195.919 378.336C195.151 378.336 194.537 378.576 194.079 379.056C193.631 379.536 193.407 380.235 193.407 381.152V386H191.951V374.16H193.407V378.48C193.695 378.032 194.089 377.685 194.591 377.44C195.103 377.195 195.673 377.072 196.303 377.072ZM206.457 377.072C207.524 377.072 208.388 377.397 209.049 378.048C209.71 378.688 210.041 379.616 210.041 380.832V386H208.601V381.04C208.601 380.165 208.382 379.499 207.945 379.04C207.508 378.571 206.91 378.336 206.153 378.336C205.385 378.336 204.772 378.576 204.313 379.056C203.865 379.536 203.641 380.235 203.641 381.152V386H202.185V377.232H203.641V378.48C203.929 378.032 204.318 377.685 204.809 377.44C205.31 377.195 205.86 377.072 206.457 377.072ZM215.524 386.144C214.852 386.144 214.249 386.032 213.716 385.808C213.182 385.573 212.761 385.253 212.452 384.848C212.142 384.432 211.972 383.957 211.94 383.424H213.444C213.486 383.861 213.689 384.219 214.052 384.496C214.425 384.773 214.91 384.912 215.508 384.912C216.062 384.912 216.5 384.789 216.82 384.544C217.14 384.299 217.3 383.989 217.3 383.616C217.3 383.232 217.129 382.949 216.788 382.768C216.446 382.576 215.918 382.389 215.204 382.208C214.553 382.037 214.02 381.867 213.604 381.696C213.198 381.515 212.846 381.253 212.548 380.912C212.26 380.56 212.116 380.101 212.116 379.536C212.116 379.088 212.249 378.677 212.516 378.304C212.782 377.931 213.161 377.637 213.652 377.424C214.142 377.2 214.702 377.088 215.332 377.088C216.302 377.088 217.086 377.333 217.684 377.824C218.281 378.315 218.601 378.987 218.644 379.84H217.188C217.156 379.381 216.969 379.013 216.628 378.736C216.297 378.459 215.849 378.32 215.284 378.32C214.761 378.32 214.345 378.432 214.036 378.656C213.726 378.88 213.572 379.173 213.572 379.536C213.572 379.824 213.662 380.064 213.844 380.256C214.036 380.437 214.27 380.587 214.548 380.704C214.836 380.811 215.23 380.933 215.732 381.072C216.361 381.243 216.873 381.413 217.268 381.584C217.662 381.744 217.998 381.989 218.276 382.32C218.564 382.651 218.713 383.083 218.724 383.616C218.724 384.096 218.59 384.528 218.324 384.912C218.057 385.296 217.678 385.6 217.188 385.824C216.708 386.037 216.153 386.144 215.524 386.144ZM224.603 386.144C223.782 386.144 223.035 385.957 222.363 385.584C221.702 385.211 221.179 384.683 220.795 384C220.422 383.307 220.235 382.507 220.235 381.6C220.235 380.704 220.427 379.915 220.811 379.232C221.206 378.539 221.739 378.011 222.411 377.648C223.083 377.275 223.835 377.088 224.667 377.088C225.499 377.088 226.251 377.275 226.923 377.648C227.595 378.011 228.123 378.533 228.507 379.216C228.902 379.899 229.099 380.693 229.099 381.6C229.099 382.507 228.896 383.307 228.491 384C228.096 384.683 227.558 385.211 226.875 385.584C226.192 385.957 225.435 386.144 224.603 386.144ZM224.603 384.864C225.126 384.864 225.616 384.741 226.075 384.496C226.534 384.251 226.902 383.883 227.179 383.392C227.467 382.901 227.611 382.304 227.611 381.6C227.611 380.896 227.472 380.299 227.195 379.808C226.918 379.317 226.555 378.955 226.107 378.72C225.659 378.475 225.174 378.352 224.651 378.352C224.118 378.352 223.627 378.475 223.179 378.72C222.742 378.955 222.39 379.317 222.123 379.808C221.856 380.299 221.723 380.896 221.723 381.6C221.723 382.315 221.851 382.917 222.107 383.408C222.374 383.899 222.726 384.267 223.163 384.512C223.6 384.747 224.08 384.864 224.603 384.864ZM235.285 377.072C236.352 377.072 237.216 377.397 237.877 378.048C238.539 378.688 238.869 379.616 238.869 380.832V386H237.429V381.04C237.429 380.165 237.211 379.499 236.773 379.04C236.336 378.571 235.739 378.336 234.981 378.336C234.213 378.336 233.6 378.576 233.141 379.056C232.693 379.536 232.469 380.235 232.469 381.152V386H231.013V377.232H232.469V378.48C232.757 378.032 233.147 377.685 233.637 377.44C234.139 377.195 234.688 377.072 235.285 377.072Z" fill="#6E7E9E"/>
<line x1="40" y1="407.5" x2="472" y2="407.5" stroke="#E1E4EB"/>
<rect x="40" y="432" width="100" height="8" rx="4" fill="#E1E4EB"/>
<rect x="40" y="464" width="100" height="8" rx="4" fill="#E1E4EB"/>
<rect x="172" y="432" width="160" height="8" rx="4" fill="#E1E4EB"/>
<rect x="172" y="464" width="100" height="8" rx="4" fill="#E1E4EB"/>
<defs>
<clipPath id="clip0_3184_20371">
<rect width="16" height="16" fill="white" transform="translate(96 188)"/>
</clipPath>
<clipPath id="clip1_3184_20371">
<rect width="18" height="18" fill="white" transform="translate(191 187)"/>
</clipPath>
</defs>
</svg>
