<svg width="512" height="512" viewBox="0 0 512 512" fill="none" xmlns="http://www.w3.org/2000/svg">
<rect width="512" height="512" fill="white"/>
<rect x="40" y="40" width="128" height="128" rx="24" fill="#C9CFDB"/>
<g clip-path="url(#clip0_3184_20322)">
<path d="M104 113.125C115.275 113.125 124.416 103.984 124.416 92.7084C124.416 81.4326 115.275 72.2917 104 72.2917C92.7239 72.2917 83.583 81.4326 83.583 92.7084C83.583 103.984 92.7239 113.125 104 113.125Z" fill="white"/>
<path d="M104 123.333C83.5428 123.333 66.8828 137.053 66.8828 153.958C66.8828 155.102 67.7811 156 68.9245 156H139.076C140.22 156 141.118 155.102 141.118 153.958C141.118 137.053 124.458 123.333 104 123.333Z" fill="white"/>
</g>
<rect x="200" y="92" width="32" height="32" rx="16" fill="#C9CFDB"/>
<path d="M219.75 115.5H212.25C211.942 115.5 211.688 115.245 211.688 114.938C211.688 114.63 211.942 114.375 212.25 114.375H219.75C220.057 114.375 220.312 114.63 220.312 114.938C220.312 115.245 220.057 115.5 219.75 115.5Z" fill="white"/>
<path d="M222.262 103.139L219.262 105.284C218.865 105.569 218.295 105.397 218.122 104.939L216.705 101.159C216.465 100.507 215.542 100.507 215.302 101.159L213.877 104.932C213.705 105.397 213.142 105.569 212.745 105.277L209.745 103.132C209.145 102.712 208.35 103.304 208.597 104.002L211.717 112.739C211.822 113.039 212.107 113.234 212.422 113.234H219.57C219.885 113.234 220.17 113.032 220.275 112.739L223.395 104.002C223.65 103.304 222.855 102.712 222.262 103.139ZM217.875 110.062H214.125C213.817 110.062 213.562 109.807 213.562 109.499C213.562 109.192 213.817 108.937 214.125 108.937H217.875C218.182 108.937 218.437 109.192 218.437 109.499C218.437 109.807 218.182 110.062 217.875 110.062Z" fill="white"/>
<rect x="248" y="92" width="32" height="32" rx="16" fill="#C9CFDB"/>
<path d="M268.432 107.041H266.115V101.641C266.115 100.381 265.432 100.126 264.6 101.071L264 101.753L258.922 107.528C258.225 108.316 258.517 108.961 259.567 108.961H261.885V114.361C261.885 115.621 262.567 115.876 263.4 114.931L264 114.248L269.077 108.473C269.775 107.686 269.482 107.041 268.432 107.041Z" fill="white"/>
<path d="M212.012 68L207.7 60.384H205.852V68H201.932V48.456H209.268C210.78 48.456 212.068 48.7267 213.132 49.268C214.196 49.7907 214.989 50.5093 215.512 51.424C216.053 52.32 216.324 53.328 216.324 54.448C216.324 55.736 215.951 56.9027 215.204 57.948C214.457 58.9747 213.347 59.684 211.872 60.076L216.548 68H212.012ZM205.852 57.444H209.128C210.192 57.444 210.985 57.192 211.508 56.688C212.031 56.1653 212.292 55.4467 212.292 54.532C212.292 53.636 212.031 52.9453 211.508 52.46C210.985 51.956 210.192 51.704 209.128 51.704H205.852V57.444ZM234.71 52.488L225.106 75.336H220.934L224.294 67.608L218.078 52.488H222.474L226.478 63.324L230.538 52.488H234.71ZM235.815 60.188C235.815 58.62 236.123 57.2293 236.739 56.016C237.373 54.8027 238.223 53.8693 239.287 53.216C240.369 52.5627 241.573 52.236 242.899 52.236C244.056 52.236 245.064 52.4693 245.923 52.936C246.8 53.4027 247.5 53.9907 248.023 54.7V52.488H251.971V68H248.023V65.732C247.519 66.46 246.819 67.0667 245.923 67.552C245.045 68.0187 244.028 68.252 242.871 68.252C241.564 68.252 240.369 67.916 239.287 67.244C238.223 66.572 237.373 65.6293 236.739 64.416C236.123 63.184 235.815 61.7747 235.815 60.188ZM248.023 60.244C248.023 59.292 247.836 58.48 247.463 57.808C247.089 57.1173 246.585 56.5947 245.951 56.24C245.316 55.8667 244.635 55.68 243.907 55.68C243.179 55.68 242.507 55.8573 241.891 56.212C241.275 56.5667 240.771 57.0893 240.379 57.78C240.005 58.452 239.819 59.2547 239.819 60.188C239.819 61.1213 240.005 61.9427 240.379 62.652C240.771 63.3427 241.275 63.8747 241.891 64.248C242.525 64.6213 243.197 64.808 243.907 64.808C244.635 64.808 245.316 64.6307 245.951 64.276C246.585 63.9027 247.089 63.38 247.463 62.708C247.836 62.0173 248.023 61.196 248.023 60.244ZM264.395 52.264C266.243 52.264 267.737 52.852 268.875 54.028C270.014 55.1853 270.583 56.8093 270.583 58.9V68H266.663V59.432C266.663 58.2 266.355 57.2573 265.739 56.604C265.123 55.932 264.283 55.596 263.219 55.596C262.137 55.596 261.278 55.932 260.643 56.604C260.027 57.2573 259.719 58.2 259.719 59.432V68H255.799V52.488H259.719V54.42C260.242 53.748 260.905 53.2253 261.707 52.852C262.529 52.46 263.425 52.264 264.395 52.264ZM291.063 68L286.751 60.384H284.903V68H280.983V48.456H288.319C289.831 48.456 291.119 48.7267 292.183 49.268C293.247 49.7907 294.04 50.5093 294.563 51.424C295.104 52.32 295.375 53.328 295.375 54.448C295.375 55.736 295.001 56.9027 294.255 57.948C293.508 58.9747 292.397 59.684 290.923 60.076L295.599 68H291.063ZM284.903 57.444H288.179C289.243 57.444 290.036 57.192 290.559 56.688C291.081 56.1653 291.343 55.4467 291.343 54.532C291.343 53.636 291.081 52.9453 290.559 52.46C290.036 51.956 289.243 51.704 288.179 51.704H284.903V57.444ZM313.34 59.908C313.34 60.468 313.303 60.972 313.228 61.42H301.888C301.982 62.54 302.374 63.4173 303.064 64.052C303.755 64.6867 304.604 65.004 305.612 65.004C307.068 65.004 308.104 64.3787 308.72 63.128H312.948C312.5 64.6213 311.642 65.8533 310.372 66.824C309.103 67.776 307.544 68.252 305.696 68.252C304.203 68.252 302.859 67.9253 301.664 67.272C300.488 66.6 299.564 65.6573 298.892 64.444C298.239 63.2307 297.912 61.8307 297.912 60.244C297.912 58.6387 298.239 57.2293 298.892 56.016C299.546 54.8027 300.46 53.8693 301.636 53.216C302.812 52.5627 304.166 52.236 305.696 52.236C307.171 52.236 308.487 52.5533 309.644 53.188C310.82 53.8227 311.726 54.728 312.36 55.904C313.014 57.0613 313.34 58.396 313.34 59.908ZM309.28 58.788C309.262 57.78 308.898 56.9773 308.188 56.38C307.479 55.764 306.611 55.456 305.584 55.456C304.614 55.456 303.792 55.7547 303.12 56.352C302.467 56.9307 302.066 57.7427 301.916 58.788H309.28ZM331.042 52.488L321.438 75.336H317.266L320.626 67.608L314.41 52.488H318.806L322.81 63.324L326.87 52.488H331.042ZM341.751 52.264C343.599 52.264 345.092 52.852 346.231 54.028C347.369 55.1853 347.939 56.8093 347.939 58.9V68H344.019V59.432C344.019 58.2 343.711 57.2573 343.095 56.604C342.479 55.932 341.639 55.596 340.575 55.596C339.492 55.596 338.633 55.932 337.999 56.604C337.383 57.2573 337.075 58.2 337.075 59.432V68H333.155V52.488H337.075V54.42C337.597 53.748 338.26 53.2253 339.063 52.852C339.884 52.46 340.78 52.264 341.751 52.264ZM358.554 68.252C357.061 68.252 355.717 67.9253 354.522 67.272C353.328 66.6 352.385 65.6573 351.694 64.444C351.022 63.2307 350.686 61.8307 350.686 60.244C350.686 58.6573 351.032 57.2573 351.722 56.044C352.432 54.8307 353.393 53.8973 354.606 53.244C355.82 52.572 357.173 52.236 358.666 52.236C360.16 52.236 361.513 52.572 362.726 53.244C363.94 53.8973 364.892 54.8307 365.582 56.044C366.292 57.2573 366.646 58.6573 366.646 60.244C366.646 61.8307 366.282 63.2307 365.554 64.444C364.845 65.6573 363.874 66.6 362.642 67.272C361.429 67.9253 360.066 68.252 358.554 68.252ZM358.554 64.836C359.264 64.836 359.926 64.668 360.542 64.332C361.177 63.9773 361.681 63.4547 362.054 62.764C362.428 62.0733 362.614 61.2333 362.614 60.244C362.614 58.7693 362.222 57.64 361.438 56.856C360.673 56.0533 359.73 55.652 358.61 55.652C357.49 55.652 356.548 56.0533 355.782 56.856C355.036 57.64 354.662 58.7693 354.662 60.244C354.662 61.7187 355.026 62.8573 355.754 63.66C356.501 64.444 357.434 64.836 358.554 64.836ZM373.442 47.28V68H369.522V47.28H373.442ZM376.307 60.188C376.307 58.62 376.615 57.2293 377.231 56.016C377.865 54.8027 378.724 53.8693 379.807 53.216C380.889 52.5627 382.093 52.236 383.419 52.236C384.427 52.236 385.388 52.46 386.303 52.908C387.217 53.3373 387.945 53.916 388.487 54.644V47.28H392.463V68H388.487V65.704C388.001 66.4693 387.32 67.0853 386.443 67.552C385.565 68.0187 384.548 68.252 383.391 68.252C382.084 68.252 380.889 67.916 379.807 67.244C378.724 66.572 377.865 65.6293 377.231 64.416C376.615 63.184 376.307 61.7747 376.307 60.188ZM388.515 60.244C388.515 59.292 388.328 58.48 387.955 57.808C387.581 57.1173 387.077 56.5947 386.443 56.24C385.808 55.8667 385.127 55.68 384.399 55.68C383.671 55.68 382.999 55.8573 382.383 56.212C381.767 56.5667 381.263 57.0893 380.871 57.78C380.497 58.452 380.311 59.2547 380.311 60.188C380.311 61.1213 380.497 61.9427 380.871 62.652C381.263 63.3427 381.767 63.8747 382.383 64.248C383.017 64.6213 383.689 64.808 384.399 64.808C385.127 64.808 385.808 64.6307 386.443 64.276C387.077 63.9027 387.581 63.38 387.955 62.708C388.328 62.0173 388.515 61.196 388.515 60.244ZM402.227 68.252C400.958 68.252 399.819 68.028 398.811 67.58C397.803 67.1133 397.001 66.488 396.403 65.704C395.825 64.92 395.507 64.052 395.451 63.1H399.399C399.474 63.6973 399.763 64.192 400.267 64.584C400.79 64.976 401.434 65.172 402.199 65.172C402.946 65.172 403.525 65.0227 403.935 64.724C404.365 64.4253 404.579 64.0427 404.579 63.576C404.579 63.072 404.318 62.6987 403.795 62.456C403.291 62.1947 402.479 61.9147 401.359 61.616C400.202 61.336 399.25 61.0467 398.503 60.748C397.775 60.4493 397.141 59.992 396.599 59.376C396.077 58.76 395.815 57.9293 395.815 56.884C395.815 56.0253 396.058 55.2413 396.543 54.532C397.047 53.8227 397.757 53.2627 398.671 52.852C399.605 52.4413 400.697 52.236 401.947 52.236C403.795 52.236 405.27 52.7027 406.371 53.636C407.473 54.5507 408.079 55.792 408.191 57.36H404.439C404.383 56.744 404.122 56.2587 403.655 55.904C403.207 55.5307 402.601 55.344 401.835 55.344C401.126 55.344 400.575 55.4747 400.183 55.736C399.81 55.9973 399.623 56.3613 399.623 56.828C399.623 57.3507 399.885 57.752 400.407 58.032C400.93 58.2933 401.742 58.564 402.843 58.844C403.963 59.124 404.887 59.4133 405.615 59.712C406.343 60.0107 406.969 60.4773 407.491 61.112C408.033 61.728 408.313 62.5493 408.331 63.576C408.331 64.472 408.079 65.2747 407.575 65.984C407.09 66.6933 406.381 67.2533 405.447 67.664C404.533 68.056 403.459 68.252 402.227 68.252Z" fill="#1A1E26"/>
<path d="M204.768 158.112C204.032 158.112 203.371 157.984 202.784 157.728C202.208 157.461 201.755 157.099 201.424 156.64C201.093 156.171 200.923 155.632 200.912 155.024H202.464C202.517 155.547 202.731 155.989 203.104 156.352C203.488 156.704 204.043 156.88 204.768 156.88C205.461 156.88 206.005 156.709 206.4 156.368C206.805 156.016 207.008 155.568 207.008 155.024C207.008 154.597 206.891 154.251 206.656 153.984C206.421 153.717 206.128 153.515 205.776 153.376C205.424 153.237 204.949 153.088 204.352 152.928C203.616 152.736 203.024 152.544 202.576 152.352C202.139 152.16 201.76 151.861 201.44 151.456C201.131 151.04 200.976 150.485 200.976 149.792C200.976 149.184 201.131 148.645 201.44 148.176C201.749 147.707 202.181 147.344 202.736 147.088C203.301 146.832 203.947 146.704 204.672 146.704C205.717 146.704 206.571 146.965 207.232 147.488C207.904 148.011 208.283 148.704 208.368 149.568H206.768C206.715 149.141 206.491 148.768 206.096 148.448C205.701 148.117 205.179 147.952 204.528 147.952C203.92 147.952 203.424 148.112 203.04 148.432C202.656 148.741 202.464 149.179 202.464 149.744C202.464 150.149 202.576 150.48 202.8 150.736C203.035 150.992 203.317 151.189 203.648 151.328C203.989 151.456 204.464 151.605 205.072 151.776C205.808 151.979 206.4 152.181 206.848 152.384C207.296 152.576 207.68 152.88 208 153.296C208.32 153.701 208.48 154.256 208.48 154.96C208.48 155.504 208.336 156.016 208.048 156.496C207.76 156.976 207.333 157.365 206.768 157.664C206.203 157.963 205.536 158.112 204.768 158.112ZM211.375 147.808C211.097 147.808 210.863 147.712 210.671 147.52C210.479 147.328 210.383 147.093 210.383 146.816C210.383 146.539 210.479 146.304 210.671 146.112C210.863 145.92 211.097 145.824 211.375 145.824C211.641 145.824 211.865 145.92 212.047 146.112C212.239 146.304 212.335 146.539 212.335 146.816C212.335 147.093 212.239 147.328 212.047 147.52C211.865 147.712 211.641 147.808 211.375 147.808ZM212.079 149.232V158H210.623V149.232H212.079ZM218.832 149.072C219.899 149.072 220.763 149.397 221.424 150.048C222.085 150.688 222.416 151.616 222.416 152.832V158H220.976V153.04C220.976 152.165 220.757 151.499 220.32 151.04C219.883 150.571 219.285 150.336 218.528 150.336C217.76 150.336 217.147 150.576 216.688 151.056C216.24 151.536 216.016 152.235 216.016 153.152V158H214.56V149.232H216.016V150.48C216.304 150.032 216.693 149.685 217.184 149.44C217.685 149.195 218.235 149.072 218.832 149.072ZM224.251 153.6C224.251 152.693 224.432 151.904 224.795 151.232C225.157 150.549 225.659 150.021 226.299 149.648C226.949 149.275 227.691 149.088 228.523 149.088C229.6 149.088 230.485 149.349 231.179 149.872C231.883 150.395 232.347 151.12 232.571 152.048H231.003C230.853 151.515 230.56 151.093 230.123 150.784C229.696 150.475 229.163 150.32 228.523 150.32C227.691 150.32 227.019 150.608 226.507 151.184C225.995 151.749 225.739 152.555 225.739 153.6C225.739 154.656 225.995 155.472 226.507 156.048C227.019 156.624 227.691 156.912 228.523 156.912C229.163 156.912 229.696 156.763 230.123 156.464C230.549 156.165 230.843 155.739 231.003 155.184H232.571C232.336 156.08 231.867 156.8 231.163 157.344C230.459 157.877 229.579 158.144 228.523 158.144C227.691 158.144 226.949 157.957 226.299 157.584C225.659 157.211 225.157 156.683 224.795 156C224.432 155.317 224.251 154.517 224.251 153.6ZM242.513 153.28C242.513 153.557 242.497 153.851 242.465 154.16H235.457C235.511 155.024 235.804 155.701 236.337 156.192C236.881 156.672 237.537 156.912 238.305 156.912C238.935 156.912 239.457 156.768 239.873 156.48C240.3 156.181 240.599 155.787 240.769 155.296H242.337C242.103 156.139 241.633 156.827 240.929 157.36C240.225 157.883 239.351 158.144 238.305 158.144C237.473 158.144 236.727 157.957 236.065 157.584C235.415 157.211 234.903 156.683 234.529 156C234.156 155.307 233.969 154.507 233.969 153.6C233.969 152.693 234.151 151.899 234.513 151.216C234.876 150.533 235.383 150.011 236.033 149.648C236.695 149.275 237.452 149.088 238.305 149.088C239.137 149.088 239.873 149.269 240.513 149.632C241.153 149.995 241.644 150.496 241.985 151.136C242.337 151.765 242.513 152.48 242.513 153.28ZM241.009 152.976C241.009 152.421 240.887 151.947 240.641 151.552C240.396 151.147 240.06 150.843 239.633 150.64C239.217 150.427 238.753 150.32 238.241 150.32C237.505 150.32 236.876 150.555 236.353 151.024C235.841 151.493 235.548 152.144 235.473 152.976H241.009ZM255.837 147.696H250.221V151.344C250.466 151.003 250.829 150.725 251.309 150.512C251.789 150.288 252.306 150.176 252.861 150.176C253.746 150.176 254.466 150.363 255.021 150.736C255.575 151.099 255.97 151.573 256.205 152.16C256.45 152.736 256.573 153.349 256.573 154C256.573 154.768 256.429 155.456 256.141 156.064C255.853 156.672 255.41 157.152 254.813 157.504C254.226 157.856 253.495 158.032 252.621 158.032C251.501 158.032 250.594 157.744 249.901 157.168C249.207 156.592 248.786 155.824 248.637 154.864H250.061C250.199 155.472 250.493 155.947 250.941 156.288C251.389 156.629 251.954 156.8 252.637 156.8C253.479 156.8 254.114 156.549 254.541 156.048C254.967 155.536 255.181 154.864 255.181 154.032C255.181 153.2 254.967 152.56 254.541 152.112C254.114 151.653 253.485 151.424 252.653 151.424C252.087 151.424 251.591 151.563 251.165 151.84C250.749 152.107 250.445 152.475 250.253 152.944H248.877V146.416H255.837V147.696ZM269.605 155.52H264.741L263.845 158H262.309L266.341 146.912H268.021L272.037 158H270.501L269.605 155.52ZM269.189 154.336L267.173 148.704L265.157 154.336H269.189ZM275.251 150.848C275.539 150.347 275.965 149.931 276.531 149.6C277.107 149.259 277.773 149.088 278.531 149.088C279.309 149.088 280.013 149.275 280.642 149.648C281.282 150.021 281.784 150.549 282.147 151.232C282.509 151.904 282.691 152.688 282.691 153.584C282.691 154.469 282.509 155.259 282.147 155.952C281.784 156.645 281.282 157.184 280.642 157.568C280.013 157.952 279.309 158.144 278.531 158.144C277.784 158.144 277.123 157.979 276.547 157.648C275.981 157.307 275.549 156.885 275.251 156.384V162.16H273.795V149.232H275.251V150.848ZM281.203 153.584C281.203 152.923 281.069 152.347 280.803 151.856C280.536 151.365 280.173 150.992 279.715 150.736C279.267 150.48 278.771 150.352 278.227 150.352C277.693 150.352 277.197 150.485 276.739 150.752C276.291 151.008 275.928 151.387 275.651 151.888C275.384 152.379 275.251 152.949 275.251 153.6C275.251 154.261 275.384 154.843 275.651 155.344C275.928 155.835 276.291 156.213 276.739 156.48C277.197 156.736 277.693 156.864 278.227 156.864C278.771 156.864 279.267 156.736 279.715 156.48C280.173 156.213 280.536 155.835 280.803 155.344C281.069 154.843 281.203 154.256 281.203 153.584ZM286.063 150.656C286.319 150.155 286.682 149.765 287.151 149.488C287.631 149.211 288.212 149.072 288.895 149.072V150.576H288.511C286.879 150.576 286.063 151.461 286.063 153.232V158H284.607V149.232H286.063V150.656ZM291.328 147.808C291.05 147.808 290.816 147.712 290.624 147.52C290.432 147.328 290.336 147.093 290.336 146.816C290.336 146.539 290.432 146.304 290.624 146.112C290.816 145.92 291.05 145.824 291.328 145.824C291.594 145.824 291.818 145.92 292 146.112C292.192 146.304 292.288 146.539 292.288 146.816C292.288 147.093 292.192 147.328 292 147.52C291.818 147.712 291.594 147.808 291.328 147.808ZM292.032 149.232V158H290.576V149.232H292.032ZM295.969 146.16V158H294.513V146.16H295.969ZM299.955 155.984L298.163 160.288H297.187L298.355 155.984H299.955ZM305.472 156.832C306.827 155.744 307.888 154.853 308.656 154.16C309.424 153.456 310.07 152.725 310.592 151.968C311.126 151.2 311.392 150.448 311.392 149.712C311.392 149.019 311.222 148.475 310.88 148.08C310.55 147.675 310.011 147.472 309.264 147.472C308.539 147.472 307.974 147.701 307.568 148.16C307.174 148.608 306.96 149.211 306.928 149.968H305.52C305.563 148.773 305.926 147.851 306.608 147.2C307.291 146.549 308.171 146.224 309.248 146.224C310.347 146.224 311.216 146.528 311.856 147.136C312.507 147.744 312.832 148.581 312.832 149.648C312.832 150.533 312.566 151.397 312.032 152.24C311.51 153.072 310.912 153.808 310.24 154.448C309.568 155.077 308.71 155.813 307.664 156.656H313.168V157.872H305.472V156.832ZM314.851 152.096C314.851 150.261 315.15 148.832 315.747 147.808C316.345 146.773 317.39 146.256 318.883 146.256C320.366 146.256 321.406 146.773 322.003 147.808C322.601 148.832 322.899 150.261 322.899 152.096C322.899 153.963 322.601 155.413 322.003 156.448C321.406 157.483 320.366 158 318.883 158C317.39 158 316.345 157.483 315.747 156.448C315.15 155.413 314.851 153.963 314.851 152.096ZM321.459 152.096C321.459 151.168 321.395 150.384 321.267 149.744C321.15 149.093 320.899 148.571 320.515 148.176C320.142 147.781 319.598 147.584 318.883 147.584C318.158 147.584 317.603 147.781 317.219 148.176C316.846 148.571 316.595 149.093 316.467 149.744C316.35 150.384 316.291 151.168 316.291 152.096C316.291 153.056 316.35 153.861 316.467 154.512C316.595 155.163 316.846 155.685 317.219 156.08C317.603 156.475 318.158 156.672 318.883 156.672C319.598 156.672 320.142 156.475 320.515 156.08C320.899 155.685 321.15 155.163 321.267 154.512C321.395 153.861 321.459 153.056 321.459 152.096ZM324.722 156.832C326.077 155.744 327.138 154.853 327.906 154.16C328.674 153.456 329.32 152.725 329.842 151.968C330.376 151.2 330.642 150.448 330.642 149.712C330.642 149.019 330.472 148.475 330.13 148.08C329.8 147.675 329.261 147.472 328.514 147.472C327.789 147.472 327.224 147.701 326.818 148.16C326.424 148.608 326.21 149.211 326.178 149.968H324.77C324.813 148.773 325.176 147.851 325.858 147.2C326.541 146.549 327.421 146.224 328.498 146.224C329.597 146.224 330.466 146.528 331.106 147.136C331.757 147.744 332.082 148.581 332.082 149.648C332.082 150.533 331.816 151.397 331.282 152.24C330.76 153.072 330.162 153.808 329.49 154.448C328.818 155.077 327.96 155.813 326.914 156.656H332.418V157.872H324.722V156.832ZM333.749 155.424V154.32L339.365 146.544H341.109V154.16H342.709V155.424H341.109V158H339.669V155.424H333.749ZM339.733 148.064L335.429 154.16H339.733V148.064Z" fill="#6E7E9E"/>
<path d="M50.404 225.324C50.404 225.996 50.242 226.626 49.918 227.214C49.606 227.802 49.108 228.276 48.424 228.636C47.752 228.996 46.9 229.176 45.868 229.176H43.762V234H41.242V221.436H45.868C46.84 221.436 47.668 221.604 48.352 221.94C49.036 222.276 49.546 222.738 49.882 223.326C50.23 223.914 50.404 224.58 50.404 225.324ZM45.76 227.142C46.456 227.142 46.972 226.986 47.308 226.674C47.644 226.35 47.812 225.9 47.812 225.324C47.812 224.1 47.128 223.488 45.76 223.488H43.762V227.142H45.76ZM61.4632 228.798C61.4632 229.158 61.4392 229.482 61.3912 229.77H54.1012C54.1612 230.49 54.4132 231.054 54.8572 231.462C55.3012 231.87 55.8472 232.074 56.4952 232.074C57.4312 232.074 58.0972 231.672 58.4932 230.868H61.2112C60.9232 231.828 60.3712 232.62 59.5552 233.244C58.7392 233.856 57.7372 234.162 56.5492 234.162C55.5892 234.162 54.7252 233.952 53.9572 233.532C53.2012 233.1 52.6072 232.494 52.1752 231.714C51.7552 230.934 51.5452 230.034 51.5452 229.014C51.5452 227.982 51.7552 227.076 52.1752 226.296C52.5952 225.516 53.1832 224.916 53.9392 224.496C54.6952 224.076 55.5652 223.866 56.5492 223.866C57.4972 223.866 58.3432 224.07 59.0872 224.478C59.8432 224.886 60.4252 225.468 60.8332 226.224C61.2532 226.968 61.4632 227.826 61.4632 228.798ZM58.8532 228.078C58.8412 227.43 58.6072 226.914 58.1512 226.53C57.6952 226.134 57.1372 225.936 56.4772 225.936C55.8532 225.936 55.3252 226.128 54.8932 226.512C54.4732 226.884 54.2152 227.406 54.1192 228.078H58.8532ZM65.8225 225.576C66.1465 225.048 66.5665 224.634 67.0825 224.334C67.6105 224.034 68.2105 223.884 68.8825 223.884V226.53H68.2165C67.4245 226.53 66.8245 226.716 66.4165 227.088C66.0205 227.46 65.8225 228.108 65.8225 229.032V234H63.3025V224.028H65.8225V225.576ZM74.3959 234.162C73.5799 234.162 72.8479 234.018 72.1999 233.73C71.5519 233.43 71.0359 233.028 70.6519 232.524C70.2799 232.02 70.0759 231.462 70.0399 230.85H72.5779C72.6259 231.234 72.8119 231.552 73.1359 231.804C73.4719 232.056 73.8859 232.182 74.3779 232.182C74.8579 232.182 75.2299 232.086 75.4939 231.894C75.7699 231.702 75.9079 231.456 75.9079 231.156C75.9079 230.832 75.7399 230.592 75.4039 230.436C75.0799 230.268 74.5579 230.088 73.8379 229.896C73.0939 229.716 72.4819 229.53 72.0019 229.338C71.5339 229.146 71.1259 228.852 70.7779 228.456C70.4419 228.06 70.2739 227.526 70.2739 226.854C70.2739 226.302 70.4299 225.798 70.7419 225.342C71.0659 224.886 71.5219 224.526 72.1099 224.262C72.7099 223.998 73.4119 223.866 74.2159 223.866C75.4039 223.866 76.3519 224.166 77.0599 224.766C77.7679 225.354 78.1579 226.152 78.2299 227.16H75.8179C75.7819 226.764 75.6139 226.452 75.3139 226.224C75.0259 225.984 74.6359 225.864 74.1439 225.864C73.6879 225.864 73.3339 225.948 73.0819 226.116C72.8419 226.284 72.7219 226.518 72.7219 226.818C72.7219 227.154 72.8899 227.412 73.2259 227.592C73.5619 227.76 74.0839 227.934 74.7919 228.114C75.5119 228.294 76.1059 228.48 76.5739 228.672C77.0419 228.864 77.4439 229.164 77.7799 229.572C78.1279 229.968 78.3079 230.496 78.3199 231.156C78.3199 231.732 78.1579 232.248 77.8339 232.704C77.5219 233.16 77.0659 233.52 76.4659 233.784C75.8779 234.036 75.1879 234.162 74.3959 234.162ZM84.8165 234.162C83.8565 234.162 82.9925 233.952 82.2245 233.532C81.4565 233.1 80.8505 232.494 80.4065 231.714C79.9745 230.934 79.7585 230.034 79.7585 229.014C79.7585 227.994 79.9805 227.094 80.4245 226.314C80.8805 225.534 81.4985 224.934 82.2785 224.514C83.0585 224.082 83.9285 223.866 84.8885 223.866C85.8485 223.866 86.7185 224.082 87.4985 224.514C88.2785 224.934 88.8905 225.534 89.3345 226.314C89.7905 227.094 90.0185 227.994 90.0185 229.014C90.0185 230.034 89.7845 230.934 89.3165 231.714C88.8605 232.494 88.2365 233.1 87.4445 233.532C86.6645 233.952 85.7885 234.162 84.8165 234.162ZM84.8165 231.966C85.2725 231.966 85.6985 231.858 86.0945 231.642C86.5025 231.414 86.8265 231.078 87.0665 230.634C87.3065 230.19 87.4265 229.65 87.4265 229.014C87.4265 228.066 87.1745 227.34 86.6705 226.836C86.1785 226.32 85.5725 226.062 84.8525 226.062C84.1325 226.062 83.5265 226.32 83.0345 226.836C82.5545 227.34 82.3145 228.066 82.3145 229.014C82.3145 229.962 82.5485 230.694 83.0165 231.21C83.4965 231.714 84.0965 231.966 84.8165 231.966ZM97.393 223.884C98.581 223.884 99.541 224.262 100.273 225.018C101.005 225.762 101.371 226.806 101.371 228.15V234H98.851V228.492C98.851 227.7 98.653 227.094 98.257 226.674C97.861 226.242 97.321 226.026 96.637 226.026C95.941 226.026 95.389 226.242 94.981 226.674C94.585 227.094 94.387 227.7 94.387 228.492V234H91.867V224.028H94.387V225.27C94.723 224.838 95.149 224.502 95.665 224.262C96.193 224.01 96.769 223.884 97.393 223.884ZM103.119 228.978C103.119 227.97 103.317 227.076 103.713 226.296C104.121 225.516 104.667 224.916 105.351 224.496C106.047 224.076 106.821 223.866 107.673 223.866C108.417 223.866 109.065 224.016 109.617 224.316C110.181 224.616 110.631 224.994 110.967 225.45V224.028H113.505V234H110.967V232.542C110.643 233.01 110.193 233.4 109.617 233.712C109.053 234.012 108.399 234.162 107.655 234.162C106.815 234.162 106.047 233.946 105.351 233.514C104.667 233.082 104.121 232.476 103.713 231.696C103.317 230.904 103.119 229.998 103.119 228.978ZM110.967 229.014C110.967 228.402 110.847 227.88 110.607 227.448C110.367 227.004 110.043 226.668 109.635 226.44C109.227 226.2 108.789 226.08 108.321 226.08C107.853 226.08 107.421 226.194 107.025 226.422C106.629 226.65 106.305 226.986 106.053 227.43C105.813 227.862 105.693 228.378 105.693 228.978C105.693 229.578 105.813 230.106 106.053 230.562C106.305 231.006 106.629 231.348 107.025 231.588C107.433 231.828 107.865 231.948 108.321 231.948C108.789 231.948 109.227 231.834 109.635 231.606C110.043 231.366 110.367 231.03 110.607 230.598C110.847 230.154 110.967 229.626 110.967 229.014ZM118.487 220.68V234H115.967V220.68H118.487ZM129.657 221.436C130.977 221.436 132.135 221.694 133.131 222.21C134.139 222.726 134.913 223.464 135.453 224.424C136.005 225.372 136.281 226.476 136.281 227.736C136.281 228.996 136.005 230.1 135.453 231.048C134.913 231.984 134.139 232.71 133.131 233.226C132.135 233.742 130.977 234 129.657 234H125.265V221.436H129.657ZM129.567 231.858C130.887 231.858 131.907 231.498 132.627 230.778C133.347 230.058 133.707 229.044 133.707 227.736C133.707 226.428 133.347 225.408 132.627 224.676C131.907 223.932 130.887 223.56 129.567 223.56H127.785V231.858H129.567ZM147.438 228.798C147.438 229.158 147.414 229.482 147.366 229.77H140.076C140.136 230.49 140.388 231.054 140.832 231.462C141.276 231.87 141.822 232.074 142.47 232.074C143.406 232.074 144.072 231.672 144.468 230.868H147.186C146.898 231.828 146.346 232.62 145.53 233.244C144.714 233.856 143.712 234.162 142.524 234.162C141.564 234.162 140.7 233.952 139.932 233.532C139.176 233.1 138.582 232.494 138.15 231.714C137.73 230.934 137.52 230.034 137.52 229.014C137.52 227.982 137.73 227.076 138.15 226.296C138.57 225.516 139.158 224.916 139.914 224.496C140.67 224.076 141.54 223.866 142.524 223.866C143.472 223.866 144.318 224.07 145.062 224.478C145.818 224.886 146.4 225.468 146.808 226.224C147.228 226.968 147.438 227.826 147.438 228.798ZM144.828 228.078C144.816 227.43 144.582 226.914 144.126 226.53C143.67 226.134 143.112 225.936 142.452 225.936C141.828 225.936 141.3 226.128 140.868 226.512C140.448 226.884 140.19 227.406 140.094 228.078H144.828ZM152.211 226.098V230.922C152.211 231.258 152.289 231.504 152.445 231.66C152.613 231.804 152.889 231.876 153.273 231.876H154.443V234H152.859C150.735 234 149.673 232.968 149.673 230.904V226.098H148.485V224.028H149.673V221.562H152.211V224.028H154.443V226.098H152.211ZM155.608 228.978C155.608 227.97 155.806 227.076 156.202 226.296C156.61 225.516 157.156 224.916 157.84 224.496C158.536 224.076 159.31 223.866 160.162 223.866C160.906 223.866 161.554 224.016 162.106 224.316C162.67 224.616 163.12 224.994 163.456 225.45V224.028H165.994V234H163.456V232.542C163.132 233.01 162.682 233.4 162.106 233.712C161.542 234.012 160.888 234.162 160.144 234.162C159.304 234.162 158.536 233.946 157.84 233.514C157.156 233.082 156.61 232.476 156.202 231.696C155.806 230.904 155.608 229.998 155.608 228.978ZM163.456 229.014C163.456 228.402 163.336 227.88 163.096 227.448C162.856 227.004 162.532 226.668 162.124 226.44C161.716 226.2 161.278 226.08 160.81 226.08C160.342 226.08 159.91 226.194 159.514 226.422C159.118 226.65 158.794 226.986 158.542 227.43C158.302 227.862 158.182 228.378 158.182 228.978C158.182 229.578 158.302 230.106 158.542 230.562C158.794 231.006 159.118 231.348 159.514 231.588C159.922 231.828 160.354 231.948 160.81 231.948C161.278 231.948 161.716 231.834 162.124 231.606C162.532 231.366 162.856 231.03 163.096 230.598C163.336 230.154 163.456 229.626 163.456 229.014ZM169.733 222.84C169.289 222.84 168.917 222.702 168.617 222.426C168.329 222.138 168.185 221.784 168.185 221.364C168.185 220.944 168.329 220.596 168.617 220.32C168.917 220.032 169.289 219.888 169.733 219.888C170.177 219.888 170.543 220.032 170.831 220.32C171.131 220.596 171.281 220.944 171.281 221.364C171.281 221.784 171.131 222.138 170.831 222.426C170.543 222.702 170.177 222.84 169.733 222.84ZM170.975 224.028V234H168.455V224.028H170.975ZM175.985 220.68V234H173.465V220.68H175.985ZM182.29 234.162C181.474 234.162 180.742 234.018 180.094 233.73C179.446 233.43 178.93 233.028 178.546 232.524C178.174 232.02 177.97 231.462 177.934 230.85H180.472C180.52 231.234 180.706 231.552 181.03 231.804C181.366 232.056 181.78 232.182 182.272 232.182C182.752 232.182 183.124 232.086 183.388 231.894C183.664 231.702 183.802 231.456 183.802 231.156C183.802 230.832 183.634 230.592 183.298 230.436C182.974 230.268 182.452 230.088 181.732 229.896C180.988 229.716 180.376 229.53 179.896 229.338C179.428 229.146 179.02 228.852 178.672 228.456C178.336 228.06 178.168 227.526 178.168 226.854C178.168 226.302 178.324 225.798 178.636 225.342C178.96 224.886 179.416 224.526 180.004 224.262C180.604 223.998 181.306 223.866 182.11 223.866C183.298 223.866 184.246 224.166 184.954 224.766C185.662 225.354 186.052 226.152 186.124 227.16H183.712C183.676 226.764 183.508 226.452 183.208 226.224C182.92 225.984 182.53 225.864 182.038 225.864C181.582 225.864 181.228 225.948 180.976 226.116C180.736 226.284 180.616 226.518 180.616 226.818C180.616 227.154 180.784 227.412 181.12 227.592C181.456 227.76 181.978 227.934 182.686 228.114C183.406 228.294 184 228.48 184.468 228.672C184.936 228.864 185.338 229.164 185.674 229.572C186.022 229.968 186.202 230.496 186.214 231.156C186.214 231.732 186.052 232.248 185.728 232.704C185.416 233.16 184.96 233.52 184.36 233.784C183.772 234.036 183.082 234.162 182.29 234.162Z" fill="#1A1E26"/>
<path d="M47.536 278.848V280.032H42.688V283.792H46.624V284.976H42.688V290H41.232V278.848H47.536ZM50.0465 279.808C49.7692 279.808 49.5345 279.712 49.3425 279.52C49.1505 279.328 49.0545 279.093 49.0545 278.816C49.0545 278.539 49.1505 278.304 49.3425 278.112C49.5345 277.92 49.7692 277.824 50.0465 277.824C50.3132 277.824 50.5372 277.92 50.7185 278.112C50.9105 278.304 51.0065 278.539 51.0065 278.816C51.0065 279.093 50.9105 279.328 50.7185 279.52C50.5372 279.712 50.3132 279.808 50.0465 279.808ZM50.7505 281.232V290H49.2945V281.232H50.7505ZM54.688 282.656C54.944 282.155 55.3067 281.765 55.776 281.488C56.256 281.211 56.8373 281.072 57.52 281.072V282.576H57.136C55.504 282.576 54.688 283.461 54.688 285.232V290H53.232V281.232H54.688V282.656ZM62.3048 290.144C61.6328 290.144 61.0301 290.032 60.4968 289.808C59.9634 289.573 59.5421 289.253 59.2328 288.848C58.9234 288.432 58.7528 287.957 58.7208 287.424H60.2248C60.2674 287.861 60.4701 288.219 60.8328 288.496C61.2061 288.773 61.6914 288.912 62.2888 288.912C62.8434 288.912 63.2808 288.789 63.6008 288.544C63.9208 288.299 64.0808 287.989 64.0808 287.616C64.0808 287.232 63.9101 286.949 63.5688 286.768C63.2274 286.576 62.6994 286.389 61.9848 286.208C61.3341 286.037 60.8008 285.867 60.3848 285.696C59.9794 285.515 59.6274 285.253 59.3288 284.912C59.0408 284.56 58.8968 284.101 58.8968 283.536C58.8968 283.088 59.0301 282.677 59.2968 282.304C59.5634 281.931 59.9421 281.637 60.4328 281.424C60.9234 281.2 61.4834 281.088 62.1128 281.088C63.0834 281.088 63.8674 281.333 64.4648 281.824C65.0621 282.315 65.3821 282.987 65.4248 283.84H63.9688C63.9368 283.381 63.7501 283.013 63.4088 282.736C63.0781 282.459 62.6301 282.32 62.0648 282.32C61.5421 282.32 61.1261 282.432 60.8168 282.656C60.5074 282.88 60.3528 283.173 60.3528 283.536C60.3528 283.824 60.4434 284.064 60.6248 284.256C60.8168 284.437 61.0514 284.587 61.3288 284.704C61.6168 284.811 62.0114 284.933 62.5128 285.072C63.1421 285.243 63.6541 285.413 64.0488 285.584C64.4434 285.744 64.7794 285.989 65.0568 286.32C65.3448 286.651 65.4941 287.083 65.5048 287.616C65.5048 288.096 65.3714 288.528 65.1048 288.912C64.8381 289.296 64.4594 289.6 63.9688 289.824C63.4888 290.037 62.9341 290.144 62.3048 290.144ZM69.3361 282.432V287.6C69.3361 288.027 69.4268 288.331 69.6081 288.512C69.7895 288.683 70.1041 288.768 70.5521 288.768H71.6241V290H70.3121C69.5015 290 68.8935 289.813 68.4881 289.44C68.0828 289.067 67.8801 288.453 67.8801 287.6V282.432H66.7441V281.232H67.8801V279.024H69.3361V281.232H71.6241V282.432H69.3361ZM81.9259 281.072C82.9925 281.072 83.8565 281.397 84.5179 282.048C85.1792 282.688 85.5099 283.616 85.5099 284.832V290H84.0699V285.04C84.0699 284.165 83.8512 283.499 83.4139 283.04C82.9765 282.571 82.3792 282.336 81.6219 282.336C80.8539 282.336 80.2405 282.576 79.7819 283.056C79.3339 283.536 79.1099 284.235 79.1099 285.152V290H77.6539V281.232H79.1099V282.48C79.3979 282.032 79.7872 281.685 80.2779 281.44C80.7792 281.195 81.3285 281.072 81.9259 281.072ZM87.3443 285.584C87.3443 284.688 87.5256 283.904 87.8883 283.232C88.2509 282.549 88.7469 282.021 89.3763 281.648C90.0163 281.275 90.7256 281.088 91.5043 281.088C92.2723 281.088 92.9389 281.253 93.5043 281.584C94.0696 281.915 94.4909 282.331 94.7683 282.832V281.232H96.2403V290H94.7683V288.368C94.4803 288.88 94.0483 289.307 93.4723 289.648C92.9069 289.979 92.2456 290.144 91.4883 290.144C90.7096 290.144 90.0056 289.952 89.3763 289.568C88.7469 289.184 88.2509 288.645 87.8883 287.952C87.5256 287.259 87.3443 286.469 87.3443 285.584ZM94.7683 285.6C94.7683 284.939 94.6349 284.363 94.3683 283.872C94.1016 283.381 93.7389 283.008 93.2803 282.752C92.8323 282.485 92.3363 282.352 91.7923 282.352C91.2483 282.352 90.7523 282.48 90.3043 282.736C89.8563 282.992 89.4989 283.365 89.2323 283.856C88.9656 284.347 88.8323 284.923 88.8323 285.584C88.8323 286.256 88.9656 286.843 89.2323 287.344C89.4989 287.835 89.8563 288.213 90.3043 288.48C90.7523 288.736 91.2483 288.864 91.7923 288.864C92.3363 288.864 92.8323 288.736 93.2803 288.48C93.7389 288.213 94.1016 287.835 94.3683 287.344C94.6349 286.843 94.7683 286.261 94.7683 285.6ZM109.245 281.072C109.927 281.072 110.535 281.216 111.069 281.504C111.602 281.781 112.023 282.203 112.333 282.768C112.642 283.333 112.797 284.021 112.797 284.832V290H111.357V285.04C111.357 284.165 111.138 283.499 110.701 283.04C110.274 282.571 109.693 282.336 108.957 282.336C108.199 282.336 107.597 282.581 107.149 283.072C106.701 283.552 106.477 284.251 106.477 285.168V290H105.037V285.04C105.037 284.165 104.818 283.499 104.381 283.04C103.954 282.571 103.373 282.336 102.637 282.336C101.879 282.336 101.277 282.581 100.829 283.072C100.381 283.552 100.157 284.251 100.157 285.168V290H98.7008V281.232H100.157V282.496C100.445 282.037 100.829 281.685 101.309 281.44C101.799 281.195 102.338 281.072 102.925 281.072C103.661 281.072 104.311 281.237 104.877 281.568C105.442 281.899 105.863 282.384 106.141 283.024C106.386 282.405 106.791 281.925 107.357 281.584C107.922 281.243 108.551 281.072 109.245 281.072ZM123.185 285.28C123.185 285.557 123.169 285.851 123.137 286.16H116.129C116.182 287.024 116.476 287.701 117.009 288.192C117.553 288.672 118.209 288.912 118.977 288.912C119.606 288.912 120.129 288.768 120.545 288.48C120.972 288.181 121.27 287.787 121.441 287.296H123.009C122.774 288.139 122.305 288.827 121.601 289.36C120.897 289.883 120.022 290.144 118.977 290.144C118.145 290.144 117.398 289.957 116.737 289.584C116.086 289.211 115.574 288.683 115.201 288C114.828 287.307 114.641 286.507 114.641 285.6C114.641 284.693 114.822 283.899 115.185 283.216C115.548 282.533 116.054 282.011 116.705 281.648C117.366 281.275 118.124 281.088 118.977 281.088C119.809 281.088 120.545 281.269 121.185 281.632C121.825 281.995 122.316 282.496 122.657 283.136C123.009 283.765 123.185 284.48 123.185 285.28ZM121.681 284.976C121.681 284.421 121.558 283.947 121.313 283.552C121.068 283.147 120.732 282.843 120.305 282.64C119.889 282.427 119.425 282.32 118.913 282.32C118.177 282.32 117.548 282.555 117.025 283.024C116.513 283.493 116.22 284.144 116.145 284.976H121.681ZM125.571 290.096C125.294 290.096 125.059 290 124.867 289.808C124.675 289.616 124.579 289.381 124.579 289.104C124.579 288.827 124.675 288.592 124.867 288.4C125.059 288.208 125.294 288.112 125.571 288.112C125.838 288.112 126.062 288.208 126.243 288.4C126.435 288.592 126.531 288.827 126.531 289.104C126.531 289.381 126.435 289.616 126.243 289.808C126.062 290 125.838 290.096 125.571 290.096ZM125.571 283.248C125.294 283.248 125.059 283.152 124.867 282.96C124.675 282.768 124.579 282.533 124.579 282.256C124.579 281.979 124.675 281.744 124.867 281.552C125.059 281.36 125.294 281.264 125.571 281.264C125.838 281.264 126.062 281.36 126.243 281.552C126.435 281.744 126.531 281.979 126.531 282.256C126.531 282.533 126.435 282.768 126.243 282.96C126.062 283.152 125.838 283.248 125.571 283.248Z" fill="#6E7E9E"/>
<path d="M179.104 290L176.448 285.44H174.688V290H173.232V278.848H176.832C177.675 278.848 178.384 278.992 178.96 279.28C179.547 279.568 179.984 279.957 180.272 280.448C180.56 280.939 180.704 281.499 180.704 282.128C180.704 282.896 180.48 283.573 180.032 284.16C179.595 284.747 178.933 285.136 178.048 285.328L180.848 290H179.104ZM174.688 284.272H176.832C177.621 284.272 178.213 284.08 178.608 283.696C179.003 283.301 179.2 282.779 179.2 282.128C179.2 281.467 179.003 280.955 178.608 280.592C178.224 280.229 177.632 280.048 176.832 280.048H174.688V284.272ZM190.518 281.232L185.238 294.128H183.734L185.462 289.904L181.926 281.232H183.542L186.294 288.336L189.014 281.232H190.518ZM191.438 285.584C191.438 284.688 191.619 283.904 191.982 283.232C192.345 282.549 192.841 282.021 193.47 281.648C194.11 281.275 194.819 281.088 195.598 281.088C196.366 281.088 197.033 281.253 197.598 281.584C198.163 281.915 198.585 282.331 198.862 282.832V281.232H200.334V290H198.862V288.368C198.574 288.88 198.142 289.307 197.566 289.648C197.001 289.979 196.339 290.144 195.582 290.144C194.803 290.144 194.099 289.952 193.47 289.568C192.841 289.184 192.345 288.645 191.982 287.952C191.619 287.259 191.438 286.469 191.438 285.584ZM198.862 285.6C198.862 284.939 198.729 284.363 198.462 283.872C198.195 283.381 197.833 283.008 197.374 282.752C196.926 282.485 196.43 282.352 195.886 282.352C195.342 282.352 194.846 282.48 194.398 282.736C193.95 282.992 193.593 283.365 193.326 283.856C193.059 284.347 192.926 284.923 192.926 285.584C192.926 286.256 193.059 286.843 193.326 287.344C193.593 287.835 193.95 288.213 194.398 288.48C194.846 288.736 195.342 288.864 195.886 288.864C196.43 288.864 196.926 288.736 197.374 288.48C197.833 288.213 198.195 287.835 198.462 287.344C198.729 286.843 198.862 286.261 198.862 285.6ZM207.067 281.072C208.133 281.072 208.997 281.397 209.659 282.048C210.32 282.688 210.651 283.616 210.651 284.832V290H209.211V285.04C209.211 284.165 208.992 283.499 208.555 283.04C208.117 282.571 207.52 282.336 206.763 282.336C205.995 282.336 205.381 282.576 204.923 283.056C204.475 283.536 204.251 284.235 204.251 285.152V290H202.795V281.232H204.251V282.48C204.539 282.032 204.928 281.685 205.419 281.44C205.92 281.195 206.469 281.072 207.067 281.072Z" fill="#6E7E9E"/>
<line x1="40" y1="311.5" x2="472" y2="311.5" stroke="#E1E4EB"/>
<path d="M42.688 344.816H46.592V346H41.232V334.848H42.688V344.816ZM47.5943 341.584C47.5943 340.688 47.7756 339.904 48.1383 339.232C48.5009 338.549 48.9969 338.021 49.6263 337.648C50.2663 337.275 50.9756 337.088 51.7543 337.088C52.5223 337.088 53.1889 337.253 53.7543 337.584C54.3196 337.915 54.7409 338.331 55.0183 338.832V337.232H56.4903V346H55.0183V344.368C54.7303 344.88 54.2983 345.307 53.7223 345.648C53.1569 345.979 52.4956 346.144 51.7383 346.144C50.9596 346.144 50.2556 345.952 49.6263 345.568C48.9969 345.184 48.5009 344.645 48.1383 343.952C47.7756 343.259 47.5943 342.469 47.5943 341.584ZM55.0183 341.6C55.0183 340.939 54.8849 340.363 54.6183 339.872C54.3516 339.381 53.9889 339.008 53.5303 338.752C53.0823 338.485 52.5863 338.352 52.0423 338.352C51.4983 338.352 51.0023 338.48 50.5543 338.736C50.1063 338.992 49.7489 339.365 49.4823 339.856C49.2156 340.347 49.0823 340.923 49.0823 341.584C49.0823 342.256 49.2156 342.843 49.4823 343.344C49.7489 343.835 50.1063 344.213 50.5543 344.48C51.0023 344.736 51.4983 344.864 52.0423 344.864C52.5863 344.864 53.0823 344.736 53.5303 344.48C53.9889 344.213 54.3516 343.835 54.6183 343.344C54.8849 342.843 55.0183 342.261 55.0183 341.6ZM62.0548 346.144C61.3828 346.144 60.7801 346.032 60.2468 345.808C59.7134 345.573 59.2921 345.253 58.9828 344.848C58.6734 344.432 58.5028 343.957 58.4708 343.424H59.9748C60.0174 343.861 60.2201 344.219 60.5828 344.496C60.9561 344.773 61.4414 344.912 62.0388 344.912C62.5934 344.912 63.0308 344.789 63.3508 344.544C63.6708 344.299 63.8308 343.989 63.8308 343.616C63.8308 343.232 63.6601 342.949 63.3188 342.768C62.9774 342.576 62.4494 342.389 61.7348 342.208C61.0841 342.037 60.5508 341.867 60.1348 341.696C59.7294 341.515 59.3774 341.253 59.0788 340.912C58.7908 340.56 58.6468 340.101 58.6468 339.536C58.6468 339.088 58.7801 338.677 59.0468 338.304C59.3134 337.931 59.6921 337.637 60.1828 337.424C60.6734 337.2 61.2334 337.088 61.8628 337.088C62.8334 337.088 63.6174 337.333 64.2148 337.824C64.8121 338.315 65.1321 338.987 65.1748 339.84H63.7188C63.6868 339.381 63.5001 339.013 63.1588 338.736C62.8281 338.459 62.3801 338.32 61.8148 338.32C61.2921 338.32 60.8761 338.432 60.5668 338.656C60.2574 338.88 60.1028 339.173 60.1028 339.536C60.1028 339.824 60.1934 340.064 60.3748 340.256C60.5668 340.437 60.8014 340.587 61.0788 340.704C61.3668 340.811 61.7614 340.933 62.2628 341.072C62.8921 341.243 63.4041 341.413 63.7988 341.584C64.1934 341.744 64.5294 341.989 64.8068 342.32C65.0948 342.651 65.2441 343.083 65.2548 343.616C65.2548 344.096 65.1214 344.528 64.8548 344.912C64.5881 345.296 64.2094 345.6 63.7188 345.824C63.2388 346.037 62.6841 346.144 62.0548 346.144ZM69.0861 338.432V343.6C69.0861 344.027 69.1768 344.331 69.3581 344.512C69.5395 344.683 69.8541 344.768 70.3021 344.768H71.3741V346H70.0621C69.2515 346 68.6435 345.813 68.2381 345.44C67.8328 345.067 67.6301 344.453 67.6301 343.6V338.432H66.4941V337.232H67.6301V335.024H69.0861V337.232H71.3741V338.432H69.0861ZM81.6759 337.072C82.7425 337.072 83.6065 337.397 84.2679 338.048C84.9292 338.688 85.2599 339.616 85.2599 340.832V346H83.8199V341.04C83.8199 340.165 83.6012 339.499 83.1639 339.04C82.7265 338.571 82.1292 338.336 81.3719 338.336C80.6039 338.336 79.9905 338.576 79.5319 339.056C79.0839 339.536 78.8599 340.235 78.8599 341.152V346H77.4039V337.232H78.8599V338.48C79.1479 338.032 79.5372 337.685 80.0279 337.44C80.5292 337.195 81.0785 337.072 81.6759 337.072ZM87.0943 341.584C87.0943 340.688 87.2756 339.904 87.6383 339.232C88.0009 338.549 88.4969 338.021 89.1263 337.648C89.7663 337.275 90.4756 337.088 91.2543 337.088C92.0223 337.088 92.6889 337.253 93.2543 337.584C93.8196 337.915 94.2409 338.331 94.5183 338.832V337.232H95.9903V346H94.5183V344.368C94.2303 344.88 93.7983 345.307 93.2223 345.648C92.6569 345.979 91.9956 346.144 91.2383 346.144C90.4596 346.144 89.7556 345.952 89.1263 345.568C88.4969 345.184 88.0009 344.645 87.6383 343.952C87.2756 343.259 87.0943 342.469 87.0943 341.584ZM94.5183 341.6C94.5183 340.939 94.3849 340.363 94.1183 339.872C93.8516 339.381 93.4889 339.008 93.0303 338.752C92.5823 338.485 92.0863 338.352 91.5423 338.352C90.9983 338.352 90.5023 338.48 90.0543 338.736C89.6063 338.992 89.2489 339.365 88.9823 339.856C88.7156 340.347 88.5823 340.923 88.5823 341.584C88.5823 342.256 88.7156 342.843 88.9823 343.344C89.2489 343.835 89.6063 344.213 90.0543 344.48C90.5023 344.736 90.9983 344.864 91.5423 344.864C92.0863 344.864 92.5823 344.736 93.0303 344.48C93.4889 344.213 93.8516 343.835 94.1183 343.344C94.3849 342.843 94.5183 342.261 94.5183 341.6ZM108.995 337.072C109.677 337.072 110.285 337.216 110.819 337.504C111.352 337.781 111.773 338.203 112.083 338.768C112.392 339.333 112.547 340.021 112.547 340.832V346H111.107V341.04C111.107 340.165 110.888 339.499 110.451 339.04C110.024 338.571 109.443 338.336 108.707 338.336C107.949 338.336 107.347 338.581 106.899 339.072C106.451 339.552 106.227 340.251 106.227 341.168V346H104.787V341.04C104.787 340.165 104.568 339.499 104.131 339.04C103.704 338.571 103.123 338.336 102.387 338.336C101.629 338.336 101.027 338.581 100.579 339.072C100.131 339.552 99.9068 340.251 99.9068 341.168V346H98.4508V337.232H99.9068V338.496C100.195 338.037 100.579 337.685 101.059 337.44C101.549 337.195 102.088 337.072 102.675 337.072C103.411 337.072 104.061 337.237 104.627 337.568C105.192 337.899 105.613 338.384 105.891 339.024C106.136 338.405 106.541 337.925 107.107 337.584C107.672 337.243 108.301 337.072 108.995 337.072ZM122.935 341.28C122.935 341.557 122.919 341.851 122.887 342.16H115.879C115.932 343.024 116.226 343.701 116.759 344.192C117.303 344.672 117.959 344.912 118.727 344.912C119.356 344.912 119.879 344.768 120.295 344.48C120.722 344.181 121.02 343.787 121.191 343.296H122.759C122.524 344.139 122.055 344.827 121.351 345.36C120.647 345.883 119.772 346.144 118.727 346.144C117.895 346.144 117.148 345.957 116.487 345.584C115.836 345.211 115.324 344.683 114.951 344C114.578 343.307 114.391 342.507 114.391 341.6C114.391 340.693 114.572 339.899 114.935 339.216C115.298 338.533 115.804 338.011 116.455 337.648C117.116 337.275 117.874 337.088 118.727 337.088C119.559 337.088 120.295 337.269 120.935 337.632C121.575 337.995 122.066 338.496 122.407 339.136C122.759 339.765 122.935 340.48 122.935 341.28ZM121.431 340.976C121.431 340.421 121.308 339.947 121.063 339.552C120.818 339.147 120.482 338.843 120.055 338.64C119.639 338.427 119.175 338.32 118.663 338.32C117.927 338.32 117.298 338.555 116.775 339.024C116.263 339.493 115.97 340.144 115.895 340.976H121.431ZM125.321 346.096C125.044 346.096 124.809 346 124.617 345.808C124.425 345.616 124.329 345.381 124.329 345.104C124.329 344.827 124.425 344.592 124.617 344.4C124.809 344.208 125.044 344.112 125.321 344.112C125.588 344.112 125.812 344.208 125.993 344.4C126.185 344.592 126.281 344.827 126.281 345.104C126.281 345.381 126.185 345.616 125.993 345.808C125.812 346 125.588 346.096 125.321 346.096ZM125.321 339.248C125.044 339.248 124.809 339.152 124.617 338.96C124.425 338.768 124.329 338.533 124.329 338.256C124.329 337.979 124.425 337.744 124.617 337.552C124.809 337.36 125.044 337.264 125.321 337.264C125.588 337.264 125.812 337.36 125.993 337.552C126.185 337.744 126.281 337.979 126.281 338.256C126.281 338.533 126.185 338.768 125.993 338.96C125.812 339.152 125.588 339.248 125.321 339.248Z" fill="#6E7E9E"/>
<path d="M179.104 346L176.448 341.44H174.688V346H173.232V334.848H176.832C177.675 334.848 178.384 334.992 178.96 335.28C179.547 335.568 179.984 335.957 180.272 336.448C180.56 336.939 180.704 337.499 180.704 338.128C180.704 338.896 180.48 339.573 180.032 340.16C179.595 340.747 178.933 341.136 178.048 341.328L180.848 346H179.104ZM174.688 340.272H176.832C177.621 340.272 178.213 340.08 178.608 339.696C179.003 339.301 179.2 338.779 179.2 338.128C179.2 337.467 179.003 336.955 178.608 336.592C178.224 336.229 177.632 336.048 176.832 336.048H174.688V340.272ZM190.966 341.28C190.966 341.557 190.95 341.851 190.918 342.16H183.91C183.964 343.024 184.257 343.701 184.79 344.192C185.334 344.672 185.99 344.912 186.758 344.912C187.388 344.912 187.91 344.768 188.326 344.48C188.753 344.181 189.052 343.787 189.222 343.296H190.79C190.556 344.139 190.086 344.827 189.382 345.36C188.678 345.883 187.804 346.144 186.758 346.144C185.926 346.144 185.18 345.957 184.518 345.584C183.868 345.211 183.356 344.683 182.982 344C182.609 343.307 182.422 342.507 182.422 341.6C182.422 340.693 182.604 339.899 182.966 339.216C183.329 338.533 183.836 338.011 184.486 337.648C185.148 337.275 185.905 337.088 186.758 337.088C187.59 337.088 188.326 337.269 188.966 337.632C189.606 337.995 190.097 338.496 190.438 339.136C190.79 339.765 190.966 340.48 190.966 341.28ZM189.462 340.976C189.462 340.421 189.34 339.947 189.094 339.552C188.849 339.147 188.513 338.843 188.086 338.64C187.67 338.427 187.206 338.32 186.694 338.32C185.958 338.32 185.329 338.555 184.806 339.024C184.294 339.493 184.001 340.144 183.926 340.976H189.462ZM200.44 337.232L195.16 350.128H193.656L195.384 345.904L191.848 337.232H193.464L196.216 344.336L198.936 337.232H200.44ZM206.176 337.072C207.243 337.072 208.107 337.397 208.768 338.048C209.429 338.688 209.76 339.616 209.76 340.832V346H208.32V341.04C208.32 340.165 208.101 339.499 207.664 339.04C207.227 338.571 206.629 338.336 205.872 338.336C205.104 338.336 204.491 338.576 204.032 339.056C203.584 339.536 203.36 340.235 203.36 341.152V346H201.904V337.232H203.36V338.48C203.648 338.032 204.037 337.685 204.528 337.44C205.029 337.195 205.579 337.072 206.176 337.072ZM215.962 346.144C215.141 346.144 214.394 345.957 213.722 345.584C213.061 345.211 212.538 344.683 212.154 344C211.781 343.307 211.594 342.507 211.594 341.6C211.594 340.704 211.786 339.915 212.17 339.232C212.565 338.539 213.098 338.011 213.77 337.648C214.442 337.275 215.194 337.088 216.026 337.088C216.858 337.088 217.61 337.275 218.282 337.648C218.954 338.011 219.482 338.533 219.866 339.216C220.261 339.899 220.458 340.693 220.458 341.6C220.458 342.507 220.256 343.307 219.85 344C219.456 344.683 218.917 345.211 218.234 345.584C217.552 345.957 216.794 346.144 215.962 346.144ZM215.962 344.864C216.485 344.864 216.976 344.741 217.434 344.496C217.893 344.251 218.261 343.883 218.538 343.392C218.826 342.901 218.97 342.304 218.97 341.6C218.97 340.896 218.832 340.299 218.554 339.808C218.277 339.317 217.914 338.955 217.466 338.72C217.018 338.475 216.533 338.352 216.01 338.352C215.477 338.352 214.986 338.475 214.538 338.72C214.101 338.955 213.749 339.317 213.482 339.808C213.216 340.299 213.082 340.896 213.082 341.6C213.082 342.315 213.21 342.917 213.466 343.408C213.733 343.899 214.085 344.267 214.522 344.512C214.96 344.747 215.44 344.864 215.962 344.864ZM223.829 334.16V346H222.373V334.16H223.829ZM225.766 341.584C225.766 340.688 225.947 339.904 226.31 339.232C226.673 338.549 227.169 338.021 227.798 337.648C228.438 337.275 229.153 337.088 229.942 337.088C230.625 337.088 231.259 337.248 231.846 337.568C232.433 337.877 232.881 338.288 233.19 338.8V334.16H234.662V346H233.19V344.352C232.902 344.875 232.475 345.307 231.91 345.648C231.345 345.979 230.683 346.144 229.926 346.144C229.147 346.144 228.438 345.952 227.798 345.568C227.169 345.184 226.673 344.645 226.31 343.952C225.947 343.259 225.766 342.469 225.766 341.584ZM233.19 341.6C233.19 340.939 233.057 340.363 232.79 339.872C232.523 339.381 232.161 339.008 231.702 338.752C231.254 338.485 230.758 338.352 230.214 338.352C229.67 338.352 229.174 338.48 228.726 338.736C228.278 338.992 227.921 339.365 227.654 339.856C227.387 340.347 227.254 340.923 227.254 341.584C227.254 342.256 227.387 342.843 227.654 343.344C227.921 343.835 228.278 344.213 228.726 344.48C229.174 344.736 229.67 344.864 230.214 344.864C230.758 344.864 231.254 344.736 231.702 344.48C232.161 344.213 232.523 343.835 232.79 343.344C233.057 342.843 233.19 342.261 233.19 341.6ZM240.227 346.144C239.555 346.144 238.952 346.032 238.419 345.808C237.885 345.573 237.464 345.253 237.155 344.848C236.845 344.432 236.675 343.957 236.643 343.424H238.147C238.189 343.861 238.392 344.219 238.755 344.496C239.128 344.773 239.613 344.912 240.211 344.912C240.765 344.912 241.203 344.789 241.523 344.544C241.843 344.299 242.003 343.989 242.003 343.616C242.003 343.232 241.832 342.949 241.491 342.768C241.149 342.576 240.621 342.389 239.907 342.208C239.256 342.037 238.723 341.867 238.307 341.696C237.901 341.515 237.549 341.253 237.251 340.912C236.963 340.56 236.819 340.101 236.819 339.536C236.819 339.088 236.952 338.677 237.219 338.304C237.485 337.931 237.864 337.637 238.355 337.424C238.845 337.2 239.405 337.088 240.035 337.088C241.005 337.088 241.789 337.333 242.387 337.824C242.984 338.315 243.304 338.987 243.347 339.84H241.891C241.859 339.381 241.672 339.013 241.331 338.736C241 338.459 240.552 338.32 239.987 338.32C239.464 338.32 239.048 338.432 238.739 338.656C238.429 338.88 238.275 339.173 238.275 339.536C238.275 339.824 238.365 340.064 238.547 340.256C238.739 340.437 238.973 340.587 239.251 340.704C239.539 340.811 239.933 340.933 240.435 341.072C241.064 341.243 241.576 341.413 241.971 341.584C242.365 341.744 242.701 341.989 242.979 342.32C243.267 342.651 243.416 343.083 243.427 343.616C243.427 344.096 243.293 344.528 243.027 344.912C242.76 345.296 242.381 345.6 241.891 345.824C241.411 346.037 240.856 346.144 240.227 346.144Z" fill="#6E7E9E"/>
<line x1="40" y1="367.5" x2="472" y2="367.5" stroke="#E1E4EB"/>
<rect x="40" y="392" width="100" height="8" rx="4" fill="#E1E4EB"/>
<rect x="40" y="424" width="100" height="8" rx="4" fill="#E1E4EB"/>
<rect x="172" y="392" width="160" height="8" rx="4" fill="#E1E4EB"/>
<rect x="172" y="424" width="100" height="8" rx="4" fill="#E1E4EB"/>
<rect x="344" y="92" width="32" height="32" rx="16" fill="#C9CFDB"/>
<path fill-rule="evenodd" clip-rule="evenodd" d="M361.639 117V108.9H364.098L364.5 105.3H361.639V103.547C361.639 102.62 361.663 101.7 362.958 101.7H364.27V99.1261C364.27 99.0874 363.143 99 362.003 99C359.622 99 358.131 100.491 358.131 103.23V105.3H355.5V108.9H358.131V117H361.639Z" fill="white"/>
<rect x="392" y="92" width="32" height="32" rx="16" fill="#C9CFDB"/>
<g clip-path="url(#clip1_3184_20322)">
<path fill-rule="evenodd" clip-rule="evenodd" d="M416 116H412.8V110.401C412.8 108.865 412.122 108.008 410.907 108.008C409.585 108.008 408.8 108.901 408.8 110.401V116H405.6V105.6H408.8V106.77C408.8 106.77 409.804 105.008 412.066 105.008C414.33 105.008 416 106.389 416 109.246V116ZM401.954 103.937C400.874 103.937 400 103.055 400 101.968C400 100.882 400.874 100 401.954 100C403.032 100 403.906 100.882 403.906 101.968C403.907 103.055 403.032 103.937 401.954 103.937ZM400 116H404V105.6H400V116Z" fill="white"/>
</g>
<rect x="440" y="92" width="32" height="32" rx="16" fill="#C9CFDB"/>
<path d="M456 100C458.174 100 458.445 100.008 459.298 100.048C460.15 100.088 460.73 100.222 461.24 100.42C461.768 100.623 462.213 100.898 462.658 101.342C463.064 101.742 463.379 102.226 463.58 102.76C463.778 103.27 463.912 103.85 463.952 104.702C463.99 105.555 464 105.826 464 108C464 110.174 463.992 110.445 463.952 111.298C463.912 112.15 463.778 112.73 463.58 113.24C463.38 113.774 463.065 114.258 462.658 114.658C462.258 115.064 461.774 115.379 461.24 115.58C460.73 115.778 460.15 115.912 459.298 115.952C458.445 115.99 458.174 116 456 116C453.826 116 453.555 115.992 452.702 115.952C451.85 115.912 451.27 115.778 450.76 115.58C450.226 115.38 449.742 115.065 449.342 114.658C448.936 114.258 448.621 113.774 448.42 113.24C448.222 112.73 448.088 112.15 448.048 111.298C448.01 110.445 448 110.174 448 108C448 105.826 448.008 105.555 448.048 104.702C448.088 103.85 448.222 103.27 448.42 102.76C448.62 102.226 448.935 101.742 449.342 101.342C449.742 100.935 450.226 100.621 450.76 100.42C451.27 100.222 451.85 100.088 452.702 100.048C453.555 100.01 453.826 100 456 100ZM456 104C454.939 104 453.922 104.421 453.172 105.172C452.421 105.922 452 106.939 452 108C452 109.061 452.421 110.078 453.172 110.828C453.922 111.579 454.939 112 456 112C457.061 112 458.078 111.579 458.828 110.828C459.579 110.078 460 109.061 460 108C460 106.939 459.579 105.922 458.828 105.172C458.078 104.421 457.061 104 456 104ZM461.2 103.8C461.2 103.535 461.095 103.28 460.907 103.093C460.72 102.905 460.465 102.8 460.2 102.8C459.935 102.8 459.68 102.905 459.493 103.093C459.305 103.28 459.2 103.535 459.2 103.8C459.2 104.065 459.305 104.32 459.493 104.507C459.68 104.695 459.935 104.8 460.2 104.8C460.465 104.8 460.72 104.695 460.907 104.507C461.095 104.32 461.2 104.065 461.2 103.8ZM456 105.6C456.637 105.6 457.247 105.853 457.697 106.303C458.147 106.753 458.4 107.363 458.4 108C458.4 108.637 458.147 109.247 457.697 109.697C457.247 110.147 456.637 110.4 456 110.4C455.363 110.4 454.753 110.147 454.303 109.697C453.853 109.247 453.6 108.637 453.6 108C453.6 107.363 453.853 106.753 454.303 106.303C454.753 105.853 455.363 105.6 456 105.6Z" fill="white"/>
<defs>
<clipPath id="clip0_3184_20322">
<rect width="98" height="98" fill="white" transform="translate(55 58)"/>
</clipPath>
<clipPath id="clip1_3184_20322">
<rect width="16" height="16" fill="white" transform="translate(400 100)"/>
</clipPath>
</defs>
</svg>
