<svg width="512" height="512" viewBox="0 0 512 512" fill="none" xmlns="http://www.w3.org/2000/svg">
<rect width="512" height="512" fill="white"/>
<rect x="40.5" y="40.5" width="431" height="167" rx="15.5" fill="white"/>
<rect x="40.5" y="40.5" width="431" height="167" rx="15.5" stroke="#E1E4EB"/>
<rect x="60" y="60" width="128" height="128" rx="24" fill="#C9CFDB"/>
<path d="M124 133.125C135.275 133.125 144.416 123.984 144.416 112.708C144.416 101.432 135.275 92.2916 124 92.2916C112.724 92.2916 103.583 101.432 103.583 112.708C103.583 123.984 112.724 133.125 124 133.125Z" fill="white"/>
<path d="M124 143.333C103.543 143.333 86.8828 157.053 86.8828 173.958C86.8828 175.102 87.7811 176 88.9245 176H159.076C160.22 176 161.118 175.102 161.118 173.958C161.118 157.053 144.458 143.333 124 143.333Z" fill="white"/>
<rect x="220" y="148" width="32" height="32" rx="16" fill="#C9CFDB"/>
<path d="M239.75 171.5H232.25C231.942 171.5 231.688 171.245 231.688 170.938C231.688 170.63 231.942 170.375 232.25 170.375H239.75C240.057 170.375 240.312 170.63 240.312 170.938C240.312 171.245 240.057 171.5 239.75 171.5Z" fill="white"/>
<path d="M242.262 159.139L239.262 161.284C238.865 161.569 238.295 161.397 238.122 160.939L236.705 157.159C236.465 156.507 235.542 156.507 235.302 157.159L233.877 160.932C233.705 161.397 233.142 161.569 232.745 161.277L229.745 159.132C229.145 158.712 228.35 159.304 228.597 160.002L231.717 168.739C231.822 169.039 232.107 169.234 232.422 169.234H239.57C239.885 169.234 240.17 169.032 240.275 168.739L243.395 160.002C243.65 159.304 242.855 158.712 242.262 159.139ZM237.875 166.062H234.125C233.817 166.062 233.562 165.807 233.562 165.499C233.562 165.192 233.817 164.937 234.125 164.937H237.875C238.182 164.937 238.437 165.192 238.437 165.499C238.437 165.807 238.182 166.062 237.875 166.062Z" fill="white"/>
<rect x="268" y="148" width="32" height="32" rx="16" fill="#C9CFDB"/>
<path d="M288.432 163.041H286.115V157.641C286.115 156.381 285.432 156.126 284.6 157.071L284 157.753L278.922 163.528C278.225 164.316 278.517 164.961 279.567 164.961H281.885V170.361C281.885 171.621 282.567 171.876 283.4 170.931L284 170.248L289.077 164.473C289.775 163.686 289.482 163.041 288.432 163.041Z" fill="white"/>
<path d="M233.872 74.432C233.872 75.328 233.656 76.168 233.224 76.952C232.808 77.736 232.144 78.368 231.232 78.848C230.336 79.328 229.2 79.568 227.824 79.568H225.016V86H221.656V69.248H227.824C229.12 69.248 230.224 69.472 231.136 69.92C232.048 70.368 232.728 70.984 233.176 71.768C233.64 72.552 233.872 73.44 233.872 74.432ZM227.68 76.856C228.608 76.856 229.296 76.648 229.744 76.232C230.192 75.8 230.416 75.2 230.416 74.432C230.416 72.8 229.504 71.984 227.68 71.984H225.016V76.856H227.68ZM248.618 79.064C248.618 79.544 248.586 79.976 248.522 80.36H238.802C238.882 81.32 239.218 82.072 239.81 82.616C240.402 83.16 241.13 83.432 241.994 83.432C243.242 83.432 244.13 82.896 244.658 81.824H248.282C247.898 83.104 247.162 84.16 246.074 84.992C244.986 85.808 243.65 86.216 242.066 86.216C240.786 86.216 239.634 85.936 238.61 85.376C237.602 84.8 236.81 83.992 236.234 82.952C235.674 81.912 235.394 80.712 235.394 79.352C235.394 77.976 235.674 76.768 236.234 75.728C236.794 74.688 237.578 73.888 238.586 73.328C239.594 72.768 240.754 72.488 242.066 72.488C243.33 72.488 244.458 72.76 245.45 73.304C246.458 73.848 247.234 74.624 247.778 75.632C248.338 76.624 248.618 77.768 248.618 79.064ZM245.138 78.104C245.122 77.24 244.81 76.552 244.202 76.04C243.594 75.512 242.85 75.248 241.97 75.248C241.138 75.248 240.434 75.504 239.858 76.016C239.298 76.512 238.954 77.208 238.826 78.104H245.138ZM250.206 79.304C250.206 77.96 250.47 76.768 250.998 75.728C251.542 74.688 252.278 73.888 253.206 73.328C254.134 72.768 255.166 72.488 256.302 72.488C257.166 72.488 257.99 72.68 258.774 73.064C259.558 73.432 260.182 73.928 260.646 74.552V68.24H264.054V86H260.646V84.032C260.23 84.688 259.646 85.216 258.894 85.616C258.142 86.016 257.27 86.216 256.278 86.216C255.158 86.216 254.134 85.928 253.206 85.352C252.278 84.776 251.542 83.968 250.998 82.928C250.47 81.872 250.206 80.664 250.206 79.304ZM260.67 79.352C260.67 78.536 260.51 77.84 260.19 77.264C259.87 76.672 259.438 76.224 258.894 75.92C258.35 75.6 257.766 75.44 257.142 75.44C256.518 75.44 255.942 75.592 255.414 75.896C254.886 76.2 254.454 76.648 254.118 77.24C253.798 77.816 253.638 78.504 253.638 79.304C253.638 80.104 253.798 80.808 254.118 81.416C254.454 82.008 254.886 82.464 255.414 82.784C255.958 83.104 256.534 83.264 257.142 83.264C257.766 83.264 258.35 83.112 258.894 82.808C259.438 82.488 259.87 82.04 260.19 81.464C260.51 80.872 260.67 80.168 260.67 79.352ZM270.696 74.768C271.128 74.064 271.688 73.512 272.376 73.112C273.08 72.712 273.88 72.512 274.776 72.512V76.04H273.888C272.832 76.04 272.032 76.288 271.488 76.784C270.96 77.28 270.696 78.144 270.696 79.376V86H267.336V72.704H270.696V74.768ZM282.943 86.216C281.663 86.216 280.511 85.936 279.487 85.376C278.463 84.8 277.655 83.992 277.063 82.952C276.487 81.912 276.199 80.712 276.199 79.352C276.199 77.992 276.495 76.792 277.087 75.752C277.695 74.712 278.519 73.912 279.559 73.352C280.599 72.776 281.759 72.488 283.039 72.488C284.319 72.488 285.479 72.776 286.519 73.352C287.559 73.912 288.375 74.712 288.967 75.752C289.575 76.792 289.879 77.992 289.879 79.352C289.879 80.712 289.567 81.912 288.943 82.952C288.335 83.992 287.503 84.8 286.447 85.376C285.407 85.936 284.239 86.216 282.943 86.216ZM282.943 83.288C283.551 83.288 284.119 83.144 284.647 82.856C285.191 82.552 285.623 82.104 285.943 81.512C286.263 80.92 286.423 80.2 286.423 79.352C286.423 78.088 286.087 77.12 285.415 76.448C284.759 75.76 283.951 75.416 282.991 75.416C282.031 75.416 281.223 75.76 280.567 76.448C279.927 77.12 279.607 78.088 279.607 79.352C279.607 80.616 279.919 81.592 280.543 82.28C281.183 82.952 281.983 83.288 282.943 83.288ZM310.278 74.432C310.278 75.328 310.062 76.168 309.63 76.952C309.214 77.736 308.55 78.368 307.638 78.848C306.742 79.328 305.606 79.568 304.23 79.568H301.422V86H298.062V69.248H304.23C305.526 69.248 306.63 69.472 307.542 69.92C308.454 70.368 309.134 70.984 309.582 71.768C310.046 72.552 310.278 73.44 310.278 74.432ZM304.086 76.856C305.014 76.856 305.702 76.648 306.15 76.232C306.598 75.8 306.822 75.2 306.822 74.432C306.822 72.8 305.91 71.984 304.086 71.984H301.422V76.856H304.086ZM311.8 79.304C311.8 77.96 312.064 76.768 312.592 75.728C313.136 74.688 313.864 73.888 314.776 73.328C315.704 72.768 316.736 72.488 317.872 72.488C318.864 72.488 319.728 72.688 320.464 73.088C321.216 73.488 321.816 73.992 322.264 74.6V72.704H325.648V86H322.264V84.056C321.832 84.68 321.232 85.2 320.464 85.616C319.712 86.016 318.84 86.216 317.848 86.216C316.728 86.216 315.704 85.928 314.776 85.352C313.864 84.776 313.136 83.968 312.592 82.928C312.064 81.872 311.8 80.664 311.8 79.304ZM322.264 79.352C322.264 78.536 322.104 77.84 321.784 77.264C321.464 76.672 321.032 76.224 320.488 75.92C319.944 75.6 319.36 75.44 318.736 75.44C318.112 75.44 317.536 75.592 317.008 75.896C316.48 76.2 316.048 76.648 315.712 77.24C315.392 77.816 315.232 78.504 315.232 79.304C315.232 80.104 315.392 80.808 315.712 81.416C316.048 82.008 316.48 82.464 317.008 82.784C317.552 83.104 318.128 83.264 318.736 83.264C319.36 83.264 319.944 83.112 320.488 82.808C321.032 82.488 321.464 82.04 321.784 81.464C322.104 80.872 322.264 80.168 322.264 79.352ZM334.017 86.216C332.929 86.216 331.953 86.024 331.089 85.64C330.225 85.24 329.537 84.704 329.025 84.032C328.529 83.36 328.257 82.616 328.209 81.8H331.593C331.657 82.312 331.905 82.736 332.337 83.072C332.785 83.408 333.337 83.576 333.993 83.576C334.633 83.576 335.129 83.448 335.481 83.192C335.849 82.936 336.033 82.608 336.033 82.208C336.033 81.776 335.809 81.456 335.361 81.248C334.929 81.024 334.233 80.784 333.273 80.528C332.281 80.288 331.465 80.04 330.825 79.784C330.201 79.528 329.657 79.136 329.193 78.608C328.745 78.08 328.521 77.368 328.521 76.472C328.521 75.736 328.729 75.064 329.145 74.456C329.577 73.848 330.185 73.368 330.969 73.016C331.769 72.664 332.705 72.488 333.777 72.488C335.361 72.488 336.625 72.888 337.569 73.688C338.513 74.472 339.033 75.536 339.129 76.88H335.913C335.865 76.352 335.641 75.936 335.241 75.632C334.857 75.312 334.337 75.152 333.681 75.152C333.073 75.152 332.601 75.264 332.265 75.488C331.945 75.712 331.785 76.024 331.785 76.424C331.785 76.872 332.009 77.216 332.457 77.456C332.905 77.68 333.601 77.912 334.545 78.152C335.505 78.392 336.297 78.64 336.921 78.896C337.545 79.152 338.081 79.552 338.529 80.096C338.993 80.624 339.233 81.328 339.249 82.208C339.249 82.976 339.033 83.664 338.601 84.272C338.185 84.88 337.577 85.36 336.777 85.712C335.993 86.048 335.073 86.216 334.017 86.216ZM341.144 79.352C341.144 77.976 341.424 76.776 341.984 75.752C342.544 74.712 343.32 73.912 344.312 73.352C345.304 72.776 346.44 72.488 347.72 72.488C349.368 72.488 350.728 72.904 351.8 73.736C352.888 74.552 353.616 75.704 353.984 77.192H350.36C350.168 76.616 349.84 76.168 349.376 75.848C348.928 75.512 348.368 75.344 347.696 75.344C346.736 75.344 345.976 75.696 345.416 76.4C344.856 77.088 344.576 78.072 344.576 79.352C344.576 80.616 344.856 81.6 345.416 82.304C345.976 82.992 346.736 83.336 347.696 83.336C349.056 83.336 349.944 82.728 350.36 81.512H353.984C353.616 82.952 352.888 84.096 351.8 84.944C350.712 85.792 349.352 86.216 347.72 86.216C346.44 86.216 345.304 85.936 344.312 85.376C343.32 84.8 342.544 84 341.984 82.976C341.424 81.936 341.144 80.728 341.144 79.352ZM355.581 79.304C355.581 77.96 355.845 76.768 356.373 75.728C356.917 74.688 357.645 73.888 358.557 73.328C359.485 72.768 360.517 72.488 361.653 72.488C362.645 72.488 363.509 72.688 364.245 73.088C364.997 73.488 365.597 73.992 366.045 74.6V72.704H369.429V86H366.045V84.056C365.613 84.68 365.013 85.2 364.245 85.616C363.493 86.016 362.621 86.216 361.629 86.216C360.509 86.216 359.485 85.928 358.557 85.352C357.645 84.776 356.917 83.968 356.373 82.928C355.845 81.872 355.581 80.664 355.581 79.304ZM366.045 79.352C366.045 78.536 365.885 77.84 365.565 77.264C365.245 76.672 364.813 76.224 364.269 75.92C363.725 75.6 363.141 75.44 362.517 75.44C361.893 75.44 361.317 75.592 360.789 75.896C360.261 76.2 359.829 76.648 359.493 77.24C359.173 77.816 359.013 78.504 359.013 79.304C359.013 80.104 359.173 80.808 359.493 81.416C359.829 82.008 360.261 82.464 360.789 82.784C361.333 83.104 361.909 83.264 362.517 83.264C363.141 83.264 363.725 83.112 364.269 82.808C364.813 82.488 365.245 82.04 365.565 81.464C365.885 80.872 366.045 80.168 366.045 79.352ZM376.071 68.24V86H372.711V68.24H376.071Z" fill="#1A1E26"/>
<path d="M224.768 122.112C224.032 122.112 223.371 121.984 222.784 121.728C222.208 121.461 221.755 121.099 221.424 120.64C221.093 120.171 220.923 119.632 220.912 119.024H222.464C222.517 119.547 222.731 119.989 223.104 120.352C223.488 120.704 224.043 120.88 224.768 120.88C225.461 120.88 226.005 120.709 226.4 120.368C226.805 120.016 227.008 119.568 227.008 119.024C227.008 118.597 226.891 118.251 226.656 117.984C226.421 117.717 226.128 117.515 225.776 117.376C225.424 117.237 224.949 117.088 224.352 116.928C223.616 116.736 223.024 116.544 222.576 116.352C222.139 116.16 221.76 115.861 221.44 115.456C221.131 115.04 220.976 114.485 220.976 113.792C220.976 113.184 221.131 112.645 221.44 112.176C221.749 111.707 222.181 111.344 222.736 111.088C223.301 110.832 223.947 110.704 224.672 110.704C225.717 110.704 226.571 110.965 227.232 111.488C227.904 112.011 228.283 112.704 228.368 113.568H226.768C226.715 113.141 226.491 112.768 226.096 112.448C225.701 112.117 225.179 111.952 224.528 111.952C223.92 111.952 223.424 112.112 223.04 112.432C222.656 112.741 222.464 113.179 222.464 113.744C222.464 114.149 222.576 114.48 222.8 114.736C223.035 114.992 223.317 115.189 223.648 115.328C223.989 115.456 224.464 115.605 225.072 115.776C225.808 115.979 226.4 116.181 226.848 116.384C227.296 116.576 227.68 116.88 228 117.296C228.32 117.701 228.48 118.256 228.48 118.96C228.48 119.504 228.336 120.016 228.048 120.496C227.76 120.976 227.333 121.365 226.768 121.664C226.203 121.963 225.536 122.112 224.768 122.112ZM231.375 111.808C231.097 111.808 230.863 111.712 230.671 111.52C230.479 111.328 230.383 111.093 230.383 110.816C230.383 110.539 230.479 110.304 230.671 110.112C230.863 109.92 231.097 109.824 231.375 109.824C231.641 109.824 231.865 109.92 232.047 110.112C232.239 110.304 232.335 110.539 232.335 110.816C232.335 111.093 232.239 111.328 232.047 111.52C231.865 111.712 231.641 111.808 231.375 111.808ZM232.079 113.232V122H230.623V113.232H232.079ZM238.832 113.072C239.899 113.072 240.763 113.397 241.424 114.048C242.085 114.688 242.416 115.616 242.416 116.832V122H240.976V117.04C240.976 116.165 240.757 115.499 240.32 115.04C239.883 114.571 239.285 114.336 238.528 114.336C237.76 114.336 237.147 114.576 236.688 115.056C236.24 115.536 236.016 116.235 236.016 117.152V122H234.56V113.232H236.016V114.48C236.304 114.032 236.693 113.685 237.184 113.44C237.685 113.195 238.235 113.072 238.832 113.072ZM244.251 117.6C244.251 116.693 244.432 115.904 244.795 115.232C245.157 114.549 245.659 114.021 246.299 113.648C246.949 113.275 247.691 113.088 248.523 113.088C249.6 113.088 250.485 113.349 251.179 113.872C251.883 114.395 252.347 115.12 252.571 116.048H251.003C250.853 115.515 250.56 115.093 250.123 114.784C249.696 114.475 249.163 114.32 248.523 114.32C247.691 114.32 247.019 114.608 246.507 115.184C245.995 115.749 245.739 116.555 245.739 117.6C245.739 118.656 245.995 119.472 246.507 120.048C247.019 120.624 247.691 120.912 248.523 120.912C249.163 120.912 249.696 120.763 250.123 120.464C250.549 120.165 250.843 119.739 251.003 119.184H252.571C252.336 120.08 251.867 120.8 251.163 121.344C250.459 121.877 249.579 122.144 248.523 122.144C247.691 122.144 246.949 121.957 246.299 121.584C245.659 121.211 245.157 120.683 244.795 120C244.432 119.317 244.251 118.517 244.251 117.6ZM262.513 117.28C262.513 117.557 262.497 117.851 262.465 118.16H255.457C255.511 119.024 255.804 119.701 256.337 120.192C256.881 120.672 257.537 120.912 258.305 120.912C258.935 120.912 259.457 120.768 259.873 120.48C260.3 120.181 260.599 119.787 260.769 119.296H262.337C262.103 120.139 261.633 120.827 260.929 121.36C260.225 121.883 259.351 122.144 258.305 122.144C257.473 122.144 256.727 121.957 256.065 121.584C255.415 121.211 254.903 120.683 254.529 120C254.156 119.307 253.969 118.507 253.969 117.6C253.969 116.693 254.151 115.899 254.513 115.216C254.876 114.533 255.383 114.011 256.033 113.648C256.695 113.275 257.452 113.088 258.305 113.088C259.137 113.088 259.873 113.269 260.513 113.632C261.153 113.995 261.644 114.496 261.985 115.136C262.337 115.765 262.513 116.48 262.513 117.28ZM261.009 116.976C261.009 116.421 260.887 115.947 260.641 115.552C260.396 115.147 260.06 114.843 259.633 114.64C259.217 114.427 258.753 114.32 258.241 114.32C257.505 114.32 256.876 114.555 256.353 115.024C255.841 115.493 255.548 116.144 255.473 116.976H261.009ZM275.837 111.696H270.221V115.344C270.466 115.003 270.829 114.725 271.309 114.512C271.789 114.288 272.306 114.176 272.861 114.176C273.746 114.176 274.466 114.363 275.021 114.736C275.575 115.099 275.97 115.573 276.205 116.16C276.45 116.736 276.573 117.349 276.573 118C276.573 118.768 276.429 119.456 276.141 120.064C275.853 120.672 275.41 121.152 274.813 121.504C274.226 121.856 273.495 122.032 272.621 122.032C271.501 122.032 270.594 121.744 269.901 121.168C269.207 120.592 268.786 119.824 268.637 118.864H270.061C270.199 119.472 270.493 119.947 270.941 120.288C271.389 120.629 271.954 120.8 272.637 120.8C273.479 120.8 274.114 120.549 274.541 120.048C274.967 119.536 275.181 118.864 275.181 118.032C275.181 117.2 274.967 116.56 274.541 116.112C274.114 115.653 273.485 115.424 272.653 115.424C272.087 115.424 271.591 115.563 271.165 115.84C270.749 116.107 270.445 116.475 270.253 116.944H268.877V110.416H275.837V111.696ZM289.605 119.52H284.741L283.845 122H282.309L286.341 110.912H288.021L292.037 122H290.501L289.605 119.52ZM289.189 118.336L287.173 112.704L285.157 118.336H289.189ZM295.251 114.848C295.539 114.347 295.965 113.931 296.531 113.6C297.107 113.259 297.773 113.088 298.531 113.088C299.309 113.088 300.013 113.275 300.642 113.648C301.282 114.021 301.784 114.549 302.147 115.232C302.509 115.904 302.691 116.688 302.691 117.584C302.691 118.469 302.509 119.259 302.147 119.952C301.784 120.645 301.282 121.184 300.642 121.568C300.013 121.952 299.309 122.144 298.531 122.144C297.784 122.144 297.123 121.979 296.547 121.648C295.981 121.307 295.549 120.885 295.251 120.384V126.16H293.795V113.232H295.251V114.848ZM301.203 117.584C301.203 116.923 301.069 116.347 300.803 115.856C300.536 115.365 300.173 114.992 299.715 114.736C299.267 114.48 298.771 114.352 298.227 114.352C297.693 114.352 297.197 114.485 296.739 114.752C296.291 115.008 295.928 115.387 295.651 115.888C295.384 116.379 295.251 116.949 295.251 117.6C295.251 118.261 295.384 118.843 295.651 119.344C295.928 119.835 296.291 120.213 296.739 120.48C297.197 120.736 297.693 120.864 298.227 120.864C298.771 120.864 299.267 120.736 299.715 120.48C300.173 120.213 300.536 119.835 300.803 119.344C301.069 118.843 301.203 118.256 301.203 117.584ZM306.063 114.656C306.319 114.155 306.682 113.765 307.151 113.488C307.631 113.211 308.212 113.072 308.895 113.072V114.576H308.511C306.879 114.576 306.063 115.461 306.063 117.232V122H304.607V113.232H306.063V114.656ZM311.328 111.808C311.05 111.808 310.816 111.712 310.624 111.52C310.432 111.328 310.336 111.093 310.336 110.816C310.336 110.539 310.432 110.304 310.624 110.112C310.816 109.92 311.05 109.824 311.328 109.824C311.594 109.824 311.818 109.92 312 110.112C312.192 110.304 312.288 110.539 312.288 110.816C312.288 111.093 312.192 111.328 312 111.52C311.818 111.712 311.594 111.808 311.328 111.808ZM312.032 113.232V122H310.576V113.232H312.032ZM315.969 110.16V122H314.513V110.16H315.969ZM319.955 119.984L318.163 124.288H317.187L318.355 119.984H319.955ZM325.472 120.832C326.827 119.744 327.888 118.853 328.656 118.16C329.424 117.456 330.07 116.725 330.592 115.968C331.126 115.2 331.392 114.448 331.392 113.712C331.392 113.019 331.222 112.475 330.88 112.08C330.55 111.675 330.011 111.472 329.264 111.472C328.539 111.472 327.974 111.701 327.568 112.16C327.174 112.608 326.96 113.211 326.928 113.968H325.52C325.563 112.773 325.926 111.851 326.608 111.2C327.291 110.549 328.171 110.224 329.248 110.224C330.347 110.224 331.216 110.528 331.856 111.136C332.507 111.744 332.832 112.581 332.832 113.648C332.832 114.533 332.566 115.397 332.032 116.24C331.51 117.072 330.912 117.808 330.24 118.448C329.568 119.077 328.71 119.813 327.664 120.656H333.168V121.872H325.472V120.832ZM334.851 116.096C334.851 114.261 335.15 112.832 335.747 111.808C336.345 110.773 337.39 110.256 338.883 110.256C340.366 110.256 341.406 110.773 342.003 111.808C342.601 112.832 342.899 114.261 342.899 116.096C342.899 117.963 342.601 119.413 342.003 120.448C341.406 121.483 340.366 122 338.883 122C337.39 122 336.345 121.483 335.747 120.448C335.15 119.413 334.851 117.963 334.851 116.096ZM341.459 116.096C341.459 115.168 341.395 114.384 341.267 113.744C341.15 113.093 340.899 112.571 340.515 112.176C340.142 111.781 339.598 111.584 338.883 111.584C338.158 111.584 337.603 111.781 337.219 112.176C336.846 112.571 336.595 113.093 336.467 113.744C336.35 114.384 336.291 115.168 336.291 116.096C336.291 117.056 336.35 117.861 336.467 118.512C336.595 119.163 336.846 119.685 337.219 120.08C337.603 120.475 338.158 120.672 338.883 120.672C339.598 120.672 340.142 120.475 340.515 120.08C340.899 119.685 341.15 119.163 341.267 118.512C341.395 117.861 341.459 117.056 341.459 116.096ZM344.722 120.832C346.077 119.744 347.138 118.853 347.906 118.16C348.674 117.456 349.32 116.725 349.842 115.968C350.376 115.2 350.642 114.448 350.642 113.712C350.642 113.019 350.472 112.475 350.13 112.08C349.8 111.675 349.261 111.472 348.514 111.472C347.789 111.472 347.224 111.701 346.818 112.16C346.424 112.608 346.21 113.211 346.178 113.968H344.77C344.813 112.773 345.176 111.851 345.858 111.2C346.541 110.549 347.421 110.224 348.498 110.224C349.597 110.224 350.466 110.528 351.106 111.136C351.757 111.744 352.082 112.581 352.082 113.648C352.082 114.533 351.816 115.397 351.282 116.24C350.76 117.072 350.162 117.808 349.49 118.448C348.818 119.077 347.96 119.813 346.914 120.656H352.418V121.872H344.722V120.832ZM353.749 119.424V118.32L359.365 110.544H361.109V118.16H362.709V119.424H361.109V122H359.669V119.424H353.749ZM359.733 112.064L355.429 118.16H359.733V112.064Z" fill="#6E7E9E"/>
<rect x="372" y="148" width="32" height="32" rx="16" fill="#C9CFDB"/>
<path fill-rule="evenodd" clip-rule="evenodd" d="M389.639 173V164.9H392.098L392.5 161.3H389.639V159.547C389.639 158.62 389.663 157.7 390.958 157.7H392.27V155.126C392.27 155.087 391.143 155 390.003 155C387.622 155 386.131 156.491 386.131 159.23V161.3H383.5V164.9H386.131V173H389.639Z" fill="white"/>
<rect x="420" y="148" width="32" height="32" rx="16" fill="#C9CFDB"/>
<g clip-path="url(#clip0_3184_20492)">
<path fill-rule="evenodd" clip-rule="evenodd" d="M444 172H440.8V166.401C440.8 164.865 440.122 164.008 438.907 164.008C437.585 164.008 436.8 164.901 436.8 166.401V172H433.6V161.6H436.8V162.77C436.8 162.77 437.804 161.008 440.066 161.008C442.33 161.008 444 162.389 444 165.246V172ZM429.954 159.937C428.874 159.937 428 159.055 428 157.968C428 156.882 428.874 156 429.954 156C431.032 156 431.906 156.882 431.906 157.968C431.907 159.055 431.032 159.937 429.954 159.937ZM428 172H432V161.6H428V172Z" fill="white"/>
</g>
<rect x="40.5" y="228.5" width="431" height="243" rx="15.5" fill="white"/>
<rect x="40.5" y="228.5" width="431" height="243" rx="15.5" stroke="#E1E4EB"/>
<path d="M70.404 257.324C70.404 257.996 70.242 258.626 69.918 259.214C69.606 259.802 69.108 260.276 68.424 260.636C67.752 260.996 66.9 261.176 65.868 261.176H63.762V266H61.242V253.436H65.868C66.84 253.436 67.668 253.604 68.352 253.94C69.036 254.276 69.546 254.738 69.882 255.326C70.23 255.914 70.404 256.58 70.404 257.324ZM65.76 259.142C66.456 259.142 66.972 258.986 67.308 258.674C67.644 258.35 67.812 257.9 67.812 257.324C67.812 256.1 67.128 255.488 65.76 255.488H63.762V259.142H65.76ZM81.4632 260.798C81.4632 261.158 81.4392 261.482 81.3912 261.77H74.1012C74.1612 262.49 74.4132 263.054 74.8572 263.462C75.3012 263.87 75.8472 264.074 76.4952 264.074C77.4312 264.074 78.0972 263.672 78.4932 262.868H81.2112C80.9232 263.828 80.3712 264.62 79.5552 265.244C78.7392 265.856 77.7372 266.162 76.5492 266.162C75.5892 266.162 74.7252 265.952 73.9572 265.532C73.2012 265.1 72.6072 264.494 72.1752 263.714C71.7552 262.934 71.5452 262.034 71.5452 261.014C71.5452 259.982 71.7552 259.076 72.1752 258.296C72.5952 257.516 73.1832 256.916 73.9392 256.496C74.6952 256.076 75.5652 255.866 76.5492 255.866C77.4972 255.866 78.3432 256.07 79.0872 256.478C79.8432 256.886 80.4252 257.468 80.8332 258.224C81.2532 258.968 81.4632 259.826 81.4632 260.798ZM78.8532 260.078C78.8412 259.43 78.6072 258.914 78.1512 258.53C77.6952 258.134 77.1372 257.936 76.4772 257.936C75.8532 257.936 75.3252 258.128 74.8932 258.512C74.4732 258.884 74.2152 259.406 74.1192 260.078H78.8532ZM85.8225 257.576C86.1465 257.048 86.5665 256.634 87.0825 256.334C87.6105 256.034 88.2105 255.884 88.8825 255.884V258.53H88.2165C87.4245 258.53 86.8245 258.716 86.4165 259.088C86.0205 259.46 85.8225 260.108 85.8225 261.032V266H83.3025V256.028H85.8225V257.576ZM94.3959 266.162C93.5799 266.162 92.8479 266.018 92.1999 265.73C91.5519 265.43 91.0359 265.028 90.6519 264.524C90.2799 264.02 90.0759 263.462 90.0399 262.85H92.5779C92.6259 263.234 92.8119 263.552 93.1359 263.804C93.4719 264.056 93.8859 264.182 94.3779 264.182C94.8579 264.182 95.2299 264.086 95.4939 263.894C95.7699 263.702 95.9079 263.456 95.9079 263.156C95.9079 262.832 95.7399 262.592 95.4039 262.436C95.0799 262.268 94.5579 262.088 93.8379 261.896C93.0939 261.716 92.4819 261.53 92.0019 261.338C91.5339 261.146 91.1259 260.852 90.7779 260.456C90.4419 260.06 90.2739 259.526 90.2739 258.854C90.2739 258.302 90.4299 257.798 90.7419 257.342C91.0659 256.886 91.5219 256.526 92.1099 256.262C92.7099 255.998 93.4119 255.866 94.2159 255.866C95.4039 255.866 96.3519 256.166 97.0599 256.766C97.7679 257.354 98.1579 258.152 98.2299 259.16H95.8179C95.7819 258.764 95.6139 258.452 95.3139 258.224C95.0259 257.984 94.6359 257.864 94.1439 257.864C93.6879 257.864 93.3339 257.948 93.0819 258.116C92.8419 258.284 92.7219 258.518 92.7219 258.818C92.7219 259.154 92.8899 259.412 93.2259 259.592C93.5619 259.76 94.0839 259.934 94.7919 260.114C95.5119 260.294 96.1059 260.48 96.5739 260.672C97.0419 260.864 97.4439 261.164 97.7799 261.572C98.1279 261.968 98.3079 262.496 98.3199 263.156C98.3199 263.732 98.1579 264.248 97.8339 264.704C97.5219 265.16 97.0659 265.52 96.4659 265.784C95.8779 266.036 95.1879 266.162 94.3959 266.162ZM104.816 266.162C103.856 266.162 102.992 265.952 102.224 265.532C101.456 265.1 100.85 264.494 100.406 263.714C99.9745 262.934 99.7585 262.034 99.7585 261.014C99.7585 259.994 99.9805 259.094 100.424 258.314C100.88 257.534 101.498 256.934 102.278 256.514C103.058 256.082 103.928 255.866 104.888 255.866C105.848 255.866 106.718 256.082 107.498 256.514C108.278 256.934 108.89 257.534 109.334 258.314C109.79 259.094 110.018 259.994 110.018 261.014C110.018 262.034 109.784 262.934 109.316 263.714C108.86 264.494 108.236 265.1 107.444 265.532C106.664 265.952 105.788 266.162 104.816 266.162ZM104.816 263.966C105.272 263.966 105.698 263.858 106.094 263.642C106.502 263.414 106.826 263.078 107.066 262.634C107.306 262.19 107.426 261.65 107.426 261.014C107.426 260.066 107.174 259.34 106.67 258.836C106.178 258.32 105.572 258.062 104.852 258.062C104.132 258.062 103.526 258.32 103.034 258.836C102.554 259.34 102.314 260.066 102.314 261.014C102.314 261.962 102.548 262.694 103.016 263.21C103.496 263.714 104.096 263.966 104.816 263.966ZM117.393 255.884C118.581 255.884 119.541 256.262 120.273 257.018C121.005 257.762 121.371 258.806 121.371 260.15V266H118.851V260.492C118.851 259.7 118.653 259.094 118.257 258.674C117.861 258.242 117.321 258.026 116.637 258.026C115.941 258.026 115.389 258.242 114.981 258.674C114.585 259.094 114.387 259.7 114.387 260.492V266H111.867V256.028H114.387V257.27C114.723 256.838 115.149 256.502 115.665 256.262C116.193 256.01 116.769 255.884 117.393 255.884ZM123.119 260.978C123.119 259.97 123.317 259.076 123.713 258.296C124.121 257.516 124.667 256.916 125.351 256.496C126.047 256.076 126.821 255.866 127.673 255.866C128.417 255.866 129.065 256.016 129.617 256.316C130.181 256.616 130.631 256.994 130.967 257.45V256.028H133.505V266H130.967V264.542C130.643 265.01 130.193 265.4 129.617 265.712C129.053 266.012 128.399 266.162 127.655 266.162C126.815 266.162 126.047 265.946 125.351 265.514C124.667 265.082 124.121 264.476 123.713 263.696C123.317 262.904 123.119 261.998 123.119 260.978ZM130.967 261.014C130.967 260.402 130.847 259.88 130.607 259.448C130.367 259.004 130.043 258.668 129.635 258.44C129.227 258.2 128.789 258.08 128.321 258.08C127.853 258.08 127.421 258.194 127.025 258.422C126.629 258.65 126.305 258.986 126.053 259.43C125.813 259.862 125.693 260.378 125.693 260.978C125.693 261.578 125.813 262.106 126.053 262.562C126.305 263.006 126.629 263.348 127.025 263.588C127.433 263.828 127.865 263.948 128.321 263.948C128.789 263.948 129.227 263.834 129.635 263.606C130.043 263.366 130.367 263.03 130.607 262.598C130.847 262.154 130.967 261.626 130.967 261.014ZM138.487 252.68V266H135.967V252.68H138.487ZM149.657 253.436C150.977 253.436 152.135 253.694 153.131 254.21C154.139 254.726 154.913 255.464 155.453 256.424C156.005 257.372 156.281 258.476 156.281 259.736C156.281 260.996 156.005 262.1 155.453 263.048C154.913 263.984 154.139 264.71 153.131 265.226C152.135 265.742 150.977 266 149.657 266H145.265V253.436H149.657ZM149.567 263.858C150.887 263.858 151.907 263.498 152.627 262.778C153.347 262.058 153.707 261.044 153.707 259.736C153.707 258.428 153.347 257.408 152.627 256.676C151.907 255.932 150.887 255.56 149.567 255.56H147.785V263.858H149.567ZM167.438 260.798C167.438 261.158 167.414 261.482 167.366 261.77H160.076C160.136 262.49 160.388 263.054 160.832 263.462C161.276 263.87 161.822 264.074 162.47 264.074C163.406 264.074 164.072 263.672 164.468 262.868H167.186C166.898 263.828 166.346 264.62 165.53 265.244C164.714 265.856 163.712 266.162 162.524 266.162C161.564 266.162 160.7 265.952 159.932 265.532C159.176 265.1 158.582 264.494 158.15 263.714C157.73 262.934 157.52 262.034 157.52 261.014C157.52 259.982 157.73 259.076 158.15 258.296C158.57 257.516 159.158 256.916 159.914 256.496C160.67 256.076 161.54 255.866 162.524 255.866C163.472 255.866 164.318 256.07 165.062 256.478C165.818 256.886 166.4 257.468 166.808 258.224C167.228 258.968 167.438 259.826 167.438 260.798ZM164.828 260.078C164.816 259.43 164.582 258.914 164.126 258.53C163.67 258.134 163.112 257.936 162.452 257.936C161.828 257.936 161.3 258.128 160.868 258.512C160.448 258.884 160.19 259.406 160.094 260.078H164.828ZM172.211 258.098V262.922C172.211 263.258 172.289 263.504 172.445 263.66C172.613 263.804 172.889 263.876 173.273 263.876H174.443V266H172.859C170.735 266 169.673 264.968 169.673 262.904V258.098H168.485V256.028H169.673V253.562H172.211V256.028H174.443V258.098H172.211ZM175.608 260.978C175.608 259.97 175.806 259.076 176.202 258.296C176.61 257.516 177.156 256.916 177.84 256.496C178.536 256.076 179.31 255.866 180.162 255.866C180.906 255.866 181.554 256.016 182.106 256.316C182.67 256.616 183.12 256.994 183.456 257.45V256.028H185.994V266H183.456V264.542C183.132 265.01 182.682 265.4 182.106 265.712C181.542 266.012 180.888 266.162 180.144 266.162C179.304 266.162 178.536 265.946 177.84 265.514C177.156 265.082 176.61 264.476 176.202 263.696C175.806 262.904 175.608 261.998 175.608 260.978ZM183.456 261.014C183.456 260.402 183.336 259.88 183.096 259.448C182.856 259.004 182.532 258.668 182.124 258.44C181.716 258.2 181.278 258.08 180.81 258.08C180.342 258.08 179.91 258.194 179.514 258.422C179.118 258.65 178.794 258.986 178.542 259.43C178.302 259.862 178.182 260.378 178.182 260.978C178.182 261.578 178.302 262.106 178.542 262.562C178.794 263.006 179.118 263.348 179.514 263.588C179.922 263.828 180.354 263.948 180.81 263.948C181.278 263.948 181.716 263.834 182.124 263.606C182.532 263.366 182.856 263.03 183.096 262.598C183.336 262.154 183.456 261.626 183.456 261.014ZM189.733 254.84C189.289 254.84 188.917 254.702 188.617 254.426C188.329 254.138 188.185 253.784 188.185 253.364C188.185 252.944 188.329 252.596 188.617 252.32C188.917 252.032 189.289 251.888 189.733 251.888C190.177 251.888 190.543 252.032 190.831 252.32C191.131 252.596 191.281 252.944 191.281 253.364C191.281 253.784 191.131 254.138 190.831 254.426C190.543 254.702 190.177 254.84 189.733 254.84ZM190.975 256.028V266H188.455V256.028H190.975ZM195.985 252.68V266H193.465V252.68H195.985ZM202.29 266.162C201.474 266.162 200.742 266.018 200.094 265.73C199.446 265.43 198.93 265.028 198.546 264.524C198.174 264.02 197.97 263.462 197.934 262.85H200.472C200.52 263.234 200.706 263.552 201.03 263.804C201.366 264.056 201.78 264.182 202.272 264.182C202.752 264.182 203.124 264.086 203.388 263.894C203.664 263.702 203.802 263.456 203.802 263.156C203.802 262.832 203.634 262.592 203.298 262.436C202.974 262.268 202.452 262.088 201.732 261.896C200.988 261.716 200.376 261.53 199.896 261.338C199.428 261.146 199.02 260.852 198.672 260.456C198.336 260.06 198.168 259.526 198.168 258.854C198.168 258.302 198.324 257.798 198.636 257.342C198.96 256.886 199.416 256.526 200.004 256.262C200.604 255.998 201.306 255.866 202.11 255.866C203.298 255.866 204.246 256.166 204.954 256.766C205.662 257.354 206.052 258.152 206.124 259.16H203.712C203.676 258.764 203.508 258.452 203.208 258.224C202.92 257.984 202.53 257.864 202.038 257.864C201.582 257.864 201.228 257.948 200.976 258.116C200.736 258.284 200.616 258.518 200.616 258.818C200.616 259.154 200.784 259.412 201.12 259.592C201.456 259.76 201.978 259.934 202.686 260.114C203.406 260.294 204 260.48 204.468 260.672C204.936 260.864 205.338 261.164 205.674 261.572C206.022 261.968 206.202 262.496 206.214 263.156C206.214 263.732 206.052 264.248 205.728 264.704C205.416 265.16 204.96 265.52 204.36 265.784C203.772 266.036 203.082 266.162 202.29 266.162Z" fill="#1A1E26"/>
<path d="M67.536 310.848V312.032H62.688V315.792H66.624V316.976H62.688V322H61.232V310.848H67.536ZM70.0465 311.808C69.7692 311.808 69.5345 311.712 69.3425 311.52C69.1505 311.328 69.0545 311.093 69.0545 310.816C69.0545 310.539 69.1505 310.304 69.3425 310.112C69.5345 309.92 69.7692 309.824 70.0465 309.824C70.3132 309.824 70.5372 309.92 70.7185 310.112C70.9105 310.304 71.0065 310.539 71.0065 310.816C71.0065 311.093 70.9105 311.328 70.7185 311.52C70.5372 311.712 70.3132 311.808 70.0465 311.808ZM70.7505 313.232V322H69.2945V313.232H70.7505ZM74.688 314.656C74.944 314.155 75.3067 313.765 75.776 313.488C76.256 313.211 76.8373 313.072 77.52 313.072V314.576H77.136C75.504 314.576 74.688 315.461 74.688 317.232V322H73.232V313.232H74.688V314.656ZM82.3048 322.144C81.6328 322.144 81.0301 322.032 80.4968 321.808C79.9634 321.573 79.5421 321.253 79.2328 320.848C78.9234 320.432 78.7528 319.957 78.7208 319.424H80.2248C80.2674 319.861 80.4701 320.219 80.8328 320.496C81.2061 320.773 81.6914 320.912 82.2888 320.912C82.8434 320.912 83.2808 320.789 83.6008 320.544C83.9208 320.299 84.0808 319.989 84.0808 319.616C84.0808 319.232 83.9101 318.949 83.5688 318.768C83.2274 318.576 82.6994 318.389 81.9848 318.208C81.3341 318.037 80.8008 317.867 80.3848 317.696C79.9794 317.515 79.6274 317.253 79.3288 316.912C79.0408 316.56 78.8968 316.101 78.8968 315.536C78.8968 315.088 79.0301 314.677 79.2968 314.304C79.5634 313.931 79.9421 313.637 80.4328 313.424C80.9234 313.2 81.4834 313.088 82.1128 313.088C83.0834 313.088 83.8674 313.333 84.4648 313.824C85.0621 314.315 85.3821 314.987 85.4248 315.84H83.9688C83.9368 315.381 83.7501 315.013 83.4088 314.736C83.0781 314.459 82.6301 314.32 82.0648 314.32C81.5421 314.32 81.1261 314.432 80.8168 314.656C80.5074 314.88 80.3528 315.173 80.3528 315.536C80.3528 315.824 80.4434 316.064 80.6248 316.256C80.8168 316.437 81.0514 316.587 81.3288 316.704C81.6168 316.811 82.0114 316.933 82.5128 317.072C83.1421 317.243 83.6541 317.413 84.0488 317.584C84.4434 317.744 84.7794 317.989 85.0568 318.32C85.3448 318.651 85.4941 319.083 85.5048 319.616C85.5048 320.096 85.3714 320.528 85.1048 320.912C84.8381 321.296 84.4594 321.6 83.9688 321.824C83.4888 322.037 82.9341 322.144 82.3048 322.144ZM89.3361 314.432V319.6C89.3361 320.027 89.4268 320.331 89.6081 320.512C89.7895 320.683 90.1041 320.768 90.5521 320.768H91.6241V322H90.3121C89.5015 322 88.8935 321.813 88.4881 321.44C88.0828 321.067 87.8801 320.453 87.8801 319.6V314.432H86.7441V313.232H87.8801V311.024H89.3361V313.232H91.6241V314.432H89.3361ZM101.926 313.072C102.993 313.072 103.857 313.397 104.518 314.048C105.179 314.688 105.51 315.616 105.51 316.832V322H104.07V317.04C104.07 316.165 103.851 315.499 103.414 315.04C102.977 314.571 102.379 314.336 101.622 314.336C100.854 314.336 100.241 314.576 99.7819 315.056C99.3339 315.536 99.1099 316.235 99.1099 317.152V322H97.6539V313.232H99.1099V314.48C99.3979 314.032 99.7872 313.685 100.278 313.44C100.779 313.195 101.329 313.072 101.926 313.072ZM107.344 317.584C107.344 316.688 107.526 315.904 107.888 315.232C108.251 314.549 108.747 314.021 109.376 313.648C110.016 313.275 110.726 313.088 111.504 313.088C112.272 313.088 112.939 313.253 113.504 313.584C114.07 313.915 114.491 314.331 114.768 314.832V313.232H116.24V322H114.768V320.368C114.48 320.88 114.048 321.307 113.472 321.648C112.907 321.979 112.246 322.144 111.488 322.144C110.71 322.144 110.006 321.952 109.376 321.568C108.747 321.184 108.251 320.645 107.888 319.952C107.526 319.259 107.344 318.469 107.344 317.584ZM114.768 317.6C114.768 316.939 114.635 316.363 114.368 315.872C114.102 315.381 113.739 315.008 113.28 314.752C112.832 314.485 112.336 314.352 111.792 314.352C111.248 314.352 110.752 314.48 110.304 314.736C109.856 314.992 109.499 315.365 109.232 315.856C108.966 316.347 108.832 316.923 108.832 317.584C108.832 318.256 108.966 318.843 109.232 319.344C109.499 319.835 109.856 320.213 110.304 320.48C110.752 320.736 111.248 320.864 111.792 320.864C112.336 320.864 112.832 320.736 113.28 320.48C113.739 320.213 114.102 319.835 114.368 319.344C114.635 318.843 114.768 318.261 114.768 317.6ZM129.245 313.072C129.927 313.072 130.535 313.216 131.069 313.504C131.602 313.781 132.023 314.203 132.333 314.768C132.642 315.333 132.797 316.021 132.797 316.832V322H131.357V317.04C131.357 316.165 131.138 315.499 130.701 315.04C130.274 314.571 129.693 314.336 128.957 314.336C128.199 314.336 127.597 314.581 127.149 315.072C126.701 315.552 126.477 316.251 126.477 317.168V322H125.037V317.04C125.037 316.165 124.818 315.499 124.381 315.04C123.954 314.571 123.373 314.336 122.637 314.336C121.879 314.336 121.277 314.581 120.829 315.072C120.381 315.552 120.157 316.251 120.157 317.168V322H118.701V313.232H120.157V314.496C120.445 314.037 120.829 313.685 121.309 313.44C121.799 313.195 122.338 313.072 122.925 313.072C123.661 313.072 124.311 313.237 124.877 313.568C125.442 313.899 125.863 314.384 126.141 315.024C126.386 314.405 126.791 313.925 127.357 313.584C127.922 313.243 128.551 313.072 129.245 313.072ZM143.185 317.28C143.185 317.557 143.169 317.851 143.137 318.16H136.129C136.182 319.024 136.476 319.701 137.009 320.192C137.553 320.672 138.209 320.912 138.977 320.912C139.606 320.912 140.129 320.768 140.545 320.48C140.972 320.181 141.27 319.787 141.441 319.296H143.009C142.774 320.139 142.305 320.827 141.601 321.36C140.897 321.883 140.022 322.144 138.977 322.144C138.145 322.144 137.398 321.957 136.737 321.584C136.086 321.211 135.574 320.683 135.201 320C134.828 319.307 134.641 318.507 134.641 317.6C134.641 316.693 134.822 315.899 135.185 315.216C135.548 314.533 136.054 314.011 136.705 313.648C137.366 313.275 138.124 313.088 138.977 313.088C139.809 313.088 140.545 313.269 141.185 313.632C141.825 313.995 142.316 314.496 142.657 315.136C143.009 315.765 143.185 316.48 143.185 317.28ZM141.681 316.976C141.681 316.421 141.558 315.947 141.313 315.552C141.068 315.147 140.732 314.843 140.305 314.64C139.889 314.427 139.425 314.32 138.913 314.32C138.177 314.32 137.548 314.555 137.025 315.024C136.513 315.493 136.22 316.144 136.145 316.976H141.681ZM145.571 322.096C145.294 322.096 145.059 322 144.867 321.808C144.675 321.616 144.579 321.381 144.579 321.104C144.579 320.827 144.675 320.592 144.867 320.4C145.059 320.208 145.294 320.112 145.571 320.112C145.838 320.112 146.062 320.208 146.243 320.4C146.435 320.592 146.531 320.827 146.531 321.104C146.531 321.381 146.435 321.616 146.243 321.808C146.062 322 145.838 322.096 145.571 322.096ZM145.571 315.248C145.294 315.248 145.059 315.152 144.867 314.96C144.675 314.768 144.579 314.533 144.579 314.256C144.579 313.979 144.675 313.744 144.867 313.552C145.059 313.36 145.294 313.264 145.571 313.264C145.838 313.264 146.062 313.36 146.243 313.552C146.435 313.744 146.531 313.979 146.531 314.256C146.531 314.533 146.435 314.768 146.243 314.96C146.062 315.152 145.838 315.248 145.571 315.248Z" fill="#6E7E9E"/>
<path d="M200.688 314.112C200.688 315.04 200.368 315.813 199.728 316.432C199.099 317.04 198.133 317.344 196.832 317.344H194.688V322H193.232V310.848H196.832C198.091 310.848 199.045 311.152 199.696 311.76C200.357 312.368 200.688 313.152 200.688 314.112ZM196.832 316.144C197.643 316.144 198.24 315.968 198.624 315.616C199.008 315.264 199.2 314.763 199.2 314.112C199.2 312.736 198.411 312.048 196.832 312.048H194.688V316.144H196.832ZM210.498 317.28C210.498 317.557 210.482 317.851 210.45 318.16H203.442C203.495 319.024 203.788 319.701 204.322 320.192C204.866 320.672 205.522 320.912 206.29 320.912C206.919 320.912 207.442 320.768 207.858 320.48C208.284 320.181 208.583 319.787 208.754 319.296H210.322C210.087 320.139 209.618 320.827 208.914 321.36C208.21 321.883 207.335 322.144 206.29 322.144C205.458 322.144 204.711 321.957 204.05 321.584C203.399 321.211 202.887 320.683 202.514 320C202.14 319.307 201.954 318.507 201.954 317.6C201.954 316.693 202.135 315.899 202.498 315.216C202.86 314.533 203.367 314.011 204.018 313.648C204.679 313.275 205.436 313.088 206.29 313.088C207.122 313.088 207.858 313.269 208.498 313.632C209.138 313.995 209.628 314.496 209.97 315.136C210.322 315.765 210.498 316.48 210.498 317.28ZM208.994 316.976C208.994 316.421 208.871 315.947 208.626 315.552C208.38 315.147 208.044 314.843 207.618 314.64C207.202 314.427 206.738 314.32 206.226 314.32C205.49 314.32 204.86 314.555 204.338 315.024C203.826 315.493 203.532 316.144 203.458 316.976H208.994ZM211.876 317.584C211.876 316.688 212.057 315.904 212.42 315.232C212.782 314.549 213.278 314.021 213.908 313.648C214.548 313.275 215.262 313.088 216.052 313.088C216.734 313.088 217.369 313.248 217.956 313.568C218.542 313.877 218.99 314.288 219.3 314.8V310.16H220.772V322H219.3V320.352C219.012 320.875 218.585 321.307 218.02 321.648C217.454 321.979 216.793 322.144 216.036 322.144C215.257 322.144 214.548 321.952 213.908 321.568C213.278 321.184 212.782 320.645 212.42 319.952C212.057 319.259 211.876 318.469 211.876 317.584ZM219.3 317.6C219.3 316.939 219.166 316.363 218.9 315.872C218.633 315.381 218.27 315.008 217.812 314.752C217.364 314.485 216.868 314.352 216.324 314.352C215.78 314.352 215.284 314.48 214.836 314.736C214.388 314.992 214.03 315.365 213.764 315.856C213.497 316.347 213.364 316.923 213.364 317.584C213.364 318.256 213.497 318.843 213.764 319.344C214.03 319.835 214.388 320.213 214.836 320.48C215.284 320.736 215.78 320.864 216.324 320.864C216.868 320.864 217.364 320.736 217.812 320.48C218.27 320.213 218.633 319.835 218.9 319.344C219.166 318.843 219.3 318.261 219.3 317.6ZM224.688 314.656C224.944 314.155 225.307 313.765 225.776 313.488C226.256 313.211 226.837 313.072 227.52 313.072V314.576H227.136C225.504 314.576 224.688 315.461 224.688 317.232V322H223.232V313.232H224.688V314.656ZM233.025 322.144C232.203 322.144 231.457 321.957 230.785 321.584C230.123 321.211 229.601 320.683 229.217 320C228.843 319.307 228.657 318.507 228.657 317.6C228.657 316.704 228.849 315.915 229.233 315.232C229.627 314.539 230.161 314.011 230.833 313.648C231.505 313.275 232.257 313.088 233.089 313.088C233.921 313.088 234.673 313.275 235.345 313.648C236.017 314.011 236.545 314.533 236.929 315.216C237.323 315.899 237.521 316.693 237.521 317.6C237.521 318.507 237.318 319.307 236.913 320C236.518 320.683 235.979 321.211 235.297 321.584C234.614 321.957 233.857 322.144 233.025 322.144ZM233.025 320.864C233.547 320.864 234.038 320.741 234.497 320.496C234.955 320.251 235.323 319.883 235.601 319.392C235.889 318.901 236.033 318.304 236.033 317.6C236.033 316.896 235.894 316.299 235.617 315.808C235.339 315.317 234.977 314.955 234.529 314.72C234.081 314.475 233.595 314.352 233.073 314.352C232.539 314.352 232.049 314.475 231.601 314.72C231.163 314.955 230.811 315.317 230.545 315.808C230.278 316.299 230.145 316.896 230.145 317.6C230.145 318.315 230.273 318.917 230.529 319.408C230.795 319.899 231.147 320.267 231.585 320.512C232.022 320.747 232.502 320.864 233.025 320.864Z" fill="#6E7E9E"/>
<line x1="60" y1="343.5" x2="452" y2="343.5" stroke="#E1E4EB"/>
<path d="M62.688 376.816H66.592V378H61.232V366.848H62.688V376.816ZM67.5943 373.584C67.5943 372.688 67.7756 371.904 68.1383 371.232C68.5009 370.549 68.9969 370.021 69.6263 369.648C70.2663 369.275 70.9756 369.088 71.7543 369.088C72.5223 369.088 73.1889 369.253 73.7543 369.584C74.3196 369.915 74.7409 370.331 75.0183 370.832V369.232H76.4903V378H75.0183V376.368C74.7303 376.88 74.2983 377.307 73.7223 377.648C73.1569 377.979 72.4956 378.144 71.7383 378.144C70.9596 378.144 70.2556 377.952 69.6263 377.568C68.9969 377.184 68.5009 376.645 68.1383 375.952C67.7756 375.259 67.5943 374.469 67.5943 373.584ZM75.0183 373.6C75.0183 372.939 74.8849 372.363 74.6183 371.872C74.3516 371.381 73.9889 371.008 73.5303 370.752C73.0823 370.485 72.5863 370.352 72.0423 370.352C71.4983 370.352 71.0023 370.48 70.5543 370.736C70.1063 370.992 69.7489 371.365 69.4823 371.856C69.2156 372.347 69.0823 372.923 69.0823 373.584C69.0823 374.256 69.2156 374.843 69.4823 375.344C69.7489 375.835 70.1063 376.213 70.5543 376.48C71.0023 376.736 71.4983 376.864 72.0423 376.864C72.5863 376.864 73.0823 376.736 73.5303 376.48C73.9889 376.213 74.3516 375.835 74.6183 375.344C74.8849 374.843 75.0183 374.261 75.0183 373.6ZM82.0548 378.144C81.3828 378.144 80.7801 378.032 80.2468 377.808C79.7134 377.573 79.2921 377.253 78.9828 376.848C78.6734 376.432 78.5028 375.957 78.4708 375.424H79.9748C80.0174 375.861 80.2201 376.219 80.5828 376.496C80.9561 376.773 81.4414 376.912 82.0388 376.912C82.5934 376.912 83.0308 376.789 83.3508 376.544C83.6708 376.299 83.8308 375.989 83.8308 375.616C83.8308 375.232 83.6601 374.949 83.3188 374.768C82.9774 374.576 82.4494 374.389 81.7348 374.208C81.0841 374.037 80.5508 373.867 80.1348 373.696C79.7294 373.515 79.3774 373.253 79.0788 372.912C78.7908 372.56 78.6468 372.101 78.6468 371.536C78.6468 371.088 78.7801 370.677 79.0468 370.304C79.3134 369.931 79.6921 369.637 80.1828 369.424C80.6734 369.2 81.2334 369.088 81.8628 369.088C82.8334 369.088 83.6174 369.333 84.2148 369.824C84.8121 370.315 85.1321 370.987 85.1748 371.84H83.7188C83.6868 371.381 83.5001 371.013 83.1588 370.736C82.8281 370.459 82.3801 370.32 81.8148 370.32C81.2921 370.32 80.8761 370.432 80.5668 370.656C80.2574 370.88 80.1028 371.173 80.1028 371.536C80.1028 371.824 80.1934 372.064 80.3748 372.256C80.5668 372.437 80.8014 372.587 81.0788 372.704C81.3668 372.811 81.7614 372.933 82.2628 373.072C82.8921 373.243 83.4041 373.413 83.7988 373.584C84.1934 373.744 84.5294 373.989 84.8068 374.32C85.0948 374.651 85.2441 375.083 85.2548 375.616C85.2548 376.096 85.1214 376.528 84.8548 376.912C84.5881 377.296 84.2094 377.6 83.7188 377.824C83.2388 378.037 82.6841 378.144 82.0548 378.144ZM89.0861 370.432V375.6C89.0861 376.027 89.1768 376.331 89.3581 376.512C89.5395 376.683 89.8541 376.768 90.3021 376.768H91.3741V378H90.0621C89.2515 378 88.6435 377.813 88.2381 377.44C87.8328 377.067 87.6301 376.453 87.6301 375.6V370.432H86.4941V369.232H87.6301V367.024H89.0861V369.232H91.3741V370.432H89.0861ZM101.676 369.072C102.743 369.072 103.607 369.397 104.268 370.048C104.929 370.688 105.26 371.616 105.26 372.832V378H103.82V373.04C103.82 372.165 103.601 371.499 103.164 371.04C102.727 370.571 102.129 370.336 101.372 370.336C100.604 370.336 99.9905 370.576 99.5319 371.056C99.0839 371.536 98.8599 372.235 98.8599 373.152V378H97.4039V369.232H98.8599V370.48C99.1479 370.032 99.5372 369.685 100.028 369.44C100.529 369.195 101.079 369.072 101.676 369.072ZM107.094 373.584C107.094 372.688 107.276 371.904 107.638 371.232C108.001 370.549 108.497 370.021 109.126 369.648C109.766 369.275 110.476 369.088 111.254 369.088C112.022 369.088 112.689 369.253 113.254 369.584C113.82 369.915 114.241 370.331 114.518 370.832V369.232H115.99V378H114.518V376.368C114.23 376.88 113.798 377.307 113.222 377.648C112.657 377.979 111.996 378.144 111.238 378.144C110.46 378.144 109.756 377.952 109.126 377.568C108.497 377.184 108.001 376.645 107.638 375.952C107.276 375.259 107.094 374.469 107.094 373.584ZM114.518 373.6C114.518 372.939 114.385 372.363 114.118 371.872C113.852 371.381 113.489 371.008 113.03 370.752C112.582 370.485 112.086 370.352 111.542 370.352C110.998 370.352 110.502 370.48 110.054 370.736C109.606 370.992 109.249 371.365 108.982 371.856C108.716 372.347 108.582 372.923 108.582 373.584C108.582 374.256 108.716 374.843 108.982 375.344C109.249 375.835 109.606 376.213 110.054 376.48C110.502 376.736 110.998 376.864 111.542 376.864C112.086 376.864 112.582 376.736 113.03 376.48C113.489 376.213 113.852 375.835 114.118 375.344C114.385 374.843 114.518 374.261 114.518 373.6ZM128.995 369.072C129.677 369.072 130.285 369.216 130.819 369.504C131.352 369.781 131.773 370.203 132.083 370.768C132.392 371.333 132.547 372.021 132.547 372.832V378H131.107V373.04C131.107 372.165 130.888 371.499 130.451 371.04C130.024 370.571 129.443 370.336 128.707 370.336C127.949 370.336 127.347 370.581 126.899 371.072C126.451 371.552 126.227 372.251 126.227 373.168V378H124.787V373.04C124.787 372.165 124.568 371.499 124.131 371.04C123.704 370.571 123.123 370.336 122.387 370.336C121.629 370.336 121.027 370.581 120.579 371.072C120.131 371.552 119.907 372.251 119.907 373.168V378H118.451V369.232H119.907V370.496C120.195 370.037 120.579 369.685 121.059 369.44C121.549 369.195 122.088 369.072 122.675 369.072C123.411 369.072 124.061 369.237 124.627 369.568C125.192 369.899 125.613 370.384 125.891 371.024C126.136 370.405 126.541 369.925 127.107 369.584C127.672 369.243 128.301 369.072 128.995 369.072ZM142.935 373.28C142.935 373.557 142.919 373.851 142.887 374.16H135.879C135.932 375.024 136.226 375.701 136.759 376.192C137.303 376.672 137.959 376.912 138.727 376.912C139.356 376.912 139.879 376.768 140.295 376.48C140.722 376.181 141.02 375.787 141.191 375.296H142.759C142.524 376.139 142.055 376.827 141.351 377.36C140.647 377.883 139.772 378.144 138.727 378.144C137.895 378.144 137.148 377.957 136.487 377.584C135.836 377.211 135.324 376.683 134.951 376C134.578 375.307 134.391 374.507 134.391 373.6C134.391 372.693 134.572 371.899 134.935 371.216C135.298 370.533 135.804 370.011 136.455 369.648C137.116 369.275 137.874 369.088 138.727 369.088C139.559 369.088 140.295 369.269 140.935 369.632C141.575 369.995 142.066 370.496 142.407 371.136C142.759 371.765 142.935 372.48 142.935 373.28ZM141.431 372.976C141.431 372.421 141.308 371.947 141.063 371.552C140.818 371.147 140.482 370.843 140.055 370.64C139.639 370.427 139.175 370.32 138.663 370.32C137.927 370.32 137.298 370.555 136.775 371.024C136.263 371.493 135.97 372.144 135.895 372.976H141.431ZM145.321 378.096C145.044 378.096 144.809 378 144.617 377.808C144.425 377.616 144.329 377.381 144.329 377.104C144.329 376.827 144.425 376.592 144.617 376.4C144.809 376.208 145.044 376.112 145.321 376.112C145.588 376.112 145.812 376.208 145.993 376.4C146.185 376.592 146.281 376.827 146.281 377.104C146.281 377.381 146.185 377.616 145.993 377.808C145.812 378 145.588 378.096 145.321 378.096ZM145.321 371.248C145.044 371.248 144.809 371.152 144.617 370.96C144.425 370.768 144.329 370.533 144.329 370.256C144.329 369.979 144.425 369.744 144.617 369.552C144.809 369.36 145.044 369.264 145.321 369.264C145.588 369.264 145.812 369.36 145.993 369.552C146.185 369.744 146.281 369.979 146.281 370.256C146.281 370.533 146.185 370.768 145.993 370.96C145.812 371.152 145.588 371.248 145.321 371.248Z" fill="#6E7E9E"/>
<path d="M200.688 370.112C200.688 371.04 200.368 371.813 199.728 372.432C199.099 373.04 198.133 373.344 196.832 373.344H194.688V378H193.232V366.848H196.832C198.091 366.848 199.045 367.152 199.696 367.76C200.357 368.368 200.688 369.152 200.688 370.112ZM196.832 372.144C197.643 372.144 198.24 371.968 198.624 371.616C199.008 371.264 199.2 370.763 199.2 370.112C199.2 368.736 198.411 368.048 196.832 368.048H194.688V372.144H196.832ZM201.954 373.584C201.954 372.688 202.135 371.904 202.498 371.232C202.86 370.549 203.356 370.021 203.986 369.648C204.626 369.275 205.335 369.088 206.114 369.088C206.882 369.088 207.548 369.253 208.114 369.584C208.679 369.915 209.1 370.331 209.378 370.832V369.232H210.85V378H209.378V376.368C209.09 376.88 208.658 377.307 208.082 377.648C207.516 377.979 206.855 378.144 206.098 378.144C205.319 378.144 204.615 377.952 203.986 377.568C203.356 377.184 202.86 376.645 202.498 375.952C202.135 375.259 201.954 374.469 201.954 373.584ZM209.378 373.6C209.378 372.939 209.244 372.363 208.978 371.872C208.711 371.381 208.348 371.008 207.89 370.752C207.442 370.485 206.946 370.352 206.402 370.352C205.858 370.352 205.362 370.48 204.914 370.736C204.466 370.992 204.108 371.365 203.842 371.856C203.575 372.347 203.442 372.923 203.442 373.584C203.442 374.256 203.575 374.843 203.842 375.344C204.108 375.835 204.466 376.213 204.914 376.48C205.362 376.736 205.858 376.864 206.402 376.864C206.946 376.864 207.442 376.736 207.89 376.48C208.348 376.213 208.711 375.835 208.978 375.344C209.244 374.843 209.378 374.261 209.378 373.6ZM216.414 378.144C215.742 378.144 215.139 378.032 214.606 377.808C214.073 377.573 213.651 377.253 213.342 376.848C213.033 376.432 212.862 375.957 212.83 375.424H214.334C214.377 375.861 214.579 376.219 214.942 376.496C215.315 376.773 215.801 376.912 216.398 376.912C216.953 376.912 217.39 376.789 217.71 376.544C218.03 376.299 218.19 375.989 218.19 375.616C218.19 375.232 218.019 374.949 217.678 374.768C217.337 374.576 216.809 374.389 216.094 374.208C215.443 374.037 214.91 373.867 214.494 373.696C214.089 373.515 213.737 373.253 213.438 372.912C213.15 372.56 213.006 372.101 213.006 371.536C213.006 371.088 213.139 370.677 213.406 370.304C213.673 369.931 214.051 369.637 214.542 369.424C215.033 369.2 215.593 369.088 216.222 369.088C217.193 369.088 217.977 369.333 218.574 369.824C219.171 370.315 219.491 370.987 219.534 371.84H218.078C218.046 371.381 217.859 371.013 217.518 370.736C217.187 370.459 216.739 370.32 216.174 370.32C215.651 370.32 215.235 370.432 214.926 370.656C214.617 370.88 214.462 371.173 214.462 371.536C214.462 371.824 214.553 372.064 214.734 372.256C214.926 372.437 215.161 372.587 215.438 372.704C215.726 372.811 216.121 372.933 216.622 373.072C217.251 373.243 217.763 373.413 218.158 373.584C218.553 373.744 218.889 373.989 219.166 374.32C219.454 374.651 219.603 375.083 219.614 375.616C219.614 376.096 219.481 376.528 219.214 376.912C218.947 377.296 218.569 377.6 218.078 377.824C217.598 378.037 217.043 378.144 216.414 378.144ZM221.126 373.6C221.126 372.693 221.307 371.904 221.67 371.232C222.032 370.549 222.534 370.021 223.174 369.648C223.824 369.275 224.566 369.088 225.398 369.088C226.475 369.088 227.36 369.349 228.054 369.872C228.758 370.395 229.222 371.12 229.446 372.048H227.878C227.728 371.515 227.435 371.093 226.998 370.784C226.571 370.475 226.038 370.32 225.398 370.32C224.566 370.32 223.894 370.608 223.382 371.184C222.87 371.749 222.614 372.555 222.614 373.6C222.614 374.656 222.87 375.472 223.382 376.048C223.894 376.624 224.566 376.912 225.398 376.912C226.038 376.912 226.571 376.763 226.998 376.464C227.424 376.165 227.718 375.739 227.878 375.184H229.446C229.211 376.08 228.742 376.8 228.038 377.344C227.334 377.877 226.454 378.144 225.398 378.144C224.566 378.144 223.824 377.957 223.174 377.584C222.534 377.211 222.032 376.683 221.67 376C221.307 375.317 221.126 374.517 221.126 373.6ZM230.844 373.584C230.844 372.688 231.026 371.904 231.388 371.232C231.751 370.549 232.247 370.021 232.876 369.648C233.516 369.275 234.226 369.088 235.004 369.088C235.772 369.088 236.439 369.253 237.004 369.584C237.57 369.915 237.991 370.331 238.268 370.832V369.232H239.74V378H238.268V376.368C237.98 376.88 237.548 377.307 236.972 377.648C236.407 377.979 235.746 378.144 234.988 378.144C234.21 378.144 233.506 377.952 232.876 377.568C232.247 377.184 231.751 376.645 231.388 375.952C231.026 375.259 230.844 374.469 230.844 373.584ZM238.268 373.6C238.268 372.939 238.135 372.363 237.868 371.872C237.602 371.381 237.239 371.008 236.78 370.752C236.332 370.485 235.836 370.352 235.292 370.352C234.748 370.352 234.252 370.48 233.804 370.736C233.356 370.992 232.999 371.365 232.732 371.856C232.466 372.347 232.332 372.923 232.332 373.584C232.332 374.256 232.466 374.843 232.732 375.344C232.999 375.835 233.356 376.213 233.804 376.48C234.252 376.736 234.748 376.864 235.292 376.864C235.836 376.864 236.332 376.736 236.78 376.48C237.239 376.213 237.602 375.835 237.868 375.344C238.135 374.843 238.268 374.261 238.268 373.6ZM243.657 366.16V378H242.201V366.16H243.657Z" fill="#6E7E9E"/>
<line x1="60" y1="399.5" x2="452" y2="399.5" stroke="#E1E4EB"/>
<rect x="64" y="424" width="100" height="8" rx="4" fill="#E1E4EB"/>
<rect x="64" y="456" width="100" height="8" rx="4" fill="#E1E4EB"/>
<rect x="196" y="424" width="160" height="8" rx="4" fill="#E1E4EB"/>
<rect x="196" y="456" width="100" height="8" rx="4" fill="#E1E4EB"/>
<defs>
<clipPath id="clip0_3184_20492">
<rect width="16" height="16" fill="white" transform="translate(428 156)"/>
</clipPath>
</defs>
</svg>
