<svg xmlns="http://www.w3.org/2000/svg" width="38" height="39">
  <g fill="none" fill-rule="evenodd">
    <path fill="#E55B10" d="M8 .050453h30v30c0 4.418278-3.581722 8-8 8H0v-30c0-4.418278 3.581722-8 8-8Z"/>
    <path fill="#FFF" d="M31 15.050453c0 .8284271-.6715729 1.5-1.5 1.5l-12-.001v12.001c0 .8284271-.6715729 1.5-1.5 1.5h-1c-.8284271 0-1.5-.6715729-1.5-1.5v-14c0-.5422357.2877138-1.0172722.7188066-1.2807747.2639212-.4315115.7389577-.7192253 1.2811934-.7192253h14c.8284271 0 1.5.6715729 1.5 1.5v1Z"/>
    <path fill="#FFF" d="M8 22.550453c0-.8284271.67157288-1.5 1.5-1.5l12 .001v-12.001c0-.82842712.6715729-1.5 1.5-1.5h1c.8284271 0 1.5.67157288 1.5 1.5v14c0 .5422357-.2877138 1.0172722-.7188066 1.2807747-.2639212.4315115-.7389577.7192253-1.2811934.7192253h-14c-.82842712 0-1.5-.6715729-1.5-1.5v-1Z"/>
  </g>
</svg>
