<svg width="20" height="20" viewBox="0 0 20 20" fill="none" xmlns="http://www.w3.org/2000/svg">
<path d="M5.62051 3.33331H14.4271C14.4271 3.33331 13.6932 14.3809 10.0238 14.3809C8.23128 14.3809 7.13929 11.7446 6.49115 9.0476C5.81252 6.22368 5.62051 3.33331 5.62051 3.33331Z" stroke="#4D5973" stroke-width="1.2" stroke-linecap="round" stroke-linejoin="round"/>
<path d="M14.4277 3.33335C14.4277 3.33335 15.1953 2.51446 15.8333 2.50001C17.0833 2.47171 17.3144 3.33335 17.3144 3.33335C17.5591 3.84129 17.7548 5.16192 16.5805 6.38097C15.4063 7.60002 14.0919 8.66668 13.557 9.04764" stroke="#4D5973" stroke-width="1.2" stroke-linecap="round" stroke-linejoin="round"/>
<path d="M5.62023 3.33336C5.62023 3.33336 4.8204 2.50513 4.1658 2.50002C2.9158 2.49026 2.68471 3.33336 2.68471 3.33336C2.44008 3.84129 2.24438 5.16193 3.41859 6.38097C4.5928 7.60002 5.95603 8.66669 6.49088 9.04764" stroke="#4D5973" stroke-width="1.2" stroke-linecap="round" stroke-linejoin="round"/>
<path d="M7.08955 16.6667C7.08955 15.1429 10.0251 14.381 10.0251 14.381C10.0251 14.381 12.9606 15.1429 12.9606 16.6667H7.08955Z" stroke="#4D5973" stroke-width="1.2" stroke-linecap="round" stroke-linejoin="round"/>
</svg>
