<svg width="18" height="17" viewBox="0 0 18 17" fill="none" xmlns="http://www.w3.org/2000/svg">
<path d="M2.49967 1.5H15.4998C16.052 1.5 16.4997 1.94764 16.4998 2.49987L16.4999 3.58569C16.5 3.85097 16.3946 4.10538 16.207 4.29295L10.9593 9.54044C10.7717 9.72797 10.6663 9.98234 10.6663 10.2476L10.6663 15.2192C10.6663 15.8698 10.055 16.3472 9.4238 16.1894L8.09047 15.856C7.6453 15.7447 7.33301 15.3448 7.33301 14.8859L7.33301 10.2475C7.33301 9.98233 7.22765 9.72798 7.04012 9.54044L1.79257 4.29289C1.60503 4.10536 1.49967 3.851 1.49967 3.58579V2.5C1.49967 1.94772 1.94739 1.5 2.49967 1.5Z" stroke="#4D5973" stroke-width="1.2" stroke-linecap="round" stroke-linejoin="round"/>
</svg>
